<?xml version="1.0" standalone="no"?>
<!DOCTYPE svg PUBLIC "-//W3C//DTD SVG 1.1//EN" "http://www.w3.org/Graphics/SVG/1.1/DTD/svg11.dtd" >
<svg xmlns="http://www.w3.org/2000/svg" xmlns:xlink="http://www.w3.org/1999/xlink" version="1.1">
<metadata>
Created by FontForge 20170731 at Sat Oct 23 16:05:29 2021
 By Aleksey,,,
Copyright (c) 2017 Commercial Type, Inc. All rights reserved.
</metadata>
<defs>
<font id="GraphikArabic-SemiBold" horiz-adv-x="1228" >
  <font-face 
    font-family="Graphik Arabic SemiBold"
    font-weight="600"
    font-stretch="normal"
    units-per-em="2048"
    panose-1="0 0 0 0 0 0 0 0 0 0"
    ascent="1638"
    descent="-410"
    x-height="1071"
    cap-height="1464"
    bbox="-487 -1038 3113 2306"
    underline-thickness="135"
    underline-position="-390"
    unicode-range="U+0020-FEFC"
  />
<missing-glyph horiz-adv-x="0" 
 />
    <glyph glyph-name="uniFC03" unicode="&#xfe8b;&#xfef0;" horiz-adv-x="1724" arabic-form="isolated" 
d="M1671 1190v-158l-452 -65v157l81 13q-54 48 -51 125q0 86 58.5 143t146.5 57q80 0 129 -49.5t55 -136.5l-104 -12q-28 43 -84 43q-37 0 -58.5 -16.5t-21.5 -45.5q0 -39 45 -63.5t107 -14.5zM1542 -106q0 -106 -92.5 -196t-263.5 -144t-383 -54q-362 0 -542.5 143
t-180.5 423q0 116 33 299h241q-28 -157 -28 -238q0 -334 503 -334q231 0 362.5 42t131.5 116q0 44 -49 77t-150 33h-227v285h291q108 0 151 38t43 128q0 142 -36 358h249q33 -208 33 -391q0 -152 -57.5 -247.5t-167.5 -127.5q139 -74 139 -210z" />
    <glyph glyph-name="uniFC04" unicode="&#xfe8b;&#xfef2;" horiz-adv-x="1724" arabic-form="isolated" 
d="M1671 1190v-158l-452 -65v157l81 13q-54 48 -51 125q0 86 58.5 143t146.5 57q80 0 129 -49.5t55 -136.5l-104 -12q-28 43 -84 43q-37 0 -58.5 -16.5t-21.5 -45.5q0 -39 45 -63.5t107 -14.5zM1542 -106q0 -106 -92.5 -196t-263.5 -144t-383 -54q-362 0 -542.5 143
t-180.5 423q0 116 33 299h241q-28 -157 -28 -238q0 -334 503 -334q231 0 362.5 42t131.5 116q0 44 -49 77t-150 33h-227v285h291q108 0 151 38t43 128q0 142 -36 358h249q33 -208 33 -391q0 -152 -57.5 -247.5t-167.5 -127.5q139 -74 139 -210zM1102 -770q0 -57 -39 -96
t-96 -39t-97.5 39t-40.5 96t40.5 97t97.5 40t96 -40t39 -97zM776 -770q0 -57 -38 -96t-95 -39t-97 39t-40 96t40 97t97 40t95 -40t38 -97z" />
    <glyph glyph-name="uniFC09" unicode="&#xfe91;&#xfef0;" horiz-adv-x="1724" arabic-form="isolated" 
d="M1542 -106q0 -106 -92.5 -196t-263.5 -144t-383 -54q-362 0 -542.5 143t-180.5 423q0 116 33 299h241q-28 -157 -28 -238q0 -334 503 -334q231 0 362.5 42t131.5 116q0 44 -49 77t-150 33h-227v285h291q108 0 151 38t43 128q0 142 -36 358h249q33 -208 33 -391
q0 -152 -57.5 -247.5t-167.5 -127.5q139 -74 139 -210zM1546 -674q0 -57 -39 -95t-96 -38t-96 38t-39 95t39 97t96 40t96 -40t39 -97z" />
    <glyph glyph-name="uniFC0A" unicode="&#xfe91;&#xfef2;" horiz-adv-x="1724" arabic-form="isolated" 
d="M1542 -106q0 -106 -92.5 -196t-263.5 -144t-383 -54q-362 0 -542.5 143t-180.5 423q0 116 33 299h241q-28 -157 -28 -238q0 -334 503 -334q231 0 362.5 42t131.5 116q0 44 -49 77t-150 33h-227v285h291q108 0 151 38t43 128q0 142 -36 358h249q33 -208 33 -391
q0 -152 -57.5 -247.5t-167.5 -127.5q139 -74 139 -210zM1546 -674q0 -57 -39 -95t-96 -38t-96 38t-39 95t39 97t96 40t96 -40t39 -97zM1102 -770q0 -57 -39 -96t-96 -39t-97.5 39t-40.5 96t40.5 97t97.5 40t96 -40t39 -97zM776 -770q0 -57 -38 -96t-95 -39t-97 39t-40 96
t40 97t97 40t95 -40t38 -97z" />
    <glyph glyph-name="uniFC0F" unicode="&#xfe97;&#xfef0;" horiz-adv-x="1724" arabic-form="isolated" 
d="M1747 1128q0 -57 -38 -96t-95 -39t-97 39t-40 96t40 96.5t97 39.5t95 -39.5t38 -96.5zM1423 1128q0 -57 -38 -96t-95 -39t-97 39t-40 96t40 96.5t97 39.5t95 -39.5t38 -96.5zM1542 -106q0 -106 -92.5 -196t-263.5 -144t-383 -54q-362 0 -542.5 143t-180.5 423
q0 116 33 299h241q-28 -157 -28 -238q0 -334 503 -334q231 0 362.5 42t131.5 116q0 44 -49 77t-150 33h-227v285h291q108 0 151 38t43 128q0 142 -36 358h249q33 -208 33 -391q0 -152 -57.5 -247.5t-167.5 -127.5q139 -74 139 -210z" />
    <glyph glyph-name="uniFC10" unicode="&#xfe97;&#xfef2;" horiz-adv-x="1724" arabic-form="isolated" 
d="M1747 1128q0 -57 -38 -96t-95 -39t-97 39t-40 96t40 96.5t97 39.5t95 -39.5t38 -96.5zM1423 1128q0 -57 -38 -96t-95 -39t-97 39t-40 96t40 96.5t97 39.5t95 -39.5t38 -96.5zM1542 -106q0 -106 -92.5 -196t-263.5 -144t-383 -54q-362 0 -542.5 143t-180.5 423
q0 116 33 299h241q-28 -157 -28 -238q0 -334 503 -334q231 0 362.5 42t131.5 116q0 44 -49 77t-150 33h-227v285h291q108 0 151 38t43 128q0 142 -36 358h249q33 -208 33 -391q0 -152 -57.5 -247.5t-167.5 -127.5q139 -74 139 -210zM1102 -770q0 -57 -39 -96t-96 -39
t-97.5 39t-40.5 96t40.5 97t97.5 40t96 -40t39 -97zM776 -770q0 -57 -38 -96t-95 -39t-97 39t-40 96t40 97t97 40t95 -40t38 -97z" />
    <glyph glyph-name="uniFC13" unicode="&#xfe9b;&#xfef0;" horiz-adv-x="1724" arabic-form="isolated" 
d="M1571 1378q0 -51 -34 -84.5t-85 -33.5t-86 33.5t-35 84.5t35 86t86 35t85 -35t34 -86zM1423 1114q0 -51 -33.5 -86t-84.5 -35t-86 35t-35 86t35 86t86 35t84.5 -35t33.5 -86zM1718 1114q0 -51 -35 -86t-86 -35t-85.5 35t-34.5 86t34.5 86t85.5 35t86 -35t35 -86z
M1542 -106q0 -106 -92.5 -196t-263.5 -144t-383 -54q-362 0 -542.5 143t-180.5 423q0 116 33 299h241q-28 -157 -28 -238q0 -334 503 -334q231 0 362.5 42t131.5 116q0 44 -49 77t-150 33h-227v285h291q108 0 151 38t43 128q0 142 -36 358h249q33 -208 33 -391
q0 -152 -57.5 -247.5t-167.5 -127.5q139 -74 139 -210z" />
    <glyph glyph-name="uniFC14" unicode="&#xfe9b;&#xfef2;" horiz-adv-x="1724" arabic-form="isolated" 
d="M1571 1378q0 -51 -34 -84.5t-85 -33.5t-86 33.5t-35 84.5t35 86t86 35t85 -35t34 -86zM1423 1114q0 -51 -33.5 -86t-84.5 -35t-86 35t-35 86t35 86t86 35t84.5 -35t33.5 -86zM1718 1114q0 -51 -35 -86t-86 -35t-85.5 35t-34.5 86t34.5 86t85.5 35t86 -35t35 -86z
M1542 -106q0 -106 -92.5 -196t-263.5 -144t-383 -54q-362 0 -542.5 143t-180.5 423q0 116 33 299h241q-28 -157 -28 -238q0 -334 503 -334q231 0 362.5 42t131.5 116q0 44 -49 77t-150 33h-227v285h291q108 0 151 38t43 128q0 142 -36 358h249q33 -208 33 -391
q0 -152 -57.5 -247.5t-167.5 -127.5q139 -74 139 -210zM1102 -770q0 -57 -39 -96t-96 -39t-97.5 39t-40.5 96t40.5 97t97.5 40t96 -40t39 -97zM776 -770q0 -57 -38 -96t-95 -39t-97 39t-40 96t40 97t97 40t95 -40t38 -97z" />
    <glyph glyph-name="uniFC31" unicode="&#xfed3;&#xfef0;" horiz-adv-x="1673" arabic-form="isolated" 
d="M1266 1509q0 -57 -39.5 -96t-96.5 -39t-96 39t-39 96t39 96.5t96 39.5t96.5 -39.5t39.5 -96.5zM1489 -119q0 -103 -85.5 -190t-244 -139t-356.5 -52q-723 0 -723 582q0 137 35 283h241q-26 -137 -26 -230q0 -342 499 -342q205 0 324 39.5t119 108.5q0 43 -51 67.5
t-148 24.5h-229v272l293 -2q141 0 199.5 39.5t70.5 146.5q-98 -36 -281 -36q-191 0 -302 92.5t-111 251.5q0 117 57.5 222t156 168.5t210.5 63.5q203 0 331.5 -183t128.5 -486q0 -219 -59.5 -336t-194.5 -158q146 -59 146 -207zM909 801q0 -133 226 -133q148 0 264 26
q-26 127 -106.5 202t-186.5 75q-89 0 -143 -49t-54 -121z" />
    <glyph glyph-name="uniFC32" unicode="&#xfed3;&#xfef2;" horiz-adv-x="1673" arabic-form="isolated" 
d="M1266 1509q0 -57 -39.5 -96t-96.5 -39t-96 39t-39 96t39 96.5t96 39.5t96.5 -39.5t39.5 -96.5zM1489 -119q0 -103 -85.5 -190t-244 -139t-356.5 -52q-723 0 -723 582q0 137 35 283h241q-26 -137 -26 -230q0 -342 499 -342q205 0 324 39.5t119 108.5q0 43 -51 67.5
t-148 24.5h-229v272l293 -2q141 0 199.5 39.5t70.5 146.5q-98 -36 -281 -36q-191 0 -302 92.5t-111 251.5q0 117 57.5 222t156 168.5t210.5 63.5q203 0 331.5 -183t128.5 -486q0 -219 -59.5 -336t-194.5 -158q146 -59 146 -207zM909 801q0 -133 226 -133q148 0 264 26
q-26 127 -106.5 202t-186.5 75q-89 0 -143 -49t-54 -121zM1071 -762q0 -57 -39 -95t-96 -38t-96 38t-39 95t39 97t96 40t96 -40t39 -97zM748 -762q0 -57 -39.5 -95t-96.5 -38t-96 38t-39 95t39 97t96 40t96.5 -40t39.5 -97z" />
    <glyph glyph-name="uniFC35" unicode="&#xfed7;&#xfef0;" horiz-adv-x="1673" arabic-form="isolated" 
d="M1434 1509q0 -57 -39.5 -96t-96.5 -39t-97 39t-40 96t40 96.5t97 39.5t96.5 -39.5t39.5 -96.5zM1110 1509q0 -57 -39 -96t-96 -39t-97 39t-40 96t40 96.5t97 39.5t96 -39.5t39 -96.5zM1489 -119q0 -103 -85.5 -190t-244 -139t-356.5 -52q-723 0 -723 582q0 137 35 283
h241q-26 -137 -26 -230q0 -342 499 -342q205 0 324 39.5t119 108.5q0 43 -51 67.5t-148 24.5h-229v272l293 -2q141 0 199.5 39.5t70.5 146.5q-98 -36 -281 -36q-191 0 -302 92.5t-111 251.5q0 117 57.5 222t156 168.5t210.5 63.5q203 0 331.5 -183t128.5 -486
q0 -219 -59.5 -336t-194.5 -158q146 -59 146 -207zM909 801q0 -133 226 -133q148 0 264 26q-26 127 -106.5 202t-186.5 75q-89 0 -143 -49t-54 -121z" />
    <glyph glyph-name="uniFC36" unicode="&#xfed7;&#xfef2;" horiz-adv-x="1673" arabic-form="isolated" 
d="M1434 1509q0 -57 -39.5 -96t-96.5 -39t-97 39t-40 96t40 96.5t97 39.5t96.5 -39.5t39.5 -96.5zM1110 1509q0 -57 -39 -96t-96 -39t-97 39t-40 96t40 96.5t97 39.5t96 -39.5t39 -96.5zM1489 -119q0 -103 -85.5 -190t-244 -139t-356.5 -52q-723 0 -723 582q0 137 35 283
h241q-26 -137 -26 -230q0 -342 499 -342q205 0 324 39.5t119 108.5q0 43 -51 67.5t-148 24.5h-229v272l293 -2q141 0 199.5 39.5t70.5 146.5q-98 -36 -281 -36q-191 0 -302 92.5t-111 251.5q0 117 57.5 222t156 168.5t210.5 63.5q203 0 331.5 -183t128.5 -486
q0 -219 -59.5 -336t-194.5 -158q146 -59 146 -207zM909 801q0 -133 226 -133q148 0 264 26q-26 127 -106.5 202t-186.5 75q-89 0 -143 -49t-54 -121zM1071 -762q0 -57 -39 -95t-96 -38t-96 38t-39 95t39 97t96 40t96 -40t39 -97zM748 -762q0 -57 -39.5 -95t-96.5 -38t-96 38
t-39 95t39 97t96 40t96.5 -40t39.5 -97z" />
    <glyph glyph-name="uniFC3D" unicode="&#xfedb;&#xfef0;" horiz-adv-x="1626" arabic-form="isolated" 
d="M1532 -84q0 -117 -91 -212t-258 -149.5t-378 -54.5q-363 0 -540 145.5t-183 436.5q-3 125 35 283h241q-26 -137 -26 -230q0 -342 499 -342q227 0 355.5 43t128.5 121q0 49 -46 76.5t-136 27.5h-246v277h274q62 0 94.5 24.5t32.5 67.5t-40 84.5t-144 103.5l-391 209v242
l913 504l-2 -281l-620 -336l188 -112q168 -89 241.5 -187.5t73.5 -224.5q0 -94 -40 -169.5t-115 -119.5q180 -64 180 -227z" />
    <glyph glyph-name="uniFC3E" unicode="&#xfedb;&#xfef2;" horiz-adv-x="1626" arabic-form="isolated" 
d="M1532 -84q0 -117 -91 -212t-258 -149.5t-378 -54.5q-363 0 -540 145.5t-183 436.5q-3 125 35 283h241q-26 -137 -26 -230q0 -342 499 -342q227 0 355.5 43t128.5 121q0 49 -46 76.5t-136 27.5h-246v277h274q62 0 94.5 24.5t32.5 67.5t-40 84.5t-144 103.5l-391 209v242
l913 504l-2 -281l-620 -336l188 -112q168 -89 241.5 -187.5t73.5 -224.5q0 -94 -40 -169.5t-115 -119.5q180 -64 180 -227zM1104 -762q0 -57 -39 -95t-96 -38t-96 38t-39 95t39 97t96 40t96 -40t39 -97zM780 -762q0 -57 -39 -95t-96 -38t-96 38t-39 95t39 97t96 40t96 -40
t39 -97z" />
    <glyph glyph-name="uniFC3F" unicode="&#xfedf;&#xfe9e;" horiz-adv-x="1331" arabic-form="isolated" 
d="M1274 -250v-299q-108 -48 -250.5 -77t-282.5 -29q-335 0 -526 153q-188 153 -188 410q0 185 108 330t316 237q-45 -1 -170 -4.5t-189 -3.5v293h348q113 0 154 47q39 48 39 197v552h260v-552q0 -159 -49 -244h442l-2 -287h-47q-190 0 -349 -25.5t-271.5 -71t-191 -108
t-116 -136t-37.5 -155.5q0 -155 129 -242t357 -87q138 0 273.5 28.5t242.5 73.5zM860 16q0 -57 -38 -96t-95 -39t-97 39t-40 96t40 96.5t97 39.5t95 -39.5t38 -96.5z" />
    <glyph glyph-name="uniFC40" unicode="&#xfedf;&#xfea2;" horiz-adv-x="1331" arabic-form="isolated" 
d="M1274 -250v-299q-108 -48 -250.5 -77t-282.5 -29q-335 0 -526 153q-188 153 -188 410q0 185 108 330t316 237q-45 -1 -170 -4.5t-189 -3.5v293h348q113 0 154 47q39 48 39 197v552h260v-552q0 -159 -49 -244h442l-2 -287h-47q-190 0 -349 -25.5t-271.5 -71t-191 -108
t-116 -136t-37.5 -155.5q0 -155 129 -242t357 -87q138 0 273.5 28.5t242.5 73.5z" />
    <glyph glyph-name="uniFC41" unicode="&#xfedf;&#xfea6;" horiz-adv-x="1331" arabic-form="isolated" 
d="M1274 -250v-299q-108 -48 -250.5 -77t-282.5 -29q-335 0 -526 153q-188 153 -188 410q0 185 108 330t316 237q-45 -1 -170 -4.5t-189 -3.5v293h348q113 0 154 47q39 48 39 197v552h260v-552q0 -159 -49 -244h442l-2 -287h-47q-190 0 -349 -25.5t-271.5 -71t-191 -108
t-116 -136t-37.5 -155.5q0 -155 129 -242t357 -87q138 0 273.5 28.5t242.5 73.5zM399 1130q0 -57 -38 -95t-95 -38t-97 38t-40 95t40 97.5t97 40.5t95 -40t38 -98z" />
    <glyph glyph-name="uniFC42" unicode="&#xfedf;&#xfee2;" horiz-adv-x="1198" arabic-form="isolated" 
d="M371 -49v-606h-262v620q0 218 100 328t287 110q74 0 143 -16q-32 42 -44.5 98t-12.5 144v923h260v-923q0 -69 10 -122t25.5 -87.5t43.5 -63t52.5 -45t64.5 -37.5l150 -79l-137 -248l-107 55q-211 117 -407 117q-89 0 -127.5 -40.5t-38.5 -127.5z" />
    <glyph glyph-name="uniFC43" unicode="&#xfedf;&#xfef0;" horiz-adv-x="1687" arabic-form="isolated" 
d="M1530 -96q0 -111 -91 -203t-258.5 -146.5t-377.5 -54.5q-723 0 -723 582q0 137 35 283h241q-26 -137 -26 -230q0 -342 499 -342q226 0 355 42t129 116q0 43 -52 76.5t-149 33.5h-227v285h196q121 0 165 39.5t44 138.5v1032h260v-1032q0 -161 -41 -257.5t-129 -139.5
q150 -64 150 -223z" />
    <glyph glyph-name="uniFC44" unicode="&#xfedf;&#xfef2;" horiz-adv-x="1687" arabic-form="isolated" 
d="M1530 -96q0 -111 -91 -203t-258.5 -146.5t-377.5 -54.5q-723 0 -723 582q0 137 35 283h241q-26 -137 -26 -230q0 -342 499 -342q226 0 355 42t129 116q0 43 -52 76.5t-149 33.5h-227v285h196q121 0 165 39.5t44 138.5v1032h260v-1032q0 -161 -41 -257.5t-129 -139.5
q150 -64 150 -223zM1118 -770q0 -57 -39 -96t-96 -39t-96 39t-39 96t39 97t96 40t96 -40t39 -97zM795 -770q0 -57 -39.5 -96t-96.5 -39t-96 39t-39 96t39 97t96 40t96.5 -40t39.5 -97z" />
    <glyph glyph-name="uniFC4F" unicode="&#xfee7;&#xfef0;" horiz-adv-x="1724" arabic-form="isolated" 
d="M1581 1128q0 -57 -39 -96t-96 -39t-97 39t-40 96t40 96.5t97 39.5t96 -39.5t39 -96.5zM1542 -106q0 -106 -92.5 -196t-263.5 -144t-383 -54q-362 0 -542.5 143t-180.5 423q0 116 33 299h241q-28 -157 -28 -238q0 -334 503 -334q231 0 362.5 42t131.5 116q0 44 -49 77
t-150 33h-227v285h291q108 0 151 38t43 128q0 142 -36 358h249q33 -208 33 -391q0 -152 -57.5 -247.5t-167.5 -127.5q139 -74 139 -210z" />
    <glyph glyph-name="uniFC50" unicode="&#xfee7;&#xfef2;" horiz-adv-x="1724" arabic-form="isolated" 
d="M1581 1128q0 -57 -39 -96t-96 -39t-97 39t-40 96t40 96.5t97 39.5t96 -39.5t39 -96.5zM1542 -106q0 -106 -92.5 -196t-263.5 -144t-383 -54q-362 0 -542.5 143t-180.5 423q0 116 33 299h241q-28 -157 -28 -238q0 -334 503 -334q231 0 362.5 42t131.5 116q0 44 -49 77
t-150 33h-227v285h291q108 0 151 38t43 128q0 142 -36 358h249q33 -208 33 -391q0 -152 -57.5 -247.5t-167.5 -127.5q139 -74 139 -210zM1102 -770q0 -57 -39 -96t-96 -39t-97.5 39t-40.5 96t40.5 97t97.5 40t96 -40t39 -97zM776 -770q0 -57 -38 -96t-95 -39t-97 39t-40 96
t40 97t97 40t95 -40t38 -97z" />
    <glyph glyph-name="uniFC53" unicode="&#xfeeb;&#xfef0;" horiz-adv-x="2545" arabic-form="isolated" 
d="M1532 -131q0 -156 -201 -262.5t-551 -106.5q-349 0 -524.5 147t-175.5 435q0 137 35 283h241q-26 -137 -26 -230q0 -168 117.5 -255t349.5 -87q259 0 387.5 35t128.5 92q0 98 -209 98h-41v267h154q70 0 172 4q-70 124 -70 248q0 114 59 207.5t154 138.5v204l338 -98
q349 -103 483 -225q137 -122 137 -334q0 -211 -132 -332t-371 -121q-219 0 -394 109q-102 -25 -180 -35q119 -67 119 -182zM1524 537q0 -130 147 -205q201 58 201 200q0 75 -52.5 127t-127.5 52q-74 0 -121 -50t-47 -124zM2062 537q0 -154 -120 -271q62 -4 96 -4
q252 0 252 162q0 72 -55.5 124t-184.5 99q12 -53 12 -110z" />
    <glyph glyph-name="uniFC54" unicode="&#xfeeb;&#xfef2;" horiz-adv-x="2545" arabic-form="isolated" 
d="M1532 -131q0 -156 -201 -262.5t-551 -106.5q-349 0 -524.5 147t-175.5 435q0 137 35 283h241q-26 -137 -26 -230q0 -168 117.5 -255t349.5 -87q259 0 387.5 35t128.5 92q0 98 -209 98h-41v267h154q70 0 172 4q-70 124 -70 248q0 114 59 207.5t154 138.5v204l338 -98
q349 -103 483 -225q137 -122 137 -334q0 -211 -132 -332t-371 -121q-219 0 -394 109q-102 -25 -180 -35q119 -67 119 -182zM1524 537q0 -130 147 -205q201 58 201 200q0 75 -52.5 127t-127.5 52q-74 0 -121 -50t-47 -124zM2062 537q0 -154 -120 -271q62 -4 96 -4
q252 0 252 162q0 72 -55.5 124t-184.5 99q12 -53 12 -110zM1102 -770q0 -57 -39 -96t-96 -39t-97.5 39t-40.5 96t40.5 97t97.5 40t96 -40t39 -97zM776 -770q0 -57 -38 -96t-95 -39t-97 39t-40 96t40 97t97 40t95 -40t38 -97z" />
    <glyph glyph-name="uniFC59" unicode="&#xfef3;&#xfef0;" horiz-adv-x="1724" arabic-form="isolated" 
d="M1542 -106q0 -106 -92.5 -196t-263.5 -144t-383 -54q-362 0 -542.5 143t-180.5 423q0 116 33 299h241q-28 -157 -28 -238q0 -334 503 -334q231 0 362.5 42t131.5 116q0 44 -49 77t-150 33h-227v285h291q108 0 151 38t43 128q0 142 -36 358h249q33 -208 33 -391
q0 -152 -57.5 -247.5t-167.5 -127.5q139 -74 139 -210zM1712 -674q0 -57 -39 -95t-96 -38t-96 38t-39 95t39 97t96 40t96 -40t39 -97zM1389 -674q0 -57 -39.5 -95t-96.5 -38t-96 38t-39 95t39 97t96 40t96.5 -40t39.5 -97z" />
    <glyph glyph-name="uniFC5A" unicode="&#xfef3;&#xfef2;" horiz-adv-x="1724" arabic-form="isolated" 
d="M1542 -106q0 -106 -92.5 -196t-263.5 -144t-383 -54q-362 0 -542.5 143t-180.5 423q0 116 33 299h241q-28 -157 -28 -238q0 -334 503 -334q231 0 362.5 42t131.5 116q0 44 -49 77t-150 33h-227v285h291q108 0 151 38t43 128q0 142 -36 358h249q33 -208 33 -391
q0 -152 -57.5 -247.5t-167.5 -127.5q139 -74 139 -210zM1712 -674q0 -57 -39 -95t-96 -38t-96 38t-39 95t39 97t96 40t96 -40t39 -97zM1389 -674q0 -57 -39.5 -95t-96.5 -38t-96 38t-39 95t39 97t96 40t96.5 -40t39.5 -97zM1102 -770q0 -57 -39 -96t-96 -39t-97.5 39
t-40.5 96t40.5 97t97.5 40t96 -40t39 -97zM776 -770q0 -57 -38 -96t-95 -39t-97 39t-40 96t40 97t97 40t95 -40t38 -97z" />
    <glyph glyph-name="uniFC64" unicode="&#xfe8c;&#xfeae;" horiz-adv-x="1296" arabic-form="final" 
d="M1112 1118v-155l-455 -66v158l82 12q-51 48 -51 125q0 86 58.5 143.5t146.5 57.5q80 0 129.5 -49.5t56.5 -137.5l-106 -14q-25 43 -82 43q-80 0 -80 -59q0 -39 44.5 -63.5t105.5 -14.5zM551 190q0 -349 -125 -514t-389 -165q-102 0 -184 12v287q100 -17 176 -17
q147 0 212.5 92.5t65.5 296.5q0 104 -16 238l-37 307l784 72l37 -330q12 -110 58 -147t163 -37v-228l-57 -57q-209 0 -297 104q-90 110 -117 379l-2 11l-291 -27l3 -21q16 -184 16 -256z" />
    <glyph glyph-name="uniFC65" unicode="&#xfe8c;&#xfeb0;" horiz-adv-x="1296" arabic-form="final" 
d="M1112 1118v-155l-455 -66v158l82 12q-51 48 -51 125q0 86 58.5 143.5t146.5 57.5q80 0 129.5 -49.5t56.5 -137.5l-106 -14q-25 43 -82 43q-80 0 -80 -59q0 -39 44.5 -63.5t105.5 -14.5zM459 1016q0 -57 -39 -95t-96 -38t-96.5 38t-39.5 95t39.5 97t96.5 40t96 -40t39 -97
zM551 190q0 -349 -125 -514t-389 -165q-102 0 -184 12v287q100 -17 176 -17q147 0 212.5 92.5t65.5 296.5q0 104 -16 238l-37 307l784 72l37 -330q12 -110 58 -147t163 -37v-228l-57 -57q-209 0 -297 104q-90 110 -117 379l-2 11l-291 -27l3 -21q16 -184 16 -256z" />
    <glyph glyph-name="uniFC67" unicode="&#xfe8c;&#xfee6;" horiz-adv-x="2074" arabic-form="final" 
d="M1942 1118v-157l-455 -66v158l82 12q-52 49 -49 125q0 86 58 143.5t146 57.5q80 0 129.5 -50t55.5 -137l-107 -12q-24 43 -82 43q-37 0 -58.5 -16t-21.5 -45q0 -39 44.5 -63.5t105.5 -14.5zM819 846q0 -57 -39 -96t-96 -39t-96 39t-39 96t39 97t96 40t96 -40t39 -97z
M1327 236q0 -301 -165 -466t-460 -165q-302 0 -461.5 141.5t-160.5 415.5q0 163 33 319h241q-28 -140 -28 -245q0 -165 99 -251.5t286 -86.5q205 0 300 78t95 253q0 76 -16 191l-37 307l762 72l38 -330q12 -110 58 -147t164 -37v-228l-60 -57q-209 0 -297 104
q-87 106 -114 379l-2 13l-291 -29l2 -21q14 -140 14 -210z" />
    <glyph glyph-name="uniFC68" unicode="&#xfe8c;&#xfef0;" horiz-adv-x="1955" arabic-form="final" 
d="M1413 1239v-158l-455 -65v158l82 12q-51 48 -51 125q1 86 60 143t147 57q79 0 127.5 -49t56.5 -137l-106 -12q-11 19 -33.5 31t-48.5 12q-37 0 -58.5 -16.5t-21.5 -45.5q0 -39 44 -63t106 -14zM1524 -2q0 -148 -99 -262.5t-269 -175t-382 -60.5q-351 0 -522.5 144
t-171.5 438q0 118 31 283h241q-26 -137 -26 -230q0 -174 118 -258t365 -84q210 0 349.5 47.5t139.5 120.5q0 42 -45 68t-149 39l-230 32q-150 20 -224.5 96.5t-74.5 198.5q0 99 53.5 195.5t139.5 168.5t198.5 116.5t225.5 44.5q180 0 297 -91q113 -88 213 -301l53 -110
q37 -80 77 -106.5t124 -26.5v-228l-60 -57q-132 0 -208 55q-78 57 -154 228l-47 102q-62 139 -145 194.5t-220 55.5q-130 0 -227.5 -51t-97.5 -121q0 -39 33 -60.5t114 -33.5l242 -35q184 -25 261 -107t77 -229z" />
    <glyph glyph-name="uniFC69" unicode="&#xfe8c;&#xfef2;" horiz-adv-x="1955" arabic-form="final" 
d="M1413 1239v-158l-455 -65v158l82 12q-51 48 -51 125q1 86 60 143t147 57q79 0 127.5 -49t56.5 -137l-106 -12q-11 19 -33.5 31t-48.5 12q-37 0 -58.5 -16.5t-21.5 -45.5q0 -39 44 -63t106 -14zM1524 -2q0 -148 -99 -262.5t-269 -175t-382 -60.5q-351 0 -522.5 144
t-171.5 438q0 118 31 283h241q-26 -137 -26 -230q0 -174 118 -258t365 -84q210 0 349.5 47.5t139.5 120.5q0 42 -45 68t-149 39l-230 32q-150 20 -224.5 96.5t-74.5 198.5q0 99 53.5 195.5t139.5 168.5t198.5 116.5t225.5 44.5q180 0 297 -91q113 -88 213 -301l53 -110
q37 -80 77 -106.5t124 -26.5v-228l-60 -57q-132 0 -208 55q-78 57 -154 228l-47 102q-62 139 -145 194.5t-220 55.5q-130 0 -227.5 -51t-97.5 -121q0 -39 33 -60.5t114 -33.5l242 -35q184 -25 261 -107t77 -229zM1071 -770q0 -57 -38 -96t-95 -39t-97 39t-40 96t40 97t97 40
t95 -40t38 -97zM748 -770q0 -57 -38.5 -96t-95.5 -39t-97 39t-40 96t40 97t97 40t95.5 -40t38.5 -97z" />
    <glyph glyph-name="uniFC6A" unicode="&#xfe92;&#xfeae;" horiz-adv-x="1296" arabic-form="final" 
d="M551 190q0 -349 -125 -514t-389 -165q-102 0 -184 12v287q100 -17 176 -17q147 0 212.5 92.5t65.5 296.5q0 104 -16 238l-37 307l784 72l37 -330q12 -110 58 -147t163 -37v-228l-57 -57q-209 0 -297 104q-90 110 -117 379l-2 11l-291 -27l3 -21q16 -184 16 -256z
M1067 -270q0 -57 -38 -96.5t-95 -39.5t-97 39.5t-40 96.5t40 96t97 39t95 -39t38 -96z" />
    <glyph glyph-name="uniFC6B" unicode="&#xfe92;&#xfeb0;" horiz-adv-x="1296" arabic-form="final" 
d="M459 1016q0 -57 -39 -95t-96 -38t-96.5 38t-39.5 95t39.5 97t96.5 40t96 -40t39 -97zM551 190q0 -349 -125 -514t-389 -165q-102 0 -184 12v287q100 -17 176 -17q147 0 212.5 92.5t65.5 296.5q0 104 -16 238l-37 307l784 72l37 -330q12 -110 58 -147t163 -37v-228
l-57 -57q-209 0 -297 104q-90 110 -117 379l-2 11l-291 -27l3 -21q16 -184 16 -256zM1067 -270q0 -57 -38 -96.5t-95 -39.5t-97 39.5t-40 96.5t40 96t97 39t95 -39t38 -96z" />
    <glyph glyph-name="uniFC6D" unicode="&#xfe92;&#xfee6;" horiz-adv-x="2074" arabic-form="final" 
d="M819 846q0 -57 -39 -96t-96 -39t-96 39t-39 96t39 97t96 40t96 -40t39 -97zM1327 236q0 -301 -165 -466t-460 -165q-302 0 -461.5 141.5t-160.5 415.5q0 163 33 319h241q-28 -140 -28 -245q0 -165 99 -251.5t286 -86.5q205 0 300 78t95 253q0 76 -16 191l-37 307l762 72
l38 -330q12 -110 58 -147t164 -37v-228l-60 -57q-209 0 -297 104q-87 106 -114 379l-2 13l-291 -29l2 -21q14 -140 14 -210zM1817 -270q0 -57 -39.5 -96.5t-96.5 -39.5t-97 39.5t-40 96.5t40 96t97 39t96.5 -39t39.5 -96z" />
    <glyph glyph-name="uniFC6E" unicode="&#xfe92;&#xfef0;" horiz-adv-x="1955" arabic-form="final" 
d="M1524 -2q0 -148 -99 -262.5t-269 -175t-382 -60.5q-351 0 -522.5 144t-171.5 438q0 118 31 283h241q-26 -137 -26 -230q0 -174 118 -258t365 -84q210 0 349.5 47.5t139.5 120.5q0 42 -45 68t-149 39l-230 32q-150 20 -224.5 96.5t-74.5 198.5q0 99 53.5 195.5
t139.5 168.5t198.5 116.5t225.5 44.5q180 0 297 -91q113 -88 213 -301l53 -110q37 -80 77 -106.5t124 -26.5v-228l-60 -57q-132 0 -208 55q-78 57 -154 228l-47 102q-62 139 -145 194.5t-220 55.5q-130 0 -227.5 -51t-97.5 -121q0 -39 33 -60.5t114 -33.5l242 -35
q184 -25 261 -107t77 -229zM1776 -547q0 -57 -39.5 -96t-96.5 -39t-96 39t-39 96t39 96t96 39t96.5 -39t39.5 -96z" />
    <glyph glyph-name="uniFC6F" unicode="&#xfe92;&#xfef2;" horiz-adv-x="1955" arabic-form="final" 
d="M1524 -2q0 -148 -99 -262.5t-269 -175t-382 -60.5q-351 0 -522.5 144t-171.5 438q0 118 31 283h241q-26 -137 -26 -230q0 -174 118 -258t365 -84q210 0 349.5 47.5t139.5 120.5q0 42 -45 68t-149 39l-230 32q-150 20 -224.5 96.5t-74.5 198.5q0 99 53.5 195.5
t139.5 168.5t198.5 116.5t225.5 44.5q180 0 297 -91q113 -88 213 -301l53 -110q37 -80 77 -106.5t124 -26.5v-228l-60 -57q-132 0 -208 55q-78 57 -154 228l-47 102q-62 139 -145 194.5t-220 55.5q-130 0 -227.5 -51t-97.5 -121q0 -39 33 -60.5t114 -33.5l242 -35
q184 -25 261 -107t77 -229zM1776 -547q0 -57 -39.5 -96t-96.5 -39t-96 39t-39 96t39 96t96 39t96.5 -39t39.5 -96zM1071 -770q0 -57 -38 -96t-95 -39t-97 39t-40 96t40 97t97 40t95 -40t38 -97zM748 -770q0 -57 -38.5 -96t-95.5 -39t-97 39t-40 96t40 97t97 40t95.5 -40
t38.5 -97z" />
    <glyph glyph-name="uniFC70" unicode="&#xfe98;&#xfeae;" horiz-adv-x="1296" arabic-form="final" 
d="M1186 1059q0 -57 -38 -96t-95 -39t-97.5 39t-40.5 96t40.5 96t97.5 39t95 -39t38 -96zM862 1059q0 -57 -38 -96t-95 -39t-97 39t-40 96t40 96t97 39t95 -39t38 -96zM551 190q0 -349 -125 -514t-389 -165q-102 0 -184 12v287q100 -17 176 -17q147 0 212.5 92.5t65.5 296.5
q0 104 -16 238l-37 307l784 72l37 -330q12 -110 58 -147t163 -37v-228l-57 -57q-209 0 -297 104q-90 110 -117 379l-2 11l-291 -27l3 -21q16 -184 16 -256z" />
    <glyph glyph-name="uniFC71" unicode="&#xfe98;&#xfeb0;" horiz-adv-x="1296" arabic-form="final" 
d="M1186 1059q0 -57 -38 -96t-95 -39t-97.5 39t-40.5 96t40.5 96t97.5 39t95 -39t38 -96zM862 1059q0 -57 -38 -96t-95 -39t-97 39t-40 96t40 96t97 39t95 -39t38 -96zM459 1016q0 -57 -39 -95t-96 -38t-96.5 38t-39.5 95t39.5 97t96.5 40t96 -40t39 -97zM551 190
q0 -349 -125 -514t-389 -165q-102 0 -184 12v287q100 -17 176 -17q147 0 212.5 92.5t65.5 296.5q0 104 -16 238l-37 307l784 72l37 -330q12 -110 58 -147t163 -37v-228l-57 -57q-209 0 -297 104q-90 110 -117 379l-2 11l-291 -27l3 -21q16 -184 16 -256z" />
    <glyph glyph-name="uniFC73" unicode="&#xfe98;&#xfee6;" horiz-adv-x="2074" arabic-form="final" 
d="M2017 1057q0 -57 -39 -96t-96 -39t-96 39t-39 96t39 96t96 39t96 -39t39 -96zM1694 1057q0 -57 -39 -96t-96 -39t-96.5 39t-39.5 96t39.5 96t96.5 39t96 -39t39 -96zM819 846q0 -57 -39 -96t-96 -39t-96 39t-39 96t39 97t96 40t96 -40t39 -97zM1327 236q0 -301 -165 -466
t-460 -165q-302 0 -461.5 141.5t-160.5 415.5q0 163 33 319h241q-28 -140 -28 -245q0 -165 99 -251.5t286 -86.5q205 0 300 78t95 253q0 76 -16 191l-37 307l762 72l38 -330q12 -110 58 -147t164 -37v-228l-60 -57q-209 0 -297 104q-87 106 -114 379l-2 13l-291 -29l2 -21
q14 -140 14 -210z" />
    <glyph glyph-name="uniFC74" unicode="&#xfe98;&#xfef0;" horiz-adv-x="1955" arabic-form="final" 
d="M1489 1178q0 -57 -39 -96.5t-96 -39.5t-96 39.5t-39 96.5t39 96t96 39t96 -39t39 -96zM1165 1178q0 -57 -39 -96.5t-96 -39.5t-97 39.5t-40 96.5t40 96t97 39t96 -39t39 -96zM1524 -2q0 -148 -99 -262.5t-269 -175t-382 -60.5q-351 0 -522.5 144t-171.5 438q0 118 31 283
h241q-26 -137 -26 -230q0 -174 118 -258t365 -84q210 0 349.5 47.5t139.5 120.5q0 42 -45 68t-149 39l-230 32q-150 20 -224.5 96.5t-74.5 198.5q0 99 53.5 195.5t139.5 168.5t198.5 116.5t225.5 44.5q180 0 297 -91q113 -88 213 -301l53 -110q37 -80 77 -106.5t124 -26.5
v-228l-60 -57q-132 0 -208 55q-78 57 -154 228l-47 102q-62 139 -145 194.5t-220 55.5q-130 0 -227.5 -51t-97.5 -121q0 -39 33 -60.5t114 -33.5l242 -35q184 -25 261 -107t77 -229z" />
    <glyph glyph-name="uniFC75" unicode="&#xfe98;&#xfef2;" horiz-adv-x="1955" arabic-form="final" 
d="M1489 1178q0 -57 -39 -96.5t-96 -39.5t-96 39.5t-39 96.5t39 96t96 39t96 -39t39 -96zM1165 1178q0 -57 -39 -96.5t-96 -39.5t-97 39.5t-40 96.5t40 96t97 39t96 -39t39 -96zM1524 -2q0 -148 -99 -262.5t-269 -175t-382 -60.5q-351 0 -522.5 144t-171.5 438q0 118 31 283
h241q-26 -137 -26 -230q0 -174 118 -258t365 -84q210 0 349.5 47.5t139.5 120.5q0 42 -45 68t-149 39l-230 32q-150 20 -224.5 96.5t-74.5 198.5q0 99 53.5 195.5t139.5 168.5t198.5 116.5t225.5 44.5q180 0 297 -91q113 -88 213 -301l53 -110q37 -80 77 -106.5t124 -26.5
v-228l-60 -57q-132 0 -208 55q-78 57 -154 228l-47 102q-62 139 -145 194.5t-220 55.5q-130 0 -227.5 -51t-97.5 -121q0 -39 33 -60.5t114 -33.5l242 -35q184 -25 261 -107t77 -229zM1071 -770q0 -57 -38 -96t-95 -39t-97 39t-40 96t40 97t97 40t95 -40t38 -97zM748 -770
q0 -57 -38.5 -96t-95.5 -39t-97 39t-40 96t40 97t97 40t95.5 -40t38.5 -97z" />
    <glyph glyph-name="uniFC76" unicode="&#xfe9c;&#xfeae;" horiz-adv-x="1296" arabic-form="final" 
d="M1010 1309q0 -51 -34 -86t-85 -35t-86 35t-35 86t35 86t86 35t85 -35t34 -86zM862 1042q0 -51 -34 -84.5t-85 -33.5t-85.5 33.5t-34.5 84.5t34.5 86t85.5 35t85 -35t34 -86zM1157 1042q0 -51 -35 -84.5t-86 -33.5t-86 33.5t-35 84.5t35 86t86 35t86 -35t35 -86zM551 190
q0 -349 -125 -514t-389 -165q-102 0 -184 12v287q100 -17 176 -17q147 0 212.5 92.5t65.5 296.5q0 104 -16 238l-37 307l784 72l37 -330q12 -110 58 -147t163 -37v-228l-57 -57q-209 0 -297 104q-90 110 -117 379l-2 11l-291 -27l3 -21q16 -184 16 -256z" />
    <glyph glyph-name="uniFC77" unicode="&#xfe9c;&#xfeb0;" horiz-adv-x="1296" arabic-form="final" 
d="M1010 1309q0 -51 -34 -86t-85 -35t-86 35t-35 86t35 86t86 35t85 -35t34 -86zM862 1042q0 -51 -34 -84.5t-85 -33.5t-85.5 33.5t-34.5 84.5t34.5 86t85.5 35t85 -35t34 -86zM1157 1042q0 -51 -35 -84.5t-86 -33.5t-86 33.5t-35 84.5t35 86t86 35t86 -35t35 -86zM459 1016
q0 -57 -39 -95t-96 -38t-96.5 38t-39.5 95t39.5 97t96.5 40t96 -40t39 -97zM551 190q0 -349 -125 -514t-389 -165q-102 0 -184 12v287q100 -17 176 -17q147 0 212.5 92.5t65.5 296.5q0 104 -16 238l-37 307l784 72l37 -330q12 -110 58 -147t163 -37v-228l-57 -57
q-209 0 -297 104q-90 110 -117 379l-2 11l-291 -27l3 -21q16 -184 16 -256z" />
    <glyph glyph-name="uniFC79" unicode="&#xfe9c;&#xfee6;" horiz-adv-x="2074" arabic-form="final" 
d="M1841 1307q0 -51 -35 -85t-86 -34t-84.5 34t-33.5 85t33.5 85.5t84.5 34.5t86 -34.5t35 -85.5zM1694 1042q0 -51 -35 -85.5t-86 -34.5t-86 34.5t-35 85.5t35 86t86 35t86 -35t35 -86zM1987 1042q0 -51 -34 -85.5t-85 -34.5t-86 34.5t-35 85.5t35 86t86 35t85 -35t34 -86z
M819 846q0 -57 -39 -96t-96 -39t-96 39t-39 96t39 97t96 40t96 -40t39 -97zM1327 236q0 -301 -165 -466t-460 -165q-302 0 -461.5 141.5t-160.5 415.5q0 163 33 319h241q-28 -140 -28 -245q0 -165 99 -251.5t286 -86.5q205 0 300 78t95 253q0 76 -16 191l-37 307l762 72
l38 -330q12 -110 58 -147t164 -37v-228l-60 -57q-209 0 -297 104q-87 106 -114 379l-2 13l-291 -29l2 -21q14 -140 14 -210z" />
    <glyph glyph-name="uniFC7A" unicode="&#xfe9c;&#xfef0;" horiz-adv-x="1955" arabic-form="final" 
d="M1313 1427q0 -51 -35 -84.5t-86 -33.5t-86 33.5t-35 84.5t35 86t86 35t86 -35t35 -86zM1165 1163q0 -51 -35 -86t-86 -35t-85.5 35t-34.5 86t34.5 85t85.5 34t86 -34t35 -85zM1458 1163q0 -51 -34 -86t-85 -35t-85.5 35t-34.5 86t34.5 85t85.5 34t85 -34t34 -85zM1524 -2
q0 -148 -99 -262.5t-269 -175t-382 -60.5q-351 0 -522.5 144t-171.5 438q0 118 31 283h241q-26 -137 -26 -230q0 -174 118 -258t365 -84q210 0 349.5 47.5t139.5 120.5q0 42 -45 68t-149 39l-230 32q-150 20 -224.5 96.5t-74.5 198.5q0 99 53.5 195.5t139.5 168.5
t198.5 116.5t225.5 44.5q180 0 297 -91q113 -88 213 -301l53 -110q37 -80 77 -106.5t124 -26.5v-228l-60 -57q-132 0 -208 55q-78 57 -154 228l-47 102q-62 139 -145 194.5t-220 55.5q-130 0 -227.5 -51t-97.5 -121q0 -39 33 -60.5t114 -33.5l242 -35q184 -25 261 -107
t77 -229z" />
    <glyph glyph-name="uniFC7B" unicode="&#xfe9c;&#xfef2;" horiz-adv-x="1955" arabic-form="final" 
d="M1313 1427q0 -51 -35 -84.5t-86 -33.5t-86 33.5t-35 84.5t35 86t86 35t86 -35t35 -86zM1165 1163q0 -51 -35 -86t-86 -35t-85.5 35t-34.5 86t34.5 85t85.5 34t86 -34t35 -85zM1458 1163q0 -51 -34 -86t-85 -35t-85.5 35t-34.5 86t34.5 85t85.5 34t85 -34t34 -85zM1524 -2
q0 -148 -99 -262.5t-269 -175t-382 -60.5q-351 0 -522.5 144t-171.5 438q0 118 31 283h241q-26 -137 -26 -230q0 -174 118 -258t365 -84q210 0 349.5 47.5t139.5 120.5q0 42 -45 68t-149 39l-230 32q-150 20 -224.5 96.5t-74.5 198.5q0 99 53.5 195.5t139.5 168.5
t198.5 116.5t225.5 44.5q180 0 297 -91q113 -88 213 -301l53 -110q37 -80 77 -106.5t124 -26.5v-228l-60 -57q-132 0 -208 55q-78 57 -154 228l-47 102q-62 139 -145 194.5t-220 55.5q-130 0 -227.5 -51t-97.5 -121q0 -39 33 -60.5t114 -33.5l242 -35q184 -25 261 -107
t77 -229zM1071 -770q0 -57 -38 -96t-95 -39t-97 39t-40 96t40 97t97 40t95 -40t38 -97zM748 -770q0 -57 -38.5 -96t-95.5 -39t-97 39t-40 96t40 97t97 40t95.5 -40t38.5 -97z" />
    <glyph glyph-name="uniFC83" unicode="&#xfedc;&#xfef0;" horiz-adv-x="2035" arabic-form="final" 
d="M1532 -84q0 -117 -91 -212t-258 -149.5t-378 -54.5q-363 0 -540 145.5t-183 436.5q-3 125 35 283h241q-26 -137 -26 -230q0 -342 499 -342q227 0 355.5 43t128.5 121q0 49 -46 76.5t-136 27.5h-228v285h379q74 0 114 24.5t40 69.5q0 28 -14 58.5t-54 89.5l-201 303v233
l912 504l-2 -276l-656 -365l312 -457q103 -146 157 -194q57 -51 146 -51v-228l-58 -57q-104 0 -186 55q-76 53 -180 197l-41 61q-7 -68 -46.5 -118.5t-103.5 -77.5q51 -32 80 -85t29 -116z" />
    <glyph glyph-name="uniFC84" unicode="&#xfedc;&#xfef2;" horiz-adv-x="2035" arabic-form="final" 
d="M1532 -84q0 -117 -91 -212t-258 -149.5t-378 -54.5q-363 0 -540 145.5t-183 436.5q-3 125 35 283h241q-26 -137 -26 -230q0 -342 499 -342q227 0 355.5 43t128.5 121q0 49 -46 76.5t-136 27.5h-228v285h379q74 0 114 24.5t40 69.5q0 28 -14 58.5t-54 89.5l-201 303v233
l912 504l-2 -276l-656 -365l312 -457q103 -146 157 -194q57 -51 146 -51v-228l-58 -57q-104 0 -186 55q-76 53 -180 197l-41 61q-7 -68 -46.5 -118.5t-103.5 -77.5q51 -32 80 -85t29 -116zM1104 -762q0 -57 -39 -95t-96 -38t-96 38t-39 95t39 97t96 40t96 -40t39 -97z
M780 -762q0 -57 -39 -95t-96 -38t-96 38t-39 95t39 97t96 40t96 -40t39 -97z" />
    <glyph glyph-name="uniFC86" unicode="&#xfee0;&#xfef0;" horiz-adv-x="1992" arabic-form="final" 
d="M1530 -98q0 -83 -48.5 -156t-139 -128t-229.5 -86.5t-310 -31.5q-723 0 -723 582q0 137 35 283h241q-26 -137 -26 -230q0 -342 499 -342q226 0 355 42t129 116q0 43 -52 76.5t-149 33.5h-227v285h442q107 0 160 52t53 167v991h260v-1052q0 -131 41 -175t152 -44v-228
l-58 -57q-329 0 -350 283q-41 -127 -174 -177q119 -67 119 -204z" />
    <glyph glyph-name="uniFC87" unicode="&#xfee0;&#xfef2;" horiz-adv-x="1992" arabic-form="final" 
d="M1530 -98q0 -83 -48.5 -156t-139 -128t-229.5 -86.5t-310 -31.5q-723 0 -723 582q0 137 35 283h241q-26 -137 -26 -230q0 -342 499 -342q226 0 355 42t129 116q0 43 -52 76.5t-149 33.5h-227v285h442q107 0 160 52t53 167v991h260v-1052q0 -131 41 -175t152 -44v-228
l-58 -57q-329 0 -350 283q-41 -127 -174 -177q119 -67 119 -204zM1102 -770q0 -57 -39 -96t-96 -39t-97.5 39t-40.5 96t40.5 97t97.5 40t96 -40t39 -97zM776 -770q0 -57 -38 -96t-95 -39t-97 39t-40 96t40 97t97 40t95 -40t38 -97z" />
    <glyph glyph-name="uniFC8A" unicode="&#xfee8;&#xfeae;" horiz-adv-x="1296" arabic-form="final" 
d="M1020 1059q0 -57 -39 -96t-96 -39t-96 39t-39 96t39 96t96 39t96 -39t39 -96zM551 190q0 -349 -125 -514t-389 -165q-102 0 -184 12v287q100 -17 176 -17q147 0 212.5 92.5t65.5 296.5q0 104 -16 238l-37 307l784 72l37 -330q12 -110 58 -147t163 -37v-228l-57 -57
q-209 0 -297 104q-90 110 -117 379l-2 11l-291 -27l3 -21q16 -184 16 -256z" />
    <glyph glyph-name="uniFC8B" unicode="&#xfee8;&#xfeb0;" horiz-adv-x="1296" arabic-form="final" 
d="M1020 1059q0 -57 -39 -96t-96 -39t-96 39t-39 96t39 96t96 39t96 -39t39 -96zM459 1016q0 -57 -39 -95t-96 -38t-96.5 38t-39.5 95t39.5 97t96.5 40t96 -40t39 -97zM551 190q0 -349 -125 -514t-389 -165q-102 0 -184 12v287q100 -17 176 -17q147 0 212.5 92.5t65.5 296.5
q0 104 -16 238l-37 307l784 72l37 -330q12 -110 58 -147t163 -37v-228l-57 -57q-209 0 -297 104q-90 110 -117 379l-2 11l-291 -27l3 -21q16 -184 16 -256z" />
    <glyph glyph-name="uniFC8D" unicode="&#xfee8;&#xfee6;" horiz-adv-x="2074" arabic-form="final" 
d="M1851 1057q0 -57 -39 -96t-96 -39t-97 39t-40 96t40 96t97 39t96 -39t39 -96zM819 846q0 -57 -39 -96t-96 -39t-96 39t-39 96t39 97t96 40t96 -40t39 -97zM1327 236q0 -301 -165 -466t-460 -165q-302 0 -461.5 141.5t-160.5 415.5q0 163 33 319h241q-28 -140 -28 -245
q0 -165 99 -251.5t286 -86.5q205 0 300 78t95 253q0 76 -16 191l-37 307l762 72l38 -330q12 -110 58 -147t164 -37v-228l-60 -57q-209 0 -297 104q-87 106 -114 379l-2 13l-291 -29l2 -21q14 -140 14 -210z" />
    <glyph glyph-name="uniFC8E" unicode="&#xfee8;&#xfef0;" horiz-adv-x="1955" arabic-form="final" 
d="M1321 1178q0 -57 -38 -96.5t-95 -39.5t-97 39.5t-40 96.5t40 96t97 39t95 -39t38 -96zM1524 -2q0 -148 -99 -262.5t-269 -175t-382 -60.5q-351 0 -522.5 144t-171.5 438q0 118 31 283h241q-26 -137 -26 -230q0 -174 118 -258t365 -84q210 0 349.5 47.5t139.5 120.5
q0 42 -45 68t-149 39l-230 32q-150 20 -224.5 96.5t-74.5 198.5q0 99 53.5 195.5t139.5 168.5t198.5 116.5t225.5 44.5q180 0 297 -91q113 -88 213 -301l53 -110q37 -80 77 -106.5t124 -26.5v-228l-60 -57q-132 0 -208 55q-78 57 -154 228l-47 102q-62 139 -145 194.5
t-220 55.5q-130 0 -227.5 -51t-97.5 -121q0 -39 33 -60.5t114 -33.5l242 -35q184 -25 261 -107t77 -229z" />
    <glyph glyph-name="uniFC8F" unicode="&#xfee8;&#xfef2;" horiz-adv-x="1955" arabic-form="final" 
d="M1321 1178q0 -57 -38 -96.5t-95 -39.5t-97 39.5t-40 96.5t40 96t97 39t95 -39t38 -96zM1524 -2q0 -148 -99 -262.5t-269 -175t-382 -60.5q-351 0 -522.5 144t-171.5 438q0 118 31 283h241q-26 -137 -26 -230q0 -174 118 -258t365 -84q210 0 349.5 47.5t139.5 120.5
q0 42 -45 68t-149 39l-230 32q-150 20 -224.5 96.5t-74.5 198.5q0 99 53.5 195.5t139.5 168.5t198.5 116.5t225.5 44.5q180 0 297 -91q113 -88 213 -301l53 -110q37 -80 77 -106.5t124 -26.5v-228l-60 -57q-132 0 -208 55q-78 57 -154 228l-47 102q-62 139 -145 194.5
t-220 55.5q-130 0 -227.5 -51t-97.5 -121q0 -39 33 -60.5t114 -33.5l242 -35q184 -25 261 -107t77 -229zM1071 -770q0 -57 -38 -96t-95 -39t-97 39t-40 96t40 97t97 40t95 -40t38 -97zM748 -770q0 -57 -38.5 -96t-95.5 -39t-97 39t-40 96t40 97t97 40t95.5 -40t38.5 -97z
" />
    <glyph glyph-name="uniFC91" unicode="&#xfef4;&#xfeae;" horiz-adv-x="1296" arabic-form="final" 
d="M551 190q0 -349 -125 -514t-389 -165q-102 0 -184 12v287q100 -17 176 -17q147 0 212.5 92.5t65.5 296.5q0 104 -16 238l-37 307l784 72l37 -330q12 -110 58 -147t163 -37v-228l-57 -57q-209 0 -297 104q-90 110 -117 379l-2 11l-291 -27l3 -21q16 -184 16 -256z
M1204 -285q0 -51 -35 -86t-86 -35t-85.5 35t-34.5 86t34.5 86t85.5 35t86 -35t35 -86zM909 -285q0 -51 -33.5 -86t-84.5 -35t-86 35t-35 86t35 86t86 35t84.5 -35t33.5 -86z" />
    <glyph glyph-name="uniFC92" unicode="&#xfef4;&#xfeb0;" horiz-adv-x="1296" arabic-form="final" 
d="M459 1016q0 -57 -39 -95t-96 -38t-96.5 38t-39.5 95t39.5 97t96.5 40t96 -40t39 -97zM551 190q0 -349 -125 -514t-389 -165q-102 0 -184 12v287q100 -17 176 -17q147 0 212.5 92.5t65.5 296.5q0 104 -16 238l-37 307l784 72l37 -330q12 -110 58 -147t163 -37v-228
l-57 -57q-209 0 -297 104q-90 110 -117 379l-2 11l-291 -27l3 -21q16 -184 16 -256zM1202 -248q0 -51 -35 -85t-86 -34t-85.5 34t-34.5 85t34.5 86t85.5 35t86 -35t35 -86zM911 -248q0 -51 -33.5 -85t-84.5 -34t-86 34t-35 85t35 86t86 35t84.5 -35t33.5 -86z" />
    <glyph glyph-name="uniFC94" unicode="&#xfef4;&#xfee6;" horiz-adv-x="2074" arabic-form="final" 
d="M819 846q0 -57 -39 -96t-96 -39t-96 39t-39 96t39 97t96 40t96 -40t39 -97zM1327 236q0 -301 -165 -466t-460 -165q-302 0 -461.5 141.5t-160.5 415.5q0 163 33 319h241q-28 -140 -28 -245q0 -165 99 -251.5t286 -86.5q205 0 300 78t95 253q0 76 -16 191l-37 307l762 72
l38 -330q12 -110 58 -147t164 -37v-228l-60 -57q-209 0 -297 104q-87 106 -114 379l-2 13l-291 -29l2 -21q14 -140 14 -210zM1952 -285q0 -51 -35 -86t-86 -35t-86 35t-35 86t35 86t86 35t86 -35t35 -86zM1659 -285q0 -51 -35 -86t-86 -35t-86 35t-35 86t35 86t86 35t86 -35
t35 -86z" />
    <glyph glyph-name="uniFC95" unicode="&#xfef4;&#xfef0;" horiz-adv-x="1955" arabic-form="final" 
d="M1524 -2q0 -148 -99 -262.5t-269 -175t-382 -60.5q-351 0 -522.5 144t-171.5 438q0 118 31 283h241q-26 -137 -26 -230q0 -174 118 -258t365 -84q210 0 349.5 47.5t139.5 120.5q0 42 -45 68t-149 39l-230 32q-150 20 -224.5 96.5t-74.5 198.5q0 99 53.5 195.5
t139.5 168.5t198.5 116.5t225.5 44.5q180 0 297 -91q113 -88 213 -301l53 -110q37 -80 77 -106.5t124 -26.5v-228l-60 -57q-132 0 -208 55q-78 57 -154 228l-47 102q-62 139 -145 194.5t-220 55.5q-130 0 -227.5 -51t-97.5 -121q0 -39 33 -60.5t114 -33.5l242 -35
q184 -25 261 -107t77 -229zM1942 -547q0 -57 -39.5 -96t-96.5 -39t-96 39t-39 96t39 96t96 39t96.5 -39t39.5 -96zM1618 -547q0 -57 -39 -96t-96 -39t-96 39t-39 96t39 96t96 39t96 -39t39 -96z" />
    <glyph glyph-name="uniFC96" unicode="&#xfef4;&#xfef2;" horiz-adv-x="1955" arabic-form="final" 
d="M1524 -2q0 -148 -99 -262.5t-269 -175t-382 -60.5q-351 0 -522.5 144t-171.5 438q0 118 31 283h241q-26 -137 -26 -230q0 -174 118 -258t365 -84q210 0 349.5 47.5t139.5 120.5q0 42 -45 68t-149 39l-230 32q-150 20 -224.5 96.5t-74.5 198.5q0 99 53.5 195.5
t139.5 168.5t198.5 116.5t225.5 44.5q180 0 297 -91q113 -88 213 -301l53 -110q37 -80 77 -106.5t124 -26.5v-228l-60 -57q-132 0 -208 55q-78 57 -154 228l-47 102q-62 139 -145 194.5t-220 55.5q-130 0 -227.5 -51t-97.5 -121q0 -39 33 -60.5t114 -33.5l242 -35
q184 -25 261 -107t77 -229zM1942 -547q0 -57 -39.5 -96t-96.5 -39t-96 39t-39 96t39 96t96 39t96.5 -39t39.5 -96zM1618 -547q0 -57 -39 -96t-96 -39t-96 39t-39 96t39 96t96 39t96 -39t39 -96zM1071 -770q0 -57 -38 -96t-95 -39t-97 39t-40 96t40 97t97 40t95 -40t38 -97z
M748 -770q0 -57 -38.5 -96t-95.5 -39t-97 39t-40 96t40 97t97 40t95.5 -40t38.5 -97z" />
    <glyph glyph-name="uniFCC9" unicode="&#xfedf;&#xfea0;" horiz-adv-x="1376" arabic-form="initial" 
d="M166 0h-223v229l57 56h174q151 0 250.5 16t245.5 61l135 48q116 38 149 45l-151 22l-185 35q-82 15 -167 18q-96 7 -232 7h-133v262h219q169 0 227 49t58 194v514h260v-514q0 -124 -32 -200.5t-103 -118.5l127 -25q265 -47 440 -47h55v-262h-65q-88 0 -169.5 -30
t-236.5 -119l-147 -80q-169 -95 -280.5 -127.5t-272.5 -32.5zM807 -270q0 -57 -39 -96.5t-96 -39.5t-97 39.5t-40 96.5t40 96t97 39t96 -39t39 -96z" />
    <glyph glyph-name="uniFCCA" unicode="&#xfedf;&#xfea4;" horiz-adv-x="1376" arabic-form="initial" 
d="M166 0h-223v229l57 56h174q151 0 250.5 16t245.5 61l135 48q116 38 149 45l-151 22l-185 35q-82 15 -167 18q-96 7 -232 7h-133v262h219q169 0 227 49t58 194v514h260v-514q0 -124 -32 -200.5t-103 -118.5l127 -25q265 -47 440 -47h55v-262h-65q-88 0 -169.5 -30
t-236.5 -119l-147 -80q-169 -95 -280.5 -127.5t-272.5 -32.5z" />
    <glyph glyph-name="uniFCCB" unicode="&#xfedf;&#xfea8;" horiz-adv-x="1376" arabic-form="initial" 
d="M166 0h-223v229l57 56h174q151 0 250.5 16t245.5 61l135 48q116 38 149 45l-151 22l-185 35q-82 15 -167 18q-96 7 -232 7h-133v262h219q169 0 227 49t58 194v514h260v-514q0 -124 -32 -200.5t-103 -118.5l127 -25q265 -47 440 -47h55v-262h-65q-88 0 -169.5 -30
t-236.5 -119l-147 -80q-169 -95 -280.5 -127.5t-272.5 -32.5zM356 1135q0 -57 -39 -96.5t-96 -39.5t-97 39.5t-40 96.5t40 96t97 39t96 -39t39 -96z" />
    <glyph glyph-name="uniFCCD" unicode="&#xfedf;&#xfeec;" horiz-adv-x="1288" arabic-form="initial" 
d="M1233 430q0 -211 -133 -332t-371 -121q-199 0 -356 80q-200 -57 -430 -57v229l57 56q88 0 127 2q-66 117 -66 250q0 159 105.5 270t261.5 111h21v638h260v-595q290 -98 407 -218t117 -313zM264 537q0 -63 39.5 -116.5t114.5 -90.5q196 56 196 207q0 74 -52.5 124
t-133.5 50q-71 0 -117.5 -50t-46.5 -124zM805 537q0 -149 -96 -273q23 -2 71 -2q250 0 250 162q0 72 -54 122.5t-183 100.5q12 -53 12 -110z" />
    <glyph glyph-name="uniFCFB" unicode="&#xfeb3;&#xfef0;" horiz-adv-x="2990" arabic-form="isolated" 
d="M1524 -2q0 -148 -99 -262.5t-269 -175t-382 -60.5q-351 0 -522.5 144t-171.5 438q0 118 31 283h241q-26 -137 -26 -230q0 -174 118 -258t365 -84q210 0 349.5 47.5t139.5 120.5q0 42 -45 68t-149 39l-230 32q-150 20 -224.5 96.5t-74.5 198.5q0 99 53.5 195.5
t139.5 168.5t198.5 116.5t225.5 44.5q182 0 297 -89q119 -92 211 -290l53 -111q43 -97 84 -129.5t121 -32.5q184 0 184 240v76h246v-105q0 -104 38.5 -157.5t98.5 -53.5q135 0 135 183q0 88 -30 276h256q20 -149 20 -285q0 -228 -101.5 -346.5t-283.5 -118.5q-119 0 -206 61
t-111 165q-19 -110 -91.5 -168t-191.5 -58q-141 0 -225 66t-166 252l-45 102q-61 130 -144 184t-219 54q-130 0 -227.5 -51t-97.5 -121q0 -38 33 -59.5t114 -34.5l242 -35q184 -25 261 -107t77 -229z" />
    <glyph glyph-name="uniFCFC" unicode="&#xfeb3;&#xfef2;" horiz-adv-x="2990" arabic-form="isolated" 
d="M1524 -2q0 -148 -99 -262.5t-269 -175t-382 -60.5q-351 0 -522.5 144t-171.5 438q0 118 31 283h241q-26 -137 -26 -230q0 -174 118 -258t365 -84q210 0 349.5 47.5t139.5 120.5q0 42 -45 68t-149 39l-230 32q-150 20 -224.5 96.5t-74.5 198.5q0 99 53.5 195.5
t139.5 168.5t198.5 116.5t225.5 44.5q182 0 297 -89q119 -92 211 -290l53 -111q43 -97 84 -129.5t121 -32.5q184 0 184 240v76h246v-105q0 -104 38.5 -157.5t98.5 -53.5q135 0 135 183q0 88 -30 276h256q20 -149 20 -285q0 -228 -101.5 -346.5t-283.5 -118.5q-119 0 -206 61
t-111 165q-19 -110 -91.5 -168t-191.5 -58q-141 0 -225 66t-166 252l-45 102q-61 130 -144 184t-219 54q-130 0 -227.5 -51t-97.5 -121q0 -38 33 -59.5t114 -34.5l242 -35q184 -25 261 -107t77 -229zM1071 -770q0 -57 -38 -96t-95 -39t-97 39t-40 96t40 97t97 40t95 -40
t38 -97zM748 -770q0 -57 -38.5 -96t-95.5 -39t-97 39t-40 96t40 97t97 40t95.5 -40t38.5 -97z" />
    <glyph glyph-name="uniFCFD" unicode="&#xfeb7;&#xfef0;" horiz-adv-x="2990" arabic-form="isolated" 
d="M2347 1116q0 -51 -34 -86t-85 -35t-86 35t-35 86t35 86t86 35t85 -35t34 -86zM2200 850q0 -51 -34 -85t-85 -34t-86 34t-35 85t35 86t86 35t85 -35t34 -86zM2494 850q0 -51 -34.5 -85t-85.5 -34t-86 34t-35 85t35 86t86 35t85.5 -35t34.5 -86zM1524 -2q0 -148 -99 -262.5
t-269 -175t-382 -60.5q-351 0 -522.5 144t-171.5 438q0 118 31 283h241q-26 -137 -26 -230q0 -174 118 -258t365 -84q210 0 349.5 47.5t139.5 120.5q0 42 -45 68t-149 39l-230 32q-150 20 -224.5 96.5t-74.5 198.5q0 99 53.5 195.5t139.5 168.5t198.5 116.5t225.5 44.5
q182 0 297 -89q119 -92 211 -290l53 -111q43 -97 84 -129.5t121 -32.5q184 0 184 240v76h246v-105q0 -104 38.5 -157.5t98.5 -53.5q135 0 135 183q0 88 -30 276h256q20 -149 20 -285q0 -228 -101.5 -346.5t-283.5 -118.5q-119 0 -206 61t-111 165q-19 -110 -91.5 -168
t-191.5 -58q-141 0 -225 66t-166 252l-45 102q-61 130 -144 184t-219 54q-130 0 -227.5 -51t-97.5 -121q0 -38 33 -59.5t114 -34.5l242 -35q184 -25 261 -107t77 -229z" />
    <glyph glyph-name="uniFCFE" unicode="&#xfeb7;&#xfef2;" horiz-adv-x="2990" arabic-form="isolated" 
d="M2347 1116q0 -51 -34 -86t-85 -35t-86 35t-35 86t35 86t86 35t85 -35t34 -86zM2200 850q0 -51 -34 -85t-85 -34t-86 34t-35 85t35 86t86 35t85 -35t34 -86zM2494 850q0 -51 -34.5 -85t-85.5 -34t-86 34t-35 85t35 86t86 35t85.5 -35t34.5 -86zM1524 -2q0 -148 -99 -262.5
t-269 -175t-382 -60.5q-351 0 -522.5 144t-171.5 438q0 118 31 283h241q-26 -137 -26 -230q0 -174 118 -258t365 -84q210 0 349.5 47.5t139.5 120.5q0 42 -45 68t-149 39l-230 32q-150 20 -224.5 96.5t-74.5 198.5q0 99 53.5 195.5t139.5 168.5t198.5 116.5t225.5 44.5
q182 0 297 -89q119 -92 211 -290l53 -111q43 -97 84 -129.5t121 -32.5q184 0 184 240v76h246v-105q0 -104 38.5 -157.5t98.5 -53.5q135 0 135 183q0 88 -30 276h256q20 -149 20 -285q0 -228 -101.5 -346.5t-283.5 -118.5q-119 0 -206 61t-111 165q-19 -110 -91.5 -168
t-191.5 -58q-141 0 -225 66t-166 252l-45 102q-61 130 -144 184t-219 54q-130 0 -227.5 -51t-97.5 -121q0 -38 33 -59.5t114 -34.5l242 -35q184 -25 261 -107t77 -229zM1071 -770q0 -57 -38 -96t-95 -39t-97 39t-40 96t40 97t97 40t95 -40t38 -97zM748 -770q0 -57 -38.5 -96
t-95.5 -39t-97 39t-40 96t40 97t97 40t95.5 -40t38.5 -97z" />
    <glyph glyph-name="uniFCFF" unicode="&#xfea3;&#xfef0;" horiz-adv-x="2228" arabic-form="isolated" 
d="M1530 -55q0 -196 -201.5 -320.5t-535.5 -124.5q-713 0 -713 566q0 116 33 299h241q-28 -157 -28 -238q0 -334 483 -334q238 0 371 43t133 121q0 43 -45.5 76t-145.5 33h-153v243l415 135q183 59 312 91q-52 12 -111 32l-184 64q-116 39 -170 39q-44 0 -71.5 -24.5
t-35.5 -67.5h-221q6 177 93.5 276.5t236.5 99.5q95 0 262 -61l272 -90q129 -50 201 -67t160 -17h61l-2 -260h-35q-106 0 -250 -47t-386 -146l-185 -71q98 -29 148.5 -99t50.5 -151z" />
    <glyph glyph-name="uniFD00" unicode="&#xfea3;&#xfef2;" horiz-adv-x="2228" arabic-form="isolated" 
d="M1530 -55q0 -196 -201.5 -320.5t-535.5 -124.5q-713 0 -713 566q0 116 33 299h241q-28 -157 -28 -238q0 -334 483 -334q238 0 371 43t133 121q0 43 -45.5 76t-145.5 33h-153v243l415 135q183 59 312 91q-52 12 -111 32l-184 64q-116 39 -170 39q-44 0 -71.5 -24.5
t-35.5 -67.5h-221q6 177 93.5 276.5t236.5 99.5q95 0 262 -61l272 -90q129 -50 201 -67t160 -17h61l-2 -260h-35q-106 0 -250 -47t-386 -146l-185 -71q98 -29 148.5 -99t50.5 -151zM1102 -770q0 -57 -39 -96t-96 -39t-97.5 39t-40.5 96t40.5 97t97.5 40t96 -40t39 -97z
M776 -770q0 -57 -38 -96t-95 -39t-97 39t-40 96t40 97t97 40t95 -40t38 -97z" />
    <glyph glyph-name="uniFD01" unicode="&#xfe9f;&#xfef0;" horiz-adv-x="2228" arabic-form="isolated" 
d="M1530 -55q0 -196 -201.5 -320.5t-535.5 -124.5q-713 0 -713 566q0 116 33 299h241q-28 -157 -28 -238q0 -334 483 -334q238 0 371 43t133 121q0 43 -45.5 76t-145.5 33h-153v243l415 135q183 59 312 91q-52 12 -111 32l-184 64q-116 39 -170 39q-44 0 -71.5 -24.5
t-35.5 -67.5h-221q6 177 93.5 276.5t236.5 99.5q95 0 262 -61l272 -90q129 -50 201 -67t160 -17h61l-2 -260h-35q-106 0 -250 -47t-386 -146l-185 -71q98 -29 148.5 -99t50.5 -151zM1964 -180q0 -57 -39 -96t-96 -39t-96 39t-39 96t39 96t96 39t96 -39t39 -96z" />
    <glyph glyph-name="uniFD02" unicode="&#xfe9f;&#xfef2;" horiz-adv-x="2228" arabic-form="isolated" 
d="M1530 -55q0 -196 -201.5 -320.5t-535.5 -124.5q-713 0 -713 566q0 116 33 299h241q-28 -157 -28 -238q0 -334 483 -334q238 0 371 43t133 121q0 43 -45.5 76t-145.5 33h-153v243l415 135q183 59 312 91q-52 12 -111 32l-184 64q-116 39 -170 39q-44 0 -71.5 -24.5
t-35.5 -67.5h-221q6 177 93.5 276.5t236.5 99.5q95 0 262 -61l272 -90q129 -50 201 -67t160 -17h61l-2 -260h-35q-106 0 -250 -47t-386 -146l-185 -71q98 -29 148.5 -99t50.5 -151zM1964 -180q0 -57 -39 -96t-96 -39t-96 39t-39 96t39 96t96 39t96 -39t39 -96zM1102 -770
q0 -57 -39 -96t-96 -39t-97.5 39t-40.5 96t40.5 97t97.5 40t96 -40t39 -97zM776 -770q0 -57 -38 -96t-95 -39t-97 39t-40 96t40 97t97 40t95 -40t38 -97z" />
    <glyph glyph-name="uniFD03" unicode="&#xfea7;&#xfef0;" horiz-adv-x="2228" arabic-form="isolated" 
d="M1462 1194q0 -57 -39 -95t-96 -38t-97 38t-40 95t40 97t97 40t96 -40t39 -97zM1530 -55q0 -196 -201.5 -320.5t-535.5 -124.5q-713 0 -713 566q0 116 33 299h241q-28 -157 -28 -238q0 -334 483 -334q238 0 371 43t133 121q0 43 -45.5 76t-145.5 33h-153v243l415 135
q183 59 312 91q-52 12 -111 32l-184 64q-116 39 -170 39q-44 0 -71.5 -24.5t-35.5 -67.5h-221q6 177 93.5 276.5t236.5 99.5q95 0 262 -61l272 -90q129 -50 201 -67t160 -17h61l-2 -260h-35q-106 0 -250 -47t-386 -146l-185 -71q98 -29 148.5 -99t50.5 -151z" />
    <glyph glyph-name="uniFD04" unicode="&#xfea7;&#xfef2;" horiz-adv-x="2228" arabic-form="isolated" 
d="M1462 1194q0 -57 -39 -95t-96 -38t-97 38t-40 95t40 97t97 40t96 -40t39 -97zM1530 -55q0 -196 -201.5 -320.5t-535.5 -124.5q-713 0 -713 566q0 116 33 299h241q-28 -157 -28 -238q0 -334 483 -334q238 0 371 43t133 121q0 43 -45.5 76t-145.5 33h-153v243l415 135
q183 59 312 91q-52 12 -111 32l-184 64q-116 39 -170 39q-44 0 -71.5 -24.5t-35.5 -67.5h-221q6 177 93.5 276.5t236.5 99.5q95 0 262 -61l272 -90q129 -50 201 -67t160 -17h61l-2 -260h-35q-106 0 -250 -47t-386 -146l-185 -71q98 -29 148.5 -99t50.5 -151zM1102 -770
q0 -57 -39 -96t-96 -39t-97.5 39t-40.5 96t40.5 97t97.5 40t96 -40t39 -97zM776 -770q0 -57 -38 -96t-95 -39t-97 39t-40 96t40 97t97 40t95 -40t38 -97z" />
    <glyph glyph-name="uniFD05" unicode="&#xfebb;&#xfef0;" horiz-adv-x="3022" arabic-form="isolated" 
d="M1524 -2q0 -148 -99 -262.5t-269 -175t-382 -60.5q-351 0 -522.5 144t-171.5 438q0 118 31 283h241q-26 -137 -26 -230q0 -174 118 -258t365 -84q210 0 349.5 47.5t139.5 120.5q0 42 -45 68t-149 39l-230 32q-150 20 -224.5 96.5t-74.5 198.5q0 99 53.5 195.5
t139.5 168.5t198.5 116.5t225.5 44.5q91 0 159.5 -21t126.5 -71.5t104 -115.5t104 -171l59 -111q10 -22 29 -49q139 264 327 409.5t406 145.5q105 0 191.5 -36.5t143.5 -99t88 -144t31 -171.5q0 -251 -197.5 -379.5t-588.5 -128.5q-198 0 -313 28t-189.5 94t-142.5 196
l-53 102q-67 131 -144.5 184.5t-210.5 53.5q-130 0 -227.5 -51t-97.5 -121q0 -38 33 -59.5t114 -34.5l242 -35q184 -25 261 -107t77 -229zM2497 651q-161 0 -307 -95.5t-265 -266.5q104 -23 309 -23q274 0 399.5 51t125.5 162q0 67 -70.5 119.5t-191.5 52.5z" />
    <glyph glyph-name="uniFD06" unicode="&#xfebb;&#xfef2;" horiz-adv-x="3022" arabic-form="isolated" 
d="M1524 -2q0 -148 -99 -262.5t-269 -175t-382 -60.5q-351 0 -522.5 144t-171.5 438q0 118 31 283h241q-26 -137 -26 -230q0 -174 118 -258t365 -84q210 0 349.5 47.5t139.5 120.5q0 42 -45 68t-149 39l-230 32q-150 20 -224.5 96.5t-74.5 198.5q0 99 53.5 195.5
t139.5 168.5t198.5 116.5t225.5 44.5q91 0 159.5 -21t126.5 -71.5t104 -115.5t104 -171l59 -111q10 -22 29 -49q139 264 327 409.5t406 145.5q105 0 191.5 -36.5t143.5 -99t88 -144t31 -171.5q0 -251 -197.5 -379.5t-588.5 -128.5q-198 0 -313 28t-189.5 94t-142.5 196
l-53 102q-67 131 -144.5 184.5t-210.5 53.5q-130 0 -227.5 -51t-97.5 -121q0 -38 33 -59.5t114 -34.5l242 -35q184 -25 261 -107t77 -229zM2497 651q-161 0 -307 -95.5t-265 -266.5q104 -23 309 -23q274 0 399.5 51t125.5 162q0 67 -70.5 119.5t-191.5 52.5zM1071 -770
q0 -57 -38 -96t-95 -39t-97 39t-40 96t40 97t97 40t95 -40t38 -97zM748 -770q0 -57 -38.5 -96t-95.5 -39t-97 39t-40 96t40 97t97 40t95.5 -40t38.5 -97z" />
    <glyph glyph-name="uniFD07" unicode="&#xfebf;&#xfef0;" horiz-adv-x="3022" arabic-form="isolated" 
d="M2576 1194q0 -57 -38 -95t-95 -38t-97 38t-40 95t40 97t97 40t95 -40t38 -97zM1524 -2q0 -148 -99 -262.5t-269 -175t-382 -60.5q-351 0 -522.5 144t-171.5 438q0 118 31 283h241q-26 -137 -26 -230q0 -174 118 -258t365 -84q210 0 349.5 47.5t139.5 120.5q0 42 -45 68
t-149 39l-230 32q-150 20 -224.5 96.5t-74.5 198.5q0 99 53.5 195.5t139.5 168.5t198.5 116.5t225.5 44.5q91 0 159.5 -21t126.5 -71.5t104 -115.5t104 -171l59 -111q10 -22 29 -49q139 264 327 409.5t406 145.5q105 0 191.5 -36.5t143.5 -99t88 -144t31 -171.5
q0 -251 -197.5 -379.5t-588.5 -128.5q-198 0 -313 28t-189.5 94t-142.5 196l-53 102q-67 131 -144.5 184.5t-210.5 53.5q-130 0 -227.5 -51t-97.5 -121q0 -38 33 -59.5t114 -34.5l242 -35q184 -25 261 -107t77 -229zM2497 651q-161 0 -307 -95.5t-265 -266.5
q104 -23 309 -23q274 0 399.5 51t125.5 162q0 67 -70.5 119.5t-191.5 52.5z" />
    <glyph glyph-name="uniFD08" unicode="&#xfebf;&#xfef2;" horiz-adv-x="3022" arabic-form="isolated" 
d="M2576 1194q0 -57 -38 -95t-95 -38t-97 38t-40 95t40 97t97 40t95 -40t38 -97zM1524 -2q0 -148 -99 -262.5t-269 -175t-382 -60.5q-351 0 -522.5 144t-171.5 438q0 118 31 283h241q-26 -137 -26 -230q0 -174 118 -258t365 -84q210 0 349.5 47.5t139.5 120.5q0 42 -45 68
t-149 39l-230 32q-150 20 -224.5 96.5t-74.5 198.5q0 99 53.5 195.5t139.5 168.5t198.5 116.5t225.5 44.5q91 0 159.5 -21t126.5 -71.5t104 -115.5t104 -171l59 -111q10 -22 29 -49q139 264 327 409.5t406 145.5q105 0 191.5 -36.5t143.5 -99t88 -144t31 -171.5
q0 -251 -197.5 -379.5t-588.5 -128.5q-198 0 -313 28t-189.5 94t-142.5 196l-53 102q-67 131 -144.5 184.5t-210.5 53.5q-130 0 -227.5 -51t-97.5 -121q0 -38 33 -59.5t114 -34.5l242 -35q184 -25 261 -107t77 -229zM2497 651q-161 0 -307 -95.5t-265 -266.5
q104 -23 309 -23q274 0 399.5 51t125.5 162q0 67 -70.5 119.5t-191.5 52.5zM1071 -770q0 -57 -38 -96t-95 -39t-97 39t-40 96t40 97t97 40t95 -40t38 -97zM748 -770q0 -57 -38.5 -96t-95.5 -39t-97 39t-40 96t40 97t97 40t95.5 -40t38.5 -97z" />
    <glyph glyph-name="uniFD0D" unicode="&#xfeb7;&#xfeae;" horiz-adv-x="2228" arabic-form="isolated" 
d="M1599 1092q0 -51 -34.5 -85t-85.5 -34t-86 34t-35 85t35 85.5t86 34.5t85.5 -34.5t34.5 -85.5zM1452 827q0 -51 -35 -85.5t-86 -34.5t-86 34.5t-35 85.5t35 86t86 35t86 -35t35 -86zM1745 827q0 -51 -34 -85.5t-85 -34.5t-86 34.5t-35 85.5t35 86t86 35t85 -35t34 -86z
M551 190q0 -349 -125 -514t-389 -165q-102 0 -184 12v287q100 -17 176 -17q147 0 212.5 92.5t65.5 296.5q0 104 -16 238l-29 235l785 72l28 -258q12 -111 47.5 -156t114.5 -45q66 0 104.5 53t38.5 158v105h246v-105q0 -104 38.5 -157.5t98.5 -53.5q135 0 135 183
q0 109 -40 276h256q30 -167 30 -285q0 -228 -101.5 -346.5t-283.5 -118.5q-115 0 -201.5 57.5t-115.5 158.5q-13 -106 -78.5 -161t-175.5 -55q-172 0 -248 99q-76 101 -106 344l-293 -27q10 -120 10 -203z" />
    <glyph glyph-name="uniFD0E" unicode="&#xfeb3;&#xfeae;" horiz-adv-x="2228" arabic-form="isolated" 
d="M551 190q0 -349 -125 -514t-389 -165q-102 0 -184 12v287q100 -17 176 -17q147 0 212.5 92.5t65.5 296.5q0 104 -16 238l-29 235l785 72l28 -258q12 -111 47.5 -156t114.5 -45q66 0 104.5 53t38.5 158v105h246v-105q0 -104 38.5 -157.5t98.5 -53.5q135 0 135 183
q0 109 -40 276h256q30 -167 30 -285q0 -228 -101.5 -346.5t-283.5 -118.5q-115 0 -201.5 57.5t-115.5 158.5q-13 -106 -78.5 -161t-175.5 -55q-172 0 -248 99q-76 101 -106 344l-293 -27q10 -120 10 -203z" />
    <glyph glyph-name="uniFD0F" unicode="&#xfebb;&#xfeae;" horiz-adv-x="2416" arabic-form="isolated" 
d="M551 190q0 -349 -125 -514t-389 -165q-102 0 -184 12v287q100 -17 176 -17q147 0 212.5 92.5t65.5 296.5q0 104 -16 238l-37 307l784 72l37 -330q9 -100 45 -141q151 290 350.5 449t430.5 159q105 0 192 -36.5t144 -99t88.5 -144t31.5 -171.5q0 -508 -917 -508
q-166 0 -273 23t-180.5 82.5t-110 154.5t-51.5 246l-2 11l-291 -27l3 -21q16 -184 16 -256zM1892 651q-172 0 -327 -100t-283 -283q147 -6 186 -6q251 0 403 25t216.5 71.5t64.5 120.5q0 67 -69.5 119.5t-190.5 52.5z" />
    <glyph glyph-name="uniFD10" unicode="&#xfebf;&#xfeae;" horiz-adv-x="2416" arabic-form="isolated" 
d="M1987 1194q0 -57 -39.5 -95t-96.5 -38t-96 38t-39 95t39 97t96 40t96.5 -40t39.5 -97zM551 190q0 -349 -125 -514t-389 -165q-102 0 -184 12v287q100 -17 176 -17q147 0 212.5 92.5t65.5 296.5q0 104 -16 238l-37 307l784 72l37 -330q9 -100 45 -141q151 290 350.5 449
t430.5 159q105 0 192 -36.5t144 -99t88.5 -144t31.5 -171.5q0 -508 -917 -508q-166 0 -273 23t-180.5 82.5t-110 154.5t-51.5 246l-2 11l-291 -27l3 -21q16 -184 16 -256zM1892 651q-172 0 -327 -100t-283 -283q147 -6 186 -6q251 0 403 25t216.5 71.5t64.5 120.5
q0 67 -69.5 119.5t-190.5 52.5z" />
    <glyph glyph-name="uniFD13" unicode="&#xfecc;&#xfef0;" horiz-adv-x="2332" arabic-form="final" 
d="M1532 -123q0 -160 -201 -268.5t-551 -108.5q-349 0 -524.5 147t-175.5 435q0 137 35 283h241q-26 -137 -26 -230q0 -168 117.5 -255t349.5 -87q261 0 388.5 37t127.5 100q0 97 -230 97h-20v258h377q-69 69 -152 186l-76 100v269q267 71 512 71q253 0 369 -72.5
t117 -236.5q3 -169 -172 -317q25 -2 76 -2l219 2v-228l-58 -57h-49q-339 0 -538 100q-115 -38 -248 -53q92 -64 92 -170zM1724 643q-154 0 -305 -25q89 -124 166.5 -192.5t173.5 -99.5q125 32 192.5 86.5t65.5 117.5q-1 60 -72 86.5t-221 26.5z" />
    <glyph glyph-name="uniFD14" unicode="&#xfecc;&#xfef2;" horiz-adv-x="2332" arabic-form="final" 
d="M1532 -123q0 -160 -201 -268.5t-551 -108.5q-349 0 -524.5 147t-175.5 435q0 137 35 283h241q-26 -137 -26 -230q0 -168 117.5 -255t349.5 -87q261 0 388.5 37t127.5 100q0 97 -230 97h-20v258h377q-69 69 -152 186l-76 100v269q267 71 512 71q253 0 369 -72.5
t117 -236.5q3 -169 -172 -317q25 -2 76 -2l219 2v-228l-58 -57h-49q-339 0 -538 100q-115 -38 -248 -53q92 -64 92 -170zM1724 643q-154 0 -305 -25q89 -124 166.5 -192.5t173.5 -99.5q125 32 192.5 86.5t65.5 117.5q-1 60 -72 86.5t-221 26.5zM1094 -770q0 -57 -38 -96
t-95 -39t-97.5 39t-40.5 96t40.5 97t97.5 40t95 -40t38 -97zM770 -770q0 -57 -38 -96t-95 -39t-97 39t-40 96t40 97t97 40t95 -40t38 -97z" />
    <glyph glyph-name="uniFD15" unicode="&#xfed0;&#xfef0;" horiz-adv-x="2332" arabic-form="final" 
d="M1847 1169q0 -57 -38 -96t-95 -39t-97 39t-40 96t40 97.5t97 40.5t95 -40.5t38 -97.5zM1532 -123q0 -160 -201 -268.5t-551 -108.5q-349 0 -524.5 147t-175.5 435q0 137 35 283h241q-26 -137 -26 -230q0 -168 117.5 -255t349.5 -87q261 0 388.5 37t127.5 100
q0 97 -230 97h-20v258h377q-69 69 -152 186l-76 100v269q267 71 512 71q253 0 369 -72.5t117 -236.5q3 -169 -172 -317q25 -2 76 -2l219 2v-228l-58 -57h-49q-339 0 -538 100q-115 -38 -248 -53q92 -64 92 -170zM1724 643q-154 0 -305 -25q89 -124 166.5 -192.5t173.5 -99.5
q125 32 192.5 86.5t65.5 117.5q-1 60 -72 86.5t-221 26.5z" />
    <glyph glyph-name="uniFD16" unicode="&#xfed0;&#xfef2;" horiz-adv-x="2332" arabic-form="final" 
d="M1847 1169q0 -57 -38 -96t-95 -39t-97 39t-40 96t40 97.5t97 40.5t95 -40.5t38 -97.5zM1532 -123q0 -160 -201 -268.5t-551 -108.5q-349 0 -524.5 147t-175.5 435q0 137 35 283h241q-26 -137 -26 -230q0 -168 117.5 -255t349.5 -87q261 0 388.5 37t127.5 100
q0 97 -230 97h-20v258h377q-69 69 -152 186l-76 100v269q267 71 512 71q253 0 369 -72.5t117 -236.5q3 -169 -172 -317q25 -2 76 -2l219 2v-228l-58 -57h-49q-339 0 -538 100q-115 -38 -248 -53q92 -64 92 -170zM1724 643q-154 0 -305 -25q89 -124 166.5 -192.5t173.5 -99.5
q125 32 192.5 86.5t65.5 117.5q-1 60 -72 86.5t-221 26.5zM1094 -770q0 -57 -38 -96t-95 -39t-97.5 39t-40.5 96t40.5 97t97.5 40t95 -40t38 -97zM770 -770q0 -57 -38 -96t-95 -39t-97 39t-40 96t40 97t97 40t95 -40t38 -97z" />
    <glyph glyph-name="uniFD17" unicode="&#xfeb4;&#xfef0;" horiz-adv-x="3108" arabic-form="final" 
d="M1700 541l53 -111q43 -97 84 -129.5t121 -32.5q184 0 184 240v76h246v-105q0 -104 36.5 -157.5t96.5 -53.5q69 0 108.5 53t39.5 158v176h245v-176q0 -102 47 -148t148 -46v-228l-57 -57q-132 0 -216 60t-108 167q-19 -118 -88 -184t-174 -66q-100 0 -171 58.5t-91 161.5
q-20 -108 -92.5 -164t-190.5 -56q-141 0 -225 66t-166 252l-45 102q-61 130 -144 184t-219 54q-130 0 -227.5 -51t-97.5 -121q0 -38 33 -59.5t114 -34.5l242 -35q184 -25 261 -107t77 -229q0 -148 -99 -262.5t-269 -175t-382 -60.5q-351 0 -522.5 144t-171.5 438
q0 118 31 283h241q-26 -137 -26 -230q0 -174 118 -258t365 -84q210 0 349.5 47.5t139.5 120.5q0 42 -45 68t-149 39l-230 32q-150 20 -224.5 96.5t-74.5 198.5q0 99 53.5 195.5t139.5 168.5t198.5 116.5t225.5 44.5q182 0 297 -89q119 -92 211 -290z" />
    <glyph glyph-name="uniFD18" unicode="&#xfeb4;&#xfef2;" horiz-adv-x="3108" arabic-form="final" 
d="M1700 541l53 -111q43 -97 84 -129.5t121 -32.5q184 0 184 240v76h246v-105q0 -104 36.5 -157.5t96.5 -53.5q69 0 108.5 53t39.5 158v176h245v-176q0 -102 47 -148t148 -46v-228l-57 -57q-132 0 -216 60t-108 167q-19 -118 -88 -184t-174 -66q-100 0 -171 58.5t-91 161.5
q-20 -108 -92.5 -164t-190.5 -56q-141 0 -225 66t-166 252l-45 102q-61 130 -144 184t-219 54q-130 0 -227.5 -51t-97.5 -121q0 -38 33 -59.5t114 -34.5l242 -35q184 -25 261 -107t77 -229q0 -148 -99 -262.5t-269 -175t-382 -60.5q-351 0 -522.5 144t-171.5 438
q0 118 31 283h241q-26 -137 -26 -230q0 -174 118 -258t365 -84q210 0 349.5 47.5t139.5 120.5q0 42 -45 68t-149 39l-230 32q-150 20 -224.5 96.5t-74.5 198.5q0 99 53.5 195.5t139.5 168.5t198.5 116.5t225.5 44.5q182 0 297 -89q119 -92 211 -290zM1071 -770
q0 -57 -38 -96t-95 -39t-97 39t-40 96t40 97t97 40t95 -40t38 -97zM748 -770q0 -57 -38.5 -96t-95.5 -39t-97 39t-40 96t40 97t97 40t95.5 -40t38.5 -97z" />
    <glyph glyph-name="uniFD19" unicode="&#xfeb8;&#xfef0;" horiz-adv-x="3108" arabic-form="final" 
d="M2380 1116q0 -51 -34 -86t-85 -35t-86 35t-35 86t35 86t86 35t85 -35t34 -86zM2232 850q0 -51 -33.5 -85t-84.5 -34t-86 34t-35 85t35 86t86 35t84.5 -35t33.5 -86zM2527 850q0 -51 -35 -85t-86 -34t-85.5 34t-34.5 85t34.5 86t85.5 35t86 -35t35 -86zM1700 541l53 -111
q43 -97 84 -129.5t121 -32.5q184 0 184 240v76h246v-105q0 -104 36.5 -157.5t96.5 -53.5q69 0 108.5 53t39.5 158v176h245v-176q0 -102 47 -148t148 -46v-228l-57 -57q-132 0 -216 60t-108 167q-19 -118 -88 -184t-174 -66q-100 0 -171 58.5t-91 161.5q-20 -108 -92.5 -164
t-190.5 -56q-141 0 -225 66t-166 252l-45 102q-61 130 -144 184t-219 54q-130 0 -227.5 -51t-97.5 -121q0 -38 33 -59.5t114 -34.5l242 -35q184 -25 261 -107t77 -229q0 -148 -99 -262.5t-269 -175t-382 -60.5q-351 0 -522.5 144t-171.5 438q0 118 31 283h241
q-26 -137 -26 -230q0 -174 118 -258t365 -84q210 0 349.5 47.5t139.5 120.5q0 42 -45 68t-149 39l-230 32q-150 20 -224.5 96.5t-74.5 198.5q0 99 53.5 195.5t139.5 168.5t198.5 116.5t225.5 44.5q182 0 297 -89q119 -92 211 -290z" />
    <glyph glyph-name="uniFD1A" unicode="&#xfeb8;&#xfef2;" horiz-adv-x="3108" arabic-form="final" 
d="M2380 1116q0 -51 -34 -86t-85 -35t-86 35t-35 86t35 86t86 35t85 -35t34 -86zM2232 850q0 -51 -33.5 -85t-84.5 -34t-86 34t-35 85t35 86t86 35t84.5 -35t33.5 -86zM2527 850q0 -51 -35 -85t-86 -34t-85.5 34t-34.5 85t34.5 86t85.5 35t86 -35t35 -86zM1700 541l53 -111
q43 -97 84 -129.5t121 -32.5q184 0 184 240v76h246v-105q0 -104 36.5 -157.5t96.5 -53.5q69 0 108.5 53t39.5 158v176h245v-176q0 -102 47 -148t148 -46v-228l-57 -57q-132 0 -216 60t-108 167q-19 -118 -88 -184t-174 -66q-100 0 -171 58.5t-91 161.5q-20 -108 -92.5 -164
t-190.5 -56q-141 0 -225 66t-166 252l-45 102q-61 130 -144 184t-219 54q-130 0 -227.5 -51t-97.5 -121q0 -38 33 -59.5t114 -34.5l242 -35q184 -25 261 -107t77 -229q0 -148 -99 -262.5t-269 -175t-382 -60.5q-351 0 -522.5 144t-171.5 438q0 118 31 283h241
q-26 -137 -26 -230q0 -174 118 -258t365 -84q210 0 349.5 47.5t139.5 120.5q0 42 -45 68t-149 39l-230 32q-150 20 -224.5 96.5t-74.5 198.5q0 99 53.5 195.5t139.5 168.5t198.5 116.5t225.5 44.5q182 0 297 -89q119 -92 211 -290zM1071 -770q0 -57 -38 -96t-95 -39t-97 39
t-40 96t40 97t97 40t95 -40t38 -97zM748 -770q0 -57 -38.5 -96t-95.5 -39t-97 39t-40 96t40 97t97 40t95.5 -40t38.5 -97z" />
    <glyph glyph-name="uniFD1B" unicode="&#xfea4;&#xfef0;" horiz-adv-x="2236" arabic-form="final" 
d="M1530 -55q0 -196 -201.5 -320.5t-535.5 -124.5q-713 0 -713 566q0 116 33 299h241q-28 -157 -28 -238q0 -334 483 -334q238 0 371 43t133 121q0 43 -45.5 76t-145.5 33h-153v243l415 135q183 59 312 91q-52 12 -111 32l-184 64q-116 39 -170 39q-44 0 -71.5 -24.5
t-35.5 -67.5h-221q6 177 93.5 276.5t236.5 99.5q95 0 262 -61l272 -90q129 -50 201 -67t160 -17h61l-2 -260h-35q-41 0 -129 -15v-24q0 -73 48.5 -104t164.5 -31v-224l-57 -61q-176 0 -265 99.5t-89 287.5q-25 -9 -309 -121l-185 -71q98 -29 148.5 -99t50.5 -151z" />
    <glyph glyph-name="uniFD1C" unicode="&#xfea4;&#xfef2;" horiz-adv-x="2236" arabic-form="final" 
d="M1530 -55q0 -196 -201.5 -320.5t-535.5 -124.5q-713 0 -713 566q0 116 33 299h241q-28 -157 -28 -238q0 -334 483 -334q238 0 371 43t133 121q0 43 -45.5 76t-145.5 33h-153v243l415 135q183 59 312 91q-52 12 -111 32l-184 64q-116 39 -170 39q-44 0 -71.5 -24.5
t-35.5 -67.5h-221q6 177 93.5 276.5t236.5 99.5q95 0 262 -61l272 -90q129 -50 201 -67t160 -17h61l-2 -260h-35q-41 0 -129 -15v-24q0 -73 48.5 -104t164.5 -31v-224l-57 -61q-176 0 -265 99.5t-89 287.5q-25 -9 -309 -121l-185 -71q98 -29 148.5 -99t50.5 -151zM1102 -770
q0 -57 -39 -96t-96 -39t-97.5 39t-40.5 96t40.5 97t97.5 40t96 -40t39 -97zM776 -770q0 -57 -38 -96t-95 -39t-97 39t-40 96t40 97t97 40t95 -40t38 -97z" />
    <glyph glyph-name="uniFD1D" unicode="&#xfea0;&#xfef0;" horiz-adv-x="2236" arabic-form="final" 
d="M1530 -55q0 -196 -201.5 -320.5t-535.5 -124.5q-713 0 -713 566q0 116 33 299h241q-28 -157 -28 -238q0 -334 483 -334q238 0 371 43t133 121q0 43 -45.5 76t-145.5 33h-153v243l415 135q183 59 312 91q-52 12 -111 32l-184 64q-116 39 -170 39q-44 0 -71.5 -24.5
t-35.5 -67.5h-221q6 177 93.5 276.5t236.5 99.5q95 0 262 -61l272 -90q129 -50 201 -67t160 -17h61l-2 -260h-35q-41 0 -129 -15v-24q0 -73 48.5 -104t164.5 -31v-224l-57 -61q-176 0 -265 99.5t-89 287.5q-25 -9 -309 -121l-185 -71q98 -29 148.5 -99t50.5 -151zM1964 -180
q0 -57 -39 -96t-96 -39t-96 39t-39 96t39 96t96 39t96 -39t39 -96z" />
    <glyph glyph-name="uniFD1E" unicode="&#xfea0;&#xfef2;" horiz-adv-x="2236" arabic-form="final" 
d="M1530 -55q0 -196 -201.5 -320.5t-535.5 -124.5q-713 0 -713 566q0 116 33 299h241q-28 -157 -28 -238q0 -334 483 -334q238 0 371 43t133 121q0 43 -45.5 76t-145.5 33h-153v243l415 135q183 59 312 91q-52 12 -111 32l-184 64q-116 39 -170 39q-44 0 -71.5 -24.5
t-35.5 -67.5h-221q6 177 93.5 276.5t236.5 99.5q95 0 262 -61l272 -90q129 -50 201 -67t160 -17h61l-2 -260h-35q-41 0 -129 -15v-24q0 -73 48.5 -104t164.5 -31v-224l-57 -61q-176 0 -265 99.5t-89 287.5q-25 -9 -309 -121l-185 -71q98 -29 148.5 -99t50.5 -151zM1964 -180
q0 -57 -39 -96t-96 -39t-96 39t-39 96t39 96t96 39t96 -39t39 -96zM1102 -770q0 -57 -39 -96t-96 -39t-97.5 39t-40.5 96t40.5 97t97.5 40t96 -40t39 -97zM776 -770q0 -57 -38 -96t-95 -39t-97 39t-40 96t40 97t97 40t95 -40t38 -97z" />
    <glyph glyph-name="uniFD1F" unicode="&#xfea8;&#xfef0;" horiz-adv-x="2236" arabic-form="final" 
d="M1462 1194q0 -57 -39 -95t-96 -38t-97 38t-40 95t40 97t97 40t96 -40t39 -97zM1530 -55q0 -196 -201.5 -320.5t-535.5 -124.5q-713 0 -713 566q0 116 33 299h241q-28 -157 -28 -238q0 -334 483 -334q238 0 371 43t133 121q0 43 -45.5 76t-145.5 33h-153v243l415 135
q183 59 312 91q-52 12 -111 32l-184 64q-116 39 -170 39q-44 0 -71.5 -24.5t-35.5 -67.5h-221q6 177 93.5 276.5t236.5 99.5q95 0 262 -61l272 -90q129 -50 201 -67t160 -17h61l-2 -260h-35q-41 0 -129 -15v-24q0 -73 48.5 -104t164.5 -31v-224l-57 -61q-176 0 -265 99.5
t-89 287.5q-25 -9 -309 -121l-185 -71q98 -29 148.5 -99t50.5 -151z" />
    <glyph glyph-name="uniFD20" unicode="&#xfea8;&#xfef2;" horiz-adv-x="2236" arabic-form="final" 
d="M1462 1194q0 -57 -39 -95t-96 -38t-97 38t-40 95t40 97t97 40t96 -40t39 -97zM1530 -55q0 -196 -201.5 -320.5t-535.5 -124.5q-713 0 -713 566q0 116 33 299h241q-28 -157 -28 -238q0 -334 483 -334q238 0 371 43t133 121q0 43 -45.5 76t-145.5 33h-153v243l415 135
q183 59 312 91q-52 12 -111 32l-184 64q-116 39 -170 39q-44 0 -71.5 -24.5t-35.5 -67.5h-221q6 177 93.5 276.5t236.5 99.5q95 0 262 -61l272 -90q129 -50 201 -67t160 -17h61l-2 -260h-35q-41 0 -129 -15v-24q0 -73 48.5 -104t164.5 -31v-224l-57 -61q-176 0 -265 99.5
t-89 287.5q-25 -9 -309 -121l-185 -71q98 -29 148.5 -99t50.5 -151zM1102 -770q0 -57 -39 -96t-96 -39t-97.5 39t-40.5 96t40.5 97t97.5 40t96 -40t39 -97zM776 -770q0 -57 -38 -96t-95 -39t-97 39t-40 96t40 97t97 40t95 -40t38 -97z" />
    <glyph glyph-name="uniFD21" unicode="&#xfebc;&#xfef0;" horiz-adv-x="3112" arabic-form="final" 
d="M1524 -2q0 -148 -99 -262.5t-269 -175t-382 -60.5q-351 0 -522.5 144t-171.5 438q0 118 31 283h241q-26 -137 -26 -230q0 -174 118 -258t365 -84q210 0 349.5 47.5t139.5 120.5q0 42 -45 68t-149 39l-230 32q-150 20 -224.5 96.5t-74.5 198.5q0 99 53.5 195.5
t139.5 168.5t198.5 116.5t225.5 44.5q91 0 159.5 -21t126.5 -71.5t104 -115.5t104 -171l59 -111q10 -22 29 -49q139 264 327 409.5t406 145.5q105 0 191.5 -36.5t143.5 -99t88 -144t31 -171.5q0 -93 -28 -172q67 -28 180 -28v-224l-57 -61q-179 0 -273 119
q-199 -142 -608 -142q-198 0 -313 28t-189.5 94t-142.5 196l-53 102q-67 131 -144.5 184.5t-210.5 53.5q-130 0 -227.5 -51t-97.5 -121q0 -38 33 -59.5t114 -34.5l242 -35q184 -25 261 -107t77 -229zM2497 651q-161 0 -307 -95.5t-265 -266.5q104 -23 309 -23
q274 0 399.5 51t125.5 162q0 67 -70.5 119.5t-191.5 52.5z" />
    <glyph glyph-name="uniFD22" unicode="&#xfebc;&#xfef2;" horiz-adv-x="3112" arabic-form="final" 
d="M1524 -2q0 -148 -99 -262.5t-269 -175t-382 -60.5q-351 0 -522.5 144t-171.5 438q0 118 31 283h241q-26 -137 -26 -230q0 -174 118 -258t365 -84q210 0 349.5 47.5t139.5 120.5q0 42 -45 68t-149 39l-230 32q-150 20 -224.5 96.5t-74.5 198.5q0 99 53.5 195.5
t139.5 168.5t198.5 116.5t225.5 44.5q91 0 159.5 -21t126.5 -71.5t104 -115.5t104 -171l59 -111q10 -22 29 -49q139 264 327 409.5t406 145.5q105 0 191.5 -36.5t143.5 -99t88 -144t31 -171.5q0 -93 -28 -172q67 -28 180 -28v-224l-57 -61q-179 0 -273 119
q-199 -142 -608 -142q-198 0 -313 28t-189.5 94t-142.5 196l-53 102q-67 131 -144.5 184.5t-210.5 53.5q-130 0 -227.5 -51t-97.5 -121q0 -38 33 -59.5t114 -34.5l242 -35q184 -25 261 -107t77 -229zM2497 651q-161 0 -307 -95.5t-265 -266.5q104 -23 309 -23
q274 0 399.5 51t125.5 162q0 67 -70.5 119.5t-191.5 52.5zM1071 -770q0 -57 -38 -96t-95 -39t-97 39t-40 96t40 97t97 40t95 -40t38 -97zM748 -770q0 -57 -38.5 -96t-95.5 -39t-97 39t-40 96t40 97t97 40t95.5 -40t38.5 -97z" />
    <glyph glyph-name="uniFD23" unicode="&#xfec0;&#xfef0;" horiz-adv-x="3112" arabic-form="final" 
d="M2576 1194q0 -57 -38 -95t-95 -38t-97 38t-40 95t40 97t97 40t95 -40t38 -97zM1524 -2q0 -148 -99 -262.5t-269 -175t-382 -60.5q-351 0 -522.5 144t-171.5 438q0 118 31 283h241q-26 -137 -26 -230q0 -174 118 -258t365 -84q210 0 349.5 47.5t139.5 120.5q0 42 -45 68
t-149 39l-230 32q-150 20 -224.5 96.5t-74.5 198.5q0 99 53.5 195.5t139.5 168.5t198.5 116.5t225.5 44.5q91 0 159.5 -21t126.5 -71.5t104 -115.5t104 -171l59 -111q10 -22 29 -49q139 264 327 409.5t406 145.5q105 0 191.5 -36.5t143.5 -99t88 -144t31 -171.5
q0 -93 -28 -172q67 -28 180 -28v-224l-57 -61q-179 0 -273 119q-199 -142 -608 -142q-198 0 -313 28t-189.5 94t-142.5 196l-53 102q-67 131 -144.5 184.5t-210.5 53.5q-130 0 -227.5 -51t-97.5 -121q0 -38 33 -59.5t114 -34.5l242 -35q184 -25 261 -107t77 -229zM2497 651
q-161 0 -307 -95.5t-265 -266.5q104 -23 309 -23q274 0 399.5 51t125.5 162q0 67 -70.5 119.5t-191.5 52.5z" />
    <glyph glyph-name="uniFD24" unicode="&#xfec0;&#xfef2;" horiz-adv-x="3112" arabic-form="final" 
d="M2576 1194q0 -57 -38 -95t-95 -38t-97 38t-40 95t40 97t97 40t95 -40t38 -97zM1524 -2q0 -148 -99 -262.5t-269 -175t-382 -60.5q-351 0 -522.5 144t-171.5 438q0 118 31 283h241q-26 -137 -26 -230q0 -174 118 -258t365 -84q210 0 349.5 47.5t139.5 120.5q0 42 -45 68
t-149 39l-230 32q-150 20 -224.5 96.5t-74.5 198.5q0 99 53.5 195.5t139.5 168.5t198.5 116.5t225.5 44.5q91 0 159.5 -21t126.5 -71.5t104 -115.5t104 -171l59 -111q10 -22 29 -49q139 264 327 409.5t406 145.5q105 0 191.5 -36.5t143.5 -99t88 -144t31 -171.5
q0 -93 -28 -172q67 -28 180 -28v-224l-57 -61q-179 0 -273 119q-199 -142 -608 -142q-198 0 -313 28t-189.5 94t-142.5 196l-53 102q-67 131 -144.5 184.5t-210.5 53.5q-130 0 -227.5 -51t-97.5 -121q0 -38 33 -59.5t114 -34.5l242 -35q184 -25 261 -107t77 -229zM2497 651
q-161 0 -307 -95.5t-265 -266.5q104 -23 309 -23q274 0 399.5 51t125.5 162q0 67 -70.5 119.5t-191.5 52.5zM1071 -770q0 -57 -38 -96t-95 -39t-97 39t-40 96t40 97t97 40t95 -40t38 -97zM748 -770q0 -57 -38.5 -96t-95.5 -39t-97 39t-40 96t40 97t97 40t95.5 -40t38.5 -97z
" />
    <glyph glyph-name="uniFD29" unicode="&#xfeb8;&#xfeae;" horiz-adv-x="2408" arabic-form="final" 
d="M1636 1092q0 -51 -33.5 -85t-84.5 -34t-86 34t-35 85t35 85.5t86 34.5t84.5 -34.5t33.5 -85.5zM1489 827q0 -51 -34 -85.5t-85 -34.5t-86 34.5t-35 85.5t35 86t86 35t85 -35t34 -86zM1782 827q0 -51 -34 -85.5t-85 -34.5t-86 34.5t-35 85.5t35 86t86 35t85 -35t34 -86z
M551 190q0 -349 -125 -514t-389 -165q-102 0 -184 12v287q100 -17 176 -17q147 0 212.5 92.5t65.5 296.5q0 104 -16 238l-29 235l785 72l28 -258q12 -111 47.5 -156t114.5 -45q82 0 120 51t38 160v105h247v-105q0 -108 35 -159.5t109 -51.5q82 0 121 51t39 160v176h245v-176
q0 -102 53 -148t164 -46v-228l-57 -57q-140 0 -229.5 59t-114.5 166q-35 -248 -276 -248q-109 0 -182 56.5t-93 156.5q-17 -105 -85 -159t-183 -54q-172 0 -248 99q-76 101 -106 344l-293 -27q10 -120 10 -203z" />
    <glyph glyph-name="uniFD2A" unicode="&#xfeb4;&#xfeae;" horiz-adv-x="2408" arabic-form="final" 
d="M551 190q0 -349 -125 -514t-389 -165q-102 0 -184 12v287q100 -17 176 -17q147 0 212.5 92.5t65.5 296.5q0 104 -16 238l-29 235l785 72l28 -258q12 -111 47.5 -156t114.5 -45q82 0 120 51t38 160v105h247v-105q0 -108 35 -159.5t109 -51.5q82 0 121 51t39 160v176h245
v-176q0 -102 53 -148t164 -46v-228l-57 -57q-140 0 -229.5 59t-114.5 166q-35 -248 -276 -248q-109 0 -182 56.5t-93 156.5q-17 -105 -85 -159t-183 -54q-172 0 -248 99q-76 101 -106 344l-293 -27q10 -120 10 -203z" />
    <glyph glyph-name="uniFD2B" unicode="&#xfebc;&#xfeae;" horiz-adv-x="2557" arabic-form="final" 
d="M551 190q0 -349 -125 -514t-389 -165q-102 0 -184 12v287q100 -17 176 -17q147 0 212.5 92.5t65.5 296.5q0 104 -16 238l-37 307l784 72l37 -330q9 -100 45 -141q151 290 350.5 449t430.5 159q105 0 192 -36.5t144 -99t88.5 -144t31.5 -171.5q0 -82 -20 -143
q36 -30 86.5 -43.5t134.5 -13.5v-224l-57 -61q-199 0 -297 154q-213 -177 -764 -177q-166 0 -273 23t-180.5 82.5t-110 154.5t-51.5 246l-2 11l-291 -27l3 -21q16 -184 16 -256zM1892 651q-172 0 -327 -100t-283 -283q147 -6 186 -6q251 0 403 25t216.5 71.5t64.5 120.5
q0 67 -69.5 119.5t-190.5 52.5z" />
    <glyph glyph-name="uniFD2C" unicode="&#xfec0;&#xfeae;" horiz-adv-x="2557" arabic-form="final" 
d="M1987 1194q0 -57 -39.5 -95t-96.5 -38t-96 38t-39 95t39 97t96 40t96.5 -40t39.5 -97zM551 190q0 -349 -125 -514t-389 -165q-102 0 -184 12v287q100 -17 176 -17q147 0 212.5 92.5t65.5 296.5q0 104 -16 238l-37 307l784 72l37 -330q9 -100 45 -141q151 290 350.5 449
t430.5 159q105 0 192 -36.5t144 -99t88.5 -144t31.5 -171.5q0 -82 -20 -143q36 -30 86.5 -43.5t134.5 -13.5v-224l-57 -61q-199 0 -297 154q-213 -177 -764 -177q-166 0 -273 23t-180.5 82.5t-110 154.5t-51.5 246l-2 11l-291 -27l3 -21q16 -184 16 -256zM1892 651
q-172 0 -327 -100t-283 -283q147 -6 186 -6q251 0 403 25t216.5 71.5t64.5 120.5q0 67 -69.5 119.5t-190.5 52.5z" />
    <glyph glyph-name="uniFDF2" unicode="&#x627;&#xfedf;&#xfee0;&#xfeea;" horiz-adv-x="2813" arabic-form="isolated" 
d="M1448 2216v-371h-135v371h135zM1489 1442q-98 0 -125 88q-24 -121 -111 -121q-61 0 -94 45.5t-33 130.5q0 43 15 109l119 10q-11 -50 -11 -80q0 -41 31 -41q41 0 41 133l117 13q0 -113 41 -113q32 0 32 55q0 8 -1 20.5t-2.5 29t-2.5 26.5l121 10q6 -93 6 -98
q0 -104 -37 -160.5t-106 -56.5zM2685 1556v-1556h-262v1556h262zM2152 1442v-967q0 -245 -106 -360t-334 -115q-179 0 -277.5 58.5t-123.5 179.5q-38 -238 -295 -238q-143 0 -225 64.5t-111 199.5q-69 -203 -299 -203q-157 0 -249.5 91t-92.5 249q0 128 75 226.5t230 181.5
l301 166v186h260v-676q0 -105 39.5 -152.5t124.5 -47.5q104 0 146 45t42 155v813h263v-813q0 -105 46 -152.5t146 -47.5t140 42t40 146v969h260zM244 451q0 -105 176 -105q98 0 160 33q65 35 65 143v211l-250 -119q-151 -83 -151 -163z" />
    <glyph glyph-name="uniFEF5" unicode="&#xfedf;&#xfe82;" horiz-adv-x="1212" arabic-form="isolated" 
d="M133 1384h-119q0 110 48.5 170t136.5 60q53 0 147.5 -17.5t142.5 -17.5q65 0 121 20v-157q-49 -25 -123 -25q-61 0 -150.5 17.5t-137.5 17.5q-66 0 -66 -68zM709 0h-637v283l413 346l72 61l-598 416l150 229l624 -442q34 66 48 142.5t14 185.5v335h260v-335
q0 -158 -30 -261.5t-110 -199.5q112 -92 159.5 -181.5t47.5 -207.5q0 -183 -105 -277t-308 -94zM657 526l-309 -241h375q93 0 135.5 19t42.5 61q0 39 -39.5 87t-136.5 121l-4 5q-39 -34 -64 -52z" />
    <glyph glyph-name="uniFEF6" unicode="&#xfee0;&#xfe82;" horiz-adv-x="1296" arabic-form="final" 
d="M123 1327h-121q0 111 48 171.5t138 60.5q53 0 148 -17.5t143 -17.5q51 0 121 18v-156q-51 -26 -123 -26q-61 0 -151 17.5t-138 17.5q-65 0 -65 -68zM414 12l-373 -47v283l313 37l-157 979h278l137 -940q137 28 184.5 76.5t47.5 148.5v1007h260v-1064q0 -117 41.5 -162
t150.5 -45v-228l-57 -57h-22q-151 0 -231 63.5t-107 198.5q-33 -106 -140.5 -165t-324.5 -85z" />
    <glyph glyph-name="uniFEF7" unicode="&#xfedf;&#xfe84;" horiz-adv-x="1212" arabic-form="isolated" 
d="M551 1640v-157l-453 -66v158l80 12q-52 49 -49 125q0 86 58.5 143.5t146.5 57.5q80 0 129 -49.5t55 -137.5l-104 -12q-26 41 -84 41q-37 0 -58.5 -15t-21.5 -44q0 -39 45 -63.5t106 -14.5zM709 0h-637v283l413 346l72 61l-598 416l150 229l624 -442q34 66 48 142.5
t14 185.5v335h260v-335q0 -158 -30 -261.5t-110 -199.5q112 -92 159.5 -181.5t47.5 -207.5q0 -183 -105 -277t-308 -94zM657 526l-309 -241h375q93 0 135.5 19t42.5 61q0 39 -39.5 87t-136.5 121l-4 5q-39 -34 -64 -52z" />
    <glyph glyph-name="uniFEF8" unicode="&#xfee0;&#xfe84;" horiz-adv-x="1296" arabic-form="final" 
d="M541 1583v-158l-455 -63v158l82 10q-51 51 -51 127q2 85 61 143t146 58q79 0 127.5 -49.5t56.5 -137.5l-107 -14q-10 20 -32.5 31.5t-49.5 11.5q-37 0 -58 -15.5t-21 -44.5q0 -41 43 -64t106 -15zM414 12l-373 -47v283l313 37l-157 979h278l137 -940q137 28 184.5 76.5
t47.5 148.5v1007h260v-1064q0 -117 41.5 -162t150.5 -45v-228l-57 -57h-22q-151 0 -231 63.5t-107 198.5q-33 -106 -140.5 -165t-324.5 -85z" />
    <glyph glyph-name="uniFEF9" unicode="&#xfedf;&#xfe88;" horiz-adv-x="1212" arabic-form="isolated" 
d="M709 0h-637v283l413 346l72 61l-598 416l150 229l624 -442q34 66 48 142.5t14 185.5v335h260v-335q0 -158 -30 -261.5t-110 -199.5q112 -92 159.5 -181.5t47.5 -207.5q0 -183 -105 -277t-308 -94zM657 526l-309 -241h375q93 0 135.5 19t42.5 61q0 39 -39.5 87t-136.5 121
l-4 5q-39 -34 -64 -52zM504 -379v-158l-455 -63v156l82 12q-51 48 -51 125q0 86 58.5 143.5t146.5 57.5q79 0 128.5 -49.5t57.5 -135.5l-106 -14q-28 43 -82 43q-38 0 -59 -16.5t-21 -45.5q0 -39 44 -63t105 -14z" />
    <glyph glyph-name="uniFEFA" unicode="&#xfee0;&#xfe88;" horiz-adv-x="1296" arabic-form="final" 
d="M414 12l-373 -47v283l313 37l-157 979h278l137 -940q137 28 184.5 76.5t47.5 148.5v1007h260v-1064q0 -117 41.5 -162t150.5 -45v-228l-57 -57h-22q-151 0 -231 63.5t-107 198.5q-33 -106 -140.5 -165t-324.5 -85zM727 -379v-158l-455 -63v156l82 12q-51 48 -51 125
q0 86 58.5 143.5t146.5 57.5q79 0 128.5 -49.5t57.5 -135.5l-106 -14q-28 43 -82 43q-38 0 -59 -16.5t-21 -45.5q0 -39 44 -63t105 -14z" />
    <glyph glyph-name="uniFEFB" unicode="&#xfedf;&#xfe8e;" horiz-adv-x="1212" arabic-form="isolated" 
d="M709 0h-637v283l413 346l72 61l-598 416l150 229l624 -442q34 66 48 142.5t14 185.5v335h260v-335q0 -158 -30 -261.5t-110 -199.5q112 -92 159.5 -181.5t47.5 -207.5q0 -183 -105 -277t-308 -94zM657 526l-309 -241h375q93 0 135.5 19t42.5 61q0 39 -39.5 87t-136.5 121
l-4 5q-39 -34 -64 -52z" />
    <glyph glyph-name="uniFEFC" unicode="&#xfee0;&#xfe8e;" horiz-adv-x="1296" arabic-form="final" 
d="M414 12l-373 -47v283l313 37l-157 979h278l137 -940q137 28 184.5 76.5t47.5 148.5v1007h260v-1064q0 -117 41.5 -162t150.5 -45v-228l-57 -57h-22q-151 0 -231 63.5t-107 198.5q-33 -106 -140.5 -165t-324.5 -85z" />
    <glyph glyph-name="f_f" unicode="ff" horiz-adv-x="1404" 
d="M473 0h-293v860h-141v211h141v111q0 182 101 277t282 95q89 0 150 -20v-221q-54 16 -107 16q-66 0 -99.5 -38.5t-33.5 -102.5v-117h352v123q0 182 101 278.5t282 96.5q55 0 154 -21v-223q-43 16 -109 16q-67 0 -100 -37.5t-33 -103.5v-129h234v-211h-234v-860h-295v860
h-352v-860z" />
    <glyph glyph-name="f_i" unicode="fi" horiz-adv-x="1325" 
d="M473 0h-293v860h-141v211h141v123q0 182 100 278.5t281 96.5q68 0 146 -19v-223q-38 14 -101 14q-67 0 -100 -37.5t-33 -103.5v-129h234v-211h-234v-860zM1034 1217q-70 0 -119 46.5t-49 114.5t49 115t119 47q72 0 121 -46.5t49 -115.5t-49 -115t-121 -46zM1184 0h-295
v1071h295v-1071z" />
    <glyph glyph-name="f_l" unicode="fl" horiz-adv-x="1323" 
d="M473 0h-293v860h-141v211h141v123q0 182 100 278.5t281 96.5q68 0 146 -19v-223q-38 14 -101 14q-67 0 -100 -37.5t-33 -103.5v-129h234v-211h-234v-860zM1184 0h-295v1556h295v-1556z" />
    <glyph glyph-name="uni064906BA" unicode="&#x649;&#x6ba;" horiz-adv-x="2074" 
d="M1327 236q0 -301 -165 -466t-460 -165q-302 0 -461.5 141.5t-160.5 415.5q0 163 33 319h241q-28 -140 -28 -245q0 -165 99 -251.5t286 -86.5q205 0 300 78t95 253q0 76 -16 191l-37 307l762 72l38 -330q12 -110 58 -147t164 -37v-228l-60 -57q-209 0 -297 104
q-87 106 -114 379l-2 13l-291 -29l2 -21q14 -140 14 -210z" />
    <glyph glyph-name="uni0649FEE6" unicode="&#x649;&#xfee6;" horiz-adv-x="2074" 
d="M819 846q0 -57 -39 -96t-96 -39t-96 39t-39 96t39 97t96 40t96 -40t39 -97zM1327 236q0 -301 -165 -466t-460 -165q-302 0 -461.5 141.5t-160.5 415.5q0 163 33 319h241q-28 -140 -28 -245q0 -165 99 -251.5t286 -86.5q205 0 300 78t95 253q0 76 -16 191l-37 307l762 72
l38 -330q12 -110 58 -147t164 -37v-228l-60 -57q-209 0 -297 104q-87 106 -114 379l-2 13l-291 -29l2 -21q14 -140 14 -210z" />
    <glyph glyph-name="uni0649FEAE" unicode="&#x649;&#xfeae;" horiz-adv-x="1296" 
d="M551 190q0 -349 -125 -514t-389 -165q-102 0 -184 12v287q100 -17 176 -17q147 0 212.5 92.5t65.5 296.5q0 104 -16 238l-37 307l784 72l37 -330q12 -110 58 -147t163 -37v-228l-57 -57q-209 0 -297 104q-90 110 -117 379l-2 11l-291 -27l3 -21q16 -184 16 -256z" />
    <glyph glyph-name="uni0649FEB0" unicode="&#x649;&#xfeb0;" horiz-adv-x="1296" 
d="M459 1016q0 -57 -39 -95t-96 -38t-96.5 38t-39.5 95t39.5 97t96.5 40t96 -40t39 -97zM551 190q0 -349 -125 -514t-389 -165q-102 0 -184 12v287q100 -17 176 -17q147 0 212.5 92.5t65.5 296.5q0 104 -16 238l-37 307l784 72l37 -330q12 -110 58 -147t163 -37v-228
l-57 -57q-209 0 -297 104q-90 110 -117 379l-2 11l-291 -27l3 -21q16 -184 16 -256z" />
    <glyph glyph-name="uniFECBFEF0" unicode="&#xfecb;&#xfef0;" horiz-adv-x="2203" 
d="M1534 -119q0 -160 -201 -268.5t-551 -108.5t-526 147t-176 435q0 137 35 283h241q-26 -137 -26 -230q0 -168 118.5 -255t350.5 -87q260 0 387 35t127 94q0 44 -48.5 70.5t-146.5 26.5h-53v270l287 24q-74 53 -116 132.5t-42 179.5q0 191 125 316.5t321 125.5
q197 0 315.5 -112t125.5 -324h-226q-19 72 -79 112.5t-146 40.5q-105 0 -168 -52.5t-63 -145.5q0 -100 95.5 -159.5t254.5 -59.5q96 0 258 18l131 14v-270l-692 -78q88 -61 88 -174z" />
    <glyph glyph-name="uniFECFFEF0" unicode="&#xfecf;&#xfef0;" horiz-adv-x="2211" 
d="M1784 1278q0 -57 -38 -96t-95 -39t-97.5 39t-40.5 96t40.5 97t97.5 40t95 -40t38 -97zM1534 -119q0 -160 -201 -268.5t-551 -108.5t-526 147t-176 435q0 137 35 283h241q-26 -137 -26 -230q0 -168 118.5 -255t350.5 -87q260 0 387 35t127 94q0 44 -48.5 70.5t-146.5 26.5
h-53v270l287 24q-74 53 -116 132.5t-42 179.5q0 191 125 316.5t321 125.5q197 0 315.5 -112t125.5 -324h-226q-19 72 -79 112.5t-146 40.5q-105 0 -168 -52.5t-63 -145.5q0 -100 95.5 -159.5t254.5 -59.5q96 0 258 18l131 14v-270l-692 -78q88 -61 88 -174z" />
    <glyph glyph-name="uniFB58FEF0" unicode="&#xfb58;&#xfef0;" horiz-adv-x="1724" 
d="M1542 -106q0 -106 -92.5 -196t-263.5 -144t-383 -54q-362 0 -542.5 143t-180.5 423q0 116 33 299h241q-28 -157 -28 -238q0 -334 503 -334q231 0 362.5 42t131.5 116q0 44 -49 77t-150 33h-227v285h291q108 0 151 38t43 128q0 142 -36 358h249q33 -208 33 -391
q0 -152 -57.5 -247.5t-167.5 -127.5q139 -74 139 -210zM1681 -651q0 -51 -34.5 -86t-85.5 -35t-86 35t-35 86t35 86t86 35t85.5 -35t34.5 -86zM1386 -651q0 -51 -34.5 -86t-85.5 -35t-85 35t-34 86t34 86t85 35t85.5 -35t34.5 -86zM1534 -918q0 -51 -35 -85.5t-86 -34.5
t-86 34.5t-35 85.5t35 86t86 35t86 -35t35 -86z" />
    <glyph glyph-name="uniFB7CFEF0" unicode="&#xfb7c;&#xfef0;" horiz-adv-x="2228" 
d="M1530 -55q0 -196 -201.5 -320.5t-535.5 -124.5q-713 0 -713 566q0 116 33 299h241q-28 -157 -28 -238q0 -334 483 -334q238 0 371 43t133 121q0 43 -45.5 76t-145.5 33h-153v243l415 135q183 59 312 91q-52 12 -111 32l-184 64q-116 39 -170 39q-44 0 -71.5 -24.5
t-35.5 -67.5h-221q6 177 93.5 276.5t236.5 99.5q95 0 262 -61l272 -90q129 -50 201 -67t160 -17h61l-2 -260h-35q-106 0 -250 -47t-386 -146l-185 -71q98 -29 148.5 -99t50.5 -151zM2099 -160q0 -51 -35 -86t-86 -35t-85.5 35t-34.5 86t34.5 86t85.5 35t86 -35t35 -86z
M1804 -160q0 -51 -35 -86t-86 -35t-84.5 35t-33.5 86t33.5 86t84.5 35t86 -35t35 -86zM1952 -424q0 -51 -35 -86t-86 -35t-86 35t-35 86t35 85t86 34t86 -34t35 -85z" />
    <glyph glyph-name="uniFB6CFEF0" unicode="&#xfb6c;&#xfef0;" horiz-adv-x="1673" 
d="M1257 1759q0 -51 -34.5 -85t-85.5 -34t-86 34t-35 85t35 86t86 35t85.5 -35t34.5 -86zM1110 1495q0 -51 -35 -86t-86 -35t-86 35t-35 86t35 86t86 35t86 -35t35 -86zM1403 1495q0 -51 -35 -86t-86 -35t-86 35t-35 86t35 86t86 35t86 -35t35 -86zM1489 -119
q0 -103 -85.5 -190t-244 -139t-356.5 -52q-723 0 -723 582q0 137 35 283h241q-26 -137 -26 -230q0 -342 499 -342q205 0 324 39.5t119 108.5q0 43 -51 67.5t-148 24.5h-229v272l293 -2q141 0 199.5 39.5t70.5 146.5q-98 -36 -281 -36q-191 0 -302 92.5t-111 251.5
q0 117 57.5 222t156 168.5t210.5 63.5q203 0 331.5 -183t128.5 -486q0 -219 -59.5 -336t-194.5 -158q146 -59 146 -207zM909 801q0 -133 226 -133q148 0 264 26q-26 127 -106.5 202t-186.5 75q-89 0 -143 -49t-54 -121z" />
    <glyph glyph-name="uniFB94FEF0" unicode="&#xfb94;&#xfef0;" horiz-adv-x="1626" 
d="M1626 1901l-2 -189l-911 -504v191zM1532 -84q0 -117 -91 -212t-258 -149.5t-378 -54.5q-363 0 -540 145.5t-183 436.5q-3 125 35 283h241q-26 -137 -26 -230q0 -342 499 -342q227 0 355.5 43t128.5 121q0 49 -46 76.5t-136 27.5h-246v277h274q62 0 94.5 24.5t32.5 67.5
t-40 84.5t-144 103.5l-391 209v242l913 504l-2 -281l-620 -336l188 -112q168 -89 241.5 -187.5t73.5 -224.5q0 -94 -40 -169.5t-115 -119.5q180 -64 180 -227z" />
    <glyph glyph-name="uniFEDFFB51" unicode="&#xfedf;&#xfb51;" horiz-adv-x="1212" 
d="M96 1384h-121q0 106 49.5 165t137.5 59h6q48 111 118.5 174t151.5 63q88 0 139.5 -55.5t51.5 -151.5q0 -106 -53.5 -162.5t-155.5 -56.5q-49 0 -132 16.5t-126 16.5q-66 0 -66 -68zM424 1690q-95 0 -148 -95q98 -20 142 -20q96 0 96 53q0 29 -23.5 45.5t-66.5 16.5z
M709 0h-637v283l413 346l72 61l-598 416l150 229l624 -442q34 66 48 142.5t14 185.5v335h260v-335q0 -158 -30 -261.5t-110 -199.5q112 -92 159.5 -181.5t47.5 -207.5q0 -183 -105 -277t-308 -94zM657 526l-309 -241h375q93 0 135.5 19t42.5 61q0 39 -39.5 87t-136.5 121
l-4 5q-39 -34 -64 -52z" />
    <glyph glyph-name="uniFEDFFEE4" unicode="&#xfedf;&#xfee4;" horiz-adv-x="757" 
d="M645 154l133 -70l-139 -250l-94 51q-132 69 -252 92t-350 23v229l57 56q158 0 268 -39q-44 50 -62 107.5t-18 138.5v1064h261v-1064q0 -144 38 -207q39 -66 158 -131z" />
    <glyph glyph-name="uniFEDFFB7B" unicode="&#xfedf;&#xfb7b;" horiz-adv-x="1331" 
d="M1274 -250v-299q-108 -48 -250.5 -77t-282.5 -29q-335 0 -526 153q-188 153 -188 410q0 185 108 330t316 237q-45 -1 -170 -4.5t-189 -3.5v293h348q113 0 154 47q39 48 39 197v552h260v-552q0 -159 -49 -244h442l-2 -287h-47q-190 0 -349 -25.5t-271.5 -71t-191 -108
t-116 -136t-37.5 -155.5q0 -155 129 -242t357 -87q138 0 273.5 28.5t242.5 73.5zM979 129q0 -49 -32.5 -82t-82.5 -33q-49 0 -80.5 32.5t-31.5 82.5t31.5 82.5t80.5 32.5q50 0 82.5 -33t32.5 -82zM700 129q0 -50 -32.5 -82.5t-81.5 -32.5q-50 0 -82.5 33t-32.5 82t32.5 82
t82.5 33q49 0 81.5 -32.5t32.5 -82.5zM840 -123q0 -49 -33 -82t-82 -33t-82 33t-33 82q0 48 33 80.5t82 32.5t82 -32.5t33 -80.5z" />
    <glyph glyph-name="uniFEDFFB7D" unicode="&#xfedf;&#xfb7d;" horiz-adv-x="1376" 
d="M166 0h-223v229l57 56h174q151 0 250.5 16t245.5 61l135 48q116 38 149 45l-151 22l-185 35q-82 15 -167 18q-96 7 -232 7h-133v262h219q169 0 227 49t58 194v514h260v-514q0 -124 -32 -200.5t-103 -118.5l127 -25q265 -47 440 -47h55v-262h-65q-88 0 -169.5 -30
t-236.5 -119l-147 -80q-169 -95 -280.5 -127.5t-272.5 -32.5zM969 -225q0 -51 -35 -86t-86 -35t-86 35t-35 86t35 86t86 35t86 -35t35 -86zM674 -225q0 -51 -35 -86t-86 -35t-85 35t-34 86t34 86t85 35t86 -35t35 -86zM821 -489q0 -51 -35 -86t-86 -35t-85.5 35t-34.5 86
t34.5 84.5t85.5 33.5t86 -33.5t35 -84.5z" />
    <glyph glyph-name="uniFECBFEF2" unicode="&#xfecb;&#xfef2;" horiz-adv-x="2211" 
d="M1534 -119q0 -160 -201 -268.5t-551 -108.5t-526 147t-176 435q0 137 35 283h241q-26 -137 -26 -230q0 -168 118.5 -255t350.5 -87q260 0 387 35t127 94q0 44 -48.5 70.5t-146.5 26.5h-53v270l287 24q-74 53 -116 132.5t-42 179.5q0 191 125 316.5t321 125.5
q197 0 315.5 -112t125.5 -324h-226q-19 72 -79 112.5t-146 40.5q-105 0 -168 -52.5t-63 -145.5q0 -100 95.5 -159.5t254.5 -59.5q96 0 258 18l131 14v-270l-692 -78q88 -61 88 -174zM1079 -766q0 -57 -39 -95t-96 -38t-96 38t-39 95t39 97t96 40t96 -40t39 -97zM756 -766
q0 -57 -39 -95t-96 -38t-97.5 38t-40.5 95t40.5 97t97.5 40t96 -40t39 -97z" />
    <glyph glyph-name="uniFECFFEF2" unicode="&#xfecf;&#xfef2;" horiz-adv-x="2211" 
d="M1784 1278q0 -57 -38 -96t-95 -39t-97.5 39t-40.5 96t40.5 97t97.5 40t95 -40t38 -97zM1534 -119q0 -160 -201 -268.5t-551 -108.5t-526 147t-176 435q0 137 35 283h241q-26 -137 -26 -230q0 -168 118.5 -255t350.5 -87q260 0 387 35t127 94q0 44 -48.5 70.5t-146.5 26.5
h-53v270l287 24q-74 53 -116 132.5t-42 179.5q0 191 125 316.5t321 125.5q197 0 315.5 -112t125.5 -324h-226q-19 72 -79 112.5t-146 40.5q-105 0 -168 -52.5t-63 -145.5q0 -100 95.5 -159.5t254.5 -59.5q96 0 258 18l131 14v-270l-692 -78q88 -61 88 -174zM1079 -766
q0 -57 -39 -95t-96 -38t-96 38t-39 95t39 97t96 40t96 -40t39 -97zM756 -766q0 -57 -39 -95t-96 -38t-97.5 38t-40.5 95t40.5 97t97.5 40t96 -40t39 -97z" />
    <glyph glyph-name="uniFB58FEF2" unicode="&#xfb58;&#xfef2;" horiz-adv-x="1724" 
d="M1542 -106q0 -106 -92.5 -196t-263.5 -144t-383 -54q-362 0 -542.5 143t-180.5 423q0 116 33 299h241q-28 -157 -28 -238q0 -334 503 -334q231 0 362.5 42t131.5 116q0 44 -49 77t-150 33h-227v285h291q108 0 151 38t43 128q0 142 -36 358h249q33 -208 33 -391
q0 -152 -57.5 -247.5t-167.5 -127.5q139 -74 139 -210zM1681 -651q0 -51 -34.5 -86t-85.5 -35t-86 35t-35 86t35 86t86 35t85.5 -35t34.5 -86zM1386 -651q0 -51 -34.5 -86t-85.5 -35t-85 35t-34 86t34 86t85 35t85.5 -35t34.5 -86zM1102 -770q0 -57 -39 -96t-96 -39
t-97.5 39t-40.5 96t40.5 97t97.5 40t96 -40t39 -97zM776 -770q0 -57 -38 -96t-95 -39t-97 39t-40 96t40 97t97 40t95 -40t38 -97zM1534 -918q0 -51 -35 -85.5t-86 -34.5t-86 34.5t-35 85.5t35 86t86 35t86 -35t35 -86z" />
    <glyph glyph-name="uniFB7CFEF2" unicode="&#xfb7c;&#xfef2;" horiz-adv-x="2228" 
d="M1530 -55q0 -196 -201.5 -320.5t-535.5 -124.5q-713 0 -713 566q0 116 33 299h241q-28 -157 -28 -238q0 -334 483 -334q238 0 371 43t133 121q0 43 -45.5 76t-145.5 33h-153v243l415 135q183 59 312 91q-52 12 -111 32l-184 64q-116 39 -170 39q-44 0 -71.5 -24.5
t-35.5 -67.5h-221q6 177 93.5 276.5t236.5 99.5q95 0 262 -61l272 -90q129 -50 201 -67t160 -17h61l-2 -260h-35q-106 0 -250 -47t-386 -146l-185 -71q98 -29 148.5 -99t50.5 -151zM2099 -160q0 -51 -35 -86t-86 -35t-85.5 35t-34.5 86t34.5 86t85.5 35t86 -35t35 -86z
M1804 -160q0 -51 -35 -86t-86 -35t-84.5 35t-33.5 86t33.5 86t84.5 35t86 -35t35 -86zM1952 -424q0 -51 -35 -86t-86 -35t-86 35t-35 86t35 85t86 34t86 -34t35 -85zM1102 -770q0 -57 -39 -96t-96 -39t-97.5 39t-40.5 96t40.5 97t97.5 40t96 -40t39 -97zM776 -770
q0 -57 -38 -96t-95 -39t-97 39t-40 96t40 97t97 40t95 -40t38 -97z" />
    <glyph glyph-name="uniFB6CFEF2" unicode="&#xfb6c;&#xfef2;" horiz-adv-x="1673" 
d="M1257 1759q0 -51 -34.5 -85t-85.5 -34t-86 34t-35 85t35 86t86 35t85.5 -35t34.5 -86zM1110 1495q0 -51 -35 -86t-86 -35t-86 35t-35 86t35 86t86 35t86 -35t35 -86zM1403 1495q0 -51 -35 -86t-86 -35t-86 35t-35 86t35 86t86 35t86 -35t35 -86zM1489 -119
q0 -103 -85.5 -190t-244 -139t-356.5 -52q-723 0 -723 582q0 137 35 283h241q-26 -137 -26 -230q0 -342 499 -342q205 0 324 39.5t119 108.5q0 43 -51 67.5t-148 24.5h-229v272l293 -2q141 0 199.5 39.5t70.5 146.5q-98 -36 -281 -36q-191 0 -302 92.5t-111 251.5
q0 117 57.5 222t156 168.5t210.5 63.5q203 0 331.5 -183t128.5 -486q0 -219 -59.5 -336t-194.5 -158q146 -59 146 -207zM909 801q0 -133 226 -133q148 0 264 26q-26 127 -106.5 202t-186.5 75q-89 0 -143 -49t-54 -121zM1071 -762q0 -57 -39 -95t-96 -38t-96 38t-39 95
t39 97t96 40t96 -40t39 -97zM748 -762q0 -57 -39.5 -95t-96.5 -38t-96 38t-39 95t39 97t96 40t96.5 -40t39.5 -97z" />
    <glyph glyph-name="uniFB90FEF2" unicode="&#xfb90;&#xfef2;" horiz-adv-x="1626" 
d="M1532 -84q0 -117 -91 -212t-258 -149.5t-378 -54.5q-363 0 -540 145.5t-183 436.5q-3 125 35 283h241q-26 -137 -26 -230q0 -342 499 -342q227 0 355.5 43t128.5 121q0 49 -46 76.5t-136 27.5h-246v277h274q62 0 94.5 24.5t32.5 67.5t-40 84.5t-144 103.5l-391 209v242
l913 504l-2 -281l-620 -336l188 -112q168 -89 241.5 -187.5t73.5 -224.5q0 -94 -40 -169.5t-115 -119.5q180 -64 180 -227zM1104 -762q0 -57 -39 -95t-96 -38t-96 38t-39 95t39 97t96 40t96 -40t39 -97zM780 -762q0 -57 -39 -95t-96 -38t-96 38t-39 95t39 97t96 40t96 -40
t39 -97z" />
    <glyph glyph-name="uniFB94FEF2" unicode="&#xfb94;&#xfef2;" horiz-adv-x="1626" 
d="M1626 1901l-2 -189l-911 -504v191zM1532 -84q0 -117 -91 -212t-258 -149.5t-378 -54.5q-363 0 -540 145.5t-183 436.5q-3 125 35 283h241q-26 -137 -26 -230q0 -342 499 -342q227 0 355.5 43t128.5 121q0 49 -46 76.5t-136 27.5h-246v277h274q62 0 94.5 24.5t32.5 67.5
t-40 84.5t-144 103.5l-391 209v242l913 504l-2 -281l-620 -336l188 -112q168 -89 241.5 -187.5t73.5 -224.5q0 -94 -40 -169.5t-115 -119.5q180 -64 180 -227zM1104 -762q0 -57 -39 -95t-96 -38t-96 38t-39 95t39 97t96 40t96 -40t39 -97zM780 -762q0 -57 -39 -95t-96 -38
t-96 38t-39 95t39 97t96 40t96 -40t39 -97z" />
    <glyph glyph-name="uniFE91FE8A" unicode="&#xfe91;&#xfe8a;" horiz-adv-x="1724" 
d="M500 684v-156l-455 -65v158l82 10q-52 52 -49 127q0 86 58.5 143t146.5 57q80 0 129 -49.5t55 -136.5l-107 -14q-22 43 -81 43q-37 0 -58.5 -15.5t-21.5 -44.5q0 -41 43 -64t106 -15zM1542 -106q0 -106 -92.5 -196t-263.5 -144t-383 -54q-362 0 -542.5 143t-180.5 423
q0 116 33 299h241q-28 -157 -28 -238q0 -334 503 -334q231 0 362.5 42t131.5 116q0 44 -49 77t-150 33h-227v285h291q108 0 151 38t43 128q0 142 -36 358h249q33 -208 33 -391q0 -152 -57.5 -247.5t-167.5 -127.5q139 -74 139 -210zM1546 -674q0 -57 -39 -95t-96 -38t-96 38
t-39 95t39 97t96 40t96 -40t39 -97z" />
    <glyph glyph-name="uniFE97FE8A" unicode="&#xfe97;&#xfe8a;" horiz-adv-x="1724" 
d="M1747 1128q0 -57 -38 -96t-95 -39t-97 39t-40 96t40 96.5t97 39.5t95 -39.5t38 -96.5zM1423 1128q0 -57 -38 -96t-95 -39t-97 39t-40 96t40 96.5t97 39.5t95 -39.5t38 -96.5zM500 684v-156l-455 -65v158l82 10q-52 52 -49 127q0 86 58.5 143t146.5 57q80 0 129 -49.5
t55 -136.5l-107 -14q-22 43 -81 43q-37 0 -58.5 -15.5t-21.5 -44.5q0 -41 43 -64t106 -15zM1542 -106q0 -106 -92.5 -196t-263.5 -144t-383 -54q-362 0 -542.5 143t-180.5 423q0 116 33 299h241q-28 -157 -28 -238q0 -334 503 -334q231 0 362.5 42t131.5 116q0 44 -49 77
t-150 33h-227v285h291q108 0 151 38t43 128q0 142 -36 358h249q33 -208 33 -391q0 -152 -57.5 -247.5t-167.5 -127.5q139 -74 139 -210z" />
    <glyph glyph-name="uniFE9BFE8A" unicode="&#xfe9b;&#xfe8a;" horiz-adv-x="1724" 
d="M1571 1378q0 -51 -34 -84.5t-85 -33.5t-86 33.5t-35 84.5t35 86t86 35t85 -35t34 -86zM1423 1114q0 -51 -33.5 -86t-84.5 -35t-86 35t-35 86t35 86t86 35t84.5 -35t33.5 -86zM1718 1114q0 -51 -35 -86t-86 -35t-85.5 35t-34.5 86t34.5 86t85.5 35t86 -35t35 -86zM500 684
v-156l-455 -65v158l82 10q-52 52 -49 127q0 86 58.5 143t146.5 57q80 0 129 -49.5t55 -136.5l-107 -14q-22 43 -81 43q-37 0 -58.5 -15.5t-21.5 -44.5q0 -41 43 -64t106 -15zM1542 -106q0 -106 -92.5 -196t-263.5 -144t-383 -54q-362 0 -542.5 143t-180.5 423q0 116 33 299
h241q-28 -157 -28 -238q0 -334 503 -334q231 0 362.5 42t131.5 116q0 44 -49 77t-150 33h-227v285h291q108 0 151 38t43 128q0 142 -36 358h249q33 -208 33 -391q0 -152 -57.5 -247.5t-167.5 -127.5q139 -74 139 -210z" />
    <glyph glyph-name="uniFE9FFE8A" unicode="&#xfe9f;&#xfe8a;" horiz-adv-x="2228" 
d="M463 684v-156l-455 -65v158l82 10q-51 51 -51 127q0 86 58.5 143t146.5 57q80 0 129.5 -49t56.5 -137l-106 -14q-25 43 -82 43q-80 0 -80 -60q0 -41 43 -64t106 -15zM1530 -55q0 -196 -201.5 -320.5t-535.5 -124.5q-713 0 -713 566q0 116 33 299h241q-28 -157 -28 -238
q0 -334 483 -334q238 0 371 43t133 121q0 43 -45.5 76t-145.5 33h-153v243l415 135q183 59 312 91q-52 12 -111 32l-184 64q-116 39 -170 39q-44 0 -71.5 -24.5t-35.5 -67.5h-221q6 177 93.5 276.5t236.5 99.5q95 0 262 -61l272 -90q129 -50 201 -67t160 -17h61l-2 -260h-35
q-106 0 -250 -47t-386 -146l-185 -71q98 -29 148.5 -99t50.5 -151zM1964 -180q0 -57 -39 -96t-96 -39t-96 39t-39 96t39 96t96 39t96 -39t39 -96z" />
    <glyph glyph-name="uniFEA3FE8A" unicode="&#xfea3;&#xfe8a;" horiz-adv-x="2228" 
d="M463 684v-156l-455 -65v158l82 10q-51 51 -51 127q0 86 58.5 143t146.5 57q80 0 129.5 -49t56.5 -137l-106 -14q-25 43 -82 43q-80 0 -80 -60q0 -41 43 -64t106 -15zM1530 -55q0 -196 -201.5 -320.5t-535.5 -124.5q-713 0 -713 566q0 116 33 299h241q-28 -157 -28 -238
q0 -334 483 -334q238 0 371 43t133 121q0 43 -45.5 76t-145.5 33h-153v243l415 135q183 59 312 91q-52 12 -111 32l-184 64q-116 39 -170 39q-44 0 -71.5 -24.5t-35.5 -67.5h-221q6 177 93.5 276.5t236.5 99.5q95 0 262 -61l272 -90q129 -50 201 -67t160 -17h61l-2 -260h-35
q-106 0 -250 -47t-386 -146l-185 -71q98 -29 148.5 -99t50.5 -151z" />
    <glyph glyph-name="uniFEA7FE8A" unicode="&#xfea7;&#xfe8a;" horiz-adv-x="2228" 
d="M1462 1194q0 -57 -39 -95t-96 -38t-97 38t-40 95t40 97t97 40t96 -40t39 -97zM463 684v-156l-455 -65v158l82 10q-51 51 -51 127q0 86 58.5 143t146.5 57q80 0 129.5 -49t56.5 -137l-106 -14q-25 43 -82 43q-80 0 -80 -60q0 -41 43 -64t106 -15zM1530 -55
q0 -196 -201.5 -320.5t-535.5 -124.5q-713 0 -713 566q0 116 33 299h241q-28 -157 -28 -238q0 -334 483 -334q238 0 371 43t133 121q0 43 -45.5 76t-145.5 33h-153v243l415 135q183 59 312 91q-52 12 -111 32l-184 64q-116 39 -170 39q-44 0 -71.5 -24.5t-35.5 -67.5h-221
q6 177 93.5 276.5t236.5 99.5q95 0 262 -61l272 -90q129 -50 201 -67t160 -17h61l-2 -260h-35q-106 0 -250 -47t-386 -146l-185 -71q98 -29 148.5 -99t50.5 -151z" />
    <glyph glyph-name="uniFEB3FE8A" unicode="&#xfeb3;&#xfe8a;" horiz-adv-x="2990" 
d="M446 684v-156l-454 -65v158l82 10q-51 51 -51 127q2 86 60 143t146 57q80 0 129 -49t56 -137l-107 -14q-10 20 -32.5 31.5t-49.5 11.5q-37 0 -58.5 -15.5t-21.5 -44.5q0 -41 43.5 -64t106.5 -15zM1524 -2q0 -148 -99 -262.5t-269 -175t-382 -60.5q-351 0 -522.5 144
t-171.5 438q0 118 31 283h241q-26 -137 -26 -230q0 -174 118 -258t365 -84q210 0 349.5 47.5t139.5 120.5q0 42 -45 68t-149 39l-230 32q-150 20 -224.5 96.5t-74.5 198.5q0 99 53.5 195.5t139.5 168.5t198.5 116.5t225.5 44.5q182 0 297 -89q119 -92 211 -290l53 -111
q43 -97 84 -129.5t121 -32.5q184 0 184 240v76h246v-105q0 -104 38.5 -157.5t98.5 -53.5q135 0 135 183q0 88 -30 276h256q20 -149 20 -285q0 -228 -101.5 -346.5t-283.5 -118.5q-119 0 -206 61t-111 165q-19 -110 -91.5 -168t-191.5 -58q-141 0 -225 66t-166 252l-45 102
q-61 130 -144 184t-219 54q-130 0 -227.5 -51t-97.5 -121q0 -38 33 -59.5t114 -34.5l242 -35q184 -25 261 -107t77 -229z" />
    <glyph glyph-name="uniFEB7FE8A" unicode="&#xfeb7;&#xfe8a;" horiz-adv-x="2990" 
d="M2347 1116q0 -51 -34 -86t-85 -35t-86 35t-35 86t35 86t86 35t85 -35t34 -86zM2200 850q0 -51 -34 -85t-85 -34t-86 34t-35 85t35 86t86 35t85 -35t34 -86zM2494 850q0 -51 -34.5 -85t-85.5 -34t-86 34t-35 85t35 86t86 35t85.5 -35t34.5 -86zM446 684v-156l-454 -65v158
l82 10q-51 51 -51 127q2 86 60 143t146 57q80 0 129 -49t56 -137l-107 -14q-10 20 -32.5 31.5t-49.5 11.5q-37 0 -58.5 -15.5t-21.5 -44.5q0 -41 43.5 -64t106.5 -15zM1524 -2q0 -148 -99 -262.5t-269 -175t-382 -60.5q-351 0 -522.5 144t-171.5 438q0 118 31 283h241
q-26 -137 -26 -230q0 -174 118 -258t365 -84q210 0 349.5 47.5t139.5 120.5q0 42 -45 68t-149 39l-230 32q-150 20 -224.5 96.5t-74.5 198.5q0 99 53.5 195.5t139.5 168.5t198.5 116.5t225.5 44.5q182 0 297 -89q119 -92 211 -290l53 -111q43 -97 84 -129.5t121 -32.5
q184 0 184 240v76h246v-105q0 -104 38.5 -157.5t98.5 -53.5q135 0 135 183q0 88 -30 276h256q20 -149 20 -285q0 -228 -101.5 -346.5t-283.5 -118.5q-119 0 -206 61t-111 165q-19 -110 -91.5 -168t-191.5 -58q-141 0 -225 66t-166 252l-45 102q-61 130 -144 184t-219 54
q-130 0 -227.5 -51t-97.5 -121q0 -38 33 -59.5t114 -34.5l242 -35q184 -25 261 -107t77 -229z" />
    <glyph glyph-name="uniFEBBFE8A" unicode="&#xfebb;&#xfe8a;" horiz-adv-x="3022" 
d="M446 684v-156l-454 -65v158l82 10q-51 51 -51 127q2 86 60 143t146 57q80 0 129 -49t56 -137l-107 -14q-10 20 -32.5 31.5t-49.5 11.5q-37 0 -58.5 -15.5t-21.5 -44.5q0 -41 43.5 -64t106.5 -15zM1524 -2q0 -148 -99 -262.5t-269 -175t-382 -60.5q-351 0 -522.5 144
t-171.5 438q0 118 31 283h241q-26 -137 -26 -230q0 -174 118 -258t365 -84q210 0 349.5 47.5t139.5 120.5q0 42 -45 68t-149 39l-230 32q-150 20 -224.5 96.5t-74.5 198.5q0 99 53.5 195.5t139.5 168.5t198.5 116.5t225.5 44.5q91 0 159.5 -21t126.5 -71.5t104 -115.5
t104 -171l59 -111q10 -22 29 -49q139 264 327 409.5t406 145.5q105 0 191.5 -36.5t143.5 -99t88 -144t31 -171.5q0 -251 -197.5 -379.5t-588.5 -128.5q-198 0 -313 28t-189.5 94t-142.5 196l-53 102q-67 131 -144.5 184.5t-210.5 53.5q-130 0 -227.5 -51t-97.5 -121
q0 -38 33 -59.5t114 -34.5l242 -35q184 -25 261 -107t77 -229zM2497 651q-161 0 -307 -95.5t-265 -266.5q104 -23 309 -23q274 0 399.5 51t125.5 162q0 67 -70.5 119.5t-191.5 52.5z" />
    <glyph glyph-name="uniFEBFFE8A" unicode="&#xfebf;&#xfe8a;" horiz-adv-x="3022" 
d="M2576 1194q0 -57 -38 -95t-95 -38t-97 38t-40 95t40 97t97 40t95 -40t38 -97zM446 684v-156l-454 -65v158l82 10q-51 51 -51 127q2 86 60 143t146 57q80 0 129 -49t56 -137l-107 -14q-10 20 -32.5 31.5t-49.5 11.5q-37 0 -58.5 -15.5t-21.5 -44.5q0 -41 43.5 -64
t106.5 -15zM1524 -2q0 -148 -99 -262.5t-269 -175t-382 -60.5q-351 0 -522.5 144t-171.5 438q0 118 31 283h241q-26 -137 -26 -230q0 -174 118 -258t365 -84q210 0 349.5 47.5t139.5 120.5q0 42 -45 68t-149 39l-230 32q-150 20 -224.5 96.5t-74.5 198.5q0 99 53.5 195.5
t139.5 168.5t198.5 116.5t225.5 44.5q91 0 159.5 -21t126.5 -71.5t104 -115.5t104 -171l59 -111q10 -22 29 -49q139 264 327 409.5t406 145.5q105 0 191.5 -36.5t143.5 -99t88 -144t31 -171.5q0 -251 -197.5 -379.5t-588.5 -128.5q-198 0 -313 28t-189.5 94t-142.5 196
l-53 102q-67 131 -144.5 184.5t-210.5 53.5q-130 0 -227.5 -51t-97.5 -121q0 -38 33 -59.5t114 -34.5l242 -35q184 -25 261 -107t77 -229zM2497 651q-161 0 -307 -95.5t-265 -266.5q104 -23 309 -23q274 0 399.5 51t125.5 162q0 67 -70.5 119.5t-191.5 52.5z" />
    <glyph glyph-name="uniFECBFE8A" unicode="&#xfecb;&#xfe8a;" horiz-adv-x="2211" 
d="M1534 -119q0 -160 -201 -268.5t-551 -108.5t-526 147t-176 435q0 137 35 283h241q-26 -137 -26 -230q0 -168 118.5 -255t350.5 -87q260 0 387 35t127 94q0 44 -48.5 70.5t-146.5 26.5h-53v270l287 24q-74 53 -116 132.5t-42 179.5q0 191 125 316.5t321 125.5
q197 0 315.5 -112t125.5 -324h-226q-19 72 -79 112.5t-146 40.5q-105 0 -168 -52.5t-63 -145.5q0 -100 95.5 -159.5t254.5 -59.5q96 0 258 18l131 14v-270l-692 -78q88 -61 88 -174zM467 688v-156l-455 -65v158l82 12q-51 48 -51 125q0 86 58.5 143.5t146.5 57.5
q80 0 129.5 -49.5t56.5 -137.5l-106 -14q-25 43 -82 43q-80 0 -80 -60q0 -42 43.5 -64.5t105.5 -12.5z" />
    <glyph glyph-name="uniFECFFE8A" unicode="&#xfecf;&#xfe8a;" horiz-adv-x="2211" 
d="M1784 1278q0 -57 -38 -96t-95 -39t-97.5 39t-40.5 96t40.5 97t97.5 40t95 -40t38 -97zM1534 -119q0 -160 -201 -268.5t-551 -108.5t-526 147t-176 435q0 137 35 283h241q-26 -137 -26 -230q0 -168 118.5 -255t350.5 -87q260 0 387 35t127 94q0 44 -48.5 70.5t-146.5 26.5
h-53v270l287 24q-74 53 -116 132.5t-42 179.5q0 191 125 316.5t321 125.5q197 0 315.5 -112t125.5 -324h-226q-19 72 -79 112.5t-146 40.5q-105 0 -168 -52.5t-63 -145.5q0 -100 95.5 -159.5t254.5 -59.5q96 0 258 18l131 14v-270l-692 -78q88 -61 88 -174zM467 688v-156
l-455 -65v158l82 12q-51 48 -51 125q0 86 58.5 143.5t146.5 57.5q80 0 129.5 -49.5t56.5 -137.5l-106 -14q-25 43 -82 43q-80 0 -80 -60q0 -42 43.5 -64.5t105.5 -12.5z" />
    <glyph glyph-name="uniFED3FE8A" unicode="&#xfed3;&#xfe8a;" horiz-adv-x="1673" 
d="M1266 1509q0 -57 -39.5 -96t-96.5 -39t-96 39t-39 96t39 96.5t96 39.5t96.5 -39.5t39.5 -96.5zM1489 -119q0 -103 -85.5 -190t-244 -139t-356.5 -52q-723 0 -723 582q0 137 35 283h241q-26 -137 -26 -230q0 -342 499 -342q205 0 324 39.5t119 108.5q0 43 -51 67.5
t-148 24.5h-229v272l293 -2q141 0 199.5 39.5t70.5 146.5q-98 -36 -281 -36q-191 0 -302 92.5t-111 251.5q0 117 57.5 222t156 168.5t210.5 63.5q203 0 331.5 -183t128.5 -486q0 -219 -59.5 -336t-194.5 -158q146 -59 146 -207zM909 801q0 -133 226 -133q148 0 264 26
q-26 127 -106.5 202t-186.5 75q-89 0 -143 -49t-54 -121zM465 684v-156l-455 -65v158l82 10q-51 51 -51 127q1 86 60 143t147 57q78 0 127.5 -49.5t56.5 -136.5l-106 -14q-10 20 -32.5 31.5t-49.5 11.5q-80 0 -80 -60q0 -41 43 -64t106 -15z" />
    <glyph glyph-name="uniFED7FE8A" unicode="&#xfed7;&#xfe8a;" horiz-adv-x="1673" 
d="M1434 1509q0 -57 -39.5 -96t-96.5 -39t-97 39t-40 96t40 96.5t97 39.5t96.5 -39.5t39.5 -96.5zM1110 1509q0 -57 -39 -96t-96 -39t-97 39t-40 96t40 96.5t97 39.5t96 -39.5t39 -96.5zM1489 -119q0 -103 -85.5 -190t-244 -139t-356.5 -52q-723 0 -723 582q0 137 35 283
h241q-26 -137 -26 -230q0 -342 499 -342q205 0 324 39.5t119 108.5q0 43 -51 67.5t-148 24.5h-229v272l293 -2q141 0 199.5 39.5t70.5 146.5q-98 -36 -281 -36q-191 0 -302 92.5t-111 251.5q0 117 57.5 222t156 168.5t210.5 63.5q203 0 331.5 -183t128.5 -486
q0 -219 -59.5 -336t-194.5 -158q146 -59 146 -207zM909 801q0 -133 226 -133q148 0 264 26q-26 127 -106.5 202t-186.5 75q-89 0 -143 -49t-54 -121zM465 684v-156l-455 -65v158l82 10q-51 51 -51 127q1 86 60 143t147 57q78 0 127.5 -49.5t56.5 -136.5l-106 -14
q-10 20 -32.5 31.5t-49.5 11.5q-80 0 -80 -60q0 -41 43 -64t106 -15z" />
    <glyph glyph-name="uniFEDBFE8A" unicode="&#xfedb;&#xfe8a;" horiz-adv-x="1626" 
d="M1530 -84q0 -117 -91 -212t-258 -149.5t-378 -54.5q-363 0 -540 145.5t-183 436.5q-3 125 35 283h241q-26 -137 -26 -230q0 -342 499 -342q227 0 355.5 43t128.5 121q0 49 -46.5 76.5t-136.5 27.5h-245v277h274q62 0 94.5 24.5t32.5 67.5t-40 84.5t-144 103.5l-391 209
v242l913 504l-2 -281l-621 -336l189 -112q168 -89 241.5 -187.5t73.5 -224.5q0 -94 -40 -169.5t-115 -119.5q180 -64 180 -227zM465 684v-156l-453 -65v158l80 10q-52 52 -49 127q0 86 58.5 143t146.5 57q80 0 129 -49.5t55 -136.5l-104 -14q-25 43 -84 43
q-37 0 -58.5 -15.5t-21.5 -44.5q0 -41 44 -64t107 -15z" />
    <glyph glyph-name="uniFEDFFE8A" unicode="&#xfedf;&#xfe8a;" horiz-adv-x="1687" 
d="M1530 -96q0 -111 -91 -203t-258.5 -146.5t-377.5 -54.5q-723 0 -723 582q0 137 35 283h241q-26 -137 -26 -230q0 -342 499 -342q226 0 355 42t129 116q0 43 -52 76.5t-149 33.5h-227v285h196q121 0 165 39.5t44 138.5v1032h260v-1032q0 -161 -41 -257.5t-129 -139.5
q150 -64 150 -223zM463 684v-156l-455 -65v158l82 10q-51 51 -51 127q1 86 60 143t147 57q80 0 129 -49.5t55 -136.5l-106 -14q-22 43 -82 43q-37 0 -58.5 -15.5t-21.5 -44.5q0 -41 43 -64t106 -15z" />
    <glyph glyph-name="uniFEE7FE8A" unicode="&#xfee7;&#xfe8a;" horiz-adv-x="1724" 
d="M1581 1128q0 -57 -39 -96t-96 -39t-97 39t-40 96t40 96.5t97 39.5t96 -39.5t39 -96.5zM500 684v-156l-455 -65v158l82 10q-52 52 -49 127q0 86 58.5 143t146.5 57q80 0 129 -49.5t55 -136.5l-107 -14q-22 43 -81 43q-37 0 -58.5 -15.5t-21.5 -44.5q0 -41 43 -64t106 -15z
M1542 -106q0 -106 -92.5 -196t-263.5 -144t-383 -54q-362 0 -542.5 143t-180.5 423q0 116 33 299h241q-28 -157 -28 -238q0 -334 503 -334q231 0 362.5 42t131.5 116q0 44 -49 77t-150 33h-227v285h291q108 0 151 38t43 128q0 142 -36 358h249q33 -208 33 -391
q0 -152 -57.5 -247.5t-167.5 -127.5q139 -74 139 -210z" />
    <glyph glyph-name="uniFEEBFE8A" unicode="&#xfeeb;&#xfe8a;" horiz-adv-x="2545" 
d="M1532 -131q0 -156 -201 -262.5t-551 -106.5q-349 0 -524.5 147t-175.5 435q0 137 35 283h241q-26 -137 -26 -230q0 -168 117.5 -255t349.5 -87q259 0 387.5 35t128.5 92q0 98 -209 98h-41v267h154q70 0 172 4q-70 124 -70 248q0 114 59 207.5t154 138.5v204l338 -98
q349 -103 483 -225q137 -122 137 -334q0 -211 -132 -332t-371 -121q-219 0 -394 109q-102 -25 -180 -35q119 -67 119 -182zM465 684v-156l-453 -65v158l80 10q-52 52 -49 127q0 86 58.5 143t146.5 57q80 0 129 -49.5t55 -136.5l-104 -14q-25 43 -84 43q-37 0 -58.5 -15.5
t-21.5 -44.5q0 -41 44 -64t107 -15zM1524 537q0 -130 147 -205q201 58 201 200q0 75 -52.5 127t-127.5 52q-74 0 -121 -50t-47 -124zM2062 537q0 -154 -120 -271q62 -4 96 -4q252 0 252 162q0 72 -55.5 124t-184.5 99q12 -53 12 -110z" />
    <glyph glyph-name="uniFEF3FE8A" unicode="&#xfef3;&#xfe8a;" horiz-adv-x="1724" 
d="M500 684v-156l-455 -65v158l82 10q-52 52 -49 127q0 86 58.5 143t146.5 57q80 0 129 -49.5t55 -136.5l-107 -14q-22 43 -81 43q-37 0 -58.5 -15.5t-21.5 -44.5q0 -41 43 -64t106 -15zM1542 -106q0 -106 -92.5 -196t-263.5 -144t-383 -54q-362 0 -542.5 143t-180.5 423
q0 116 33 299h241q-28 -157 -28 -238q0 -334 503 -334q231 0 362.5 42t131.5 116q0 44 -49 77t-150 33h-227v285h291q108 0 151 38t43 128q0 142 -36 358h249q33 -208 33 -391q0 -152 -57.5 -247.5t-167.5 -127.5q139 -74 139 -210zM1712 -674q0 -57 -39 -95t-96 -38t-96 38
t-39 95t39 97t96 40t96 -40t39 -97zM1389 -674q0 -57 -39.5 -95t-96.5 -38t-96 38t-39 95t39 97t96 40t96.5 -40t39.5 -97z" />
    <glyph glyph-name="uniFB58FE8A" unicode="&#xfb58;&#xfe8a;" horiz-adv-x="1724" 
d="M500 684v-156l-455 -65v158l82 10q-52 52 -49 127q0 86 58.5 143t146.5 57q80 0 129 -49.5t55 -136.5l-107 -14q-22 43 -81 43q-37 0 -58.5 -15.5t-21.5 -44.5q0 -41 43 -64t106 -15zM1542 -106q0 -106 -92.5 -196t-263.5 -144t-383 -54q-362 0 -542.5 143t-180.5 423
q0 116 33 299h241q-28 -157 -28 -238q0 -334 503 -334q231 0 362.5 42t131.5 116q0 44 -49 77t-150 33h-227v285h291q108 0 151 38t43 128q0 142 -36 358h249q33 -208 33 -391q0 -152 -57.5 -247.5t-167.5 -127.5q139 -74 139 -210zM1681 -651q0 -51 -34.5 -86t-85.5 -35
t-86 35t-35 86t35 86t86 35t85.5 -35t34.5 -86zM1386 -651q0 -51 -34.5 -86t-85.5 -35t-85 35t-34 86t34 86t85 35t85.5 -35t34.5 -86zM1534 -918q0 -51 -35 -85.5t-86 -34.5t-86 34.5t-35 85.5t35 86t86 35t86 -35t35 -86z" />
    <glyph glyph-name="uniFB7CFE8A" unicode="&#xfb7c;&#xfe8a;" horiz-adv-x="2228" 
d="M463 684v-156l-455 -65v158l82 10q-51 51 -51 127q0 86 58.5 143t146.5 57q80 0 129.5 -49t56.5 -137l-106 -14q-25 43 -82 43q-80 0 -80 -60q0 -41 43 -64t106 -15zM1530 -55q0 -196 -201.5 -320.5t-535.5 -124.5q-713 0 -713 566q0 116 33 299h241q-28 -157 -28 -238
q0 -334 483 -334q238 0 371 43t133 121q0 43 -45.5 76t-145.5 33h-153v243l415 135q183 59 312 91q-52 12 -111 32l-184 64q-116 39 -170 39q-44 0 -71.5 -24.5t-35.5 -67.5h-221q6 177 93.5 276.5t236.5 99.5q95 0 262 -61l272 -90q129 -50 201 -67t160 -17h61l-2 -260h-35
q-106 0 -250 -47t-386 -146l-185 -71q98 -29 148.5 -99t50.5 -151zM2099 -160q0 -51 -35 -86t-86 -35t-85.5 35t-34.5 86t34.5 86t85.5 35t86 -35t35 -86zM1804 -160q0 -51 -35 -86t-86 -35t-84.5 35t-33.5 86t33.5 86t84.5 35t86 -35t35 -86zM1952 -424q0 -51 -35 -86
t-86 -35t-86 35t-35 86t35 85t86 34t86 -34t35 -85z" />
    <glyph glyph-name="uniFB6CFE8A" unicode="&#xfb6c;&#xfe8a;" horiz-adv-x="1673" 
d="M1257 1759q0 -51 -34.5 -85t-85.5 -34t-86 34t-35 85t35 86t86 35t85.5 -35t34.5 -86zM1110 1495q0 -51 -35 -86t-86 -35t-86 35t-35 86t35 86t86 35t86 -35t35 -86zM1403 1495q0 -51 -35 -86t-86 -35t-86 35t-35 86t35 86t86 35t86 -35t35 -86zM1489 -119
q0 -103 -85.5 -190t-244 -139t-356.5 -52q-723 0 -723 582q0 137 35 283h241q-26 -137 -26 -230q0 -342 499 -342q205 0 324 39.5t119 108.5q0 43 -51 67.5t-148 24.5h-229v272l293 -2q141 0 199.5 39.5t70.5 146.5q-98 -36 -281 -36q-191 0 -302 92.5t-111 251.5
q0 117 57.5 222t156 168.5t210.5 63.5q203 0 331.5 -183t128.5 -486q0 -219 -59.5 -336t-194.5 -158q146 -59 146 -207zM909 801q0 -133 226 -133q148 0 264 26q-26 127 -106.5 202t-186.5 75q-89 0 -143 -49t-54 -121zM465 684v-156l-455 -65v158l82 10q-51 51 -51 127
q1 86 60 143t147 57q78 0 127.5 -49.5t56.5 -136.5l-106 -14q-10 20 -32.5 31.5t-49.5 11.5q-80 0 -80 -60q0 -41 43 -64t106 -15z" />
    <glyph glyph-name="uniFB94FE8A" unicode="&#xfb94;&#xfe8a;" horiz-adv-x="1626" 
d="M1624 1901l-2 -189l-911 -504v191zM1530 -84q0 -117 -91 -212t-258 -149.5t-378 -54.5q-363 0 -540 145.5t-183 436.5q-3 125 35 283h241q-26 -137 -26 -230q0 -342 499 -342q227 0 355.5 43t128.5 121q0 49 -46.5 76.5t-136.5 27.5h-245v277h274q62 0 94.5 24.5
t32.5 67.5t-40 84.5t-144 103.5l-391 209v242l913 504l-2 -281l-621 -336l189 -112q168 -89 241.5 -187.5t73.5 -224.5q0 -94 -40 -169.5t-115 -119.5q180 -64 180 -227zM465 684v-156l-453 -65v158l80 10q-52 52 -49 127q0 86 58.5 143t146.5 57q80 0 129 -49.5t55 -136.5
l-104 -14q-25 43 -84 43q-37 0 -58.5 -15.5t-21.5 -44.5q0 -41 44 -64t107 -15z" />
    <glyph glyph-name="uniFE8BFE8A" unicode="&#xfe8b;&#xfe8a;" horiz-adv-x="1724" 
d="M1671 1190v-158l-452 -65v157l81 13q-54 48 -51 125q0 86 58.5 143t146.5 57q80 0 129 -49.5t55 -136.5l-104 -12q-28 43 -84 43q-37 0 -58.5 -16.5t-21.5 -45.5q0 -39 45 -63.5t107 -14.5zM1542 -106q0 -106 -92.5 -196t-263.5 -144t-383 -54q-362 0 -542.5 143
t-180.5 423q0 116 33 299h241q-28 -157 -28 -238q0 -334 503 -334q231 0 362.5 42t131.5 116q0 44 -49 77t-150 33h-227v285h291q108 0 151 38t43 128q0 142 -36 358h249q33 -208 33 -391q0 -152 -57.5 -247.5t-167.5 -127.5q139 -74 139 -210zM1102 -770q0 -57 -39 -96
t-96 -39t-97.5 39t-40.5 96t40.5 97t97.5 40t96 -40t39 -97zM776 -770q0 -57 -38 -96t-95 -39t-97 39t-40 96t40 97t97 40t95 -40t38 -97z" />
    <glyph glyph-name="uniFE91FBFD" unicode="&#xfe91;&#xfbfd;" horiz-adv-x="1724" 
d="M1542 -106q0 -106 -92.5 -196t-263.5 -144t-383 -54q-362 0 -542.5 143t-180.5 423q0 116 33 299h241q-28 -157 -28 -238q0 -334 503 -334q231 0 362.5 42t131.5 116q0 44 -49 77t-150 33h-227v285h291q108 0 151 38t43 128q0 142 -36 358h249q33 -208 33 -391
q0 -152 -57.5 -247.5t-167.5 -127.5q139 -74 139 -210zM1546 -674q0 -57 -39 -95t-96 -38t-96 38t-39 95t39 97t96 40t96 -40t39 -97z" />
    <glyph glyph-name="uniFE97FBFD" unicode="&#xfe97;&#xfbfd;" horiz-adv-x="1724" 
d="M1747 1128q0 -57 -38 -96t-95 -39t-97 39t-40 96t40 96.5t97 39.5t95 -39.5t38 -96.5zM1423 1128q0 -57 -38 -96t-95 -39t-97 39t-40 96t40 96.5t97 39.5t95 -39.5t38 -96.5zM1542 -106q0 -106 -92.5 -196t-263.5 -144t-383 -54q-362 0 -542.5 143t-180.5 423
q0 116 33 299h241q-28 -157 -28 -238q0 -334 503 -334q231 0 362.5 42t131.5 116q0 44 -49 77t-150 33h-227v285h291q108 0 151 38t43 128q0 142 -36 358h249q33 -208 33 -391q0 -152 -57.5 -247.5t-167.5 -127.5q139 -74 139 -210z" />
    <glyph glyph-name="uniFE9BFBFD" unicode="&#xfe9b;&#xfbfd;" horiz-adv-x="1724" 
d="M1571 1378q0 -51 -34 -84.5t-85 -33.5t-86 33.5t-35 84.5t35 86t86 35t85 -35t34 -86zM1423 1114q0 -51 -33.5 -86t-84.5 -35t-86 35t-35 86t35 86t86 35t84.5 -35t33.5 -86zM1718 1114q0 -51 -35 -86t-86 -35t-85.5 35t-34.5 86t34.5 86t85.5 35t86 -35t35 -86z
M1542 -106q0 -106 -92.5 -196t-263.5 -144t-383 -54q-362 0 -542.5 143t-180.5 423q0 116 33 299h241q-28 -157 -28 -238q0 -334 503 -334q231 0 362.5 42t131.5 116q0 44 -49 77t-150 33h-227v285h291q108 0 151 38t43 128q0 142 -36 358h249q33 -208 33 -391
q0 -152 -57.5 -247.5t-167.5 -127.5q139 -74 139 -210z" />
    <glyph glyph-name="uniFE9FFBFD" unicode="&#xfe9f;&#xfbfd;" horiz-adv-x="2228" 
d="M1530 -55q0 -196 -201.5 -320.5t-535.5 -124.5q-713 0 -713 566q0 116 33 299h241q-28 -157 -28 -238q0 -334 483 -334q238 0 371 43t133 121q0 43 -45.5 76t-145.5 33h-153v243l415 135q183 59 312 91q-52 12 -111 32l-184 64q-116 39 -170 39q-44 0 -71.5 -24.5
t-35.5 -67.5h-221q6 177 93.5 276.5t236.5 99.5q95 0 262 -61l272 -90q129 -50 201 -67t160 -17h61l-2 -260h-35q-106 0 -250 -47t-386 -146l-185 -71q98 -29 148.5 -99t50.5 -151zM1964 -180q0 -57 -39 -96t-96 -39t-96 39t-39 96t39 96t96 39t96 -39t39 -96z" />
    <glyph glyph-name="uniFEA3FBFD" unicode="&#xfea3;&#xfbfd;" horiz-adv-x="2187" 
d="M1489 -55q0 -196 -190 -320.5t-506 -124.5q-713 0 -713 566q0 116 33 299h241q-28 -157 -28 -238q0 -334 483 -334q218 0 340.5 43t122.5 121q0 43 -45.5 76t-145.5 33h-153v243l415 135q183 59 312 91q-52 12 -111 32l-184 64q-116 39 -170 39q-44 0 -71.5 -24.5
t-35.5 -67.5h-221q6 177 93.5 276.5t236.5 99.5q95 0 262 -61l272 -90q129 -50 201 -67t160 -17h61l-2 -260h-35q-106 0 -250 -47t-386 -146l-185 -71q98 -29 148.5 -99t50.5 -151z" />
    <glyph glyph-name="uniFEA7FBFD" unicode="&#xfea7;&#xfbfd;" horiz-adv-x="2228" 
d="M1462 1194q0 -57 -39 -95t-96 -38t-97 38t-40 95t40 97t97 40t96 -40t39 -97zM1530 -55q0 -196 -201.5 -320.5t-535.5 -124.5q-713 0 -713 566q0 116 33 299h241q-28 -157 -28 -238q0 -334 483 -334q238 0 371 43t133 121q0 43 -45.5 76t-145.5 33h-153v243l415 135
q183 59 312 91q-52 12 -111 32l-184 64q-116 39 -170 39q-44 0 -71.5 -24.5t-35.5 -67.5h-221q6 177 93.5 276.5t236.5 99.5q95 0 262 -61l272 -90q129 -50 201 -67t160 -17h61l-2 -260h-35q-106 0 -250 -47t-386 -146l-185 -71q98 -29 148.5 -99t50.5 -151z" />
    <glyph glyph-name="uniFEB3FBFD" unicode="&#xfeb3;&#xfbfd;" horiz-adv-x="2916" 
d="M1454 -16q0 -140 -94 -251.5t-253.5 -172t-352.5 -60.5q-331 0 -502.5 147.5t-171.5 434.5q0 118 31 283h241q-26 -137 -26 -230q0 -165 119.5 -253.5t326.5 -88.5q189 0 318 41.5t129 112.5q0 55 -146 84l-176 37q-138 26 -199 90.5t-61 173.5q0 92 50.5 186
t129.5 164.5t180 115t197 44.5q145 0 244.5 -69.5t189.5 -244.5l55 -110q39 -79 84 -114.5t117 -35.5q184 0 184 240v76h246v-105q0 -104 38.5 -157.5t98.5 -53.5q134 0 134 183q0 94 -29 276h256q20 -149 20 -285q0 -228 -101.5 -346.5t-283.5 -118.5q-118 0 -204.5 58.5
t-112.5 161.5q-20 -108 -92.5 -164t-190.5 -56q-71 0 -128.5 20.5t-103 63t-81 94t-74.5 128.5l-51 102q-48 99 -115 141.5t-159 42.5q-101 0 -191 -53t-90 -119q0 -28 21 -46t75 -29l205 -46q160 -28 229.5 -99.5t69.5 -192.5z" />
    <glyph glyph-name="uniFEB7FBFD" unicode="&#xfeb7;&#xfbfd;" horiz-adv-x="2990" 
d="M2347 1116q0 -51 -34 -86t-85 -35t-86 35t-35 86t35 86t86 35t85 -35t34 -86zM2200 850q0 -51 -34 -85t-85 -34t-86 34t-35 85t35 86t86 35t85 -35t34 -86zM2494 850q0 -51 -34.5 -85t-85.5 -34t-86 34t-35 85t35 86t86 35t85.5 -35t34.5 -86zM1524 -2q0 -148 -99 -262.5
t-269 -175t-382 -60.5q-351 0 -522.5 144t-171.5 438q0 118 31 283h241q-26 -137 -26 -230q0 -174 118 -258t365 -84q210 0 349.5 47.5t139.5 120.5q0 42 -45 68t-149 39l-230 32q-150 20 -224.5 96.5t-74.5 198.5q0 99 53.5 195.5t139.5 168.5t198.5 116.5t225.5 44.5
q182 0 297 -89q119 -92 211 -290l53 -111q43 -97 84 -129.5t121 -32.5q184 0 184 240v76h246v-105q0 -104 38.5 -157.5t98.5 -53.5q135 0 135 183q0 88 -30 276h256q20 -149 20 -285q0 -228 -101.5 -346.5t-283.5 -118.5q-119 0 -206 61t-111 165q-19 -110 -91.5 -168
t-191.5 -58q-141 0 -225 66t-166 252l-45 102q-61 130 -144 184t-219 54q-130 0 -227.5 -51t-97.5 -121q0 -38 33 -59.5t114 -34.5l242 -35q184 -25 261 -107t77 -229z" />
    <glyph glyph-name="uniFEBBFBFD" unicode="&#xfebb;&#xfbfd;" horiz-adv-x="2971" 
d="M1454 -16q0 -140 -94 -251.5t-253.5 -172t-352.5 -60.5q-331 0 -502.5 147.5t-171.5 434.5q0 118 31 283h241q-26 -137 -26 -230q0 -165 119.5 -253.5t326.5 -88.5q189 0 318 41.5t129 112.5q0 55 -146 84l-176 37q-138 26 -199 90.5t-61 173.5q0 92 50.5 186
t129.5 164.5t180 115t197 44.5q139 0 240 -66q99 -64 194 -235l68 -119q17 -34 26 -43q138 266 327 411.5t407 145.5q105 0 192.5 -36.5t144.5 -99t88 -144t31 -171.5q0 -485 -786 -485q-206 0 -328 28t-193.5 86.5t-131.5 170.5l-62 110q-53 95 -116.5 134.5t-153.5 39.5
q-106 0 -196.5 -53t-90.5 -119q0 -28 21 -46t75 -29l205 -46q160 -28 229.5 -99.5t69.5 -192.5zM2447 651q-161 0 -305 -92.5t-260 -259.5q95 -14 301 -14q274 0 399 47t125 147q0 67 -69.5 119.5t-190.5 52.5z" />
    <glyph glyph-name="uniFEBFFBFD" unicode="&#xfebf;&#xfbfd;" horiz-adv-x="3022" 
d="M2576 1194q0 -57 -38 -95t-95 -38t-97 38t-40 95t40 97t97 40t95 -40t38 -97zM1524 -2q0 -148 -99 -262.5t-269 -175t-382 -60.5q-351 0 -522.5 144t-171.5 438q0 118 31 283h241q-26 -137 -26 -230q0 -174 118 -258t365 -84q210 0 349.5 47.5t139.5 120.5q0 42 -45 68
t-149 39l-230 32q-150 20 -224.5 96.5t-74.5 198.5q0 99 53.5 195.5t139.5 168.5t198.5 116.5t225.5 44.5q91 0 159.5 -21t126.5 -71.5t104 -115.5t104 -171l59 -111q10 -22 29 -49q139 264 327 409.5t406 145.5q105 0 191.5 -36.5t143.5 -99t88 -144t31 -171.5
q0 -251 -197.5 -379.5t-588.5 -128.5q-198 0 -313 28t-189.5 94t-142.5 196l-53 102q-67 131 -144.5 184.5t-210.5 53.5q-130 0 -227.5 -51t-97.5 -121q0 -38 33 -59.5t114 -34.5l242 -35q184 -25 261 -107t77 -229zM2497 651q-161 0 -307 -95.5t-265 -266.5
q104 -23 309 -23q274 0 399.5 51t125.5 162q0 67 -70.5 119.5t-191.5 52.5z" />
    <glyph glyph-name="uniFECBFBFD" unicode="&#xfecb;&#xfbfd;" horiz-adv-x="2203" 
d="M1534 -119q0 -160 -201 -268.5t-551 -108.5t-526 147t-176 435q0 137 35 283h241q-26 -137 -26 -230q0 -168 118.5 -255t350.5 -87q260 0 387 35t127 94q0 44 -48.5 70.5t-146.5 26.5h-53v270l287 24q-74 53 -116 132.5t-42 179.5q0 191 125 316.5t321 125.5
q197 0 315.5 -112t125.5 -324h-226q-19 72 -79 112.5t-146 40.5q-105 0 -168 -52.5t-63 -145.5q0 -100 95.5 -159.5t254.5 -59.5q96 0 258 18l131 14v-270l-692 -78q88 -61 88 -174z" />
    <glyph glyph-name="uniFECFFBFD" unicode="&#xfecf;&#xfbfd;" horiz-adv-x="2211" 
d="M1784 1278q0 -57 -38 -96t-95 -39t-97.5 39t-40.5 96t40.5 97t97.5 40t95 -40t38 -97zM1534 -119q0 -160 -201 -268.5t-551 -108.5t-526 147t-176 435q0 137 35 283h241q-26 -137 -26 -230q0 -168 118.5 -255t350.5 -87q260 0 387 35t127 94q0 44 -48.5 70.5t-146.5 26.5
h-53v270l287 24q-74 53 -116 132.5t-42 179.5q0 191 125 316.5t321 125.5q197 0 315.5 -112t125.5 -324h-226q-19 72 -79 112.5t-146 40.5q-105 0 -168 -52.5t-63 -145.5q0 -100 95.5 -159.5t254.5 -59.5q96 0 258 18l131 14v-270l-692 -78q88 -61 88 -174z" />
    <glyph glyph-name="uniFED3FBFD" unicode="&#xfed3;&#xfbfd;" horiz-adv-x="1673" 
d="M1266 1509q0 -57 -39.5 -96t-96.5 -39t-96 39t-39 96t39 96.5t96 39.5t96.5 -39.5t39.5 -96.5zM1489 -119q0 -103 -85.5 -190t-244 -139t-356.5 -52q-723 0 -723 582q0 137 35 283h241q-26 -137 -26 -230q0 -342 499 -342q205 0 324 39.5t119 108.5q0 43 -51 67.5
t-148 24.5h-229v272l293 -2q141 0 199.5 39.5t70.5 146.5q-98 -36 -281 -36q-191 0 -302 92.5t-111 251.5q0 117 57.5 222t156 168.5t210.5 63.5q203 0 331.5 -183t128.5 -486q0 -219 -59.5 -336t-194.5 -158q146 -59 146 -207zM909 801q0 -133 226 -133q148 0 264 26
q-26 127 -106.5 202t-186.5 75q-89 0 -143 -49t-54 -121z" />
    <glyph glyph-name="uniFED7FBFD" unicode="&#xfed7;&#xfbfd;" horiz-adv-x="1673" 
d="M1434 1509q0 -57 -39.5 -96t-96.5 -39t-97 39t-40 96t40 96.5t97 39.5t96.5 -39.5t39.5 -96.5zM1110 1509q0 -57 -39 -96t-96 -39t-97 39t-40 96t40 96.5t97 39.5t96 -39.5t39 -96.5zM1489 -119q0 -103 -85.5 -190t-244 -139t-356.5 -52q-723 0 -723 582q0 137 35 283
h241q-26 -137 -26 -230q0 -342 499 -342q205 0 324 39.5t119 108.5q0 43 -51 67.5t-148 24.5h-229v272l293 -2q141 0 199.5 39.5t70.5 146.5q-98 -36 -281 -36q-191 0 -302 92.5t-111 251.5q0 117 57.5 222t156 168.5t210.5 63.5q203 0 331.5 -183t128.5 -486
q0 -219 -59.5 -336t-194.5 -158q146 -59 146 -207zM909 801q0 -133 226 -133q148 0 264 26q-26 127 -106.5 202t-186.5 75q-89 0 -143 -49t-54 -121z" />
    <glyph glyph-name="uniFEDFFBFD" unicode="&#xfedf;&#xfbfd;" horiz-adv-x="1646" 
d="M1489 -96q0 -111 -86 -203t-244 -146.5t-356 -54.5q-723 0 -723 582q0 137 35 283h241q-26 -137 -26 -230q0 -342 499 -342q205 0 324 42.5t119 115.5q0 43 -52 76.5t-149 33.5h-227v285h196q121 0 165 39.5t44 138.5v1032h260v-1032q0 -161 -41 -257.5t-129 -139.5
q150 -64 150 -223z" />
    <glyph glyph-name="uniFEE7FBFD" unicode="&#xfee7;&#xfbfd;" horiz-adv-x="1724" 
d="M1581 1128q0 -57 -39 -96t-96 -39t-97 39t-40 96t40 96.5t97 39.5t96 -39.5t39 -96.5zM1542 -106q0 -106 -92.5 -196t-263.5 -144t-383 -54q-362 0 -542.5 143t-180.5 423q0 116 33 299h241q-28 -157 -28 -238q0 -334 503 -334q231 0 362.5 42t131.5 116q0 44 -49 77
t-150 33h-227v285h291q108 0 151 38t43 128q0 142 -36 358h249q33 -208 33 -391q0 -152 -57.5 -247.5t-167.5 -127.5q139 -74 139 -210z" />
    <glyph glyph-name="uniFEEBFBFD" unicode="&#xfeeb;&#xfbfd;" horiz-adv-x="2545" 
d="M1532 -131q0 -156 -201 -262.5t-551 -106.5q-349 0 -524.5 147t-175.5 435q0 137 35 283h241q-26 -137 -26 -230q0 -168 117.5 -255t349.5 -87q259 0 387.5 35t128.5 92q0 98 -209 98h-41v267h154q70 0 172 4q-70 124 -70 248q0 114 59 207.5t154 138.5v204l338 -98
q349 -103 483 -225q137 -122 137 -334q0 -211 -132 -332t-371 -121q-219 0 -394 109q-102 -25 -180 -35q119 -67 119 -182zM1524 537q0 -130 147 -205q201 58 201 200q0 75 -52.5 127t-127.5 52q-74 0 -121 -50t-47 -124zM2062 537q0 -154 -120 -271q62 -4 96 -4
q252 0 252 162q0 72 -55.5 124t-184.5 99q12 -53 12 -110z" />
    <glyph glyph-name="uniFEF3FBFD" unicode="&#xfef3;&#xfbfd;" horiz-adv-x="1724" 
d="M1542 -106q0 -106 -92.5 -196t-263.5 -144t-383 -54q-362 0 -542.5 143t-180.5 423q0 116 33 299h241q-28 -157 -28 -238q0 -334 503 -334q231 0 362.5 42t131.5 116q0 44 -49 77t-150 33h-227v285h291q108 0 151 38t43 128q0 142 -36 358h249q33 -208 33 -391
q0 -152 -57.5 -247.5t-167.5 -127.5q139 -74 139 -210zM1712 -674q0 -57 -39 -95t-96 -38t-96 38t-39 95t39 97t96 40t96 -40t39 -97zM1389 -674q0 -57 -39.5 -95t-96.5 -38t-96 38t-39 95t39 97t96 40t96.5 -40t39.5 -97z" />
    <glyph glyph-name="uniFB58FBFD" unicode="&#xfb58;&#xfbfd;" horiz-adv-x="1724" 
d="M1542 -106q0 -106 -92.5 -196t-263.5 -144t-383 -54q-362 0 -542.5 143t-180.5 423q0 116 33 299h241q-28 -157 -28 -238q0 -334 503 -334q231 0 362.5 42t131.5 116q0 44 -49 77t-150 33h-227v285h291q108 0 151 38t43 128q0 142 -36 358h249q33 -208 33 -391
q0 -152 -57.5 -247.5t-167.5 -127.5q139 -74 139 -210zM1681 -651q0 -51 -34.5 -86t-85.5 -35t-86 35t-35 86t35 86t86 35t85.5 -35t34.5 -86zM1386 -651q0 -51 -34.5 -86t-85.5 -35t-85 35t-34 86t34 86t85 35t85.5 -35t34.5 -86zM1534 -918q0 -51 -35 -85.5t-86 -34.5
t-86 34.5t-35 85.5t35 86t86 35t86 -35t35 -86z" />
    <glyph glyph-name="uniFB90FBFD" unicode="&#xfb90;&#xfbfd;" horiz-adv-x="1585" 
d="M1491 -84q0 -117 -86 -212t-243.5 -149.5t-356.5 -54.5q-363 0 -540 145.5t-183 436.5q-3 125 35 283h241q-26 -137 -26 -230q0 -342 499 -342q206 0 324.5 43.5t118.5 120.5q0 49 -46 76.5t-136 27.5h-246v277h274q62 0 94.5 24.5t32.5 67.5t-40 84.5t-144 103.5
l-391 209v242l913 504l-2 -281l-620 -336l188 -112q168 -89 241.5 -187.5t73.5 -224.5q0 -94 -40 -169.5t-115 -119.5q180 -64 180 -227z" />
    <glyph glyph-name="uniFB94FBFD" unicode="&#xfb94;&#xfbfd;" horiz-adv-x="1626" 
d="M1626 1901l-2 -189l-911 -504v191zM1532 -84q0 -117 -91 -212t-258 -149.5t-378 -54.5q-363 0 -540 145.5t-183 436.5q-3 125 35 283h241q-26 -137 -26 -230q0 -342 499 -342q227 0 355.5 43t128.5 121q0 49 -46 76.5t-136 27.5h-246v277h274q62 0 94.5 24.5t32.5 67.5
t-40 84.5t-144 103.5l-391 209v242l913 504l-2 -281l-620 -336l188 -112q168 -89 241.5 -187.5t73.5 -224.5q0 -94 -40 -169.5t-115 -119.5q180 -64 180 -227z" />
    <glyph glyph-name="uniFE8BFBFD" unicode="&#xfe8b;&#xfbfd;" horiz-adv-x="1724" 
d="M1671 1190v-158l-452 -65v157l81 13q-54 48 -51 125q0 86 58.5 143t146.5 57q80 0 129 -49.5t55 -136.5l-104 -12q-28 43 -84 43q-37 0 -58.5 -16.5t-21.5 -45.5q0 -39 45 -63.5t107 -14.5zM1542 -106q0 -106 -92.5 -196t-263.5 -144t-383 -54q-362 0 -542.5 143
t-180.5 423q0 116 33 299h241q-28 -157 -28 -238q0 -334 503 -334q231 0 362.5 42t131.5 116q0 44 -49 77t-150 33h-227v285h291q108 0 151 38t43 128q0 142 -36 358h249q33 -208 33 -391q0 -152 -57.5 -247.5t-167.5 -127.5q139 -74 139 -210z" />
    <glyph glyph-name="uniFEB3FEB0" unicode="&#xfeb3;&#xfeb0;" horiz-adv-x="2228" 
d="M459 944q0 -57 -39 -95t-96 -38t-96.5 38t-39.5 95t39.5 97t96.5 40t96 -40t39 -97zM551 190q0 -349 -125 -514t-389 -165q-102 0 -184 12v287q100 -17 176 -17q147 0 212.5 92.5t65.5 296.5q0 104 -16 238l-29 235l785 72l28 -258q12 -111 47.5 -156t114.5 -45
q66 0 104.5 53t38.5 158v105h246v-105q0 -104 38.5 -157.5t98.5 -53.5q135 0 135 183q0 109 -40 276h256q30 -167 30 -285q0 -228 -101.5 -346.5t-283.5 -118.5q-115 0 -201.5 57.5t-115.5 158.5q-13 -106 -78.5 -161t-175.5 -55q-172 0 -248 99q-76 101 -106 344l-293 -27
q10 -120 10 -203z" />
    <glyph glyph-name="uniFEB7FEB0" unicode="&#xfeb7;&#xfeb0;" horiz-adv-x="2228" 
d="M1599 1092q0 -51 -34.5 -85t-85.5 -34t-86 34t-35 85t35 85.5t86 34.5t85.5 -34.5t34.5 -85.5zM459 944q0 -57 -39 -95t-96 -38t-96.5 38t-39.5 95t39.5 97t96.5 40t96 -40t39 -97zM1452 827q0 -51 -35 -85.5t-86 -34.5t-86 34.5t-35 85.5t35 86t86 35t86 -35t35 -86z
M1745 827q0 -51 -34 -85.5t-85 -34.5t-86 34.5t-35 85.5t35 86t86 35t85 -35t34 -86zM551 190q0 -349 -125 -514t-389 -165q-102 0 -184 12v287q100 -17 176 -17q147 0 212.5 92.5t65.5 296.5q0 104 -16 238l-29 235l785 72l28 -258q12 -111 47.5 -156t114.5 -45
q66 0 104.5 53t38.5 158v105h246v-105q0 -104 38.5 -157.5t98.5 -53.5q135 0 135 183q0 109 -40 276h256q30 -167 30 -285q0 -228 -101.5 -346.5t-283.5 -118.5q-115 0 -201.5 57.5t-115.5 158.5q-13 -106 -78.5 -161t-175.5 -55q-172 0 -248 99q-76 101 -106 344l-293 -27
q10 -120 10 -203z" />
    <glyph glyph-name="uniFEBBFEB0" unicode="&#xfebb;&#xfeb0;" horiz-adv-x="2416" 
d="M463 1016q0 -57 -39 -95t-96 -38t-96 38t-39 95t39 97t96 40t96 -40t39 -97zM551 190q0 -349 -125 -514t-389 -165q-102 0 -184 12v287q100 -17 176 -17q147 0 212.5 92.5t65.5 296.5q0 104 -16 238l-37 307l784 72l37 -330q9 -100 45 -141q151 290 350.5 449t430.5 159
q105 0 192 -36.5t144 -99t88.5 -144t31.5 -171.5q0 -508 -917 -508q-166 0 -273 23t-180.5 82.5t-110 154.5t-51.5 246l-2 11l-291 -27l3 -21q16 -184 16 -256zM1892 651q-172 0 -327 -100t-283 -283q147 -6 186 -6q251 0 403 25t216.5 71.5t64.5 120.5q0 67 -69.5 119.5
t-190.5 52.5z" />
    <glyph glyph-name="uniFEBFFEB0" unicode="&#xfebf;&#xfeb0;" horiz-adv-x="2416" 
d="M1987 1194q0 -57 -39.5 -95t-96.5 -38t-96 38t-39 95t39 97t96 40t96.5 -40t39.5 -97zM463 1016q0 -57 -39 -95t-96 -38t-96 38t-39 95t39 97t96 40t96 -40t39 -97zM551 190q0 -349 -125 -514t-389 -165q-102 0 -184 12v287q100 -17 176 -17q147 0 212.5 92.5t65.5 296.5
q0 104 -16 238l-37 307l784 72l37 -330q9 -100 45 -141q151 290 350.5 449t430.5 159q105 0 192 -36.5t144 -99t88.5 -144t31.5 -171.5q0 -508 -917 -508q-166 0 -273 23t-180.5 82.5t-110 154.5t-51.5 246l-2 11l-291 -27l3 -21q16 -184 16 -256zM1892 651
q-172 0 -327 -100t-283 -283q147 -6 186 -6q251 0 403 25t216.5 71.5t64.5 120.5q0 67 -69.5 119.5t-190.5 52.5z" />
    <glyph glyph-name="uniFB59FEF0" unicode="&#xfb59;&#xfef0;" horiz-adv-x="1955" 
d="M1524 -2q0 -148 -99 -262.5t-269 -175t-382 -60.5q-351 0 -522.5 144t-171.5 438q0 118 31 283h241q-26 -137 -26 -230q0 -174 118 -258t365 -84q210 0 349.5 47.5t139.5 120.5q0 42 -45 68t-149 39l-230 32q-150 20 -224.5 96.5t-74.5 198.5q0 99 53.5 195.5
t139.5 168.5t198.5 116.5t225.5 44.5q180 0 297 -91q113 -88 213 -301l53 -110q37 -80 77 -106.5t124 -26.5v-228l-60 -57q-132 0 -208 55q-78 57 -154 228l-47 102q-62 139 -145 194.5t-220 55.5q-130 0 -227.5 -51t-97.5 -121q0 -39 33 -60.5t114 -33.5l242 -35
q184 -25 261 -107t77 -229zM1911 -526q0 -51 -35 -86t-86 -35t-86 35t-35 86t35 85.5t86 34.5t86 -34.5t35 -85.5zM1616 -526q0 -51 -35 -86t-86 -35t-85 35t-34 86t34 85.5t85 34.5t86 -34.5t35 -85.5zM1763 -793q0 -51 -35 -85.5t-86 -34.5t-85.5 34.5t-34.5 85.5t34.5 86
t85.5 35t86 -35t35 -86z" />
    <glyph glyph-name="uniFB7DFEF0" unicode="&#xfb7d;&#xfef0;" horiz-adv-x="2236" 
d="M1530 -55q0 -196 -201.5 -320.5t-535.5 -124.5q-713 0 -713 566q0 116 33 299h241q-28 -157 -28 -238q0 -334 483 -334q238 0 371 43t133 121q0 43 -45.5 76t-145.5 33h-153v243l415 135q183 59 312 91q-52 12 -111 32l-184 64q-116 39 -170 39q-44 0 -71.5 -24.5
t-35.5 -67.5h-221q6 177 93.5 276.5t236.5 99.5q95 0 262 -61l272 -90q129 -50 201 -67t160 -17h61l-2 -260h-35q-41 0 -129 -15v-24q0 -73 48.5 -104t164.5 -31v-224l-57 -61q-176 0 -265 99.5t-89 287.5q-25 -9 -309 -121l-185 -71q98 -29 148.5 -99t50.5 -151zM2099 -160
q0 -51 -35 -86t-86 -35t-85.5 35t-34.5 86t34.5 86t85.5 35t86 -35t35 -86zM1804 -160q0 -51 -35 -86t-86 -35t-84.5 35t-33.5 86t33.5 86t84.5 35t86 -35t35 -86zM1952 -424q0 -51 -35 -86t-86 -35t-86 35t-35 86t35 85t86 34t86 -34t35 -85z" />
    <glyph glyph-name="uniFB95FEF0" unicode="&#xfb95;&#xfef0;" horiz-adv-x="2035" 
d="M2081 1956l-2 -189l-910 -503v190zM1532 -84q0 -117 -91 -212t-258 -149.5t-378 -54.5q-363 0 -540 145.5t-183 436.5q-3 125 35 283h241q-26 -137 -26 -230q0 -342 499 -342q227 0 355.5 43t128.5 121q0 49 -46 76.5t-136 27.5h-228v285h379q74 0 114 24.5t40 69.5
q0 28 -14 58.5t-54 89.5l-201 303v233l912 504l-2 -276l-656 -365l312 -457q103 -146 157 -194q57 -51 146 -51v-228l-58 -57q-104 0 -186 55q-76 53 -180 197l-41 61q-7 -68 -46.5 -118.5t-103.5 -77.5q51 -32 80 -85t29 -116z" />
    <glyph glyph-name="uniFEE0FB51" unicode="&#xfee0;&#xfb51;" horiz-adv-x="1296" 
d="M86 1329h-121q0 106 48.5 163.5t138.5 57.5h4q50 114 119.5 176t150.5 62q91 0 141.5 -54t50.5 -151q0 -106 -54 -162.5t-156 -56.5q-49 0 -131 16.5t-125 16.5q-66 0 -66 -68zM414 1634q-94 0 -148 -96q98 -20 140 -20q45 0 71.5 14.5t26.5 40.5q0 27 -24.5 44t-65.5 17
zM414 12l-373 -47v283l313 37l-157 979h278l137 -940q137 28 184.5 76.5t47.5 148.5v1007h260v-1064q0 -117 41.5 -162t150.5 -45v-228l-57 -57h-22q-151 0 -231 63.5t-107 198.5q-33 -106 -140.5 -165t-324.5 -85z" />
    <glyph glyph-name="uniFB59FEE6" unicode="&#xfb59;&#xfee6;" horiz-adv-x="2074" 
d="M819 846q0 -57 -39 -96t-96 -39t-96 39t-39 96t39 97t96 40t96 -40t39 -97zM1327 236q0 -301 -165 -466t-460 -165q-302 0 -461.5 141.5t-160.5 415.5q0 163 33 319h241q-28 -140 -28 -245q0 -165 99 -251.5t286 -86.5q205 0 300 78t95 253q0 76 -16 191l-37 307l762 72
l38 -330q12 -110 58 -147t164 -37v-228l-60 -57q-209 0 -297 104q-87 106 -114 379l-2 13l-291 -29l2 -21q14 -140 14 -210zM1950 -250q0 -51 -35 -86t-86 -35t-85 35t-34 86t34 86t85 35t86 -35t35 -86zM1657 -250q0 -51 -35 -86t-86 -35t-85 35t-34 86t34 86t85 35t86 -35
t35 -86zM1802 -514q0 -51 -35 -86t-86 -35t-84.5 35t-33.5 86t33.5 85t84.5 34t86 -34t35 -85z" />
    <glyph glyph-name="uniFBFFFEE6" unicode="&#xfbff;&#xfee6;" horiz-adv-x="2074" 
d="M819 846q0 -57 -39 -96t-96 -39t-96 39t-39 96t39 97t96 40t96 -40t39 -97zM1327 236q0 -301 -165 -466t-460 -165q-302 0 -461.5 141.5t-160.5 415.5q0 163 33 319h241q-28 -140 -28 -245q0 -165 99 -251.5t286 -86.5q205 0 300 78t95 253q0 76 -16 191l-37 307l762 72
l38 -330q12 -110 58 -147t164 -37v-228l-60 -57q-209 0 -297 104q-87 106 -114 379l-2 13l-291 -29l2 -21q14 -140 14 -210zM1952 -285q0 -51 -35 -86t-86 -35t-86 35t-35 86t35 86t86 35t86 -35t35 -86zM1659 -285q0 -51 -35 -86t-86 -35t-86 35t-35 86t35 86t86 35t86 -35
t35 -86z" />
    <glyph glyph-name="uniFB59FEAE" unicode="&#xfb59;&#xfeae;" horiz-adv-x="1296" 
d="M551 190q0 -349 -125 -514t-389 -165q-102 0 -184 12v287q100 -17 176 -17q147 0 212.5 92.5t65.5 296.5q0 104 -16 238l-37 307l784 72l37 -330q12 -110 58 -147t163 -37v-228l-57 -57q-209 0 -297 104q-90 110 -117 379l-2 11l-291 -27l3 -21q16 -184 16 -256z
M1202 -250q0 -51 -35 -86t-86 -35t-84.5 35t-33.5 86t33.5 86t84.5 35t86 -35t35 -86zM909 -250q0 -51 -35 -86t-86 -35t-85.5 35t-34.5 86t34.5 86t85.5 35t86 -35t35 -86zM1055 -514q0 -51 -35 -86t-86 -35t-85 35t-34 86t34 85t85 34t86 -34t35 -85z" />
    <glyph glyph-name="uniFBFFFEAE" unicode="&#xfbff;&#xfeae;" horiz-adv-x="1296" 
d="M551 190q0 -349 -125 -514t-389 -165q-102 0 -184 12v287q100 -17 176 -17q147 0 212.5 92.5t65.5 296.5q0 104 -16 238l-37 307l784 72l37 -330q12 -110 58 -147t163 -37v-228l-57 -57q-209 0 -297 104q-90 110 -117 379l-2 11l-291 -27l3 -21q16 -184 16 -256z
M1204 -285q0 -51 -35 -86t-86 -35t-85.5 35t-34.5 86t34.5 86t85.5 35t86 -35t35 -86zM909 -285q0 -51 -33.5 -86t-84.5 -35t-86 35t-35 86t35 86t86 35t84.5 -35t33.5 -86z" />
    <glyph glyph-name="uniFB59FEF2" unicode="&#xfb59;&#xfef2;" horiz-adv-x="1955" 
d="M1524 -2q0 -148 -99 -262.5t-269 -175t-382 -60.5q-351 0 -522.5 144t-171.5 438q0 118 31 283h241q-26 -137 -26 -230q0 -174 118 -258t365 -84q210 0 349.5 47.5t139.5 120.5q0 42 -45 68t-149 39l-230 32q-150 20 -224.5 96.5t-74.5 198.5q0 99 53.5 195.5
t139.5 168.5t198.5 116.5t225.5 44.5q180 0 297 -91q113 -88 213 -301l53 -110q37 -80 77 -106.5t124 -26.5v-228l-60 -57q-132 0 -208 55q-78 57 -154 228l-47 102q-62 139 -145 194.5t-220 55.5q-130 0 -227.5 -51t-97.5 -121q0 -39 33 -60.5t114 -33.5l242 -35
q184 -25 261 -107t77 -229zM1911 -526q0 -51 -35 -86t-86 -35t-86 35t-35 86t35 85.5t86 34.5t86 -34.5t35 -85.5zM1616 -526q0 -51 -35 -86t-86 -35t-85 35t-34 86t34 85.5t85 34.5t86 -34.5t35 -85.5zM1071 -770q0 -57 -38 -96t-95 -39t-97 39t-40 96t40 97t97 40t95 -40
t38 -97zM748 -770q0 -57 -38.5 -96t-95.5 -39t-97 39t-40 96t40 97t97 40t95.5 -40t38.5 -97zM1763 -793q0 -51 -35 -85.5t-86 -34.5t-85.5 34.5t-34.5 85.5t34.5 86t85.5 35t86 -35t35 -86z" />
    <glyph glyph-name="uniFB7DFEF2" unicode="&#xfb7d;&#xfef2;" horiz-adv-x="2236" 
d="M1530 -55q0 -196 -201.5 -320.5t-535.5 -124.5q-713 0 -713 566q0 116 33 299h241q-28 -157 -28 -238q0 -334 483 -334q238 0 371 43t133 121q0 43 -45.5 76t-145.5 33h-153v243l415 135q183 59 312 91q-52 12 -111 32l-184 64q-116 39 -170 39q-44 0 -71.5 -24.5
t-35.5 -67.5h-221q6 177 93.5 276.5t236.5 99.5q95 0 262 -61l272 -90q129 -50 201 -67t160 -17h61l-2 -260h-35q-41 0 -129 -15v-24q0 -73 48.5 -104t164.5 -31v-224l-57 -61q-176 0 -265 99.5t-89 287.5q-25 -9 -309 -121l-185 -71q98 -29 148.5 -99t50.5 -151zM2099 -160
q0 -51 -35 -86t-86 -35t-85.5 35t-34.5 86t34.5 86t85.5 35t86 -35t35 -86zM1804 -160q0 -51 -35 -86t-86 -35t-84.5 35t-33.5 86t33.5 86t84.5 35t86 -35t35 -86zM1952 -424q0 -51 -35 -86t-86 -35t-86 35t-35 86t35 85t86 34t86 -34t35 -85zM1102 -770q0 -57 -39 -96
t-96 -39t-97.5 39t-40.5 96t40.5 97t97.5 40t96 -40t39 -97zM776 -770q0 -57 -38 -96t-95 -39t-97 39t-40 96t40 97t97 40t95 -40t38 -97z" />
    <glyph glyph-name="uniFB95FEF2" unicode="&#xfb95;&#xfef2;" horiz-adv-x="2035" 
d="M2081 1956l-2 -189l-910 -503v190zM1532 -84q0 -117 -91 -212t-258 -149.5t-378 -54.5q-363 0 -540 145.5t-183 436.5q-3 125 35 283h241q-26 -137 -26 -230q0 -342 499 -342q227 0 355.5 43t128.5 121q0 49 -46 76.5t-136 27.5h-228v285h379q74 0 114 24.5t40 69.5
q0 28 -14 58.5t-54 89.5l-201 303v233l912 504l-2 -276l-656 -365l312 -457q103 -146 157 -194q57 -51 146 -51v-228l-58 -57q-104 0 -186 55q-76 53 -180 197l-41 61q-7 -68 -46.5 -118.5t-103.5 -77.5q51 -32 80 -85t29 -116zM1104 -762q0 -57 -39 -95t-96 -38t-96 38
t-39 95t39 97t96 40t96 -40t39 -97zM780 -762q0 -57 -39 -95t-96 -38t-96 38t-39 95t39 97t96 40t96 -40t39 -97z" />
    <glyph glyph-name="uniFE92FE8A" unicode="&#xfe92;&#xfe8a;" horiz-adv-x="1955" 
d="M446 684v-156l-454 -65v158l82 10q-51 51 -51 127q2 86 60 143t146 57q80 0 129 -49t56 -137l-107 -14q-10 20 -32.5 31.5t-49.5 11.5q-37 0 -58.5 -15.5t-21.5 -44.5q0 -41 43.5 -64t106.5 -15zM1524 -2q0 -148 -99 -262.5t-269 -175t-382 -60.5q-351 0 -522.5 144
t-171.5 438q0 118 31 283h241q-26 -137 -26 -230q0 -174 118 -258t365 -84q210 0 349.5 47.5t139.5 120.5q0 42 -45 68t-149 39l-230 32q-150 20 -224.5 96.5t-74.5 198.5q0 99 53.5 195.5t139.5 168.5t198.5 116.5t225.5 44.5q180 0 297 -91q113 -88 213 -301l53 -110
q37 -80 77 -106.5t124 -26.5v-228l-60 -57q-132 0 -208 55q-78 57 -154 228l-47 102q-62 139 -145 194.5t-220 55.5q-130 0 -227.5 -51t-97.5 -121q0 -39 33 -60.5t114 -33.5l242 -35q184 -25 261 -107t77 -229zM1776 -547q0 -57 -39.5 -96t-96.5 -39t-96 39t-39 96t39 96
t96 39t96.5 -39t39.5 -96z" />
    <glyph glyph-name="uniFE98FE8A" unicode="&#xfe98;&#xfe8a;" horiz-adv-x="1955" 
d="M1489 1178q0 -57 -39 -96.5t-96 -39.5t-96 39.5t-39 96.5t39 96t96 39t96 -39t39 -96zM1165 1178q0 -57 -39 -96.5t-96 -39.5t-97 39.5t-40 96.5t40 96t97 39t96 -39t39 -96zM446 684v-156l-454 -65v158l82 10q-51 51 -51 127q2 86 60 143t146 57q80 0 129 -49t56 -137
l-107 -14q-10 20 -32.5 31.5t-49.5 11.5q-37 0 -58.5 -15.5t-21.5 -44.5q0 -41 43.5 -64t106.5 -15zM1524 -2q0 -148 -99 -262.5t-269 -175t-382 -60.5q-351 0 -522.5 144t-171.5 438q0 118 31 283h241q-26 -137 -26 -230q0 -174 118 -258t365 -84q210 0 349.5 47.5
t139.5 120.5q0 42 -45 68t-149 39l-230 32q-150 20 -224.5 96.5t-74.5 198.5q0 99 53.5 195.5t139.5 168.5t198.5 116.5t225.5 44.5q180 0 297 -91q113 -88 213 -301l53 -110q37 -80 77 -106.5t124 -26.5v-228l-60 -57q-132 0 -208 55q-78 57 -154 228l-47 102
q-62 139 -145 194.5t-220 55.5q-130 0 -227.5 -51t-97.5 -121q0 -39 33 -60.5t114 -33.5l242 -35q184 -25 261 -107t77 -229z" />
    <glyph glyph-name="uniFE9CFE8A" unicode="&#xfe9c;&#xfe8a;" horiz-adv-x="1955" 
d="M1313 1427q0 -51 -35 -84.5t-86 -33.5t-86 33.5t-35 84.5t35 86t86 35t86 -35t35 -86zM1165 1163q0 -51 -35 -86t-86 -35t-85.5 35t-34.5 86t34.5 85t85.5 34t86 -34t35 -85zM1458 1163q0 -51 -34 -86t-85 -35t-85.5 35t-34.5 86t34.5 85t85.5 34t85 -34t34 -85zM446 684
v-156l-454 -65v158l82 10q-51 51 -51 127q2 86 60 143t146 57q80 0 129 -49t56 -137l-107 -14q-10 20 -32.5 31.5t-49.5 11.5q-37 0 -58.5 -15.5t-21.5 -44.5q0 -41 43.5 -64t106.5 -15zM1524 -2q0 -148 -99 -262.5t-269 -175t-382 -60.5q-351 0 -522.5 144t-171.5 438
q0 118 31 283h241q-26 -137 -26 -230q0 -174 118 -258t365 -84q210 0 349.5 47.5t139.5 120.5q0 42 -45 68t-149 39l-230 32q-150 20 -224.5 96.5t-74.5 198.5q0 99 53.5 195.5t139.5 168.5t198.5 116.5t225.5 44.5q180 0 297 -91q113 -88 213 -301l53 -110
q37 -80 77 -106.5t124 -26.5v-228l-60 -57q-132 0 -208 55q-78 57 -154 228l-47 102q-62 139 -145 194.5t-220 55.5q-130 0 -227.5 -51t-97.5 -121q0 -39 33 -60.5t114 -33.5l242 -35q184 -25 261 -107t77 -229z" />
    <glyph glyph-name="uniFEA0FE8A" unicode="&#xfea0;&#xfe8a;" horiz-adv-x="2236" 
d="M463 684v-156l-455 -65v158l82 10q-51 51 -51 127q0 86 58.5 143t146.5 57q80 0 129.5 -49t56.5 -137l-106 -14q-25 43 -82 43q-80 0 -80 -60q0 -41 43 -64t106 -15zM1530 -55q0 -196 -201.5 -320.5t-535.5 -124.5q-713 0 -713 566q0 116 33 299h241q-28 -157 -28 -238
q0 -334 483 -334q238 0 371 43t133 121q0 43 -45.5 76t-145.5 33h-153v243l415 135q183 59 312 91q-52 12 -111 32l-184 64q-116 39 -170 39q-44 0 -71.5 -24.5t-35.5 -67.5h-221q6 177 93.5 276.5t236.5 99.5q95 0 262 -61l272 -90q129 -50 201 -67t160 -17h61l-2 -260h-35
q-41 0 -129 -15v-24q0 -73 48.5 -104t164.5 -31v-224l-57 -61q-176 0 -265 99.5t-89 287.5q-25 -9 -309 -121l-185 -71q98 -29 148.5 -99t50.5 -151zM1964 -180q0 -57 -39 -96t-96 -39t-96 39t-39 96t39 96t96 39t96 -39t39 -96z" />
    <glyph glyph-name="uniFEA4FE8A" unicode="&#xfea4;&#xfe8a;" horiz-adv-x="2236" 
d="M463 684v-156l-455 -65v158l82 10q-51 51 -51 127q0 86 58.5 143t146.5 57q80 0 129.5 -49t56.5 -137l-106 -14q-25 43 -82 43q-80 0 -80 -60q0 -41 43 -64t106 -15zM1530 -55q0 -196 -201.5 -320.5t-535.5 -124.5q-713 0 -713 566q0 116 33 299h241q-28 -157 -28 -238
q0 -334 483 -334q238 0 371 43t133 121q0 43 -45.5 76t-145.5 33h-153v243l415 135q183 59 312 91q-52 12 -111 32l-184 64q-116 39 -170 39q-44 0 -71.5 -24.5t-35.5 -67.5h-221q6 177 93.5 276.5t236.5 99.5q95 0 262 -61l272 -90q129 -50 201 -67t160 -17h61l-2 -260h-35
q-41 0 -129 -15v-24q0 -73 48.5 -104t164.5 -31v-224l-57 -61q-176 0 -265 99.5t-89 287.5q-25 -9 -309 -121l-185 -71q98 -29 148.5 -99t50.5 -151z" />
    <glyph glyph-name="uniFEA8FE8A" unicode="&#xfea8;&#xfe8a;" horiz-adv-x="2236" 
d="M1462 1194q0 -57 -39 -95t-96 -38t-97 38t-40 95t40 97t97 40t96 -40t39 -97zM463 684v-156l-455 -65v158l82 10q-51 51 -51 127q0 86 58.5 143t146.5 57q80 0 129.5 -49t56.5 -137l-106 -14q-25 43 -82 43q-80 0 -80 -60q0 -41 43 -64t106 -15zM1530 -55
q0 -196 -201.5 -320.5t-535.5 -124.5q-713 0 -713 566q0 116 33 299h241q-28 -157 -28 -238q0 -334 483 -334q238 0 371 43t133 121q0 43 -45.5 76t-145.5 33h-153v243l415 135q183 59 312 91q-52 12 -111 32l-184 64q-116 39 -170 39q-44 0 -71.5 -24.5t-35.5 -67.5h-221
q6 177 93.5 276.5t236.5 99.5q95 0 262 -61l272 -90q129 -50 201 -67t160 -17h61l-2 -260h-35q-41 0 -129 -15v-24q0 -73 48.5 -104t164.5 -31v-224l-57 -61q-176 0 -265 99.5t-89 287.5q-25 -9 -309 -121l-185 -71q98 -29 148.5 -99t50.5 -151z" />
    <glyph glyph-name="uniFEB4FE8A" unicode="&#xfeb4;&#xfe8a;" horiz-adv-x="3108" 
d="M446 684v-156l-454 -65v158l82 10q-51 51 -51 127q2 86 60 143t146 57q80 0 129 -49t56 -137l-107 -14q-10 20 -32.5 31.5t-49.5 11.5q-37 0 -58.5 -15.5t-21.5 -44.5q0 -41 43.5 -64t106.5 -15zM1700 541l53 -111q43 -97 84 -129.5t121 -32.5q184 0 184 240v76h246v-105
q0 -104 36.5 -157.5t96.5 -53.5q69 0 108.5 53t39.5 158v176h245v-176q0 -102 47 -148t148 -46v-228l-57 -57q-132 0 -216 60t-108 167q-19 -118 -88 -184t-174 -66q-100 0 -171 58.5t-91 161.5q-20 -108 -92.5 -164t-190.5 -56q-141 0 -225 66t-166 252l-45 102
q-61 130 -144 184t-219 54q-130 0 -227.5 -51t-97.5 -121q0 -38 33 -59.5t114 -34.5l242 -35q184 -25 261 -107t77 -229q0 -148 -99 -262.5t-269 -175t-382 -60.5q-351 0 -522.5 144t-171.5 438q0 118 31 283h241q-26 -137 -26 -230q0 -174 118 -258t365 -84
q210 0 349.5 47.5t139.5 120.5q0 42 -45 68t-149 39l-230 32q-150 20 -224.5 96.5t-74.5 198.5q0 99 53.5 195.5t139.5 168.5t198.5 116.5t225.5 44.5q182 0 297 -89q119 -92 211 -290z" />
    <glyph glyph-name="uniFEB8FE8A" unicode="&#xfeb8;&#xfe8a;" horiz-adv-x="3108" 
d="M2380 1116q0 -51 -34 -86t-85 -35t-86 35t-35 86t35 86t86 35t85 -35t34 -86zM2232 850q0 -51 -33.5 -85t-84.5 -34t-86 34t-35 85t35 86t86 35t84.5 -35t33.5 -86zM2527 850q0 -51 -35 -85t-86 -34t-85.5 34t-34.5 85t34.5 86t85.5 35t86 -35t35 -86zM446 684v-156
l-454 -65v158l82 10q-51 51 -51 127q2 86 60 143t146 57q80 0 129 -49t56 -137l-107 -14q-10 20 -32.5 31.5t-49.5 11.5q-37 0 -58.5 -15.5t-21.5 -44.5q0 -41 43.5 -64t106.5 -15zM1700 541l53 -111q43 -97 84 -129.5t121 -32.5q184 0 184 240v76h246v-105
q0 -104 36.5 -157.5t96.5 -53.5q69 0 108.5 53t39.5 158v176h245v-176q0 -102 47 -148t148 -46v-228l-57 -57q-132 0 -216 60t-108 167q-19 -118 -88 -184t-174 -66q-100 0 -171 58.5t-91 161.5q-20 -108 -92.5 -164t-190.5 -56q-141 0 -225 66t-166 252l-45 102
q-61 130 -144 184t-219 54q-130 0 -227.5 -51t-97.5 -121q0 -38 33 -59.5t114 -34.5l242 -35q184 -25 261 -107t77 -229q0 -148 -99 -262.5t-269 -175t-382 -60.5q-351 0 -522.5 144t-171.5 438q0 118 31 283h241q-26 -137 -26 -230q0 -174 118 -258t365 -84
q210 0 349.5 47.5t139.5 120.5q0 42 -45 68t-149 39l-230 32q-150 20 -224.5 96.5t-74.5 198.5q0 99 53.5 195.5t139.5 168.5t198.5 116.5t225.5 44.5q182 0 297 -89q119 -92 211 -290z" />
    <glyph glyph-name="uniFEBCFE8A" unicode="&#xfebc;&#xfe8a;" horiz-adv-x="3112" 
d="M446 684v-156l-454 -65v158l82 10q-51 51 -51 127q2 86 60 143t146 57q80 0 129 -49t56 -137l-107 -14q-10 20 -32.5 31.5t-49.5 11.5q-37 0 -58.5 -15.5t-21.5 -44.5q0 -41 43.5 -64t106.5 -15zM1524 -2q0 -148 -99 -262.5t-269 -175t-382 -60.5q-351 0 -522.5 144
t-171.5 438q0 118 31 283h241q-26 -137 -26 -230q0 -174 118 -258t365 -84q210 0 349.5 47.5t139.5 120.5q0 42 -45 68t-149 39l-230 32q-150 20 -224.5 96.5t-74.5 198.5q0 99 53.5 195.5t139.5 168.5t198.5 116.5t225.5 44.5q91 0 159.5 -21t126.5 -71.5t104 -115.5
t104 -171l59 -111q10 -22 29 -49q139 264 327 409.5t406 145.5q105 0 191.5 -36.5t143.5 -99t88 -144t31 -171.5q0 -93 -28 -172q67 -28 180 -28v-224l-57 -61q-179 0 -273 119q-199 -142 -608 -142q-198 0 -313 28t-189.5 94t-142.5 196l-53 102q-67 131 -144.5 184.5
t-210.5 53.5q-130 0 -227.5 -51t-97.5 -121q0 -38 33 -59.5t114 -34.5l242 -35q184 -25 261 -107t77 -229zM2497 651q-161 0 -307 -95.5t-265 -266.5q104 -23 309 -23q274 0 399.5 51t125.5 162q0 67 -70.5 119.5t-191.5 52.5z" />
    <glyph glyph-name="uniFEC0FE8A" unicode="&#xfec0;&#xfe8a;" horiz-adv-x="3112" 
d="M2576 1194q0 -57 -38 -95t-95 -38t-97 38t-40 95t40 97t97 40t95 -40t38 -97zM446 684v-156l-454 -65v158l82 10q-51 51 -51 127q2 86 60 143t146 57q80 0 129 -49t56 -137l-107 -14q-10 20 -32.5 31.5t-49.5 11.5q-37 0 -58.5 -15.5t-21.5 -44.5q0 -41 43.5 -64
t106.5 -15zM1524 -2q0 -148 -99 -262.5t-269 -175t-382 -60.5q-351 0 -522.5 144t-171.5 438q0 118 31 283h241q-26 -137 -26 -230q0 -174 118 -258t365 -84q210 0 349.5 47.5t139.5 120.5q0 42 -45 68t-149 39l-230 32q-150 20 -224.5 96.5t-74.5 198.5q0 99 53.5 195.5
t139.5 168.5t198.5 116.5t225.5 44.5q91 0 159.5 -21t126.5 -71.5t104 -115.5t104 -171l59 -111q10 -22 29 -49q139 264 327 409.5t406 145.5q105 0 191.5 -36.5t143.5 -99t88 -144t31 -171.5q0 -93 -28 -172q67 -28 180 -28v-224l-57 -61q-179 0 -273 119
q-199 -142 -608 -142q-198 0 -313 28t-189.5 94t-142.5 196l-53 102q-67 131 -144.5 184.5t-210.5 53.5q-130 0 -227.5 -51t-97.5 -121q0 -38 33 -59.5t114 -34.5l242 -35q184 -25 261 -107t77 -229zM2497 651q-161 0 -307 -95.5t-265 -266.5q104 -23 309 -23
q274 0 399.5 51t125.5 162q0 67 -70.5 119.5t-191.5 52.5z" />
    <glyph glyph-name="uniFECCFE8A" unicode="&#xfecc;&#xfe8a;" horiz-adv-x="2332" 
d="M465 684v-156l-455 -65v158l82 10q-51 51 -51 127q1 86 60 143t147 57q78 0 127.5 -49.5t56.5 -136.5l-106 -14q-10 20 -32.5 31.5t-49.5 11.5q-80 0 -80 -60q0 -41 43 -64t106 -15zM1532 -123q0 -160 -201 -268.5t-551 -108.5q-349 0 -524.5 147t-175.5 435
q0 137 35 283h241q-26 -137 -26 -230q0 -168 117.5 -255t349.5 -87q261 0 388.5 37t127.5 100q0 97 -230 97h-20v258h377q-69 69 -152 186l-76 100v269q267 71 512 71q253 0 369 -72.5t117 -236.5q3 -169 -172 -317q25 -2 76 -2l219 2v-228l-58 -57h-49q-339 0 -538 100
q-115 -38 -248 -53q92 -64 92 -170zM1724 643q-154 0 -305 -25q89 -124 166.5 -192.5t173.5 -99.5q125 32 192.5 86.5t65.5 117.5q-1 60 -72 86.5t-221 26.5z" />
    <glyph glyph-name="uniFED0FE8A" unicode="&#xfed0;&#xfe8a;" horiz-adv-x="2332" 
d="M1847 1169q0 -57 -38 -96t-95 -39t-97 39t-40 96t40 97.5t97 40.5t95 -40.5t38 -97.5zM465 684v-156l-455 -65v158l82 10q-51 51 -51 127q1 86 60 143t147 57q78 0 127.5 -49.5t56.5 -136.5l-106 -14q-10 20 -32.5 31.5t-49.5 11.5q-80 0 -80 -60q0 -41 43 -64t106 -15z
M1532 -123q0 -160 -201 -268.5t-551 -108.5q-349 0 -524.5 147t-175.5 435q0 137 35 283h241q-26 -137 -26 -230q0 -168 117.5 -255t349.5 -87q261 0 388.5 37t127.5 100q0 97 -230 97h-20v258h377q-69 69 -152 186l-76 100v269q267 71 512 71q253 0 369 -72.5t117 -236.5
q3 -169 -172 -317q25 -2 76 -2l219 2v-228l-58 -57h-49q-339 0 -538 100q-115 -38 -248 -53q92 -64 92 -170zM1724 643q-154 0 -305 -25q89 -124 166.5 -192.5t173.5 -99.5q125 32 192.5 86.5t65.5 117.5q-1 60 -72 86.5t-221 26.5z" />
    <glyph glyph-name="uniFEDCFE8A" unicode="&#xfedc;&#xfe8a;" horiz-adv-x="2035" 
d="M1530 -84q0 -117 -91 -212t-258 -149.5t-378 -54.5q-363 0 -540 145.5t-183 436.5q-3 125 35 283h241q-26 -137 -26 -230q0 -342 499 -342q227 0 355.5 43t128.5 121q0 49 -46.5 76.5t-136.5 27.5h-227v285h379q74 0 114 24.5t40 69.5q0 28 -14 58.5t-54 89.5l-201 303
v233l912 504l-2 -276l-656 -365l312 -457q103 -146 157 -194q57 -51 146 -51v-228l-58 -57q-104 0 -186 55q-76 53 -180 197l-41 61q-7 -68 -46.5 -118.5t-103.5 -77.5q51 -32 80 -85t29 -116zM465 684v-156l-453 -65v158l80 10q-52 52 -49 127q0 86 58.5 143t146.5 57
q80 0 129 -49.5t55 -136.5l-104 -14q-25 43 -84 43q-37 0 -58.5 -15.5t-21.5 -44.5q0 -41 44 -64t107 -15z" />
    <glyph glyph-name="uniFEE0FE8A" unicode="&#xfee0;&#xfe8a;" horiz-adv-x="1992" 
d="M1530 -98q0 -83 -48.5 -156t-139 -128t-229.5 -86.5t-310 -31.5q-723 0 -723 582q0 137 35 283h241q-26 -137 -26 -230q0 -342 499 -342q226 0 355 42t129 116q0 43 -52 76.5t-149 33.5h-227v285h442q107 0 160 52t53 167v991h260v-1052q0 -131 41 -175t152 -44v-228
l-58 -57q-329 0 -350 283q-41 -127 -174 -177q119 -67 119 -204zM465 684v-156l-455 -65v158l82 10q-54 51 -51 127q0 86 58.5 143t146.5 57q80 0 129.5 -49t56.5 -137l-106 -14q-25 43 -82 43q-39 0 -60.5 -15.5t-21.5 -44.5q0 -41 44 -64t107 -15z" />
    <glyph glyph-name="uniFEE8FE8A" unicode="&#xfee8;&#xfe8a;" horiz-adv-x="1955" 
d="M1321 1178q0 -57 -38 -96.5t-95 -39.5t-97 39.5t-40 96.5t40 96t97 39t95 -39t38 -96zM446 684v-156l-454 -65v158l82 10q-51 51 -51 127q2 86 60 143t146 57q80 0 129 -49t56 -137l-107 -14q-10 20 -32.5 31.5t-49.5 11.5q-37 0 -58.5 -15.5t-21.5 -44.5q0 -41 43.5 -64
t106.5 -15zM1524 -2q0 -148 -99 -262.5t-269 -175t-382 -60.5q-351 0 -522.5 144t-171.5 438q0 118 31 283h241q-26 -137 -26 -230q0 -174 118 -258t365 -84q210 0 349.5 47.5t139.5 120.5q0 42 -45 68t-149 39l-230 32q-150 20 -224.5 96.5t-74.5 198.5q0 99 53.5 195.5
t139.5 168.5t198.5 116.5t225.5 44.5q180 0 297 -91q113 -88 213 -301l53 -110q37 -80 77 -106.5t124 -26.5v-228l-60 -57q-132 0 -208 55q-78 57 -154 228l-47 102q-62 139 -145 194.5t-220 55.5q-130 0 -227.5 -51t-97.5 -121q0 -39 33 -60.5t114 -33.5l242 -35
q184 -25 261 -107t77 -229z" />
    <glyph glyph-name="uniFEF4FE8A" unicode="&#xfef4;&#xfe8a;" horiz-adv-x="1955" 
d="M446 684v-156l-454 -65v158l82 10q-51 51 -51 127q2 86 60 143t146 57q80 0 129 -49t56 -137l-107 -14q-10 20 -32.5 31.5t-49.5 11.5q-37 0 -58.5 -15.5t-21.5 -44.5q0 -41 43.5 -64t106.5 -15zM1524 -2q0 -148 -99 -262.5t-269 -175t-382 -60.5q-351 0 -522.5 144
t-171.5 438q0 118 31 283h241q-26 -137 -26 -230q0 -174 118 -258t365 -84q210 0 349.5 47.5t139.5 120.5q0 42 -45 68t-149 39l-230 32q-150 20 -224.5 96.5t-74.5 198.5q0 99 53.5 195.5t139.5 168.5t198.5 116.5t225.5 44.5q180 0 297 -91q113 -88 213 -301l53 -110
q37 -80 77 -106.5t124 -26.5v-228l-60 -57q-132 0 -208 55q-78 57 -154 228l-47 102q-62 139 -145 194.5t-220 55.5q-130 0 -227.5 -51t-97.5 -121q0 -39 33 -60.5t114 -33.5l242 -35q184 -25 261 -107t77 -229zM1942 -547q0 -57 -39.5 -96t-96.5 -39t-96 39t-39 96t39 96
t96 39t96.5 -39t39.5 -96zM1618 -547q0 -57 -39 -96t-96 -39t-96 39t-39 96t39 96t96 39t96 -39t39 -96z" />
    <glyph glyph-name="uniFB59FE8A" unicode="&#xfb59;&#xfe8a;" horiz-adv-x="1955" 
d="M446 684v-156l-454 -65v158l82 10q-51 51 -51 127q2 86 60 143t146 57q80 0 129 -49t56 -137l-107 -14q-10 20 -32.5 31.5t-49.5 11.5q-37 0 -58.5 -15.5t-21.5 -44.5q0 -41 43.5 -64t106.5 -15zM1524 -2q0 -148 -99 -262.5t-269 -175t-382 -60.5q-351 0 -522.5 144
t-171.5 438q0 118 31 283h241q-26 -137 -26 -230q0 -174 118 -258t365 -84q210 0 349.5 47.5t139.5 120.5q0 42 -45 68t-149 39l-230 32q-150 20 -224.5 96.5t-74.5 198.5q0 99 53.5 195.5t139.5 168.5t198.5 116.5t225.5 44.5q180 0 297 -91q113 -88 213 -301l53 -110
q37 -80 77 -106.5t124 -26.5v-228l-60 -57q-132 0 -208 55q-78 57 -154 228l-47 102q-62 139 -145 194.5t-220 55.5q-130 0 -227.5 -51t-97.5 -121q0 -39 33 -60.5t114 -33.5l242 -35q184 -25 261 -107t77 -229zM1911 -526q0 -51 -35 -86t-86 -35t-86 35t-35 86t35 85.5
t86 34.5t86 -34.5t35 -85.5zM1616 -526q0 -51 -35 -86t-86 -35t-85 35t-34 86t34 85.5t85 34.5t86 -34.5t35 -85.5zM1763 -793q0 -51 -35 -85.5t-86 -34.5t-85.5 34.5t-34.5 85.5t34.5 86t85.5 35t86 -35t35 -86z" />
    <glyph glyph-name="uniFB7DFE8A" unicode="&#xfb7d;&#xfe8a;" horiz-adv-x="2236" 
d="M463 684v-156l-455 -65v158l82 10q-51 51 -51 127q0 86 58.5 143t146.5 57q80 0 129.5 -49t56.5 -137l-106 -14q-25 43 -82 43q-80 0 -80 -60q0 -41 43 -64t106 -15zM1530 -55q0 -196 -201.5 -320.5t-535.5 -124.5q-713 0 -713 566q0 116 33 299h241q-28 -157 -28 -238
q0 -334 483 -334q238 0 371 43t133 121q0 43 -45.5 76t-145.5 33h-153v243l415 135q183 59 312 91q-52 12 -111 32l-184 64q-116 39 -170 39q-44 0 -71.5 -24.5t-35.5 -67.5h-221q6 177 93.5 276.5t236.5 99.5q95 0 262 -61l272 -90q129 -50 201 -67t160 -17h61l-2 -260h-35
q-41 0 -129 -15v-24q0 -73 48.5 -104t164.5 -31v-224l-57 -61q-176 0 -265 99.5t-89 287.5q-25 -9 -309 -121l-185 -71q98 -29 148.5 -99t50.5 -151zM2099 -160q0 -51 -35 -86t-86 -35t-85.5 35t-34.5 86t34.5 86t85.5 35t86 -35t35 -86zM1804 -160q0 -51 -35 -86t-86 -35
t-84.5 35t-33.5 86t33.5 86t84.5 35t86 -35t35 -86zM1952 -424q0 -51 -35 -86t-86 -35t-86 35t-35 86t35 85t86 34t86 -34t35 -85z" />
    <glyph glyph-name="uniFB95FE8A" unicode="&#xfb95;&#xfe8a;" horiz-adv-x="2035" 
d="M2079 1956l-2 -189l-910 -503v190zM1530 -84q0 -117 -91 -212t-258 -149.5t-378 -54.5q-363 0 -540 145.5t-183 436.5q-3 125 35 283h241q-26 -137 -26 -230q0 -342 499 -342q227 0 355.5 43t128.5 121q0 49 -46.5 76.5t-136.5 27.5h-227v285h379q74 0 114 24.5t40 69.5
q0 28 -14 58.5t-54 89.5l-201 303v233l912 504l-2 -276l-656 -365l312 -457q103 -146 157 -194q57 -51 146 -51v-228l-58 -57q-104 0 -186 55q-76 53 -180 197l-41 61q-7 -68 -46.5 -118.5t-103.5 -77.5q51 -32 80 -85t29 -116zM465 684v-156l-453 -65v158l80 10
q-52 52 -49 127q0 86 58.5 143t146.5 57q80 0 129 -49.5t55 -136.5l-104 -14q-25 43 -84 43q-37 0 -58.5 -15.5t-21.5 -44.5q0 -41 44 -64t107 -15z" />
    <glyph glyph-name="uniFE8CFE8A" unicode="&#xfe8c;&#xfe8a;" horiz-adv-x="1955" 
d="M1413 1239v-158l-455 -65v158l82 12q-51 48 -51 125q1 86 60 143t147 57q79 0 127.5 -49t56.5 -137l-106 -12q-11 19 -33.5 31t-48.5 12q-37 0 -58.5 -16.5t-21.5 -45.5q0 -39 44 -63t106 -14zM446 684v-156l-454 -65v158l82 10q-51 51 -51 127q2 86 60 143t146 57
q80 0 129 -49t56 -137l-107 -14q-10 20 -32.5 31.5t-49.5 11.5q-37 0 -58.5 -15.5t-21.5 -44.5q0 -41 43.5 -64t106.5 -15zM1524 -2q0 -148 -99 -262.5t-269 -175t-382 -60.5q-351 0 -522.5 144t-171.5 438q0 118 31 283h241q-26 -137 -26 -230q0 -174 118 -258t365 -84
q210 0 349.5 47.5t139.5 120.5q0 42 -45 68t-149 39l-230 32q-150 20 -224.5 96.5t-74.5 198.5q0 99 53.5 195.5t139.5 168.5t198.5 116.5t225.5 44.5q180 0 297 -91q113 -88 213 -301l53 -110q37 -80 77 -106.5t124 -26.5v-228l-60 -57q-132 0 -208 55q-78 57 -154 228
l-47 102q-62 139 -145 194.5t-220 55.5q-130 0 -227.5 -51t-97.5 -121q0 -39 33 -60.5t114 -33.5l242 -35q184 -25 261 -107t77 -229z" />
    <glyph glyph-name="uniFE92FBFD" unicode="&#xfe92;&#xfbfd;" horiz-adv-x="1955" 
d="M1524 -2q0 -148 -99 -262.5t-269 -175t-382 -60.5q-351 0 -522.5 144t-171.5 438q0 118 31 283h241q-26 -137 -26 -230q0 -174 118 -258t365 -84q210 0 349.5 47.5t139.5 120.5q0 42 -45 68t-149 39l-230 32q-150 20 -224.5 96.5t-74.5 198.5q0 99 53.5 195.5
t139.5 168.5t198.5 116.5t225.5 44.5q180 0 297 -91q113 -88 213 -301l53 -110q37 -80 77 -106.5t124 -26.5v-228l-60 -57q-132 0 -208 55q-78 57 -154 228l-47 102q-62 139 -145 194.5t-220 55.5q-130 0 -227.5 -51t-97.5 -121q0 -39 33 -60.5t114 -33.5l242 -35
q184 -25 261 -107t77 -229zM1776 -547q0 -57 -39.5 -96t-96.5 -39t-96 39t-39 96t39 96t96 39t96.5 -39t39.5 -96z" />
    <glyph glyph-name="uniFE98FBFD" unicode="&#xfe98;&#xfbfd;" horiz-adv-x="1955" 
d="M1489 1178q0 -57 -39 -96.5t-96 -39.5t-96 39.5t-39 96.5t39 96t96 39t96 -39t39 -96zM1165 1178q0 -57 -39 -96.5t-96 -39.5t-97 39.5t-40 96.5t40 96t97 39t96 -39t39 -96zM1524 -2q0 -148 -99 -262.5t-269 -175t-382 -60.5q-351 0 -522.5 144t-171.5 438q0 118 31 283
h241q-26 -137 -26 -230q0 -174 118 -258t365 -84q210 0 349.5 47.5t139.5 120.5q0 42 -45 68t-149 39l-230 32q-150 20 -224.5 96.5t-74.5 198.5q0 99 53.5 195.5t139.5 168.5t198.5 116.5t225.5 44.5q180 0 297 -91q113 -88 213 -301l53 -110q37 -80 77 -106.5t124 -26.5
v-228l-60 -57q-132 0 -208 55q-78 57 -154 228l-47 102q-62 139 -145 194.5t-220 55.5q-130 0 -227.5 -51t-97.5 -121q0 -39 33 -60.5t114 -33.5l242 -35q184 -25 261 -107t77 -229z" />
    <glyph glyph-name="uniFE9CFBFD" unicode="&#xfe9c;&#xfbfd;" horiz-adv-x="1955" 
d="M1313 1427q0 -51 -35 -84.5t-86 -33.5t-86 33.5t-35 84.5t35 86t86 35t86 -35t35 -86zM1165 1163q0 -51 -35 -86t-86 -35t-85.5 35t-34.5 86t34.5 85t85.5 34t86 -34t35 -85zM1458 1163q0 -51 -34 -86t-85 -35t-85.5 35t-34.5 86t34.5 85t85.5 34t85 -34t34 -85zM1524 -2
q0 -148 -99 -262.5t-269 -175t-382 -60.5q-351 0 -522.5 144t-171.5 438q0 118 31 283h241q-26 -137 -26 -230q0 -174 118 -258t365 -84q210 0 349.5 47.5t139.5 120.5q0 42 -45 68t-149 39l-230 32q-150 20 -224.5 96.5t-74.5 198.5q0 99 53.5 195.5t139.5 168.5
t198.5 116.5t225.5 44.5q180 0 297 -91q113 -88 213 -301l53 -110q37 -80 77 -106.5t124 -26.5v-228l-60 -57q-132 0 -208 55q-78 57 -154 228l-47 102q-62 139 -145 194.5t-220 55.5q-130 0 -227.5 -51t-97.5 -121q0 -39 33 -60.5t114 -33.5l242 -35q184 -25 261 -107
t77 -229z" />
    <glyph glyph-name="uniFEA0FBFD" unicode="&#xfea0;&#xfbfd;" horiz-adv-x="2236" 
d="M1530 -55q0 -196 -201.5 -320.5t-535.5 -124.5q-713 0 -713 566q0 116 33 299h241q-28 -157 -28 -238q0 -334 483 -334q238 0 371 43t133 121q0 43 -45.5 76t-145.5 33h-153v243l415 135q183 59 312 91q-52 12 -111 32l-184 64q-116 39 -170 39q-44 0 -71.5 -24.5
t-35.5 -67.5h-221q6 177 93.5 276.5t236.5 99.5q95 0 262 -61l272 -90q129 -50 201 -67t160 -17h61l-2 -260h-35q-41 0 -129 -15v-24q0 -73 48.5 -104t164.5 -31v-224l-57 -61q-176 0 -265 99.5t-89 287.5q-25 -9 -309 -121l-185 -71q98 -29 148.5 -99t50.5 -151zM1964 -180
q0 -57 -39 -96t-96 -39t-96 39t-39 96t39 96t96 39t96 -39t39 -96z" />
    <glyph glyph-name="uniFEA4FBFD" unicode="&#xfea4;&#xfbfd;" horiz-adv-x="2236" 
d="M1530 -55q0 -196 -201.5 -320.5t-535.5 -124.5q-713 0 -713 566q0 116 33 299h241q-28 -157 -28 -238q0 -334 483 -334q238 0 371 43t133 121q0 43 -45.5 76t-145.5 33h-153v243l415 135q183 59 312 91q-52 12 -111 32l-184 64q-116 39 -170 39q-44 0 -71.5 -24.5
t-35.5 -67.5h-221q6 177 93.5 276.5t236.5 99.5q95 0 262 -61l272 -90q129 -50 201 -67t160 -17h61l-2 -260h-35q-41 0 -129 -15v-24q0 -73 48.5 -104t164.5 -31v-224l-57 -61q-176 0 -265 99.5t-89 287.5q-25 -9 -309 -121l-185 -71q98 -29 148.5 -99t50.5 -151z" />
    <glyph glyph-name="uniFEA8FBFD" unicode="&#xfea8;&#xfbfd;" horiz-adv-x="2236" 
d="M1462 1194q0 -57 -39 -95t-96 -38t-97 38t-40 95t40 97t97 40t96 -40t39 -97zM1530 -55q0 -196 -201.5 -320.5t-535.5 -124.5q-713 0 -713 566q0 116 33 299h241q-28 -157 -28 -238q0 -334 483 -334q238 0 371 43t133 121q0 43 -45.5 76t-145.5 33h-153v243l415 135
q183 59 312 91q-52 12 -111 32l-184 64q-116 39 -170 39q-44 0 -71.5 -24.5t-35.5 -67.5h-221q6 177 93.5 276.5t236.5 99.5q95 0 262 -61l272 -90q129 -50 201 -67t160 -17h61l-2 -260h-35q-41 0 -129 -15v-24q0 -73 48.5 -104t164.5 -31v-224l-57 -61q-176 0 -265 99.5
t-89 287.5q-25 -9 -309 -121l-185 -71q98 -29 148.5 -99t50.5 -151z" />
    <glyph glyph-name="uniFEB4FBFD" unicode="&#xfeb4;&#xfbfd;" horiz-adv-x="3035" 
d="M1454 -16q0 -140 -94 -251.5t-253.5 -172t-352.5 -60.5q-331 0 -502.5 147.5t-171.5 434.5q0 118 31 283h241q-26 -137 -26 -230q0 -165 119.5 -253.5t326.5 -88.5q189 0 318 41.5t129 112.5q0 55 -146 84l-176 37q-138 26 -199 90.5t-61 173.5q0 92 50.5 186
t129.5 164.5t180 115t197 44.5q145 0 244.5 -69.5t189.5 -244.5l55 -110q39 -78 84 -114t117 -36q184 0 184 240v76h246v-105q0 -106 35.5 -158.5t97.5 -52.5q68 0 107 52.5t39 158.5v176h248v-176q0 -102 46.5 -148t147.5 -46v-228l-59 -57q-132 0 -215 60t-107 167
q-19 -118 -89 -184t-173 -66q-99 0 -170 57t-94 159q-20 -106 -92 -161t-189 -55q-71 0 -128.5 20.5t-103 63t-81 94t-74.5 128.5l-51 102q-48 99 -115 141.5t-159 42.5q-101 0 -191 -53t-90 -119q0 -28 21 -46t75 -29l205 -46q160 -28 229.5 -99.5t69.5 -192.5z" />
    <glyph glyph-name="uniFEB8FBFD" unicode="&#xfeb8;&#xfbfd;" horiz-adv-x="3108" 
d="M2380 1116q0 -51 -34 -86t-85 -35t-86 35t-35 86t35 86t86 35t85 -35t34 -86zM2232 850q0 -51 -33.5 -85t-84.5 -34t-86 34t-35 85t35 86t86 35t84.5 -35t33.5 -86zM2527 850q0 -51 -35 -85t-86 -34t-85.5 34t-34.5 85t34.5 86t85.5 35t86 -35t35 -86zM1700 541l53 -111
q43 -97 84 -129.5t121 -32.5q184 0 184 240v76h246v-105q0 -104 36.5 -157.5t96.5 -53.5q69 0 108.5 53t39.5 158v176h245v-176q0 -102 47 -148t148 -46v-228l-57 -57q-132 0 -216 60t-108 167q-19 -118 -88 -184t-174 -66q-100 0 -171 58.5t-91 161.5q-20 -108 -92.5 -164
t-190.5 -56q-141 0 -225 66t-166 252l-45 102q-61 130 -144 184t-219 54q-130 0 -227.5 -51t-97.5 -121q0 -38 33 -59.5t114 -34.5l242 -35q184 -25 261 -107t77 -229q0 -148 -99 -262.5t-269 -175t-382 -60.5q-351 0 -522.5 144t-171.5 438q0 118 31 283h241
q-26 -137 -26 -230q0 -174 118 -258t365 -84q210 0 349.5 47.5t139.5 120.5q0 42 -45 68t-149 39l-230 32q-150 20 -224.5 96.5t-74.5 198.5q0 99 53.5 195.5t139.5 168.5t198.5 116.5t225.5 44.5q182 0 297 -89q119 -92 211 -290z" />
    <glyph glyph-name="uniFEBCFBFD" unicode="&#xfebc;&#xfbfd;" horiz-adv-x="3112" 
d="M1524 -2q0 -148 -99 -262.5t-269 -175t-382 -60.5q-351 0 -522.5 144t-171.5 438q0 118 31 283h241q-26 -137 -26 -230q0 -174 118 -258t365 -84q210 0 349.5 47.5t139.5 120.5q0 42 -45 68t-149 39l-230 32q-150 20 -224.5 96.5t-74.5 198.5q0 99 53.5 195.5
t139.5 168.5t198.5 116.5t225.5 44.5q91 0 159.5 -21t126.5 -71.5t104 -115.5t104 -171l59 -111q10 -22 29 -49q139 264 327 409.5t406 145.5q105 0 191.5 -36.5t143.5 -99t88 -144t31 -171.5q0 -93 -28 -172q67 -28 180 -28v-224l-57 -61q-179 0 -273 119
q-199 -142 -608 -142q-198 0 -313 28t-189.5 94t-142.5 196l-53 102q-67 131 -144.5 184.5t-210.5 53.5q-130 0 -227.5 -51t-97.5 -121q0 -38 33 -59.5t114 -34.5l242 -35q184 -25 261 -107t77 -229zM2497 651q-161 0 -307 -95.5t-265 -266.5q104 -23 309 -23
q274 0 399.5 51t125.5 162q0 67 -70.5 119.5t-191.5 52.5z" />
    <glyph glyph-name="uniFEC0FBFD" unicode="&#xfec0;&#xfbfd;" horiz-adv-x="3112" 
d="M2576 1194q0 -57 -38 -95t-95 -38t-97 38t-40 95t40 97t97 40t95 -40t38 -97zM1524 -2q0 -148 -99 -262.5t-269 -175t-382 -60.5q-351 0 -522.5 144t-171.5 438q0 118 31 283h241q-26 -137 -26 -230q0 -174 118 -258t365 -84q210 0 349.5 47.5t139.5 120.5q0 42 -45 68
t-149 39l-230 32q-150 20 -224.5 96.5t-74.5 198.5q0 99 53.5 195.5t139.5 168.5t198.5 116.5t225.5 44.5q91 0 159.5 -21t126.5 -71.5t104 -115.5t104 -171l59 -111q10 -22 29 -49q139 264 327 409.5t406 145.5q105 0 191.5 -36.5t143.5 -99t88 -144t31 -171.5
q0 -93 -28 -172q67 -28 180 -28v-224l-57 -61q-179 0 -273 119q-199 -142 -608 -142q-198 0 -313 28t-189.5 94t-142.5 196l-53 102q-67 131 -144.5 184.5t-210.5 53.5q-130 0 -227.5 -51t-97.5 -121q0 -38 33 -59.5t114 -34.5l242 -35q184 -25 261 -107t77 -229zM2497 651
q-161 0 -307 -95.5t-265 -266.5q104 -23 309 -23q274 0 399.5 51t125.5 162q0 67 -70.5 119.5t-191.5 52.5z" />
    <glyph glyph-name="uniFECCFBFD" unicode="&#xfecc;&#xfbfd;" horiz-adv-x="2332" 
d="M1532 -123q0 -160 -201 -268.5t-551 -108.5q-349 0 -524.5 147t-175.5 435q0 137 35 283h241q-26 -137 -26 -230q0 -168 117.5 -255t349.5 -87q261 0 388.5 37t127.5 100q0 97 -230 97h-20v258h377q-69 69 -152 186l-76 100v269q267 71 512 71q253 0 369 -72.5
t117 -236.5q3 -169 -172 -317q25 -2 76 -2l219 2v-228l-58 -57h-49q-339 0 -538 100q-115 -38 -248 -53q92 -64 92 -170zM1724 643q-154 0 -305 -25q89 -124 166.5 -192.5t173.5 -99.5q125 32 192.5 86.5t65.5 117.5q-1 60 -72 86.5t-221 26.5z" />
    <glyph glyph-name="uniFED0FBFD" unicode="&#xfed0;&#xfbfd;" horiz-adv-x="2332" 
d="M1847 1169q0 -57 -38 -96t-95 -39t-97 39t-40 96t40 97.5t97 40.5t95 -40.5t38 -97.5zM1532 -123q0 -160 -201 -268.5t-551 -108.5q-349 0 -524.5 147t-175.5 435q0 137 35 283h241q-26 -137 -26 -230q0 -168 117.5 -255t349.5 -87q261 0 388.5 37t127.5 100
q0 97 -230 97h-20v258h377q-69 69 -152 186l-76 100v269q267 71 512 71q253 0 369 -72.5t117 -236.5q3 -169 -172 -317q25 -2 76 -2l219 2v-228l-58 -57h-49q-339 0 -538 100q-115 -38 -248 -53q92 -64 92 -170zM1724 643q-154 0 -305 -25q89 -124 166.5 -192.5t173.5 -99.5
q125 32 192.5 86.5t65.5 117.5q-1 60 -72 86.5t-221 26.5z" />
    <glyph glyph-name="uniFEE0FBFD" unicode="&#xfee0;&#xfbfd;" horiz-adv-x="1951" 
d="M1489 -98q0 -173 -183.5 -287.5t-502.5 -114.5q-723 0 -723 582q0 137 35 283h241q-26 -137 -26 -230q0 -342 499 -342q205 0 324 42.5t119 115.5q0 43 -52 76.5t-149 33.5h-227v285h442q107 0 160 52t53 167v991h260v-1052q0 -131 41 -175t152 -44v-228l-58 -57
q-329 0 -350 283q-41 -127 -174 -177q119 -67 119 -204z" />
    <glyph glyph-name="uniFEE8FBFD" unicode="&#xfee8;&#xfbfd;" horiz-adv-x="1955" 
d="M1321 1178q0 -57 -38 -96.5t-95 -39.5t-97 39.5t-40 96.5t40 96t97 39t95 -39t38 -96zM1524 -2q0 -148 -99 -262.5t-269 -175t-382 -60.5q-351 0 -522.5 144t-171.5 438q0 118 31 283h241q-26 -137 -26 -230q0 -174 118 -258t365 -84q210 0 349.5 47.5t139.5 120.5
q0 42 -45 68t-149 39l-230 32q-150 20 -224.5 96.5t-74.5 198.5q0 99 53.5 195.5t139.5 168.5t198.5 116.5t225.5 44.5q180 0 297 -91q113 -88 213 -301l53 -110q37 -80 77 -106.5t124 -26.5v-228l-60 -57q-132 0 -208 55q-78 57 -154 228l-47 102q-62 139 -145 194.5
t-220 55.5q-130 0 -227.5 -51t-97.5 -121q0 -39 33 -60.5t114 -33.5l242 -35q184 -25 261 -107t77 -229z" />
    <glyph glyph-name="uniFEF4FBFD" unicode="&#xfef4;&#xfbfd;" horiz-adv-x="1955" 
d="M1524 -2q0 -148 -99 -262.5t-269 -175t-382 -60.5q-351 0 -522.5 144t-171.5 438q0 118 31 283h241q-26 -137 -26 -230q0 -174 118 -258t365 -84q210 0 349.5 47.5t139.5 120.5q0 42 -45 68t-149 39l-230 32q-150 20 -224.5 96.5t-74.5 198.5q0 99 53.5 195.5
t139.5 168.5t198.5 116.5t225.5 44.5q180 0 297 -91q113 -88 213 -301l53 -110q37 -80 77 -106.5t124 -26.5v-228l-60 -57q-132 0 -208 55q-78 57 -154 228l-47 102q-62 139 -145 194.5t-220 55.5q-130 0 -227.5 -51t-97.5 -121q0 -39 33 -60.5t114 -33.5l242 -35
q184 -25 261 -107t77 -229zM1942 -547q0 -57 -39.5 -96t-96.5 -39t-96 39t-39 96t39 96t96 39t96.5 -39t39.5 -96zM1618 -547q0 -57 -39 -96t-96 -39t-96 39t-39 96t39 96t96 39t96 -39t39 -96z" />
    <glyph glyph-name="uniFB59FBFD" unicode="&#xfb59;&#xfbfd;" horiz-adv-x="1955" 
d="M1524 -2q0 -148 -99 -262.5t-269 -175t-382 -60.5q-351 0 -522.5 144t-171.5 438q0 118 31 283h241q-26 -137 -26 -230q0 -174 118 -258t365 -84q210 0 349.5 47.5t139.5 120.5q0 42 -45 68t-149 39l-230 32q-150 20 -224.5 96.5t-74.5 198.5q0 99 53.5 195.5
t139.5 168.5t198.5 116.5t225.5 44.5q180 0 297 -91q113 -88 213 -301l53 -110q37 -80 77 -106.5t124 -26.5v-228l-60 -57q-132 0 -208 55q-78 57 -154 228l-47 102q-62 139 -145 194.5t-220 55.5q-130 0 -227.5 -51t-97.5 -121q0 -39 33 -60.5t114 -33.5l242 -35
q184 -25 261 -107t77 -229zM1911 -526q0 -51 -35 -86t-86 -35t-86 35t-35 86t35 85.5t86 34.5t86 -34.5t35 -85.5zM1616 -526q0 -51 -35 -86t-86 -35t-85 35t-34 86t34 85.5t85 34.5t86 -34.5t35 -85.5zM1763 -793q0 -51 -35 -85.5t-86 -34.5t-85.5 34.5t-34.5 85.5t34.5 86
t85.5 35t86 -35t35 -86z" />
    <glyph glyph-name="uniFB91FBFD" unicode="&#xfb91;&#xfbfd;" horiz-adv-x="1994" 
d="M1491 -84q0 -117 -86 -212t-243.5 -149.5t-356.5 -54.5q-363 0 -540 145.5t-183 436.5q-3 125 35 283h241q-26 -137 -26 -230q0 -342 499 -342q206 0 324.5 43.5t118.5 120.5q0 49 -46 76.5t-136 27.5h-228v285h379q74 0 114 24.5t40 69.5q0 28 -14 58.5t-54 89.5
l-201 303v233l912 504l-2 -276l-656 -365l312 -457q103 -146 157 -194q57 -51 146 -51v-228l-58 -57q-104 0 -186 55q-76 53 -180 197l-41 61q-7 -68 -46.5 -118.5t-103.5 -77.5q51 -32 80 -85t29 -116z" />
    <glyph glyph-name="uniFB95FBFD" unicode="&#xfb95;&#xfbfd;" horiz-adv-x="2035" 
d="M2081 1956l-2 -189l-910 -503v190zM1532 -84q0 -117 -91 -212t-258 -149.5t-378 -54.5q-363 0 -540 145.5t-183 436.5q-3 125 35 283h241q-26 -137 -26 -230q0 -342 499 -342q227 0 355.5 43t128.5 121q0 49 -46 76.5t-136 27.5h-228v285h379q74 0 114 24.5t40 69.5
q0 28 -14 58.5t-54 89.5l-201 303v233l912 504l-2 -276l-656 -365l312 -457q103 -146 157 -194q57 -51 146 -51v-228l-58 -57q-104 0 -186 55q-76 53 -180 197l-41 61q-7 -68 -46.5 -118.5t-103.5 -77.5q51 -32 80 -85t29 -116z" />
    <glyph glyph-name="uniFE8CFBFD" unicode="&#xfe8c;&#xfbfd;" horiz-adv-x="1955" 
d="M1413 1239v-158l-455 -65v158l82 12q-51 48 -51 125q1 86 60 143t147 57q79 0 127.5 -49t56.5 -137l-106 -12q-11 19 -33.5 31t-48.5 12q-37 0 -58.5 -16.5t-21.5 -45.5q0 -39 44 -63t106 -14zM1524 -2q0 -148 -99 -262.5t-269 -175t-382 -60.5q-351 0 -522.5 144
t-171.5 438q0 118 31 283h241q-26 -137 -26 -230q0 -174 118 -258t365 -84q210 0 349.5 47.5t139.5 120.5q0 42 -45 68t-149 39l-230 32q-150 20 -224.5 96.5t-74.5 198.5q0 99 53.5 195.5t139.5 168.5t198.5 116.5t225.5 44.5q180 0 297 -91q113 -88 213 -301l53 -110
q37 -80 77 -106.5t124 -26.5v-228l-60 -57q-132 0 -208 55q-78 57 -154 228l-47 102q-62 139 -145 194.5t-220 55.5q-130 0 -227.5 -51t-97.5 -121q0 -39 33 -60.5t114 -33.5l242 -35q184 -25 261 -107t77 -229z" />
    <glyph glyph-name="uniFEB4FEB0" unicode="&#xfeb4;&#xfeb0;" horiz-adv-x="2408" 
d="M459 944q0 -57 -39 -95t-96 -38t-96.5 38t-39.5 95t39.5 97t96.5 40t96 -40t39 -97zM551 190q0 -349 -125 -514t-389 -165q-102 0 -184 12v287q100 -17 176 -17q147 0 212.5 92.5t65.5 296.5q0 104 -16 238l-29 235l785 72l28 -258q12 -111 47.5 -156t114.5 -45
q82 0 120 51t38 160v105h247v-105q0 -108 35 -159.5t109 -51.5q82 0 121 51t39 160v176h245v-176q0 -102 53 -148t164 -46v-228l-57 -57q-140 0 -229.5 59t-114.5 166q-35 -248 -276 -248q-109 0 -182 56.5t-93 156.5q-17 -105 -85 -159t-183 -54q-172 0 -248 99
q-76 101 -106 344l-293 -27q10 -120 10 -203z" />
    <glyph glyph-name="uniFEB8FEB0" unicode="&#xfeb8;&#xfeb0;" horiz-adv-x="2408" 
d="M1636 1092q0 -51 -33.5 -85t-84.5 -34t-86 34t-35 85t35 85.5t86 34.5t84.5 -34.5t33.5 -85.5zM459 944q0 -57 -39 -95t-96 -38t-96.5 38t-39.5 95t39.5 97t96.5 40t96 -40t39 -97zM1489 827q0 -51 -34 -85.5t-85 -34.5t-86 34.5t-35 85.5t35 86t86 35t85 -35t34 -86z
M1782 827q0 -51 -34 -85.5t-85 -34.5t-86 34.5t-35 85.5t35 86t86 35t85 -35t34 -86zM551 190q0 -349 -125 -514t-389 -165q-102 0 -184 12v287q100 -17 176 -17q147 0 212.5 92.5t65.5 296.5q0 104 -16 238l-29 235l785 72l28 -258q12 -111 47.5 -156t114.5 -45
q82 0 120 51t38 160v105h247v-105q0 -108 35 -159.5t109 -51.5q82 0 121 51t39 160v176h245v-176q0 -102 53 -148t164 -46v-228l-57 -57q-140 0 -229.5 59t-114.5 166q-35 -248 -276 -248q-109 0 -182 56.5t-93 156.5q-17 -105 -85 -159t-183 -54q-172 0 -248 99
q-76 101 -106 344l-293 -27q10 -120 10 -203z" />
    <glyph glyph-name="uniFEBCFEB0" unicode="&#xfebc;&#xfeb0;" horiz-adv-x="2557" 
d="M463 1016q0 -57 -39 -95t-96 -38t-96 38t-39 95t39 97t96 40t96 -40t39 -97zM551 190q0 -349 -125 -514t-389 -165q-102 0 -184 12v287q100 -17 176 -17q147 0 212.5 92.5t65.5 296.5q0 104 -16 238l-37 307l784 72l37 -330q9 -100 45 -141q151 290 350.5 449t430.5 159
q105 0 192 -36.5t144 -99t88.5 -144t31.5 -171.5q0 -82 -20 -143q36 -30 86.5 -43.5t134.5 -13.5v-224l-57 -61q-199 0 -297 154q-213 -177 -764 -177q-166 0 -273 23t-180.5 82.5t-110 154.5t-51.5 246l-2 11l-291 -27l3 -21q16 -184 16 -256zM1892 651q-172 0 -327 -100
t-283 -283q147 -6 186 -6q251 0 403 25t216.5 71.5t64.5 120.5q0 67 -69.5 119.5t-190.5 52.5z" />
    <glyph glyph-name="uniFEC0FEB0" unicode="&#xfec0;&#xfeb0;" horiz-adv-x="2557" 
d="M1987 1194q0 -57 -39.5 -95t-96.5 -38t-96 38t-39 95t39 97t96 40t96.5 -40t39.5 -97zM463 1016q0 -57 -39 -95t-96 -38t-96 38t-39 95t39 97t96 40t96 -40t39 -97zM551 190q0 -349 -125 -514t-389 -165q-102 0 -184 12v287q100 -17 176 -17q147 0 212.5 92.5t65.5 296.5
q0 104 -16 238l-37 307l784 72l37 -330q9 -100 45 -141q151 290 350.5 449t430.5 159q105 0 192 -36.5t144 -99t88.5 -144t31.5 -171.5q0 -82 -20 -143q36 -30 86.5 -43.5t134.5 -13.5v-224l-57 -61q-199 0 -297 154q-213 -177 -764 -177q-166 0 -273 23t-180.5 82.5
t-110 154.5t-51.5 246l-2 11l-291 -27l3 -21q16 -184 16 -256zM1892 651q-172 0 -327 -100t-283 -283q147 -6 186 -6q251 0 403 25t216.5 71.5t64.5 120.5q0 67 -69.5 119.5t-190.5 52.5z" />
    <glyph glyph-name="uniFB59FEB0" unicode="&#xfb59;&#xfeb0;" horiz-adv-x="1296" 
d="M459 1016q0 -57 -39 -95t-96 -38t-96.5 38t-39.5 95t39.5 97t96.5 40t96 -40t39 -97zM551 190q0 -349 -125 -514t-389 -165q-102 0 -184 12v287q100 -17 176 -17q147 0 212.5 92.5t65.5 296.5q0 104 -16 238l-37 307l784 72l37 -330q12 -110 58 -147t163 -37v-228
l-57 -57q-209 0 -297 104q-90 110 -117 379l-2 11l-291 -27l3 -21q16 -184 16 -256zM1202 -250q0 -51 -35 -86t-86 -35t-84.5 35t-33.5 86t33.5 86t84.5 35t86 -35t35 -86zM909 -250q0 -51 -35 -86t-86 -35t-85.5 35t-34.5 86t34.5 86t85.5 35t86 -35t35 -86zM1055 -514
q0 -51 -35 -86t-86 -35t-85 35t-34 86t34 85t85 34t86 -34t35 -85z" />
    <glyph glyph-name="uniFBFFFEB0" unicode="&#xfbff;&#xfeb0;" horiz-adv-x="1296" 
d="M459 1016q0 -57 -39 -95t-96 -38t-96.5 38t-39.5 95t39.5 97t96.5 40t96 -40t39 -97zM551 190q0 -349 -125 -514t-389 -165q-102 0 -184 12v287q100 -17 176 -17q147 0 212.5 92.5t65.5 296.5q0 104 -16 238l-37 307l784 72l37 -330q12 -110 58 -147t163 -37v-228
l-57 -57q-209 0 -297 104q-90 110 -117 379l-2 11l-291 -27l3 -21q16 -184 16 -256zM1202 -248q0 -51 -35 -85t-86 -34t-85.5 34t-34.5 85t34.5 86t85.5 35t86 -35t35 -86zM911 -248q0 -51 -33.5 -85t-84.5 -34t-86 34t-35 85t35 86t86 35t84.5 -35t33.5 -86z" />
    <glyph glyph-name="uni066E.init" unicode="&#x66e;" horiz-adv-x="532" 
d="M18 0h-75v229l57 56q114 0 157.5 52.5t43.5 174.5q0 100 -31 358h250q29 -234 29 -391q0 -235 -109 -357t-322 -122z" />
    <glyph glyph-name="uni066E.medi" unicode="&#x66e;" horiz-adv-x="638" 
d="M639 285v-228l-57 -57q-142 0 -227.5 58t-108.5 171q-20 -113 -97 -171t-206 -58v229l57 56q108 0 152.5 50.5t44.5 168.5v223h245v-223q0 -131 42 -175t155 -44z" />
    <glyph glyph-name="uni066E.fina" unicode="&#x66e;" horiz-adv-x="1931" 
d="M1931 57l-57 -57q-141 0 -226 57.5t-108 167.5q-44 -122 -215.5 -185t-454.5 -63q-413 0 -599.5 129t-186.5 414q0 151 35 279h243q-30 -140 -30 -224q0 -164 131 -234.5t434 -70.5q243 0 366.5 20.5t174.5 69t51 144.5v223h246v-223q0 -131 41.5 -175t154.5 -44v-228z
" />
    <glyph glyph-name="uni066F.fina" unicode="&#x66f;" horiz-adv-x="1536" 
d="M1536 57l-59 -57h-31q-38 -259 -203 -383.5t-467 -124.5q-696 0 -696 637q0 157 35 309h243q-32 -139 -32 -278q2 -194 116.5 -288.5t366.5 -94.5q209 0 312.5 50.5t133.5 172.5h-241q-206 0 -321 105t-115 290q0 128 58 241.5t159.5 183t220.5 69.5q184 0 300 -158.5
t136 -445.5h84v-228zM997 285h263q-25 160 -101.5 246.5t-193.5 86.5q-84 0 -137.5 -57t-53.5 -135q0 -74 55.5 -107.5t167.5 -33.5z" />
    <glyph glyph-name="uni06A1.init" unicode="&#x6a1;" horiz-adv-x="1009" 
d="M369 0h-426v229l57 56h381q187 0 260 24q75 27 90 133q-96 -36 -278 -36q-191 0 -301.5 95.5t-110.5 260.5q0 121 57 229.5t155 174t210 65.5q204 0 332.5 -185t128.5 -493q0 -313 -125 -432q-127 -121 -430 -121zM236 776q0 -137 225 -137q149 0 266 20
q-24 138 -106 218.5t-189 80.5q-88 0 -142 -52.5t-54 -129.5z" />
    <glyph glyph-name="uni06A1.medi" unicode="&#x6a1;" horiz-adv-x="1024" 
d="M74 0h-131v229l57 56h168q-94 121 -94 262q0 192 131.5 326.5t312.5 134.5q120 0 219 -62.5t154 -166.5t55 -224q0 -145 -106 -270h184v-228l-57 -57h-60q-226 0 -411 68q-198 -68 -422 -68zM276 541q0 -75 67.5 -131.5t191.5 -87.5q208 58 208 206q0 80 -68 138t-171 57
q-101 0 -164.5 -53.5t-63.5 -128.5z" />
    <glyph glyph-name="uni06A1.fina" unicode="&#x6a1;" horiz-adv-x="1945" 
d="M1849 543q0 -132 -96 -252q177 -6 195 -6v-228l-60 -57q-267 0 -477 68q-246 -91 -539 -91q-402 0 -594.5 125t-191.5 412q0 133 41 285h244q-37 -133 -37 -228q-1 -172 124.5 -236.5t413.5 -64.5q24 0 201 6q-96 124 -96 269q0 121 59.5 228t160.5 171t218 64
q123 0 223.5 -64t155.5 -170.5t55 -230.5zM1180 541q0 -141 247 -207q105 32 162.5 85t57.5 116q0 70 -68 129t-172 59q-97 0 -162 -55t-65 -127z" />
    <glyph glyph-name="uni06C2.fina" unicode="&#x6c2;" horiz-adv-x="1105" 
d="M780 1481v-158l-454 -63v155l82 12q-52 49 -52 125q0 86 58.5 143.5t146.5 57.5q80 0 130 -49t57 -135l-107 -15q-25 43 -82 43q-38 0 -59 -16t-21 -45q0 -39 44 -62t106 -16zM1106 285v-228l-59 -57q-159 0 -238 60t-102 194q-72 -205 -312 -205q-167 0 -261.5 96.5
t-94.5 266.5q0 142 84.5 250.5t249.5 177.5l309 135v186h260v-690q0 -102 37.5 -144t126.5 -42zM244 455q0 -121 182 -121q256 0 256 196v228l-254 -111q-99 -45 -141.5 -88.5t-42.5 -103.5z" />
    <glyph glyph-name="uni06C3.fina" unicode="&#x6c3;" horiz-adv-x="1378" 
d="M987 1040q0 -57 -39 -95t-96 -38t-97 38t-40 95t40 97.5t97 40.5t96 -40.5t39 -97.5zM664 1040q0 -57 -39.5 -95t-96.5 -38t-97 38t-40 95t40 97.5t97 40.5t96.5 -40.5t39.5 -97.5zM1378 285v-228l-59 -57q-220 0 -318 62.5t-151 244.5l-27 78q-19 64 -47 89.5t-84 25.5
q-180 0 -631 -254v258q240 144 403 211t277 67q125 0 189 -55q66 -56 112 -209l29 -84q27 -95 76 -123q45 -26 172 -26h59z" />
    <glyph glyph-name="uni06CC.init" unicode="&#x6cc;" horiz-adv-x="532" arabic-form="initial" 
d="M18 0h-75v229l57 56q114 0 157.5 52.5t43.5 174.5q0 100 -31 358h250q29 -234 29 -391q0 -235 -109 -357t-322 -122zM524 -285q0 -51 -35 -86t-86 -35t-85.5 35t-34.5 86t34.5 86t85.5 35t86 -35t35 -86zM229 -285q0 -51 -33.5 -86t-84.5 -35t-86 35t-35 86t35 86t86 35
t84.5 -35t33.5 -86z" />
    <glyph glyph-name="uni06D5.fina" unicode="&#x6d5;" horiz-adv-x="1105" 
d="M1106 285v-228l-59 -57q-159 0 -238 60t-102 194q-72 -205 -312 -205q-167 0 -261.5 96.5t-94.5 266.5q0 142 84.5 250.5t249.5 177.5l309 135v186h260v-690q0 -102 37.5 -144t126.5 -42zM244 455q0 -121 182 -121q256 0 256 196v228l-254 -111q-99 -45 -141.5 -88.5
t-42.5 -103.5z" />
    <glyph glyph-name="uniFB51" unicode="&#x671;" horiz-adv-x="581" arabic-form="final" 
d="M35 1290h-119q0 106 48 163.5t136 57.5h6q50 114 120 176t151 62q91 0 141.5 -54t50.5 -151q0 -106 -54 -162.5t-157 -56.5q-49 0 -131.5 16.5t-126.5 16.5q-65 0 -65 -68zM362 1595q-44 0 -82 -25.5t-63 -70.5q98 -20 139 -20q45 0 71 14.5t26 40.5q0 29 -24 45t-67 16z
M582 285v-228l-58 -57q-211 0 -303 114.5t-92 377.5v745h260v-745q0 -109 46 -158t147 -49z" />
    <glyph glyph-name="uniFB57" unicode="&#x67e;" horiz-adv-x="1931" arabic-form="final" 
d="M1931 57l-57 -57q-141 0 -226 57.5t-108 167.5q-44 -122 -215.5 -185t-454.5 -63q-413 0 -599.5 129t-186.5 414q0 151 35 279h243q-30 -140 -30 -224q0 -164 131 -234.5t434 -70.5q243 0 366.5 20.5t174.5 69t51 144.5v223h246v-223q0 -131 41.5 -175t154.5 -44v-228z
M1182 -262q0 -51 -35 -86t-86 -35t-86 35t-35 86t35 86t86 35t86 -35t35 -86zM887 -262q0 -51 -35 -86t-86 -35t-85 35t-34 86t34 86t85 35t86 -35t35 -86zM1034 -526q0 -51 -35 -86t-86 -35t-85.5 35t-34.5 86t34.5 84.5t85.5 33.5t86 -33.5t35 -84.5z" />
    <glyph glyph-name="uniFB58" unicode="&#x67e;" horiz-adv-x="532" arabic-form="initial" 
d="M18 0h-75v229l57 56q114 0 157.5 52.5t43.5 174.5q0 100 -31 358h250q29 -234 29 -391q0 -235 -109 -357t-322 -122zM522 -250q0 -51 -35 -86t-86 -35t-84.5 35t-33.5 86t33.5 86t84.5 35t86 -35t35 -86zM229 -250q0 -51 -34.5 -86t-85.5 -35t-86 35t-35 86t35 86t86 35
t85.5 -35t34.5 -86zM375 -514q0 -51 -35 -86t-86 -35t-85 35t-34 86t34 85t85 34t86 -34t35 -85z" />
    <glyph glyph-name="uniFB59" unicode="&#x67e;" horiz-adv-x="638" arabic-form="medial" 
d="M639 285v-228l-57 -57q-142 0 -227.5 58t-108.5 171q-20 -113 -97 -171t-206 -58v229l57 56q108 0 152.5 50.5t44.5 168.5v223h245v-223q0 -131 42 -175t155 -44zM553 -250q0 -51 -35 -86t-86 -35t-85 35t-34 86t34 86t85 35t86 -35t35 -86zM260 -250q0 -51 -35 -86
t-86 -35t-85 35t-34 86t34 86t85 35t86 -35t35 -86zM406 -514q0 -51 -35 -86t-86 -35t-85 35t-34 86t34 85t85 34t86 -34t35 -85z" />
    <glyph glyph-name="uniFB67" unicode="&#x679;" horiz-adv-x="1931" arabic-form="final" 
d="M944 813h-346v154h92l23 51v405h121v-239q77 65 170 65q91 0 142.5 -57.5t51.5 -159.5q0 -108 -66.5 -163.5t-187.5 -55.5zM991 1096q-115 0 -180 -129h131q141 0 141 65q0 29 -25.5 46.5t-66.5 17.5zM1931 57l-57 -57q-141 0 -226 57.5t-108 167.5q-44 -122 -215.5 -185
t-454.5 -63q-413 0 -599.5 129t-186.5 414q0 151 35 279h243q-30 -140 -30 -224q0 -164 131 -234.5t434 -70.5q243 0 366.5 20.5t174.5 69t51 144.5v223h246v-223q0 -131 41.5 -175t154.5 -44v-228z" />
    <glyph glyph-name="uniFB68" unicode="&#x679;" horiz-adv-x="532" arabic-form="initial" 
d="M305 1012h-346v153h92q8 24 23 54v403h121v-240q78 66 170 66q91 0 142.5 -57.5t51.5 -159.5q0 -108 -66.5 -163.5t-187.5 -55.5zM352 1294q-116 0 -180 -129h131q139 0 139 66q0 29 -24.5 46t-65.5 17zM18 0h-75v229l57 56q114 0 157.5 52.5t43.5 174.5q0 100 -31 358
h250q29 -234 29 -391q0 -235 -109 -357t-322 -122z" />
    <glyph glyph-name="uniFB69" unicode="&#x679;" horiz-adv-x="638" arabic-form="medial" 
d="M352 868h-344v154h90l25 55v402h121v-238q76 64 168 64q91 0 142.5 -57.5t51.5 -160.5q0 -108 -66.5 -163.5t-187.5 -55.5zM399 1151q-115 0 -180 -129h133q140 0 140 65q0 29 -25.5 46.5t-67.5 17.5zM639 285v-228l-57 -57q-142 0 -227.5 58t-108.5 171
q-20 -113 -97 -171t-206 -58v229l57 56q108 0 152.5 50.5t44.5 168.5v223h245v-223q0 -131 42 -175t155 -44z" />
    <glyph glyph-name="uniFB6B" unicode="&#x6a4;" horiz-adv-x="1945" arabic-form="final" 
d="M1536 1518q0 -51 -34 -86t-85 -35t-86 35t-35 86t35 85.5t86 34.5t85 -34.5t34 -85.5zM1389 1251q0 -51 -34 -86t-85 -35t-86 35t-35 86t35 86t86 35t85 -35t34 -86zM1683 1251q0 -51 -34.5 -86t-85.5 -35t-86 35t-35 86t35 86t86 35t85.5 -35t34.5 -86zM1849 543
q0 -132 -96 -252q177 -6 195 -6v-228l-60 -57q-267 0 -477 68q-246 -91 -539 -91q-402 0 -594.5 125t-191.5 412q0 133 41 285h244q-37 -133 -37 -228q-1 -172 124.5 -236.5t413.5 -64.5q24 0 201 6q-96 124 -96 269q0 121 59.5 228t160.5 171t218 64q123 0 223.5 -64
t155.5 -170.5t55 -230.5zM1180 541q0 -141 247 -207q105 32 162.5 85t57.5 116q0 70 -68 129t-172 59q-97 0 -162 -55t-65 -127z" />
    <glyph glyph-name="uniFB6C" unicode="&#x6a4;" horiz-adv-x="1009" arabic-form="initial" 
d="M573 1741q0 -51 -33.5 -85t-84.5 -34t-86 34t-35 85t35 86t86 35t84.5 -35t33.5 -86zM426 1477q0 -51 -34 -86t-85 -35t-86 35t-35 86t35 85.5t86 34.5t85 -34.5t34 -85.5zM721 1477q0 -51 -35 -86t-86 -35t-86 35t-35 86t35 85.5t86 34.5t86 -34.5t35 -85.5zM369 0h-426
v229l57 56h381q187 0 260 24q75 27 90 133q-96 -36 -278 -36q-191 0 -301.5 95.5t-110.5 260.5q0 121 57 229.5t155 174t210 65.5q204 0 332.5 -185t128.5 -493q0 -313 -125 -432q-127 -121 -430 -121zM236 776q0 -137 225 -137q149 0 266 20q-24 138 -106 218.5t-189 80.5
q-88 0 -142 -52.5t-54 -129.5z" />
    <glyph glyph-name="uniFB6D" unicode="&#x6a4;" horiz-adv-x="1024" arabic-form="medial" 
d="M635 1518q0 -51 -35 -86t-86 -35t-86 35t-35 86t35 85.5t86 34.5t86 -34.5t35 -85.5zM487 1251q0 -51 -34.5 -86t-85.5 -35t-86 35t-35 86t35 86t86 35t85.5 -35t34.5 -86zM780 1251q0 -51 -33.5 -86t-84.5 -35t-86 35t-35 86t35 86t86 35t84.5 -35t33.5 -86zM74 0h-131
v229l57 56h168q-94 121 -94 262q0 192 131.5 326.5t312.5 134.5q120 0 219 -62.5t154 -166.5t55 -224q0 -145 -106 -270h184v-228l-57 -57h-60q-226 0 -411 68q-198 -68 -422 -68zM276 541q0 -75 67.5 -131.5t191.5 -87.5q208 58 208 206q0 80 -68 138t-171 57
q-101 0 -164.5 -53.5t-63.5 -128.5z" />
    <glyph glyph-name="uniFB7B" unicode="&#x686;" horiz-adv-x="1355" arabic-form="final" 
d="M1356 285v-224l-58 -61q-177 0 -266.5 100.5t-89.5 292.5v94q-318 -48 -494 -186t-176 -315q0 -164 126 -251t360 -87q140 0 279 28.5t247 73.5v-299q-113 -49 -256.5 -77.5t-286.5 -28.5q-335 0 -526 159q-188 159 -188 428q0 274 195 455.5t579 243.5l-68 24l-158 60
q-110 39 -178 39q-94 0 -110 -92h-221q6 178 93 277t236 99q120 0 297 -73l226 -95q120 -53 192 -72.5t137 -19.5h39l-2 -270h-41q-67 0 -100 -2v-86q0 -73 48.5 -104t164.5 -31zM936 133q0 -49 -33.5 -82t-81.5 -33q-49 0 -81.5 32.5t-32.5 82.5t32.5 82.5t81.5 32.5
q48 0 81.5 -33t33.5 -82zM655 133q0 -50 -32.5 -82.5t-81.5 -32.5t-82 33t-33 82t33 82t82 33t81.5 -32.5t32.5 -82.5zM795 -119q0 -50 -33 -83.5t-82 -33.5t-82 33.5t-33 83.5q0 48 33 80.5t82 32.5t82 -32.5t33 -80.5z" />
    <glyph glyph-name="uniFB7C" unicode="&#x686;" horiz-adv-x="1376" arabic-form="initial" 
d="M150 0h-207v229l57 56h150q153 0 266.5 22.5t222.5 77.5l139 66q13 5 57 25t66 28q-68 12 -180 51l-172 59q-104 37 -168 37q-45 0 -73 -24t-34 -68h-221q4 178 91 277.5t237 99.5q85 0 262 -59l272 -93q130 -50 201 -65q83 -17 162 -17h59v-253h-71q-90 0 -168 -33.5
t-228 -132.5l-143 -99q-167 -110 -283 -147t-294 -37zM961 -250q0 -51 -35 -86t-86 -35t-86 35t-35 86t35 86t86 35t86 -35t35 -86zM668 -250q0 -51 -35 -86t-86 -35t-86 35t-35 86t35 86t86 35t86 -35t35 -86zM813 -514q0 -51 -35 -86t-86 -35t-86 35t-35 86t35 85t86 34
t86 -34t35 -85z" />
    <glyph glyph-name="uniFB7D" unicode="&#x686;" horiz-adv-x="1384" arabic-form="medial" 
d="M150 0h-207v229l57 56h150q153 0 266.5 22.5t222.5 77.5l139 66q13 5 57 25t66 28q-68 12 -180 51l-172 59q-104 37 -168 37q-45 0 -73 -24t-34 -68h-221q4 178 91 277.5t237 99.5q85 0 262 -59l272 -93q130 -50 201 -65q83 -17 162 -17h59v-253h-71q-52 0 -95 -11v-18
q0 -73 48.5 -104t164.5 -31v-224l-57 -61q-165 0 -254.5 88.5t-97.5 259.5l-105 -65l-143 -99q-167 -110 -283 -147t-294 -37zM961 -250q0 -51 -35 -86t-86 -35t-86 35t-35 86t35 86t86 35t86 -35t35 -86zM668 -250q0 -51 -35 -86t-86 -35t-86 35t-35 86t35 86t86 35t86 -35
t35 -86zM813 -514q0 -51 -35 -86t-86 -35t-86 35t-35 86t35 85t86 34t86 -34t35 -85z" />
    <glyph glyph-name="uniFB89" unicode="&#x688;" horiz-adv-x="1200" arabic-form="final" 
d="M647 1200h-346v156h92q5 15 23 51v405h121v-239q77 65 170 65q91 0 142.5 -58t51.5 -161q0 -108 -67 -163.5t-187 -55.5zM694 1483q-57 0 -104 -33.5t-78 -93.5h133q139 0 139 63q0 30 -24 47t-66 17zM1200 285v-228l-57 -57q-96 0 -161 33.5t-118 113.5
q-196 -172 -436 -172q-205 1 -295 101.5t-90 316.5h229q2 -70 41 -101.5t140 -31.5q178 0 321 70q-13 30 -29 73l-239 656h293l202 -563q43 -123 80 -168q37 -43 119 -43z" />
    <glyph glyph-name="uniFB8B" unicode="&#x698;" horiz-adv-x="749" arabic-form="final" 
d="M459 1235q0 -51 -35 -85t-86 -34t-86 34t-35 85t35 86t86 35t86 -35t35 -86zM311 971q0 -51 -35 -86t-86 -35t-85.5 35t-34.5 86t34.5 86t85.5 35t86 -35t35 -86zM604 971q0 -51 -34 -86t-85 -35t-85.5 35t-34.5 86t34.5 86t85.5 35t85 -35t34 -86zM750 57l-58 -57
q-148 0 -213 100q-13 -289 -126.5 -439t-317.5 -150q-111 0 -182 12v284q103 -14 157 -14q134 0 211.5 104t77.5 306q0 240 -59 524h254l34 -225q17 -119 68.5 -168t153.5 -49v-228z" />
    <glyph glyph-name="uniFB8D" unicode="&#x691;" horiz-adv-x="749" arabic-form="final" 
d="M369 868h-344v154h90l24 55v402h121v-238q76 64 168 64t143.5 -57.5t51.5 -160.5q0 -108 -66.5 -163.5t-187.5 -55.5zM416 1151q-116 0 -180 -129h133q139 0 139 65q0 29 -25.5 46.5t-66.5 17.5zM750 57l-58 -57q-148 0 -213 100q-13 -289 -126.5 -439t-317.5 -150
q-111 0 -182 12v284q103 -14 157 -14q134 0 211.5 104t77.5 306q0 240 -59 524h254l34 -225q17 -119 68.5 -168t153.5 -49v-228z" />
    <glyph glyph-name="uniFB8F" unicode="&#x6a9;" horiz-adv-x="1835" arabic-form="final" 
d="M1835 57l-57 -57q-119 0 -207 55q-84 55 -197 195q-25 -125 -176.5 -199t-392.5 -74q-378 0 -555.5 130t-177.5 413q0 130 32 279h246q-31 -141 -31 -224q0 -164 123 -234.5t406 -70.5q391 0 391 109q0 26 -16.5 56.5t-63.5 90.5l-258 340v232l914 504l-3 -281l-649 -358
l332 -433q115 -148 180 -196q70 -49 160 -49v-228z" />
    <glyph glyph-name="uniFB90" unicode="&#x6a9;" horiz-adv-x="980" arabic-form="initial" 
d="M403 0h-460v229l57 56h477q71 0 106 26t35 66q0 46 -37 87t-141 116l-395 251v242l911 504l-2 -283l-635 -344l209 -147q166 -104 239 -203t73 -225q0 -174 -113.5 -274.5t-323.5 -100.5z" />
    <glyph glyph-name="uniFB91" unicode="&#x6a9;" horiz-adv-x="989" arabic-form="medial" 
d="M203 0h-260v229l57 56h240q74 0 113.5 25t39.5 69q0 28 -15 56t-61 87l-270 352v234l914 494v-281l-652 -352l336 -439q115 -148 180 -196q70 -49 164 -49v-228l-59 -57q-125 0 -217 56t-185 190q-17 -113 -104.5 -179.5t-220.5 -66.5z" />
    <glyph glyph-name="uniFB93" unicode="&#x6af;" horiz-adv-x="1835" arabic-form="final" 
d="M1815 1931l-3 -190l-911 -504v190zM1835 57l-57 -57q-119 0 -207 55q-84 55 -197 195q-25 -125 -176.5 -199t-392.5 -74q-378 0 -555.5 130t-177.5 413q0 130 32 279h246q-31 -141 -31 -224q0 -164 123 -234.5t406 -70.5q391 0 391 109q0 26 -16.5 56.5t-63.5 90.5
l-258 340v232l914 504l-3 -281l-649 -358l332 -433q115 -148 180 -196q70 -49 160 -49v-228z" />
    <glyph glyph-name="uniFB94" unicode="&#x6af;" horiz-adv-x="980" arabic-form="initial" 
d="M956 1905l-2 -189l-909 -504v189zM403 0h-460v229l57 56h477q71 0 106 26t35 66q0 46 -37 87t-141 116l-395 251v242l911 504l-2 -283l-635 -344l209 -147q166 -104 239 -203t73 -225q0 -174 -113.5 -274.5t-323.5 -100.5z" />
    <glyph glyph-name="uniFB95" unicode="&#x6af;" horiz-adv-x="989" arabic-form="medial" 
d="M967 1931v-190l-912 -504v190zM203 0h-260v229l57 56h240q74 0 113.5 25t39.5 69q0 28 -15 56t-61 87l-270 352v234l914 494v-281l-652 -352l336 -439q115 -148 180 -196q70 -49 164 -49v-228l-59 -57q-125 0 -217 56t-185 190q-17 -113 -104.5 -179.5t-220.5 -66.5z" />
    <glyph glyph-name="uniFB9F" unicode="&#x6ba;" horiz-adv-x="1527" arabic-form="final" 
d="M1530 57l-57 -57q-149 0 -222 82q-41 -477 -559 -477q-312 0 -462 158t-148 450q3 118 33 297h241q-25 -131 -28 -234q-2 -190 88 -284t297 -94q203 0 299 74.5t96 232.5q0 87 -27 250l-22 129h248l22 -125q17 -100 59.5 -137t141.5 -37v-228z" />
    <glyph glyph-name="uniFBA7" unicode="&#x6c1;" horiz-adv-x="1378" arabic-form="final" 
d="M1378 285v-228l-59 -57q-220 0 -318 62.5t-151 244.5l-27 78q-19 64 -47 89.5t-84 25.5q-180 0 -631 -254v258q240 144 403 211t277 67q125 0 189 -55q66 -56 112 -209l29 -84q27 -95 76 -123q45 -26 172 -26h59z" />
    <glyph glyph-name="uniFBA8" unicode="&#x6c1;" horiz-adv-x="1042" arabic-form="initial" 
d="M958 395q0 -205 -96.5 -311.5t-275.5 -106.5q-138 0 -224.5 60.5t-111.5 171.5q-20 -102 -99 -155.5t-208 -53.5l4 229l53 56q101 0 150 46.5t49 147.5v105h245v-105q0 -109 34.5 -160t109.5 -51q61 0 92 34t31 116q0 98 -25 237h252q20 -131 20 -260zM694 -559h-256
q-16 66 -16 102q0 55 17 108.5t63 149.5l47 101l194 -80l-30 -88q-29 -102 -29 -176q0 -66 10 -117z" />
    <glyph glyph-name="uniFBA9" unicode="&#x6c1;" horiz-adv-x="1099" arabic-form="medial" 
d="M831 -219v-207l-198 -182l-301 295q-190 186 -135 393q-99 -80 -254 -80v229l57 56q117 0 178 34q64 37 137 125l54 64l170 -141l-56 -72q-87 -116 -81.5 -216t108.5 -202l104 -102v82q0 428 486 428v-228l-58 -57q-109 0 -160 -54t-51 -165z" />
    <glyph glyph-name="uniFBAB" unicode="&#x6be;" horiz-adv-x="1232" arabic-form="final" 
d="M1065 487q0 -107 -66 -202h234v-228l-59 -57h-68q61 -64 61 -172q0 -134 -102 -225q-103 -92 -274 -92q-170 0 -320 127.5t-244 353.5q-133 11 -207 28v279q143 -21 224 -23q158 284 430 529h264q127 -151 127 -318zM868 459q0 87 -123 170q-172 -143 -301 -355
q231 6 327.5 49t96.5 136zM961 -121q0 53 -62.5 96t-204.5 80q-110 -45 -258 -61q66 -100 160.5 -154.5t200.5 -54.5q77 0 120.5 27t43.5 67z" />
    <glyph glyph-name="uniFBAC" unicode="&#x6be;" horiz-adv-x="1288" arabic-form="initial" 
d="M1233 430q0 -211 -133 -332t-371 -121q-199 0 -356 80q-200 -57 -430 -57v229l57 56q88 0 127 2q-66 117 -66 250q0 115 59 209t154 139v202l338 -98q346 -102 484 -225q137 -122 137 -334zM264 537q0 -130 154 -209q196 60 196 209q0 74 -52 124t-130 50q-74 0 -121 -50
t-47 -124zM805 537q0 -149 -96 -273q23 -2 71 -2q250 0 250 162q0 72 -54 122.5t-183 100.5q12 -53 12 -110z" />
    <glyph glyph-name="uniFBAD" unicode="&#x6be;" horiz-adv-x="1083" arabic-form="medial" 
d="M1018 -172q0 -133 -103 -225t-274 -92q-172 0 -322 129t-243 360h-133v229l57 56l98 -2q161 289 426 522h264q127 -151 127 -318q0 -107 -69 -202h237v-228l-59 -57h-68q62 -65 62 -172zM719 459q0 90 -129 174q-171 -154 -289 -348q229 7 323.5 47.5t94.5 126.5z
M811 -121q0 112 -293 182q-109 -40 -237 -55q63 -104 159.5 -162.5t206.5 -58.5q77 0 120.5 27t43.5 67z" />
    <glyph glyph-name="uniFBAF" unicode="&#x6d2;" horiz-adv-x="1820" arabic-form="final" 
d="M1767 -240v-282q-349 -37 -782 -37q-469 0 -692 88t-223 276q0 76 37.5 146t115 131t187.5 106t264.5 71t335.5 26h811v-230l-58 -55h-753q-380 0 -545 -55q-166 -55 -166 -113q0 -57 160 -82.5t526 -25.5q450 0 782 36z" />
    <glyph glyph-name="uniFBB1" unicode="&#x6d3;" horiz-adv-x="1820" arabic-form="final" 
d="M895 604v-158l-453 -63v158l80 10q-52 52 -49 127q0 85 59 143t146 58q80 0 129 -49.5t55 -137.5l-104 -14q-25 43 -84 43q-36 0 -58 -16.5t-22 -42.5q0 -41 44 -64.5t107 -15.5zM1767 -240v-282q-349 -37 -782 -37q-469 0 -692 88t-223 276q0 76 37.5 146t115 131
t187.5 106t264.5 71t335.5 26h811v-230l-58 -55h-753q-380 0 -545 -55q-166 -55 -166 -113q0 -57 160 -82.5t526 -25.5q450 0 782 36z" />
    <glyph glyph-name="uniFBFD" unicode="&#x6cc;" horiz-adv-x="1595" arabic-form="final" 
d="M1532 -131q0 -151 -202.5 -260t-549.5 -109q-700 0 -700 566q0 151 37 299h241q-30 -150 -30 -242q0 -330 469 -330q260 0 388 36.5t128 96.5q0 43 -49 67.5t-148 24.5h-53v267h532v-228l-59 -57h-57q53 -53 53 -131z" />
    <glyph glyph-name="uniFBFF" unicode="&#x6cc;" horiz-adv-x="638" arabic-form="medial" 
d="M639 285v-228l-57 -57q-142 0 -227.5 58t-108.5 171q-20 -113 -97 -171t-206 -58v229l57 56q108 0 152.5 50.5t44.5 168.5v223h245v-223q0 -131 42 -175t155 -44zM555 -285q0 -51 -35 -86t-86 -35t-85 35t-34 86t34 86t85 35t86 -35t35 -86zM262 -285q0 -51 -35 -86
t-86 -35t-86 35t-35 86t35 86t86 35t86 -35t35 -86z" />
    <glyph glyph-name="uniFDFC" unicode="&#xfdfc;" horiz-adv-x="2598" arabic-form="isolated" 
d="M1366 668v-377q0 -332 -171.5 -509t-487.5 -177q-319 0 -473 148.5t-152 424.5q3 119 33 281h241q-25 -119 -28 -217q-2 -172 86.5 -258t292.5 -86q213 0 308 89.5t95 303.5v166q-176 -109 -352 -109q-206 0 -316 105t-110 323q0 116 26 246h263q-31 -145 -31 -205
q0 -176 207 -176q164 0 313 104v854h256v-628l209 194l43 45v389h256v-178q100 60 207 60q167 0 249.5 -93.5t82.5 -287.5h-248q0 56 -25.5 84t-83.5 28q-83 0 -182 -82v-632q0 -121 44 -167t155 -46q110 0 153 52.5t43 174.5q0 77 -31 313h250q29 -214 29 -346
q0 -244 -111 -361.5t-333 -117.5q-252 0 -355 115q-100 112 -100 383v389zM2060 -248q0 -51 -35 -85t-86 -34t-85.5 34t-34.5 85t34.5 86t85.5 35t86 -35t35 -86zM2343 -248q0 -51 -35 -85t-86 -34t-85 34t-34 85t34 86t85 35t86 -35t35 -86z" />
    <glyph glyph-name="uniFE82" unicode="&#x622;" horiz-adv-x="581" arabic-form="final" 
d="M59 1288h-120q0 111 48 171.5t138 60.5q53 0 148 -17.5t143 -17.5q65 0 121 20v-157q-52 -27 -123 -27q-61 0 -151 17.5t-138 17.5q-66 0 -66 -68zM582 285v-228l-58 -57q-211 0 -303 114.5t-92 377.5v745h260v-745q0 -109 46 -158t147 -49z" />
    <glyph glyph-name="uniFE84" unicode="&#x623;" horiz-adv-x="581" arabic-form="final" 
d="M477 1544v-155l-454 -66v158l81 10q-51 51 -51 127q2 86 60.5 143.5t146.5 57.5q79 0 127.5 -49.5t56.5 -137.5l-106 -14q-10 20 -32.5 31.5t-49.5 11.5q-37 0 -58.5 -15t-21.5 -44q0 -41 43.5 -64.5t106.5 -15.5zM582 285v-228l-58 -57q-211 0 -303 114.5t-92 377.5v745
h260v-745q0 -109 46 -158t147 -49z" />
    <glyph glyph-name="uniFE86" unicode="&#x624;" horiz-adv-x="1003" arabic-form="final" 
d="M705 1210v-157l-453 -66v158l80 12q-52 49 -49 125q0 86 58 143.5t146 57.5q80 0 129.5 -50t55.5 -137l-107 -12q-24 43 -82 43q-37 0 -58.5 -16t-21.5 -45q0 -39 45 -63.5t105 -14.5zM1004 57l-58 -57h-20q-32 -235 -166 -362t-375 -127q-163 0 -299 34v271
q144 -39 295 -39q162 0 246 51t110 172h-207q-233 0 -354 104.5t-121 288.5q0 130 57 244.5t159 184t225 69.5q182 0 300 -159t138 -447h70v-228zM504 285h239q-20 164 -98 250t-201 86q-85 0 -139.5 -58t-54.5 -135q0 -75 59.5 -109t194.5 -34z" />
    <glyph glyph-name="uniFE88" unicode="&#x625;" horiz-adv-x="571" arabic-form="final" 
d="M571 57l-59 -57h-23q-196 0 -284 107t-88 335v1114h262v-1064q0 -118 41 -162.5t151 -44.5v-228zM535 -379v-158l-453 -63v156l80 12q-52 49 -49 125q0 86 58 143.5t146 57.5q80 0 129.5 -49.5t55.5 -135.5l-107 -14q-24 43 -82 43q-37 0 -58.5 -16.5t-21.5 -45.5
q0 -39 45 -63t105 -14z" />
    <glyph glyph-name="uniFE8A" unicode="&#x626;" horiz-adv-x="1595" arabic-form="final" 
d="M479 684v-156l-454 -65v158l81 10q-52 52 -49 127q0 86 58.5 143t146.5 57q80 0 129 -49.5t55 -136.5l-106 -14q-22 43 -82 43q-37 0 -58.5 -15.5t-21.5 -44.5q0 -41 43.5 -64t106.5 -15zM1532 -131q0 -151 -202.5 -260t-549.5 -109q-700 0 -700 566q0 151 37 299h241
q-30 -150 -30 -242q0 -330 469 -330q260 0 388 36.5t128 96.5q0 43 -49 67.5t-148 24.5h-53v267h532v-228l-59 -57h-57q53 -53 53 -131z" />
    <glyph glyph-name="uniFE8B" unicode="&#x626;" horiz-adv-x="532" arabic-form="initial" 
d="M494 1190v-158l-453 -65v157l82 13q-54 48 -51 125q0 86 58 143t146 57q80 0 129.5 -49.5t55.5 -136.5l-105 -12q-28 43 -82 43q-38 0 -59.5 -16.5t-21.5 -45.5q0 -39 45 -63.5t106 -14.5zM18 0h-75v229l57 56q114 0 157.5 52.5t43.5 174.5q0 100 -31 358h250
q29 -234 29 -391q0 -235 -109 -357t-322 -122z" />
    <glyph glyph-name="uniFE8C" unicode="&#x626;" horiz-adv-x="638" arabic-form="medial" 
d="M543 1047v-158l-455 -66v158l82 12q-51 48 -51 125q2 86 60.5 143.5t146.5 57.5q79 0 127.5 -49t56.5 -137l-107 -13q-11 19 -33 31t-48 12q-37 0 -58.5 -16t-21.5 -45q0 -39 44 -63.5t105 -14.5zM639 285v-228l-57 -57q-142 0 -227.5 58t-108.5 171q-20 -113 -97 -171
t-206 -58v229l57 56q108 0 152.5 50.5t44.5 168.5v223h245v-223q0 -131 42 -175t155 -44z" />
    <glyph glyph-name="uniFE8E" unicode="&#x627;" horiz-adv-x="571" arabic-form="final" 
d="M571 57l-59 -57h-23q-196 0 -284 107t-88 335v1114h262v-1064q0 -118 41 -162.5t151 -44.5v-228z" />
    <glyph glyph-name="uniFE90" unicode="&#x628;" horiz-adv-x="1931" arabic-form="final" 
d="M1931 57l-57 -57q-141 0 -226 57.5t-108 167.5q-44 -122 -215.5 -185t-454.5 -63q-413 0 -599.5 129t-186.5 414q0 151 35 279h243q-30 -140 -30 -224q0 -164 131 -234.5t434 -70.5q243 0 366.5 20.5t174.5 69t51 144.5v223h246v-223q0 -131 41.5 -175t154.5 -44v-228z
M1047 -283q0 -57 -39.5 -96t-96.5 -39t-97 39t-40 96t40 96.5t97 39.5t96.5 -39.5t39.5 -96.5z" />
    <glyph glyph-name="uniFE91" unicode="&#x628;" horiz-adv-x="532" arabic-form="initial" 
d="M18 0h-75v229l57 56q114 0 157.5 52.5t43.5 174.5q0 100 -31 358h250q29 -234 29 -391q0 -235 -109 -357t-322 -122zM387 -270q0 -57 -38 -96.5t-95 -39.5t-97 39.5t-40 96.5t40 96t97 39t95 -39t38 -96z" />
    <glyph glyph-name="uniFE92" unicode="&#x628;" horiz-adv-x="638" arabic-form="medial" 
d="M639 285v-228l-57 -57q-142 0 -227.5 58t-108.5 171q-20 -113 -97 -171t-206 -58v229l57 56q108 0 152.5 50.5t44.5 168.5v223h245v-223q0 -131 42 -175t155 -44zM420 -270q0 -57 -39 -96.5t-96 -39.5t-97.5 39.5t-40.5 96.5t40.5 96t97.5 39t96 -39t39 -96z" />
    <glyph glyph-name="uniFE94" unicode="&#x629;" horiz-adv-x="1105" arabic-form="final" 
d="M856 1419q0 -57 -39 -96t-96 -39t-97 39t-40 96t40 96t97 39t96 -39t39 -96zM532 1419q0 -57 -39 -96t-96 -39t-97 39t-40 96t40 96t97 39t96 -39t39 -96zM1106 285v-228l-59 -57q-159 0 -238 60t-102 194q-72 -205 -312 -205q-167 0 -261.5 96.5t-94.5 266.5
q0 142 84.5 250.5t249.5 177.5l309 135v186h260v-690q0 -102 37.5 -144t126.5 -42zM244 455q0 -121 182 -121q256 0 256 196v228l-254 -111q-99 -45 -141.5 -88.5t-42.5 -103.5z" />
    <glyph glyph-name="uniFE96" unicode="&#x62a;" horiz-adv-x="1931" arabic-form="final" 
d="M1210 930q0 -57 -39 -96t-96 -39t-97 39t-40 96t40 96t97 39t96 -39t39 -96zM887 930q0 -57 -39 -96t-96 -39t-97.5 39t-40.5 96t40.5 96t97.5 39t96 -39t39 -96zM1931 57l-57 -57q-141 0 -226 57.5t-108 167.5q-44 -122 -215.5 -185t-454.5 -63q-413 0 -599.5 129
t-186.5 414q0 151 35 279h243q-30 -140 -30 -224q0 -164 131 -234.5t434 -70.5q243 0 366.5 20.5t174.5 69t51 144.5v223h246v-223q0 -131 41.5 -175t154.5 -44v-228z" />
    <glyph glyph-name="uniFE97" unicode="&#x62a;" horiz-adv-x="532" arabic-form="initial" 
d="M541 1114q0 -51 -35 -86t-86 -35t-86 35t-35 86t35 86t86 35t86 -35t35 -86zM246 1114q0 -51 -34 -86t-85 -35t-86 35t-35 86t35 86t86 35t85 -35t34 -86zM18 0h-75v229l57 56q114 0 157.5 52.5t43.5 174.5q0 100 -31 358h250q29 -234 29 -391q0 -235 -109 -357
t-322 -122z" />
    <glyph glyph-name="uniFE98" unicode="&#x62a;" horiz-adv-x="638" arabic-form="medial" 
d="M588 971q0 -51 -35 -86t-86 -35t-86 35t-35 86t35 86t86 35t86 -35t35 -86zM295 971q0 -51 -35 -86t-86 -35t-86 35t-35 86t35 86t86 35t86 -35t35 -86zM639 285v-228l-57 -57q-142 0 -227.5 58t-108.5 171q-20 -113 -97 -171t-206 -58v229l57 56q108 0 152.5 50.5
t44.5 168.5v223h245v-223q0 -131 42 -175t155 -44z" />
    <glyph glyph-name="uniFE9A" unicode="&#x62b;" horiz-adv-x="1931" arabic-form="final" 
d="M1034 1180q0 -51 -35 -85t-86 -34t-85.5 34t-34.5 85t34.5 85.5t85.5 34.5t86 -34.5t35 -85.5zM887 915q0 -51 -35 -85.5t-86 -34.5t-86 34.5t-35 85.5t35 86t86 35t86 -35t35 -86zM1180 915q0 -51 -35 -85.5t-86 -34.5t-86 34.5t-35 85.5t35 86t86 35t86 -35t35 -86z
M1931 57l-57 -57q-141 0 -226 57.5t-108 167.5q-44 -122 -215.5 -185t-454.5 -63q-413 0 -599.5 129t-186.5 414q0 151 35 279h243q-30 -140 -30 -224q0 -164 131 -234.5t434 -70.5q243 0 366.5 20.5t174.5 69t51 144.5v223h246v-223q0 -131 41.5 -175t154.5 -44v-228z" />
    <glyph glyph-name="uniFE9B" unicode="&#x62b;" horiz-adv-x="532" arabic-form="initial" 
d="M393 1378q0 -51 -34 -84.5t-85 -33.5t-85.5 33.5t-34.5 84.5t34.5 86t85.5 35t85 -35t34 -86zM246 1114q0 -51 -34 -86t-85 -35t-86 35t-35 86t35 86t86 35t85 -35t34 -86zM541 1114q0 -51 -35 -86t-86 -35t-86 35t-35 86t35 86t86 35t86 -35t35 -86zM18 0h-75v229l57 56
q114 0 157.5 52.5t43.5 174.5q0 100 -31 358h250q29 -234 29 -391q0 -235 -109 -357t-322 -122z" />
    <glyph glyph-name="uniFE9C" unicode="&#x62b;" horiz-adv-x="638" arabic-form="medial" 
d="M442 1235q0 -51 -34.5 -85t-85.5 -34t-86 34t-35 85t35 86t86 35t85.5 -35t34.5 -86zM295 971q0 -51 -35 -86t-86 -35t-86 35t-35 86t35 86t86 35t86 -35t35 -86zM588 971q0 -51 -35 -86t-86 -35t-86 35t-35 86t35 86t86 35t86 -35t35 -86zM639 285v-228l-57 -57
q-142 0 -227.5 58t-108.5 171q-20 -113 -97 -171t-206 -58v229l57 56q108 0 152.5 50.5t44.5 168.5v223h245v-223q0 -131 42 -175t155 -44z" />
    <glyph glyph-name="uniFE9E" unicode="&#x62c;" horiz-adv-x="1355" arabic-form="final" 
d="M1356 285v-224l-58 -61q-177 0 -266.5 100.5t-89.5 292.5v94q-318 -48 -494 -186t-176 -315q0 -164 126 -251t360 -87q140 0 279 28.5t247 73.5v-299q-113 -49 -256.5 -77.5t-286.5 -28.5q-335 0 -526 159q-188 159 -188 428q0 274 195 455.5t579 243.5l-68 24l-158 60
q-110 39 -178 39q-94 0 -110 -92h-221q6 178 93 277t236 99q120 0 297 -73l226 -95q120 -53 192 -72.5t137 -19.5h39l-2 -270h-41q-67 0 -100 -2v-86q0 -73 48.5 -104t164.5 -31zM817 20q0 -57 -39 -96t-96 -39t-97 39t-40 96t40 96.5t97 39.5t96 -39.5t39 -96.5z" />
    <glyph glyph-name="uniFE9F" unicode="&#x62c;" horiz-adv-x="1376" arabic-form="initial" 
d="M150 0h-207v229l57 56h150q153 0 266.5 22.5t222.5 77.5l139 66q13 5 57 25t66 28q-68 12 -180 51l-172 59q-104 37 -168 37q-45 0 -73 -24t-34 -68h-221q4 178 91 277.5t237 99.5q85 0 262 -59l272 -93q130 -50 201 -65q83 -17 162 -17h59v-253h-71q-90 0 -168 -33.5
t-228 -132.5l-143 -99q-167 -110 -283 -147t-294 -37zM825 -270q0 -57 -39 -96.5t-96 -39.5t-96 39.5t-39 96.5t39 96t96 39t96 -39t39 -96z" />
    <glyph glyph-name="uniFEA0" unicode="&#x62c;" horiz-adv-x="1384" arabic-form="medial" 
d="M150 0h-207v229l57 56h150q153 0 266.5 22.5t222.5 77.5l139 66q13 5 57 25t66 28q-68 12 -180 51l-172 59q-104 37 -168 37q-45 0 -73 -24t-34 -68h-221q4 178 91 277.5t237 99.5q85 0 262 -59l272 -93q130 -50 201 -65q83 -17 162 -17h59v-253h-71q-52 0 -95 -11v-18
q0 -73 48.5 -104t164.5 -31v-224l-57 -61q-165 0 -254.5 88.5t-97.5 259.5l-105 -65l-143 -99q-167 -110 -283 -147t-294 -37zM825 -270q0 -57 -39 -96.5t-96 -39.5t-96 39.5t-39 96.5t39 96t96 39t96 -39t39 -96z" />
    <glyph glyph-name="uniFEA2" unicode="&#x62d;" horiz-adv-x="1355" arabic-form="final" 
d="M1356 285v-224l-58 -61q-177 0 -266.5 100.5t-89.5 292.5v94q-318 -48 -494 -186t-176 -315q0 -164 126 -251t360 -87q140 0 279 28.5t247 73.5v-299q-113 -49 -256.5 -77.5t-286.5 -28.5q-335 0 -526 159q-188 159 -188 428q0 274 195 455.5t579 243.5l-68 24l-158 60
q-110 39 -178 39q-94 0 -110 -92h-221q6 178 93 277t236 99q120 0 297 -73l226 -95q120 -53 192 -72.5t137 -19.5h39l-2 -270h-41q-67 0 -100 -2v-86q0 -73 48.5 -104t164.5 -31z" />
    <glyph glyph-name="uniFEA3" unicode="&#x62d;" horiz-adv-x="1376" arabic-form="initial" 
d="M150 0h-207v229l57 56h150q153 0 266.5 22.5t222.5 77.5l139 66q13 5 57 25t66 28q-68 12 -180 51l-172 59q-104 37 -168 37q-45 0 -73 -24t-34 -68h-221q4 178 91 277.5t237 99.5q85 0 262 -59l272 -93q130 -50 201 -65q83 -17 162 -17h59v-253h-71q-90 0 -168 -33.5
t-228 -132.5l-143 -99q-167 -110 -283 -147t-294 -37z" />
    </font>
</defs>
</svg>
