<?xml version="1.0" standalone="no"?>
<!DOCTYPE svg PUBLIC "-//W3C//DTD SVG 1.1//EN" "http://www.w3.org/Graphics/SVG/1.1/DTD/svg11.dtd" >
<svg xmlns="http://www.w3.org/2000/svg" xmlns:xlink="http://www.w3.org/1999/xlink" version="1.1">
<metadata>
Created by FontForge 20170731 at Sat Oct 23 16:05:28 2021
 By Aleksey,,,
Copyright (c) 2017 Commercial Type, Inc. All rights reserved.
</metadata>
<defs>
<font id="GraphikArabic-Regular" horiz-adv-x="1228" >
  <font-face 
    font-family="Graphik Arabic"
    font-weight="400"
    font-stretch="normal"
    units-per-em="2048"
    panose-1="0 0 0 0 0 0 0 0 0 0"
    ascent="1638"
    descent="-410"
    x-height="1071"
    cap-height="1464"
    bbox="-471 -1022 2904 2277"
    underline-thickness="135"
    underline-position="-390"
    unicode-range="U+0020-FEFC"
  />
<missing-glyph horiz-adv-x="0" 
 />
    <glyph glyph-name="uniFC03" unicode="&#xfe8b;&#xfef0;" horiz-adv-x="1658" arabic-form="isolated" 
d="M1602 1094v-123l-414 -58v123l106 15q-69 43 -69 129q0 73 51.5 123.5t126.5 50.5q69 0 114 -42.5t52 -115.5l-94 -12q-24 47 -78 47q-33 0 -54.5 -18.5t-21.5 -49.5q0 -44 42 -71t99 -19zM1487 -129q0 -140 -187.5 -242t-486.5 -102q-690 0 -690 496q0 111 33 280h143
q-33 -169 -33 -250q0 -181 133.5 -271.5t413.5 -90.5q249 0 389.5 58.5t140.5 158.5q0 47 -43 96q-42 51 -157 51h-223v164h225q143 0 195.5 48.5t52.5 158.5q0 132 -35 369h149q29 -214 29 -369q0 -287 -188 -350q139 -65 139 -205z" />
    <glyph glyph-name="uniFC04" unicode="&#xfe8b;&#xfef2;" horiz-adv-x="1658" arabic-form="isolated" 
d="M1602 1094v-123l-414 -58v123l106 15q-69 43 -69 129q0 73 51.5 123.5t126.5 50.5q69 0 114 -42.5t52 -115.5l-94 -12q-24 47 -78 47q-33 0 -54.5 -18.5t-21.5 -49.5q0 -44 42 -71t99 -19zM1487 -129q0 -140 -187.5 -242t-486.5 -102q-690 0 -690 496q0 111 33 280h143
q-33 -169 -33 -250q0 -181 133.5 -271.5t413.5 -90.5q249 0 389.5 58.5t140.5 158.5q0 47 -43 96q-42 51 -157 51h-223v164h225q143 0 195.5 48.5t52.5 158.5q0 132 -35 369h149q29 -214 29 -369q0 -287 -188 -350q139 -65 139 -205zM1053 -741q0 -44 -30.5 -74.5
t-74.5 -30.5t-74 30.5t-30 74.5t30 74t74 30t74.5 -30t30.5 -74zM782 -741q0 -44 -30 -74.5t-74 -30.5t-74.5 30.5t-30.5 74.5t30.5 74t74.5 30t74 -30t30 -74z" />
    <glyph glyph-name="uniFC09" unicode="&#xfe91;&#xfef0;" horiz-adv-x="1658" arabic-form="isolated" 
d="M1487 -129q0 -140 -187.5 -242t-486.5 -102q-690 0 -690 496q0 111 33 280h143q-33 -169 -33 -250q0 -181 133.5 -271.5t413.5 -90.5q249 0 389.5 58.5t140.5 158.5q0 47 -43 96q-42 51 -157 51h-223v164h225q143 0 195.5 48.5t52.5 158.5q0 132 -35 369h149
q29 -214 29 -369q0 -287 -188 -350q139 -65 139 -205zM1448 -668q0 -44 -30.5 -74t-74.5 -30t-74 30t-30 74t30 74.5t74 30.5t74.5 -30.5t30.5 -74.5z" />
    <glyph glyph-name="uniFC0A" unicode="&#xfe91;&#xfef2;" horiz-adv-x="1658" arabic-form="isolated" 
d="M1487 -129q0 -140 -187.5 -242t-486.5 -102q-690 0 -690 496q0 111 33 280h143q-33 -169 -33 -250q0 -181 133.5 -271.5t413.5 -90.5q249 0 389.5 58.5t140.5 158.5q0 47 -43 96q-42 51 -157 51h-223v164h225q143 0 195.5 48.5t52.5 158.5q0 132 -35 369h149
q29 -214 29 -369q0 -287 -188 -350q139 -65 139 -205zM1448 -668q0 -44 -30.5 -74t-74.5 -30t-74 30t-30 74t30 74.5t74 30.5t74.5 -30.5t30.5 -74.5zM1053 -741q0 -44 -30.5 -74.5t-74.5 -30.5t-74 30.5t-30 74.5t30 74t74 30t74.5 -30t30.5 -74zM782 -741q0 -44 -30 -74.5
t-74 -30.5t-74.5 30.5t-30.5 74.5t30.5 74t74.5 30t74 -30t30 -74z" />
    <glyph glyph-name="uniFC0F" unicode="&#xfe97;&#xfef0;" horiz-adv-x="1658" arabic-form="isolated" 
d="M1642 1038q0 -44 -30 -74t-74 -30t-74 30t-30 74t30 74.5t74 30.5t74 -30.5t30 -74.5zM1372 1038q0 -44 -30 -74t-74 -30t-74.5 30t-30.5 74t30.5 74.5t74.5 30.5t74 -30.5t30 -74.5zM1487 -129q0 -140 -187.5 -242t-486.5 -102q-690 0 -690 496q0 111 33 280h143
q-33 -169 -33 -250q0 -181 133.5 -271.5t413.5 -90.5q249 0 389.5 58.5t140.5 158.5q0 47 -43 96q-42 51 -157 51h-223v164h225q143 0 195.5 48.5t52.5 158.5q0 132 -35 369h149q29 -214 29 -369q0 -287 -188 -350q139 -65 139 -205z" />
    <glyph glyph-name="uniFC10" unicode="&#xfe97;&#xfef2;" horiz-adv-x="1658" arabic-form="isolated" 
d="M1642 1038q0 -44 -30 -74t-74 -30t-74 30t-30 74t30 74.5t74 30.5t74 -30.5t30 -74.5zM1372 1038q0 -44 -30 -74t-74 -30t-74.5 30t-30.5 74t30.5 74.5t74.5 30.5t74 -30.5t30 -74.5zM1487 -129q0 -140 -187.5 -242t-486.5 -102q-690 0 -690 496q0 111 33 280h143
q-33 -169 -33 -250q0 -181 133.5 -271.5t413.5 -90.5q249 0 389.5 58.5t140.5 158.5q0 47 -43 96q-42 51 -157 51h-223v164h225q143 0 195.5 48.5t52.5 158.5q0 132 -35 369h149q29 -214 29 -369q0 -287 -188 -350q139 -65 139 -205zM1053 -741q0 -44 -30.5 -74.5
t-74.5 -30.5t-74 30.5t-30 74.5t30 74t74 30t74.5 -30t30.5 -74zM782 -741q0 -44 -30 -74.5t-74 -30.5t-74.5 30.5t-30.5 74.5t30.5 74t74.5 30t74 -30t30 -74z" />
    <glyph glyph-name="uniFC13" unicode="&#xfe9b;&#xfef0;" horiz-adv-x="1658" arabic-form="isolated" 
d="M1509 1288q0 -44 -30 -74t-74 -30t-74.5 30t-30.5 74t30.5 74.5t74.5 30.5t74 -30.5t30 -74.5zM1372 1038q0 -44 -30 -74t-74 -30t-74.5 30t-30.5 74t30.5 74.5t74.5 30.5t74 -30.5t30 -74.5zM1642 1038q0 -44 -30 -74t-74 -30t-74 30t-30 74t30 74.5t74 30.5t74 -30.5
t30 -74.5zM1487 -129q0 -140 -187.5 -242t-486.5 -102q-690 0 -690 496q0 111 33 280h143q-33 -169 -33 -250q0 -181 133.5 -271.5t413.5 -90.5q249 0 389.5 58.5t140.5 158.5q0 47 -43 96q-42 51 -157 51h-223v164h225q143 0 195.5 48.5t52.5 158.5q0 132 -35 369h149
q29 -214 29 -369q0 -287 -188 -350q139 -65 139 -205z" />
    <glyph glyph-name="uniFC14" unicode="&#xfe9b;&#xfef2;" horiz-adv-x="1658" arabic-form="isolated" 
d="M1509 1288q0 -44 -30 -74t-74 -30t-74.5 30t-30.5 74t30.5 74.5t74.5 30.5t74 -30.5t30 -74.5zM1372 1038q0 -44 -30 -74t-74 -30t-74.5 30t-30.5 74t30.5 74.5t74.5 30.5t74 -30.5t30 -74.5zM1642 1038q0 -44 -30 -74t-74 -30t-74 30t-30 74t30 74.5t74 30.5t74 -30.5
t30 -74.5zM1487 -129q0 -140 -187.5 -242t-486.5 -102q-690 0 -690 496q0 111 33 280h143q-33 -169 -33 -250q0 -181 133.5 -271.5t413.5 -90.5q249 0 389.5 58.5t140.5 158.5q0 47 -43 96q-42 51 -157 51h-223v164h225q143 0 195.5 48.5t52.5 158.5q0 132 -35 369h149
q29 -214 29 -369q0 -287 -188 -350q139 -65 139 -205zM1053 -741q0 -44 -30.5 -74.5t-74.5 -30.5t-74 30.5t-30 74.5t30 74t74 30t74.5 -30t30.5 -74zM782 -741q0 -44 -30 -74.5t-74 -30.5t-74.5 30.5t-30.5 74.5t30.5 74t74.5 30t74 -30t30 -74z" />
    <glyph glyph-name="uniFC31" unicode="&#xfed3;&#xfef0;" horiz-adv-x="1597" arabic-form="isolated" 
d="M1198 1366q0 -44 -30 -74t-74 -30t-74.5 30t-30.5 74t30.5 74t74.5 30t74 -30t30 -74zM1425 -150q0 -132 -170.5 -227.5t-441.5 -95.5q-690 0 -690 496q0 111 33 280h143q-33 -169 -33 -250q0 -181 133.5 -271.5t413.5 -90.5q221 0 345 52t124 144q0 60 -52.5 93.5
t-144.5 33.5h-227v164h227q142 0 201.5 44t71.5 165q-99 -27 -219 -27q-191 0 -305.5 94.5t-114.5 258.5q0 107 50.5 201.5t137.5 151t187 56.5q192 0 301.5 -162.5t109.5 -449.5q0 -204 -50 -313.5t-165 -147.5q135 -60 135 -199zM864 713q0 -97 75.5 -143t201.5 -46
q118 0 219 29q-7 191 -78 298t-188 107q-98 0 -164 -70.5t-66 -174.5z" />
    <glyph glyph-name="uniFC32" unicode="&#xfed3;&#xfef2;" horiz-adv-x="1597" arabic-form="isolated" 
d="M1198 1366q0 -44 -30 -74t-74 -30t-74.5 30t-30.5 74t30.5 74t74.5 30t74 -30t30 -74zM1425 -150q0 -132 -170.5 -227.5t-441.5 -95.5q-690 0 -690 496q0 111 33 280h143q-33 -169 -33 -250q0 -181 133.5 -271.5t413.5 -90.5q221 0 345 52t124 144q0 60 -52.5 93.5
t-144.5 33.5h-227v164h227q142 0 201.5 44t71.5 165q-99 -27 -219 -27q-191 0 -305.5 94.5t-114.5 258.5q0 107 50.5 201.5t137.5 151t187 56.5q192 0 301.5 -162.5t109.5 -449.5q0 -204 -50 -313.5t-165 -147.5q135 -60 135 -199zM864 713q0 -97 75.5 -143t201.5 -46
q118 0 219 29q-7 191 -78 298t-188 107q-98 0 -164 -70.5t-66 -174.5zM999 -741q0 -44 -30 -74.5t-74 -30.5t-74 30.5t-30 74.5t30 74t74 30t74 -30t30 -74zM729 -741q0 -44 -30 -74.5t-74 -30.5t-74.5 30.5t-30.5 74.5t30.5 74t74.5 30t74 -30t30 -74z" />
    <glyph glyph-name="uniFC35" unicode="&#xfed7;&#xfef0;" horiz-adv-x="1597" arabic-form="isolated" 
d="M1333 1366q0 -44 -30 -74t-74 -30t-74.5 30t-30.5 74t30.5 74t74.5 30t74 -30t30 -74zM1063 1366q0 -44 -30.5 -74t-74.5 -30t-74 30t-30 74t30 74t74 30t74.5 -30t30.5 -74zM1425 -150q0 -132 -170.5 -227.5t-441.5 -95.5q-690 0 -690 496q0 111 33 280h143
q-33 -169 -33 -250q0 -181 133.5 -271.5t413.5 -90.5q221 0 345 52t124 144q0 60 -52.5 93.5t-144.5 33.5h-227v164h227q142 0 201.5 44t71.5 165q-99 -27 -219 -27q-191 0 -305.5 94.5t-114.5 258.5q0 107 50.5 201.5t137.5 151t187 56.5q192 0 301.5 -162.5t109.5 -449.5
q0 -204 -50 -313.5t-165 -147.5q135 -60 135 -199zM864 713q0 -97 75.5 -143t201.5 -46q118 0 219 29q-7 191 -78 298t-188 107q-98 0 -164 -70.5t-66 -174.5z" />
    <glyph glyph-name="uniFC36" unicode="&#xfed7;&#xfef2;" horiz-adv-x="1597" arabic-form="isolated" 
d="M1333 1366q0 -44 -30 -74t-74 -30t-74.5 30t-30.5 74t30.5 74t74.5 30t74 -30t30 -74zM1063 1366q0 -44 -30.5 -74t-74.5 -30t-74 30t-30 74t30 74t74 30t74.5 -30t30.5 -74zM1425 -150q0 -132 -170.5 -227.5t-441.5 -95.5q-690 0 -690 496q0 111 33 280h143
q-33 -169 -33 -250q0 -181 133.5 -271.5t413.5 -90.5q221 0 345 52t124 144q0 60 -52.5 93.5t-144.5 33.5h-227v164h227q142 0 201.5 44t71.5 165q-99 -27 -219 -27q-191 0 -305.5 94.5t-114.5 258.5q0 107 50.5 201.5t137.5 151t187 56.5q192 0 301.5 -162.5t109.5 -449.5
q0 -204 -50 -313.5t-165 -147.5q135 -60 135 -199zM864 713q0 -97 75.5 -143t201.5 -46q118 0 219 29q-7 191 -78 298t-188 107q-98 0 -164 -70.5t-66 -174.5zM999 -741q0 -44 -30 -74.5t-74 -30.5t-74 30.5t-30 74.5t30 74t74 30t74 -30t30 -74zM729 -741q0 -44 -30 -74.5
t-74 -30.5t-74.5 30.5t-30.5 74.5t30.5 74t74.5 30t74 -30t30 -74z" />
    <glyph glyph-name="uniFC3D" unicode="&#xfedb;&#xfef0;" horiz-adv-x="1589" arabic-form="isolated" 
d="M1468 -104q0 -157 -180 -263t-473 -106q-345 0 -512 124.5t-178 371.5q-2 100 33 280h143q-33 -169 -33 -250q0 -181 133.5 -271.5t413.5 -90.5q241 0 375.5 59.5t134.5 165.5q0 64 -44.5 101.5t-125.5 37.5h-254v164h221q77 0 118.5 35.5t41.5 97.5q0 56 -47 115
q-46 58 -168 162l-360 307v139l856 502l-2 -188l-682 -390l274 -233q150 -127 211 -222.5t61 -191.5q0 -80 -34.5 -143.5t-100.5 -99.5q82 -23 130 -82.5t48 -130.5z" />
    <glyph glyph-name="uniFC3E" unicode="&#xfedb;&#xfef2;" horiz-adv-x="1589" arabic-form="isolated" 
d="M1468 -104q0 -157 -180 -263t-473 -106q-345 0 -512 124.5t-178 371.5q-2 100 33 280h143q-33 -169 -33 -250q0 -181 133.5 -271.5t413.5 -90.5q241 0 375.5 59.5t134.5 165.5q0 64 -44.5 101.5t-125.5 37.5h-254v164h221q77 0 118.5 35.5t41.5 97.5q0 56 -47 115
q-46 58 -168 162l-360 307v139l856 502l-2 -188l-682 -390l274 -233q150 -127 211 -222.5t61 -191.5q0 -80 -34.5 -143.5t-100.5 -99.5q82 -23 130 -82.5t48 -130.5zM1055 -741q0 -44 -30.5 -74.5t-74.5 -30.5t-74 30.5t-30 74.5t30 74t74 30t74.5 -30t30.5 -74zM784 -741
q0 -44 -30 -74.5t-74 -30.5t-74.5 30.5t-30.5 74.5t30.5 74t74.5 30t74 -30t30 -74z" />
    <glyph glyph-name="uniFC3F" unicode="&#xfedf;&#xfe9e;" arabic-form="isolated" 
d="M1182 -373v-159q-112 -49 -247.5 -78t-262.5 -29q-302 0 -471 150q-170 147 -170 395q0 196 114 348.5t340 241.5q-35 -1 -167 -5t-209 -4v164h288q142 0 189 62q49 64 49 256v614h143v-655q0 -191 -63 -277h469v-153h-39q-199 0 -363 -32.5t-275 -88t-187.5 -130.5
t-111 -158t-34.5 -173q0 -184 132 -287.5t366 -103.5q135 0 270.5 29t239.5 73zM721 -55q0 -44 -30.5 -74.5t-74.5 -30.5t-74 30.5t-30 74.5t30 74t74 30t74.5 -30t30.5 -74z" />
    <glyph glyph-name="uniFC40" unicode="&#xfedf;&#xfea2;" arabic-form="isolated" 
d="M1182 -373v-159q-112 -49 -247.5 -78t-262.5 -29q-302 0 -471 150q-170 147 -170 395q0 196 114 348.5t340 241.5q-35 -1 -167 -5t-209 -4v164h288q142 0 189 62q49 64 49 256v614h143v-655q0 -191 -63 -277h469v-153h-39q-199 0 -363 -32.5t-275 -88t-187.5 -130.5
t-111 -158t-34.5 -173q0 -184 132 -287.5t366 -103.5q135 0 270.5 29t239.5 73z" />
    <glyph glyph-name="uniFC41" unicode="&#xfedf;&#xfea6;" arabic-form="isolated" 
d="M1182 -373v-159q-112 -49 -247.5 -78t-262.5 -29q-302 0 -471 150q-170 147 -170 395q0 196 114 348.5t340 241.5q-35 -1 -167 -5t-209 -4v164h288q142 0 189 62q49 64 49 256v614h143v-655q0 -191 -63 -277h469v-153h-39q-199 0 -363 -32.5t-275 -88t-187.5 -130.5
t-111 -158t-34.5 -173q0 -184 132 -287.5t366 -103.5q135 0 270.5 29t239.5 73zM371 1059q0 -44 -30.5 -74.5t-74.5 -30.5t-74 30.5t-30 74.5t30 74t74 30t74.5 -30t30.5 -74z" />
    <glyph glyph-name="uniFC42" unicode="&#xfedf;&#xfee2;" horiz-adv-x="983" arabic-form="isolated" 
d="M258 0v-639h-143v641q0 155 80.5 235t224.5 80q78 0 133 -14q-39 68 -39 195v1077h143v-1077q0 -137 52 -189q51 -51 116 -86l148 -73l-80 -144l-100 49q-182 99 -361 99q-174 0 -174 -154z" />
    <glyph glyph-name="uniFC43" unicode="&#xfedf;&#xfef0;" horiz-adv-x="1679" arabic-form="isolated" 
d="M1466 -129q0 -140 -181.5 -242t-471.5 -102q-690 0 -690 496q0 111 33 280h143q-33 -169 -33 -250q0 -181 133.5 -271.5t413.5 -90.5q240 0 375 58.5t135 158.5q0 47 -49 96q-45 51 -152 51h-223v164h225q143 0 195.5 48.5t52.5 158.5v1157h144v-1157q0 -287 -189 -350
q139 -65 139 -205z" />
    <glyph glyph-name="uniFC44" unicode="&#xfedf;&#xfef2;" horiz-adv-x="1679" arabic-form="isolated" 
d="M1466 -129q0 -140 -181.5 -242t-471.5 -102q-690 0 -690 496q0 111 33 280h143q-33 -169 -33 -250q0 -181 133.5 -271.5t413.5 -90.5q240 0 375 58.5t135 158.5q0 47 -49 96q-45 51 -152 51h-223v164h225q143 0 195.5 48.5t52.5 158.5v1157h144v-1157q0 -287 -189 -350
q139 -65 139 -205zM1053 -741q0 -44 -30.5 -74.5t-74.5 -30.5t-74 30.5t-30 74.5t30 74t74 30t74.5 -30t30.5 -74zM782 -741q0 -44 -30 -74.5t-74 -30.5t-74.5 30.5t-30.5 74.5t30.5 74t74.5 30t74 -30t30 -74z" />
    <glyph glyph-name="uniFC4F" unicode="&#xfee7;&#xfef0;" horiz-adv-x="1658" arabic-form="isolated" 
d="M1507 1038q0 -44 -30 -74t-74 -30t-74.5 30t-30.5 74t30.5 74.5t74.5 30.5t74 -30.5t30 -74.5zM1487 -129q0 -140 -187.5 -242t-486.5 -102q-690 0 -690 496q0 111 33 280h143q-33 -169 -33 -250q0 -181 133.5 -271.5t413.5 -90.5q249 0 389.5 58.5t140.5 158.5
q0 47 -43 96q-42 51 -157 51h-223v164h225q143 0 195.5 48.5t52.5 158.5q0 132 -35 369h149q29 -214 29 -369q0 -287 -188 -350q139 -65 139 -205z" />
    <glyph glyph-name="uniFC50" unicode="&#xfee7;&#xfef2;" horiz-adv-x="1658" arabic-form="isolated" 
d="M1507 1038q0 -44 -30 -74t-74 -30t-74.5 30t-30.5 74t30.5 74.5t74.5 30.5t74 -30.5t30 -74.5zM1487 -129q0 -140 -187.5 -242t-486.5 -102q-690 0 -690 496q0 111 33 280h143q-33 -169 -33 -250q0 -181 133.5 -271.5t413.5 -90.5q249 0 389.5 58.5t140.5 158.5
q0 47 -43 96q-42 51 -157 51h-223v164h225q143 0 195.5 48.5t52.5 158.5q0 132 -35 369h149q29 -214 29 -369q0 -287 -188 -350q139 -65 139 -205zM1053 -741q0 -44 -30.5 -74.5t-74.5 -30.5t-74 30.5t-30 74.5t30 74t74 30t74.5 -30t30.5 -74zM782 -741q0 -44 -30 -74.5
t-74 -30.5t-74.5 30.5t-30.5 74.5t30.5 74t74.5 30t74 -30t30 -74z" />
    <glyph glyph-name="uniFC53" unicode="&#xfeeb;&#xfef0;" horiz-adv-x="2439" arabic-form="isolated" 
d="M1468 -145q0 -66 -40 -123.5t-121 -104t-218.5 -73.5t-316.5 -27q-320 0 -484.5 127t-164.5 369q0 111 33 280h143q-33 -169 -33 -250q0 -179 127.5 -270.5t378.5 -91.5q309 0 430 53t121 123q0 62 -61 97.5t-181 35.5h-18v164h10q161 0 334 18q-117 133 -117 299
q0 114 62 207.5t157 132.5v140l289 -95q323 -105 445 -215q124 -109 124 -284q0 -179 -123 -282t-346 -103q-187 0 -339 81q-90 -23 -181 -34q90 -70 90 -174zM1434 481q0 -76 42 -145t119 -113q244 76 244 258q0 94 -60 156.5t-153 62.5q-84 0 -138 -62.5t-54 -156.5z
M1982 481q0 -207 -194 -325q72 -11 123 -11q142 0 228.5 55.5t86.5 168.5q0 93 -63 157.5t-221 126.5q40 -73 40 -172z" />
    <glyph glyph-name="uniFC54" unicode="&#xfeeb;&#xfef2;" horiz-adv-x="2439" arabic-form="isolated" 
d="M1468 -145q0 -66 -40 -123.5t-121 -104t-218.5 -73.5t-316.5 -27q-320 0 -484.5 127t-164.5 369q0 111 33 280h143q-33 -169 -33 -250q0 -179 127.5 -270.5t378.5 -91.5q309 0 430 53t121 123q0 62 -61 97.5t-181 35.5h-18v164h10q161 0 334 18q-117 133 -117 299
q0 114 62 207.5t157 132.5v140l289 -95q323 -105 445 -215q124 -109 124 -284q0 -179 -123 -282t-346 -103q-187 0 -339 81q-90 -23 -181 -34q90 -70 90 -174zM1434 481q0 -76 42 -145t119 -113q244 76 244 258q0 94 -60 156.5t-153 62.5q-84 0 -138 -62.5t-54 -156.5z
M1982 481q0 -207 -194 -325q72 -11 123 -11q142 0 228.5 55.5t86.5 168.5q0 93 -63 157.5t-221 126.5q40 -73 40 -172zM1053 -741q0 -44 -30.5 -74.5t-74.5 -30.5t-74 30.5t-30 74.5t30 74t74 30t74.5 -30t30.5 -74zM782 -741q0 -44 -30 -74.5t-74 -30.5t-74.5 30.5
t-30.5 74.5t30.5 74t74.5 30t74 -30t30 -74z" />
    <glyph glyph-name="uniFC59" unicode="&#xfef3;&#xfef0;" horiz-adv-x="1658" arabic-form="isolated" 
d="M1487 -129q0 -140 -187.5 -242t-486.5 -102q-690 0 -690 496q0 111 33 280h143q-33 -169 -33 -250q0 -181 133.5 -271.5t413.5 -90.5q249 0 389.5 58.5t140.5 158.5q0 47 -43 96q-42 51 -157 51h-223v164h225q143 0 195.5 48.5t52.5 158.5q0 132 -35 369h149
q29 -214 29 -369q0 -287 -188 -350q139 -65 139 -205zM1583 -668q0 -44 -30 -74t-74 -30t-74.5 30t-30.5 74t30.5 74.5t74.5 30.5t74 -30.5t30 -74.5zM1313 -668q0 -44 -30.5 -74t-74.5 -30t-74 30t-30 74t30 74.5t74 30.5t74.5 -30.5t30.5 -74.5z" />
    <glyph glyph-name="uniFC5A" unicode="&#xfef3;&#xfef2;" horiz-adv-x="1658" arabic-form="isolated" 
d="M1487 -129q0 -140 -187.5 -242t-486.5 -102q-690 0 -690 496q0 111 33 280h143q-33 -169 -33 -250q0 -181 133.5 -271.5t413.5 -90.5q249 0 389.5 58.5t140.5 158.5q0 47 -43 96q-42 51 -157 51h-223v164h225q143 0 195.5 48.5t52.5 158.5q0 132 -35 369h149
q29 -214 29 -369q0 -287 -188 -350q139 -65 139 -205zM1583 -668q0 -44 -30 -74t-74 -30t-74.5 30t-30.5 74t30.5 74.5t74.5 30.5t74 -30.5t30 -74.5zM1313 -668q0 -44 -30.5 -74t-74.5 -30t-74 30t-30 74t30 74.5t74 30.5t74.5 -30.5t30.5 -74.5zM1053 -741
q0 -44 -30.5 -74.5t-74.5 -30.5t-74 30.5t-30 74.5t30 74t74 30t74.5 -30t30.5 -74zM782 -741q0 -44 -30 -74.5t-74 -30.5t-74.5 30.5t-30.5 74.5t30.5 74t74.5 30t74 -30t30 -74z" />
    <glyph glyph-name="uniFC64" unicode="&#xfe8c;&#xfeae;" horiz-adv-x="1239" arabic-form="final" 
d="M1049 1022v-123l-414 -57v123l106 14q-69 43 -69 129q0 73 51.5 123.5t126.5 50.5q69 0 114 -42.5t52 -115.5l-94 -12q-24 47 -78 47q-33 0 -54.5 -18t-21.5 -49q0 -44 42 -71t99 -20zM477 141q0 -314 -113 -464t-348 -150q-74 0 -180 16v164q94 -16 170 -16
q168 0 248 109.5t80 340.5q0 68 -15 207l-36 303l639 72l41 -344q15 -132 69 -174q59 -41 207 -41v-123l-41 -41q-188 0 -272 78q-86 80 -107 280l-20 187l-353 -39l17 -141q14 -147 14 -224z" />
    <glyph glyph-name="uniFC65" unicode="&#xfe8c;&#xfeb0;" horiz-adv-x="1239" arabic-form="final" 
d="M1049 1022v-123l-414 -57v123l106 14q-69 43 -69 129q0 73 51.5 123.5t126.5 50.5q69 0 114 -42.5t52 -115.5l-94 -12q-24 47 -78 47q-33 0 -54.5 -18t-21.5 -49q0 -44 42 -71t99 -20zM434 895q0 -44 -30 -74t-74 -30t-74.5 30t-30.5 74t30.5 74t74.5 30t74 -30t30 -74z
M477 141q0 -314 -113 -464t-348 -150q-74 0 -180 16v164q94 -16 170 -16q168 0 248 109.5t80 340.5q0 68 -15 207l-36 303l639 72l41 -344q15 -132 69 -174q59 -41 207 -41v-123l-41 -41q-188 0 -272 78q-86 80 -107 280l-20 187l-353 -39l17 -141q14 -147 14 -224z" />
    <glyph glyph-name="uniFC67" unicode="&#xfe8c;&#xfee6;" horiz-adv-x="2019" arabic-form="final" 
d="M1837 1022v-123l-414 -57v123l107 14q-70 44 -70 129q0 73 51.5 123.5t126.5 50.5q69 0 114 -42.5t52 -115.5l-94 -12q-24 47 -78 47q-33 0 -54.5 -18t-21.5 -49q0 -44 42.5 -71.5t99.5 -19.5zM764 793q0 -44 -30.5 -74.5t-74.5 -30.5t-74 30.5t-30 74.5t30 74t74 30
t74.5 -30t30.5 -74zM1257 166q0 -269 -149.5 -413t-417.5 -144q-272 0 -419.5 122.5t-147.5 352.5q0 118 33 301h143q-33 -183 -33 -270q0 -165 111 -253.5t313 -88.5q220 0 322 92.5t102 300.5q0 66 -14 182l-37 303l639 72l41 -344q15 -132 69 -174q59 -41 207 -41v-123
l-41 -41q-188 0 -272 78q-86 80 -107 280l-20 187l-352 -39l16 -141q14 -133 14 -199z" />
    <glyph glyph-name="uniFC68" unicode="&#xfe8c;&#xfef0;" horiz-adv-x="1785" arabic-form="final" 
d="M1311 1083v-122l-414 -58v123l107 14q-70 44 -70 129q0 73 51.5 123.5t126.5 50.5q69 0 114 -42t52 -115l-94 -12q-24 47 -78 47q-33 0 -54.5 -18.5t-21.5 -49.5q0 -44 42 -71t99 -19zM1438 -68q0 -114 -90 -207t-247 -145.5t-349 -52.5q-321 0 -475 121.5t-154 374.5
q0 148 33 280h143q-33 -132 -33 -250q0 -185 118 -273.5t368 -88.5q152 0 276.5 31t195 85.5t70.5 122.5q0 57 -39.5 88.5t-134.5 44.5l-260 39q-130 20 -196 86.5t-66 161.5q0 108 73 209t192.5 163t248.5 62q164 0 265 -88.5t177 -292.5l35 -94q36 -92 72 -116
q43 -29 125 -29v-123l-41 -41q-120 0 -180 57q-62 59 -127 232l-35 92q-49 130 -123 185t-182 55q-137 0 -247 -74.5t-110 -167.5q0 -49 38.5 -76t121.5 -41l285 -45q252 -42 252 -285z" />
    <glyph glyph-name="uniFC69" unicode="&#xfe8c;&#xfef2;" horiz-adv-x="1785" arabic-form="final" 
d="M1311 1083v-122l-414 -58v123l107 14q-70 44 -70 129q0 73 51.5 123.5t126.5 50.5q69 0 114 -42t52 -115l-94 -12q-24 47 -78 47q-33 0 -54.5 -18.5t-21.5 -49.5q0 -44 42 -71t99 -19zM1438 -68q0 -114 -90 -207t-247 -145.5t-349 -52.5q-321 0 -475 121.5t-154 374.5
q0 148 33 280h143q-33 -132 -33 -250q0 -185 118 -273.5t368 -88.5q152 0 276.5 31t195 85.5t70.5 122.5q0 57 -39.5 88.5t-134.5 44.5l-260 39q-130 20 -196 86.5t-66 161.5q0 108 73 209t192.5 163t248.5 62q164 0 265 -88.5t177 -292.5l35 -94q36 -92 72 -116
q43 -29 125 -29v-123l-41 -41q-120 0 -180 57q-62 59 -127 232l-35 92q-49 130 -123 185t-182 55q-137 0 -247 -74.5t-110 -167.5q0 -49 38.5 -76t121.5 -41l285 -45q252 -42 252 -285zM991 -741q0 -44 -30 -74.5t-74 -30.5t-74.5 30.5t-30.5 74.5t30.5 74t74.5 30t74 -30
t30 -74zM721 -741q0 -44 -30.5 -74.5t-74.5 -30.5t-74 30.5t-30 74.5t30 74t74 30t74.5 -30t30.5 -74z" />
    <glyph glyph-name="uniFC6A" unicode="&#xfe92;&#xfeae;" horiz-adv-x="1239" arabic-form="final" 
d="M477 141q0 -314 -113 -464t-348 -150q-74 0 -180 16v164q94 -16 170 -16q168 0 248 109.5t80 340.5q0 68 -15 207l-36 303l639 72l41 -344q15 -132 69 -174q59 -41 207 -41v-123l-41 -41q-188 0 -272 78q-86 80 -107 280l-20 187l-353 -39l17 -141q14 -147 14 -224z
M963 -268q0 -44 -30.5 -74.5t-74.5 -30.5t-74 30.5t-30 74.5t30 74t74 30t74.5 -30t30.5 -74z" />
    <glyph glyph-name="uniFC6B" unicode="&#xfe92;&#xfeb0;" horiz-adv-x="1239" arabic-form="final" 
d="M434 895q0 -44 -30 -74t-74 -30t-74.5 30t-30.5 74t30.5 74t74.5 30t74 -30t30 -74zM477 141q0 -314 -113 -464t-348 -150q-74 0 -180 16v164q94 -16 170 -16q168 0 248 109.5t80 340.5q0 68 -15 207l-36 303l639 72l41 -344q15 -132 69 -174q59 -41 207 -41v-123
l-41 -41q-188 0 -272 78q-86 80 -107 280l-20 187l-353 -39l17 -141q14 -147 14 -224zM963 -268q0 -44 -30.5 -74.5t-74.5 -30.5t-74 30.5t-30 74.5t30 74t74 30t74.5 -30t30.5 -74z" />
    <glyph glyph-name="uniFC6D" unicode="&#xfe92;&#xfee6;" horiz-adv-x="2019" arabic-form="final" 
d="M764 793q0 -44 -30.5 -74.5t-74.5 -30.5t-74 30.5t-30 74.5t30 74t74 30t74.5 -30t30.5 -74zM1257 166q0 -269 -149.5 -413t-417.5 -144q-272 0 -419.5 122.5t-147.5 352.5q0 118 33 301h143q-33 -183 -33 -270q0 -165 111 -253.5t313 -88.5q220 0 322 92.5t102 300.5
q0 66 -14 182l-37 303l639 72l41 -344q15 -132 69 -174q59 -41 207 -41v-123l-41 -41q-188 0 -272 78q-86 80 -107 280l-20 187l-352 -39l16 -141q14 -133 14 -199zM1704 -268q0 -44 -30.5 -74.5t-74.5 -30.5t-74 30.5t-30 74.5t30 74t74 30t74.5 -30t30.5 -74z" />
    <glyph glyph-name="uniFC6E" unicode="&#xfe92;&#xfef0;" horiz-adv-x="1785" arabic-form="final" 
d="M1438 -68q0 -114 -90 -207t-247 -145.5t-349 -52.5q-321 0 -475 121.5t-154 374.5q0 148 33 280h143q-33 -132 -33 -250q0 -185 118 -273.5t368 -88.5q152 0 276.5 31t195 85.5t70.5 122.5q0 57 -39.5 88.5t-134.5 44.5l-260 39q-130 20 -196 86.5t-66 161.5
q0 108 73 209t192.5 163t248.5 62q164 0 265 -88.5t177 -292.5l35 -94q36 -92 72 -116q43 -29 125 -29v-123l-41 -41q-120 0 -180 57q-62 59 -127 232l-35 92q-49 130 -123 185t-182 55q-137 0 -247 -74.5t-110 -167.5q0 -49 38.5 -76t121.5 -41l285 -45q252 -42 252 -285z
M1624 -537q0 -44 -30 -74t-74 -30t-74.5 30t-30.5 74t30.5 74.5t74.5 30.5t74 -30.5t30 -74.5z" />
    <glyph glyph-name="uniFC6F" unicode="&#xfe92;&#xfef2;" horiz-adv-x="1785" arabic-form="final" 
d="M1438 -68q0 -114 -90 -207t-247 -145.5t-349 -52.5q-321 0 -475 121.5t-154 374.5q0 148 33 280h143q-33 -132 -33 -250q0 -185 118 -273.5t368 -88.5q152 0 276.5 31t195 85.5t70.5 122.5q0 57 -39.5 88.5t-134.5 44.5l-260 39q-130 20 -196 86.5t-66 161.5
q0 108 73 209t192.5 163t248.5 62q164 0 265 -88.5t177 -292.5l35 -94q36 -92 72 -116q43 -29 125 -29v-123l-41 -41q-120 0 -180 57q-62 59 -127 232l-35 92q-49 130 -123 185t-182 55q-137 0 -247 -74.5t-110 -167.5q0 -49 38.5 -76t121.5 -41l285 -45q252 -42 252 -285z
M1624 -537q0 -44 -30 -74t-74 -30t-74.5 30t-30.5 74t30.5 74.5t74.5 30.5t74 -30.5t30 -74.5zM991 -741q0 -44 -30 -74.5t-74 -30.5t-74.5 30.5t-30.5 74.5t30.5 74t74.5 30t74 -30t30 -74zM721 -741q0 -44 -30.5 -74.5t-74.5 -30.5t-74 30.5t-30 74.5t30 74t74 30
t74.5 -30t30.5 -74z" />
    <glyph glyph-name="uniFC70" unicode="&#xfe98;&#xfeae;" horiz-adv-x="1239" arabic-form="final" 
d="M1090 967q0 -44 -30.5 -74.5t-74.5 -30.5t-74 30.5t-30 74.5t30 74t74 30t74.5 -30t30.5 -74zM819 967q0 -44 -30 -74.5t-74 -30.5t-74.5 30.5t-30.5 74.5t30.5 74t74.5 30t74 -30t30 -74zM477 141q0 -314 -113 -464t-348 -150q-74 0 -180 16v164q94 -16 170 -16
q168 0 248 109.5t80 340.5q0 68 -15 207l-36 303l639 72l41 -344q15 -132 69 -174q59 -41 207 -41v-123l-41 -41q-188 0 -272 78q-86 80 -107 280l-20 187l-353 -39l17 -141q14 -147 14 -224z" />
    <glyph glyph-name="uniFC71" unicode="&#xfe98;&#xfeb0;" horiz-adv-x="1239" arabic-form="final" 
d="M1090 967q0 -44 -30.5 -74.5t-74.5 -30.5t-74 30.5t-30 74.5t30 74t74 30t74.5 -30t30.5 -74zM819 967q0 -44 -30 -74.5t-74 -30.5t-74.5 30.5t-30.5 74.5t30.5 74t74.5 30t74 -30t30 -74zM434 895q0 -44 -30 -74t-74 -30t-74.5 30t-30.5 74t30.5 74t74.5 30t74 -30
t30 -74zM477 141q0 -314 -113 -464t-348 -150q-74 0 -180 16v164q94 -16 170 -16q168 0 248 109.5t80 340.5q0 68 -15 207l-36 303l639 72l41 -344q15 -132 69 -174q59 -41 207 -41v-123l-41 -41q-188 0 -272 78q-86 80 -107 280l-20 187l-353 -39l17 -141q14 -147 14 -224z
" />
    <glyph glyph-name="uniFC73" unicode="&#xfe98;&#xfee6;" horiz-adv-x="2019" arabic-form="final" 
d="M1878 967q0 -44 -30 -74.5t-74 -30.5t-74.5 30.5t-30.5 74.5t30.5 74t74.5 30t74 -30t30 -74zM1608 967q0 -44 -30.5 -74.5t-74.5 -30.5t-74 30.5t-30 74.5t30 74t74 30t74.5 -30t30.5 -74zM764 793q0 -44 -30.5 -74.5t-74.5 -30.5t-74 30.5t-30 74.5t30 74t74 30
t74.5 -30t30.5 -74zM1257 166q0 -269 -149.5 -413t-417.5 -144q-272 0 -419.5 122.5t-147.5 352.5q0 118 33 301h143q-33 -183 -33 -270q0 -165 111 -253.5t313 -88.5q220 0 322 92.5t102 300.5q0 66 -14 182l-37 303l639 72l41 -344q15 -132 69 -174q59 -41 207 -41v-123
l-41 -41q-188 0 -272 78q-86 80 -107 280l-20 187l-352 -39l16 -141q14 -133 14 -199z" />
    <glyph glyph-name="uniFC74" unicode="&#xfe98;&#xfef0;" horiz-adv-x="1785" arabic-form="final" 
d="M1352 1028q0 -44 -30.5 -74t-74.5 -30t-74 30t-30 74t30 74.5t74 30.5t74.5 -30.5t30.5 -74.5zM1081 1028q0 -44 -30 -74t-74 -30t-74.5 30t-30.5 74t30.5 74.5t74.5 30.5t74 -30.5t30 -74.5zM1438 -68q0 -114 -90 -207t-247 -145.5t-349 -52.5q-321 0 -475 121.5
t-154 374.5q0 148 33 280h143q-33 -132 -33 -250q0 -185 118 -273.5t368 -88.5q152 0 276.5 31t195 85.5t70.5 122.5q0 57 -39.5 88.5t-134.5 44.5l-260 39q-130 20 -196 86.5t-66 161.5q0 108 73 209t192.5 163t248.5 62q164 0 265 -88.5t177 -292.5l35 -94q36 -92 72 -116
q43 -29 125 -29v-123l-41 -41q-120 0 -180 57q-62 59 -127 232l-35 92q-49 130 -123 185t-182 55q-137 0 -247 -74.5t-110 -167.5q0 -49 38.5 -76t121.5 -41l285 -45q252 -42 252 -285z" />
    <glyph glyph-name="uniFC75" unicode="&#xfe98;&#xfef2;" horiz-adv-x="1785" arabic-form="final" 
d="M1352 1028q0 -44 -30.5 -74t-74.5 -30t-74 30t-30 74t30 74.5t74 30.5t74.5 -30.5t30.5 -74.5zM1081 1028q0 -44 -30 -74t-74 -30t-74.5 30t-30.5 74t30.5 74.5t74.5 30.5t74 -30.5t30 -74.5zM1438 -68q0 -114 -90 -207t-247 -145.5t-349 -52.5q-321 0 -475 121.5
t-154 374.5q0 148 33 280h143q-33 -132 -33 -250q0 -185 118 -273.5t368 -88.5q152 0 276.5 31t195 85.5t70.5 122.5q0 57 -39.5 88.5t-134.5 44.5l-260 39q-130 20 -196 86.5t-66 161.5q0 108 73 209t192.5 163t248.5 62q164 0 265 -88.5t177 -292.5l35 -94q36 -92 72 -116
q43 -29 125 -29v-123l-41 -41q-120 0 -180 57q-62 59 -127 232l-35 92q-49 130 -123 185t-182 55q-137 0 -247 -74.5t-110 -167.5q0 -49 38.5 -76t121.5 -41l285 -45q252 -42 252 -285zM991 -741q0 -44 -30 -74.5t-74 -30.5t-74.5 30.5t-30.5 74.5t30.5 74t74.5 30t74 -30
t30 -74zM721 -741q0 -44 -30.5 -74.5t-74.5 -30.5t-74 30.5t-30 74.5t30 74t74 30t74.5 -30t30.5 -74z" />
    <glyph glyph-name="uniFC76" unicode="&#xfe9c;&#xfeae;" horiz-adv-x="1239" arabic-form="final" 
d="M956 1217q0 -44 -30 -74.5t-74 -30.5t-74 30.5t-30 74.5t30 74t74 30t74 -30t30 -74zM819 967q0 -44 -30 -74.5t-74 -30.5t-74.5 30.5t-30.5 74.5t30.5 74t74.5 30t74 -30t30 -74zM1090 967q0 -44 -30.5 -74.5t-74.5 -30.5t-74 30.5t-30 74.5t30 74t74 30t74.5 -30
t30.5 -74zM477 141q0 -314 -113 -464t-348 -150q-74 0 -180 16v164q94 -16 170 -16q168 0 248 109.5t80 340.5q0 68 -15 207l-36 303l639 72l41 -344q15 -132 69 -174q59 -41 207 -41v-123l-41 -41q-188 0 -272 78q-86 80 -107 280l-20 187l-353 -39l17 -141
q14 -147 14 -224z" />
    <glyph glyph-name="uniFC77" unicode="&#xfe9c;&#xfeb0;" horiz-adv-x="1239" arabic-form="final" 
d="M956 1217q0 -44 -30 -74.5t-74 -30.5t-74 30.5t-30 74.5t30 74t74 30t74 -30t30 -74zM819 967q0 -44 -30 -74.5t-74 -30.5t-74.5 30.5t-30.5 74.5t30.5 74t74.5 30t74 -30t30 -74zM1090 967q0 -44 -30.5 -74.5t-74.5 -30.5t-74 30.5t-30 74.5t30 74t74 30t74.5 -30
t30.5 -74zM434 895q0 -44 -30 -74t-74 -30t-74.5 30t-30.5 74t30.5 74t74.5 30t74 -30t30 -74zM477 141q0 -314 -113 -464t-348 -150q-74 0 -180 16v164q94 -16 170 -16q168 0 248 109.5t80 340.5q0 68 -15 207l-36 303l639 72l41 -344q15 -132 69 -174q59 -41 207 -41v-123
l-41 -41q-188 0 -272 78q-86 80 -107 280l-20 187l-353 -39l17 -141q14 -147 14 -224z" />
    <glyph glyph-name="uniFC79" unicode="&#xfe9c;&#xfee6;" horiz-adv-x="2019" arabic-form="final" 
d="M1745 1217q0 -44 -30.5 -74.5t-74.5 -30.5t-74 30.5t-30 74.5t30 74t74 30t74.5 -30t30.5 -74zM1608 967q0 -44 -30.5 -74.5t-74.5 -30.5t-74 30.5t-30 74.5t30 74t74 30t74.5 -30t30.5 -74zM1878 967q0 -44 -30 -74.5t-74 -30.5t-74.5 30.5t-30.5 74.5t30.5 74t74.5 30
t74 -30t30 -74zM764 793q0 -44 -30.5 -74.5t-74.5 -30.5t-74 30.5t-30 74.5t30 74t74 30t74.5 -30t30.5 -74zM1257 166q0 -269 -149.5 -413t-417.5 -144q-272 0 -419.5 122.5t-147.5 352.5q0 118 33 301h143q-33 -183 -33 -270q0 -165 111 -253.5t313 -88.5q220 0 322 92.5
t102 300.5q0 66 -14 182l-37 303l639 72l41 -344q15 -132 69 -174q59 -41 207 -41v-123l-41 -41q-188 0 -272 78q-86 80 -107 280l-20 187l-352 -39l16 -141q14 -133 14 -199z" />
    <glyph glyph-name="uniFC7A" unicode="&#xfe9c;&#xfef0;" horiz-adv-x="1785" arabic-form="final" 
d="M1219 1278q0 -44 -30.5 -74t-74.5 -30t-74 30t-30 74t30 74t74 30t74.5 -30t30.5 -74zM1081 1028q0 -44 -30 -74t-74 -30t-74.5 30t-30.5 74t30.5 74.5t74.5 30.5t74 -30.5t30 -74.5zM1352 1028q0 -44 -30.5 -74t-74.5 -30t-74 30t-30 74t30 74.5t74 30.5t74.5 -30.5
t30.5 -74.5zM1438 -68q0 -114 -90 -207t-247 -145.5t-349 -52.5q-321 0 -475 121.5t-154 374.5q0 148 33 280h143q-33 -132 -33 -250q0 -185 118 -273.5t368 -88.5q152 0 276.5 31t195 85.5t70.5 122.5q0 57 -39.5 88.5t-134.5 44.5l-260 39q-130 20 -196 86.5t-66 161.5
q0 108 73 209t192.5 163t248.5 62q164 0 265 -88.5t177 -292.5l35 -94q36 -92 72 -116q43 -29 125 -29v-123l-41 -41q-120 0 -180 57q-62 59 -127 232l-35 92q-49 130 -123 185t-182 55q-137 0 -247 -74.5t-110 -167.5q0 -49 38.5 -76t121.5 -41l285 -45q252 -42 252 -285z
" />
    <glyph glyph-name="uniFC7B" unicode="&#xfe9c;&#xfef2;" horiz-adv-x="1785" arabic-form="final" 
d="M1219 1278q0 -44 -30.5 -74t-74.5 -30t-74 30t-30 74t30 74t74 30t74.5 -30t30.5 -74zM1081 1028q0 -44 -30 -74t-74 -30t-74.5 30t-30.5 74t30.5 74.5t74.5 30.5t74 -30.5t30 -74.5zM1352 1028q0 -44 -30.5 -74t-74.5 -30t-74 30t-30 74t30 74.5t74 30.5t74.5 -30.5
t30.5 -74.5zM1438 -68q0 -114 -90 -207t-247 -145.5t-349 -52.5q-321 0 -475 121.5t-154 374.5q0 148 33 280h143q-33 -132 -33 -250q0 -185 118 -273.5t368 -88.5q152 0 276.5 31t195 85.5t70.5 122.5q0 57 -39.5 88.5t-134.5 44.5l-260 39q-130 20 -196 86.5t-66 161.5
q0 108 73 209t192.5 163t248.5 62q164 0 265 -88.5t177 -292.5l35 -94q36 -92 72 -116q43 -29 125 -29v-123l-41 -41q-120 0 -180 57q-62 59 -127 232l-35 92q-49 130 -123 185t-182 55q-137 0 -247 -74.5t-110 -167.5q0 -49 38.5 -76t121.5 -41l285 -45q252 -42 252 -285z
M991 -741q0 -44 -30 -74.5t-74 -30.5t-74.5 30.5t-30.5 74.5t30.5 74t74.5 30t74 -30t30 -74zM721 -741q0 -44 -30.5 -74.5t-74.5 -30.5t-74 30.5t-30 74.5t30 74t74 30t74.5 -30t30.5 -74z" />
    <glyph glyph-name="uniFC83" unicode="&#xfedc;&#xfef0;" horiz-adv-x="1931" arabic-form="final" 
d="M1468 -104q0 -157 -180 -263t-473 -106q-345 0 -512 124.5t-178 371.5q-2 100 33 280h143q-33 -169 -33 -250q0 -181 133.5 -271.5t413.5 -90.5q241 0 375.5 59.5t134.5 165.5q0 64 -44.5 101.5t-125.5 37.5h-254v164h352q102 0 156.5 36t54.5 99q0 38 -13.5 74
t-53.5 102l-250 412v139l856 502l-2 -180l-701 -408l328 -546q55 -91 87.5 -139t68.5 -85t69.5 -49t79.5 -12v-123l-41 -41q-169 0 -307 219l-29 47q-14 -70 -66.5 -117.5t-139.5 -64.5q56 -30 87 -80.5t31 -107.5z" />
    <glyph glyph-name="uniFC84" unicode="&#xfedc;&#xfef2;" horiz-adv-x="1931" arabic-form="final" 
d="M1468 -104q0 -157 -180 -263t-473 -106q-345 0 -512 124.5t-178 371.5q-2 100 33 280h143q-33 -169 -33 -250q0 -181 133.5 -271.5t413.5 -90.5q241 0 375.5 59.5t134.5 165.5q0 64 -44.5 101.5t-125.5 37.5h-254v164h352q102 0 156.5 36t54.5 99q0 38 -13.5 74
t-53.5 102l-250 412v139l856 502l-2 -180l-701 -408l328 -546q55 -91 87.5 -139t68.5 -85t69.5 -49t79.5 -12v-123l-41 -41q-169 0 -307 219l-29 47q-14 -70 -66.5 -117.5t-139.5 -64.5q56 -30 87 -80.5t31 -107.5zM1055 -741q0 -44 -30.5 -74.5t-74.5 -30.5t-74 30.5
t-30 74.5t30 74t74 30t74.5 -30t30.5 -74zM784 -741q0 -44 -30 -74.5t-74 -30.5t-74.5 30.5t-30.5 74.5t30.5 74t74.5 30t74 -30t30 -74z" />
    <glyph glyph-name="uniFC86" unicode="&#xfee0;&#xfef0;" horiz-adv-x="1878" arabic-form="final" 
d="M1466 -129q0 -140 -181.5 -242t-471.5 -102q-690 0 -690 496q0 111 33 280h143q-33 -169 -33 -250q0 -181 133.5 -271.5t413.5 -90.5q240 0 375 58.5t135 158.5q0 47 -49 96q-45 51 -152 51h-223v164h326q131 0 201.5 65.5t70.5 211.5v1087h143v-1143q0 -172 50 -225
q51 -51 188 -51v-123l-41 -41q-147 0 -223 58.5t-88 177.5q-39 -122 -193 -162q133 -65 133 -203z" />
    <glyph glyph-name="uniFC87" unicode="&#xfee0;&#xfef2;" horiz-adv-x="1878" arabic-form="final" 
d="M1466 -129q0 -140 -181.5 -242t-471.5 -102q-690 0 -690 496q0 111 33 280h143q-33 -169 -33 -250q0 -181 133.5 -271.5t413.5 -90.5q240 0 375 58.5t135 158.5q0 47 -49 96q-45 51 -152 51h-223v164h326q131 0 201.5 65.5t70.5 211.5v1087h143v-1143q0 -172 50 -225
q51 -51 188 -51v-123l-41 -41q-147 0 -223 58.5t-88 177.5q-39 -122 -193 -162q133 -65 133 -203zM1053 -741q0 -44 -30.5 -74.5t-74.5 -30.5t-74 30.5t-30 74.5t30 74t74 30t74.5 -30t30.5 -74zM782 -741q0 -44 -30 -74.5t-74 -30.5t-74.5 30.5t-30.5 74.5t30.5 74t74.5 30
t74 -30t30 -74z" />
    <glyph glyph-name="uniFC8A" unicode="&#xfee8;&#xfeae;" horiz-adv-x="1239" arabic-form="final" 
d="M954 967q0 -44 -30 -74.5t-74 -30.5t-74.5 30.5t-30.5 74.5t30.5 74t74.5 30t74 -30t30 -74zM477 141q0 -314 -113 -464t-348 -150q-74 0 -180 16v164q94 -16 170 -16q168 0 248 109.5t80 340.5q0 68 -15 207l-36 303l639 72l41 -344q15 -132 69 -174q59 -41 207 -41
v-123l-41 -41q-188 0 -272 78q-86 80 -107 280l-20 187l-353 -39l17 -141q14 -147 14 -224z" />
    <glyph glyph-name="uniFC8B" unicode="&#xfee8;&#xfeb0;" horiz-adv-x="1239" arabic-form="final" 
d="M954 967q0 -44 -30 -74.5t-74 -30.5t-74.5 30.5t-30.5 74.5t30.5 74t74.5 30t74 -30t30 -74zM434 895q0 -44 -30 -74t-74 -30t-74.5 30t-30.5 74t30.5 74t74.5 30t74 -30t30 -74zM477 141q0 -314 -113 -464t-348 -150q-74 0 -180 16v164q94 -16 170 -16q168 0 248 109.5
t80 340.5q0 68 -15 207l-36 303l639 72l41 -344q15 -132 69 -174q59 -41 207 -41v-123l-41 -41q-188 0 -272 78q-86 80 -107 280l-20 187l-353 -39l17 -141q14 -147 14 -224z" />
    <glyph glyph-name="uniFC8D" unicode="&#xfee8;&#xfee6;" horiz-adv-x="2019" arabic-form="final" 
d="M1743 967q0 -44 -30.5 -74.5t-74.5 -30.5t-74 30.5t-30 74.5t30 74t74 30t74.5 -30t30.5 -74zM764 793q0 -44 -30.5 -74.5t-74.5 -30.5t-74 30.5t-30 74.5t30 74t74 30t74.5 -30t30.5 -74zM1257 166q0 -269 -149.5 -413t-417.5 -144q-272 0 -419.5 122.5t-147.5 352.5
q0 118 33 301h143q-33 -183 -33 -270q0 -165 111 -253.5t313 -88.5q220 0 322 92.5t102 300.5q0 66 -14 182l-37 303l639 72l41 -344q15 -132 69 -174q59 -41 207 -41v-123l-41 -41q-188 0 -272 78q-86 80 -107 280l-20 187l-352 -39l16 -141q14 -133 14 -199z" />
    <glyph glyph-name="uniFC8E" unicode="&#xfee8;&#xfef0;" horiz-adv-x="1785" arabic-form="final" 
d="M1217 1028q0 -44 -30.5 -74t-74.5 -30t-74 30t-30 74t30 74.5t74 30.5t74.5 -30.5t30.5 -74.5zM1438 -68q0 -114 -90 -207t-247 -145.5t-349 -52.5q-321 0 -475 121.5t-154 374.5q0 148 33 280h143q-33 -132 -33 -250q0 -185 118 -273.5t368 -88.5q152 0 276.5 31
t195 85.5t70.5 122.5q0 57 -39.5 88.5t-134.5 44.5l-260 39q-130 20 -196 86.5t-66 161.5q0 108 73 209t192.5 163t248.5 62q164 0 265 -88.5t177 -292.5l35 -94q36 -92 72 -116q43 -29 125 -29v-123l-41 -41q-120 0 -180 57q-62 59 -127 232l-35 92q-49 130 -123 185
t-182 55q-137 0 -247 -74.5t-110 -167.5q0 -49 38.5 -76t121.5 -41l285 -45q252 -42 252 -285z" />
    <glyph glyph-name="uniFC8F" unicode="&#xfee8;&#xfef2;" horiz-adv-x="1785" arabic-form="final" 
d="M1217 1028q0 -44 -30.5 -74t-74.5 -30t-74 30t-30 74t30 74.5t74 30.5t74.5 -30.5t30.5 -74.5zM1438 -68q0 -114 -90 -207t-247 -145.5t-349 -52.5q-321 0 -475 121.5t-154 374.5q0 148 33 280h143q-33 -132 -33 -250q0 -185 118 -273.5t368 -88.5q152 0 276.5 31
t195 85.5t70.5 122.5q0 57 -39.5 88.5t-134.5 44.5l-260 39q-130 20 -196 86.5t-66 161.5q0 108 73 209t192.5 163t248.5 62q164 0 265 -88.5t177 -292.5l35 -94q36 -92 72 -116q43 -29 125 -29v-123l-41 -41q-120 0 -180 57q-62 59 -127 232l-35 92q-49 130 -123 185
t-182 55q-137 0 -247 -74.5t-110 -167.5q0 -49 38.5 -76t121.5 -41l285 -45q252 -42 252 -285zM991 -741q0 -44 -30 -74.5t-74 -30.5t-74.5 30.5t-30.5 74.5t30.5 74t74.5 30t74 -30t30 -74zM721 -741q0 -44 -30.5 -74.5t-74.5 -30.5t-74 30.5t-30 74.5t30 74t74 30
t74.5 -30t30.5 -74z" />
    <glyph glyph-name="uniFC91" unicode="&#xfef4;&#xfeae;" horiz-adv-x="1239" arabic-form="final" 
d="M477 141q0 -314 -113 -464t-348 -150q-74 0 -180 16v164q94 -16 170 -16q168 0 248 109.5t80 340.5q0 68 -15 207l-36 303l639 72l41 -344q15 -132 69 -174q59 -41 207 -41v-123l-41 -41q-188 0 -272 78q-86 80 -107 280l-20 187l-353 -39l17 -141q14 -147 14 -224z
M1098 -268q0 -44 -30.5 -74.5t-74.5 -30.5t-74 30.5t-30 74.5t30 74t74 30t74.5 -30t30.5 -74zM827 -268q0 -44 -30 -74.5t-74 -30.5t-74.5 30.5t-30.5 74.5t30.5 74t74.5 30t74 -30t30 -74z" />
    <glyph glyph-name="uniFC92" unicode="&#xfef4;&#xfeb0;" horiz-adv-x="1239" arabic-form="final" 
d="M434 895q0 -44 -30 -74t-74 -30t-74.5 30t-30.5 74t30.5 74t74.5 30t74 -30t30 -74zM477 141q0 -314 -113 -464t-348 -150q-74 0 -180 16v164q94 -16 170 -16q168 0 248 109.5t80 340.5q0 68 -15 207l-36 303l639 72l41 -344q15 -132 69 -174q59 -41 207 -41v-123
l-41 -41q-188 0 -272 78q-86 80 -107 280l-20 187l-353 -39l17 -141q14 -147 14 -224zM1098 -268q0 -44 -30.5 -74.5t-74.5 -30.5t-74 30.5t-30 74.5t30 74t74 30t74.5 -30t30.5 -74zM827 -268q0 -44 -30 -74.5t-74 -30.5t-74.5 30.5t-30.5 74.5t30.5 74t74.5 30t74 -30
t30 -74z" />
    <glyph glyph-name="uniFC94" unicode="&#xfef4;&#xfee6;" horiz-adv-x="2019" arabic-form="final" 
d="M764 793q0 -44 -30.5 -74.5t-74.5 -30.5t-74 30.5t-30 74.5t30 74t74 30t74.5 -30t30.5 -74zM1257 166q0 -269 -149.5 -413t-417.5 -144q-272 0 -419.5 122.5t-147.5 352.5q0 118 33 301h143q-33 -183 -33 -270q0 -165 111 -253.5t313 -88.5q220 0 322 92.5t102 300.5
q0 66 -14 182l-37 303l639 72l41 -344q15 -132 69 -174q59 -41 207 -41v-123l-41 -41q-188 0 -272 78q-86 80 -107 280l-20 187l-352 -39l16 -141q14 -133 14 -199zM1839 -268q0 -44 -30 -74.5t-74 -30.5t-74.5 30.5t-30.5 74.5t30.5 74t74.5 30t74 -30t30 -74zM1569 -268
q0 -44 -30.5 -74.5t-74.5 -30.5t-74 30.5t-30 74.5t30 74t74 30t74.5 -30t30.5 -74z" />
    <glyph glyph-name="uniFC95" unicode="&#xfef4;&#xfef0;" horiz-adv-x="1785" arabic-form="final" 
d="M1438 -68q0 -114 -90 -207t-247 -145.5t-349 -52.5q-321 0 -475 121.5t-154 374.5q0 148 33 280h143q-33 -132 -33 -250q0 -185 118 -273.5t368 -88.5q152 0 276.5 31t195 85.5t70.5 122.5q0 57 -39.5 88.5t-134.5 44.5l-260 39q-130 20 -196 86.5t-66 161.5
q0 108 73 209t192.5 163t248.5 62q164 0 265 -88.5t177 -292.5l35 -94q36 -92 72 -116q43 -29 125 -29v-123l-41 -41q-120 0 -180 57q-62 59 -127 232l-35 92q-49 130 -123 185t-182 55q-137 0 -247 -74.5t-110 -167.5q0 -49 38.5 -76t121.5 -41l285 -45q252 -42 252 -285z
M1759 -537q0 -44 -30 -74t-74 -30t-74.5 30t-30.5 74t30.5 74.5t74.5 30.5t74 -30.5t30 -74.5zM1489 -537q0 -44 -30.5 -74t-74.5 -30t-74 30t-30 74t30 74.5t74 30.5t74.5 -30.5t30.5 -74.5z" />
    <glyph glyph-name="uniFC96" unicode="&#xfef4;&#xfef2;" horiz-adv-x="1785" arabic-form="final" 
d="M1438 -68q0 -114 -90 -207t-247 -145.5t-349 -52.5q-321 0 -475 121.5t-154 374.5q0 148 33 280h143q-33 -132 -33 -250q0 -185 118 -273.5t368 -88.5q152 0 276.5 31t195 85.5t70.5 122.5q0 57 -39.5 88.5t-134.5 44.5l-260 39q-130 20 -196 86.5t-66 161.5
q0 108 73 209t192.5 163t248.5 62q164 0 265 -88.5t177 -292.5l35 -94q36 -92 72 -116q43 -29 125 -29v-123l-41 -41q-120 0 -180 57q-62 59 -127 232l-35 92q-49 130 -123 185t-182 55q-137 0 -247 -74.5t-110 -167.5q0 -49 38.5 -76t121.5 -41l285 -45q252 -42 252 -285z
M1759 -537q0 -44 -30 -74t-74 -30t-74.5 30t-30.5 74t30.5 74.5t74.5 30.5t74 -30.5t30 -74.5zM1489 -537q0 -44 -30.5 -74t-74.5 -30t-74 30t-30 74t30 74.5t74 30.5t74.5 -30.5t30.5 -74.5zM991 -741q0 -44 -30 -74.5t-74 -30.5t-74.5 30.5t-30.5 74.5t30.5 74t74.5 30
t74 -30t30 -74zM721 -741q0 -44 -30.5 -74.5t-74.5 -30.5t-74 30.5t-30 74.5t30 74t74 30t74.5 -30t30.5 -74z" />
    <glyph glyph-name="uniFCC9" unicode="&#xfedf;&#xfea0;" horiz-adv-x="1282" arabic-form="initial" 
d="M119 0h-160v123l41 41h119q148 0 245 25t236 98l139 73q67 36 152 72q-4 0 -90 17l-219 47q-105 22 -332 22h-146v164h187q186 0 246 63q61 64 61 254v584h143v-625q0 -126 -24 -202.5t-80 -116.5l194 -43q209 -47 345 -47h69v-154h-80q-67 0 -143 -30q-70 -27 -231 -125
l-129 -76q-163 -98 -273.5 -131t-269.5 -33zM774 -268q0 -44 -30 -74.5t-74 -30.5t-74.5 30.5t-30.5 74.5t30.5 74t74.5 30t74 -30t30 -74z" />
    <glyph glyph-name="uniFCCA" unicode="&#xfedf;&#xfea4;" horiz-adv-x="1282" arabic-form="initial" 
d="M119 0h-160v123l41 41h119q148 0 245 25t236 98l139 73q67 36 152 72q-4 0 -90 17l-219 47q-105 22 -332 22h-146v164h187q186 0 246 63q61 64 61 254v584h143v-625q0 -126 -24 -202.5t-80 -116.5l194 -43q209 -47 345 -47h69v-154h-80q-67 0 -143 -30q-70 -27 -231 -125
l-129 -76q-163 -98 -273.5 -131t-269.5 -33z" />
    <glyph glyph-name="uniFCCB" unicode="&#xfedf;&#xfea8;" horiz-adv-x="1282" arabic-form="initial" 
d="M119 0h-160v123l41 41h119q148 0 245 25t236 98l139 73q67 36 152 72q-4 0 -90 17l-219 47q-105 22 -332 22h-146v164h187q186 0 246 63q61 64 61 254v584h143v-625q0 -126 -24 -202.5t-80 -116.5l194 -43q209 -47 345 -47h69v-154h-80q-67 0 -143 -30q-70 -27 -231 -125
l-129 -76q-163 -98 -273.5 -131t-269.5 -33zM334 1059q0 -44 -30.5 -74.5t-74.5 -30.5t-74 30.5t-30 74.5t30 74t74 30t74.5 -30t30.5 -74z" />
    <glyph glyph-name="uniFCCD" unicode="&#xfedf;&#xfeec;" horiz-adv-x="1232" arabic-form="initial" 
d="M1161 367q0 -179 -123 -282t-346 -103q-173 0 -317 69q-181 -51 -416 -51v123l41 41q111 0 209 10q-125 131 -125 307q0 150 98.5 256.5t237.5 106.5q17 0 53 -4v743h143v-725q303 -101 426 -211q119 -107 119 -280zM227 481q0 -80 46.5 -150.5t132.5 -117.5
q227 75 227 268q0 94 -60 156.5t-153 62.5q-84 0 -138.5 -62.5t-54.5 -156.5zM776 481q0 -199 -182 -327q52 -9 111 -9q142 0 228.5 55.5t86.5 168.5q0 93 -63.5 157.5t-221.5 126.5q41 -74 41 -172z" />
    <glyph glyph-name="uniFCFB" unicode="&#xfeb3;&#xfef0;" horiz-adv-x="2783" arabic-form="isolated" 
d="M1438 -68q0 -114 -90 -207t-247 -145.5t-349 -52.5q-321 0 -475 121.5t-154 374.5q0 148 33 280h143q-33 -132 -33 -250q0 -185 118 -273.5t368 -88.5q152 0 276.5 31t195 85.5t70.5 122.5q0 57 -39.5 88.5t-134.5 44.5l-260 39q-130 20 -196 86.5t-66 161.5
q0 108 73 209t192.5 163t248.5 62q164 0 264.5 -84.5t173.5 -277.5l35 -92q40 -109 82 -148q40 -37 123 -37q101 0 157 68t56 205v90h143v-109q0 -124 52.5 -189t132.5 -65q92 0 139 56t47 186q0 107 -23 264h152q14 -137 14 -264q0 -203 -86 -304t-243 -101q-107 0 -186 57
t-105 158q-19 -110 -83 -162.5t-177 -52.5q-132 0 -203 65q-68 63 -143 262l-35 92q-42 118 -117.5 169t-183.5 51q-137 0 -247 -74.5t-110 -167.5q0 -49 38.5 -76t121.5 -41l285 -45q252 -42 252 -285z" />
    <glyph glyph-name="uniFCFC" unicode="&#xfeb3;&#xfef2;" horiz-adv-x="2783" arabic-form="isolated" 
d="M1438 -68q0 -114 -90 -207t-247 -145.5t-349 -52.5q-321 0 -475 121.5t-154 374.5q0 148 33 280h143q-33 -132 -33 -250q0 -185 118 -273.5t368 -88.5q152 0 276.5 31t195 85.5t70.5 122.5q0 57 -39.5 88.5t-134.5 44.5l-260 39q-130 20 -196 86.5t-66 161.5
q0 108 73 209t192.5 163t248.5 62q164 0 264.5 -84.5t173.5 -277.5l35 -92q40 -109 82 -148q40 -37 123 -37q101 0 157 68t56 205v90h143v-109q0 -124 52.5 -189t132.5 -65q92 0 139 56t47 186q0 107 -23 264h152q14 -137 14 -264q0 -203 -86 -304t-243 -101q-107 0 -186 57
t-105 158q-19 -110 -83 -162.5t-177 -52.5q-132 0 -203 65q-68 63 -143 262l-35 92q-42 118 -117.5 169t-183.5 51q-137 0 -247 -74.5t-110 -167.5q0 -49 38.5 -76t121.5 -41l285 -45q252 -42 252 -285zM991 -741q0 -44 -30 -74.5t-74 -30.5t-74.5 30.5t-30.5 74.5t30.5 74
t74.5 30t74 -30t30 -74zM721 -741q0 -44 -30.5 -74.5t-74.5 -30.5t-74 30.5t-30 74.5t30 74t74 30t74.5 -30t30.5 -74z" />
    <glyph glyph-name="uniFCFD" unicode="&#xfeb7;&#xfef0;" horiz-adv-x="2783" arabic-form="isolated" 
d="M2175 1042q0 -44 -30 -74t-74 -30t-74.5 30t-30.5 74t30.5 74.5t74.5 30.5t74 -30.5t30 -74.5zM2038 793q0 -44 -30.5 -74.5t-74.5 -30.5t-74 30.5t-30 74.5t30 74t74 30t74.5 -30t30.5 -74zM2308 793q0 -44 -30 -74.5t-74 -30.5t-74.5 30.5t-30.5 74.5t30.5 74t74.5 30
t74 -30t30 -74zM1438 -68q0 -114 -90 -207t-247 -145.5t-349 -52.5q-321 0 -475 121.5t-154 374.5q0 148 33 280h143q-33 -132 -33 -250q0 -185 118 -273.5t368 -88.5q152 0 276.5 31t195 85.5t70.5 122.5q0 57 -39.5 88.5t-134.5 44.5l-260 39q-130 20 -196 86.5t-66 161.5
q0 108 73 209t192.5 163t248.5 62q164 0 264.5 -84.5t173.5 -277.5l35 -92q40 -109 82 -148q40 -37 123 -37q101 0 157 68t56 205v90h143v-109q0 -124 52.5 -189t132.5 -65q92 0 139 56t47 186q0 107 -23 264h152q14 -137 14 -264q0 -203 -86 -304t-243 -101q-107 0 -186 57
t-105 158q-19 -110 -83 -162.5t-177 -52.5q-132 0 -203 65q-68 63 -143 262l-35 92q-42 118 -117.5 169t-183.5 51q-137 0 -247 -74.5t-110 -167.5q0 -49 38.5 -76t121.5 -41l285 -45q252 -42 252 -285z" />
    <glyph glyph-name="uniFCFE" unicode="&#xfeb7;&#xfef2;" horiz-adv-x="2783" arabic-form="isolated" 
d="M2175 1042q0 -44 -30 -74t-74 -30t-74.5 30t-30.5 74t30.5 74.5t74.5 30.5t74 -30.5t30 -74.5zM2038 793q0 -44 -30.5 -74.5t-74.5 -30.5t-74 30.5t-30 74.5t30 74t74 30t74.5 -30t30.5 -74zM2308 793q0 -44 -30 -74.5t-74 -30.5t-74.5 30.5t-30.5 74.5t30.5 74t74.5 30
t74 -30t30 -74zM1438 -68q0 -114 -90 -207t-247 -145.5t-349 -52.5q-321 0 -475 121.5t-154 374.5q0 148 33 280h143q-33 -132 -33 -250q0 -185 118 -273.5t368 -88.5q152 0 276.5 31t195 85.5t70.5 122.5q0 57 -39.5 88.5t-134.5 44.5l-260 39q-130 20 -196 86.5t-66 161.5
q0 108 73 209t192.5 163t248.5 62q164 0 264.5 -84.5t173.5 -277.5l35 -92q40 -109 82 -148q40 -37 123 -37q101 0 157 68t56 205v90h143v-109q0 -124 52.5 -189t132.5 -65q92 0 139 56t47 186q0 107 -23 264h152q14 -137 14 -264q0 -203 -86 -304t-243 -101q-107 0 -186 57
t-105 158q-19 -110 -83 -162.5t-177 -52.5q-132 0 -203 65q-68 63 -143 262l-35 92q-42 118 -117.5 169t-183.5 51q-137 0 -247 -74.5t-110 -167.5q0 -49 38.5 -76t121.5 -41l285 -45q252 -42 252 -285zM991 -741q0 -44 -30 -74.5t-74 -30.5t-74.5 30.5t-30.5 74.5t30.5 74
t74.5 30t74 -30t30 -74zM721 -741q0 -44 -30.5 -74.5t-74.5 -30.5t-74 30.5t-30 74.5t30 74t74 30t74.5 -30t30.5 -74z" />
    <glyph glyph-name="uniFCFF" unicode="&#xfea3;&#xfef0;" horiz-adv-x="2052" arabic-form="isolated" 
d="M1466 -92q0 -173 -182.5 -277t-490.5 -104q-670 0 -670 496q0 111 33 280h143q-33 -169 -33 -250q0 -181 129 -271.5t398 -90.5q249 0 389.5 58.5t140.5 158.5q0 48 -45 96q-42 51 -166 51h-213v164l367 123q23 7 82.5 27t95.5 31.5t89.5 26.5t98.5 24q-58 19 -145 57
l-205 90q-122 53 -192 53q-47 0 -76 -27t-37 -75h-143q8 125 75.5 195.5t182.5 70.5q99 0 260 -70l182 -79q163 -70 242 -93.5t159 -23.5h80v-154h-47q-66 0 -164.5 -22.5t-158.5 -41.5t-186.5 -65t-141.5 -51l-117 -41q130 -22 198 -97t68 -169z" />
    <glyph glyph-name="uniFD00" unicode="&#xfea3;&#xfef2;" horiz-adv-x="2052" arabic-form="isolated" 
d="M1466 -92q0 -173 -182.5 -277t-490.5 -104q-670 0 -670 496q0 111 33 280h143q-33 -169 -33 -250q0 -181 129 -271.5t398 -90.5q249 0 389.5 58.5t140.5 158.5q0 48 -45 96q-42 51 -166 51h-213v164l367 123q23 7 82.5 27t95.5 31.5t89.5 26.5t98.5 24q-58 19 -145 57
l-205 90q-122 53 -192 53q-47 0 -76 -27t-37 -75h-143q8 125 75.5 195.5t182.5 70.5q99 0 260 -70l182 -79q163 -70 242 -93.5t159 -23.5h80v-154h-47q-66 0 -164.5 -22.5t-158.5 -41.5t-186.5 -65t-141.5 -51l-117 -41q130 -22 198 -97t68 -169zM1053 -741
q0 -44 -30.5 -74.5t-74.5 -30.5t-74 30.5t-30 74.5t30 74t74 30t74.5 -30t30.5 -74zM782 -741q0 -44 -30 -74.5t-74 -30.5t-74.5 30.5t-30.5 74.5t30.5 74t74.5 30t74 -30t30 -74z" />
    <glyph glyph-name="uniFD01" unicode="&#xfe9f;&#xfef0;" horiz-adv-x="2052" arabic-form="isolated" 
d="M1466 -92q0 -173 -182.5 -277t-490.5 -104q-670 0 -670 496q0 111 33 280h143q-33 -169 -33 -250q0 -181 129 -271.5t398 -90.5q249 0 389.5 58.5t140.5 158.5q0 48 -45 96q-42 51 -166 51h-213v164l367 123q23 7 82.5 27t95.5 31.5t89.5 26.5t98.5 24q-58 19 -145 57
l-205 90q-122 53 -192 53q-47 0 -76 -27t-37 -75h-143q8 125 75.5 195.5t182.5 70.5q99 0 260 -70l182 -79q163 -70 242 -93.5t159 -23.5h80v-154h-47q-66 0 -164.5 -22.5t-158.5 -41.5t-186.5 -65t-141.5 -51l-117 -41q130 -22 198 -97t68 -169zM1855 -186q0 -44 -30 -74.5
t-74 -30.5t-74 30.5t-30 74.5t30 74t74 30t74 -30t30 -74z" />
    <glyph glyph-name="uniFD02" unicode="&#xfe9f;&#xfef2;" horiz-adv-x="2052" arabic-form="isolated" 
d="M1466 -92q0 -173 -182.5 -277t-490.5 -104q-670 0 -670 496q0 111 33 280h143q-33 -169 -33 -250q0 -181 129 -271.5t398 -90.5q249 0 389.5 58.5t140.5 158.5q0 48 -45 96q-42 51 -166 51h-213v164l367 123q23 7 82.5 27t95.5 31.5t89.5 26.5t98.5 24q-58 19 -145 57
l-205 90q-122 53 -192 53q-47 0 -76 -27t-37 -75h-143q8 125 75.5 195.5t182.5 70.5q99 0 260 -70l182 -79q163 -70 242 -93.5t159 -23.5h80v-154h-47q-66 0 -164.5 -22.5t-158.5 -41.5t-186.5 -65t-141.5 -51l-117 -41q130 -22 198 -97t68 -169zM1855 -186q0 -44 -30 -74.5
t-74 -30.5t-74 30.5t-30 74.5t30 74t74 30t74 -30t30 -74zM1053 -741q0 -44 -30.5 -74.5t-74.5 -30.5t-74 30.5t-30 74.5t30 74t74 30t74.5 -30t30.5 -74zM782 -741q0 -44 -30 -74.5t-74 -30.5t-74.5 30.5t-30.5 74.5t30.5 74t74.5 30t74 -30t30 -74z" />
    <glyph glyph-name="uniFD03" unicode="&#xfea7;&#xfef0;" horiz-adv-x="2052" arabic-form="isolated" 
d="M1307 1059q0 -44 -30.5 -74.5t-74.5 -30.5t-74 30.5t-30 74.5t30 74t74 30t74.5 -30t30.5 -74zM1466 -92q0 -173 -182.5 -277t-490.5 -104q-670 0 -670 496q0 111 33 280h143q-33 -169 -33 -250q0 -181 129 -271.5t398 -90.5q249 0 389.5 58.5t140.5 158.5q0 48 -45 96
q-42 51 -166 51h-213v164l367 123q23 7 82.5 27t95.5 31.5t89.5 26.5t98.5 24q-58 19 -145 57l-205 90q-122 53 -192 53q-47 0 -76 -27t-37 -75h-143q8 125 75.5 195.5t182.5 70.5q99 0 260 -70l182 -79q163 -70 242 -93.5t159 -23.5h80v-154h-47q-66 0 -164.5 -22.5
t-158.5 -41.5t-186.5 -65t-141.5 -51l-117 -41q130 -22 198 -97t68 -169z" />
    <glyph glyph-name="uniFD04" unicode="&#xfea7;&#xfef2;" horiz-adv-x="2052" arabic-form="isolated" 
d="M1307 1059q0 -44 -30.5 -74.5t-74.5 -30.5t-74 30.5t-30 74.5t30 74t74 30t74.5 -30t30.5 -74zM1466 -92q0 -173 -182.5 -277t-490.5 -104q-670 0 -670 496q0 111 33 280h143q-33 -169 -33 -250q0 -181 129 -271.5t398 -90.5q249 0 389.5 58.5t140.5 158.5q0 48 -45 96
q-42 51 -166 51h-213v164l367 123q23 7 82.5 27t95.5 31.5t89.5 26.5t98.5 24q-58 19 -145 57l-205 90q-122 53 -192 53q-47 0 -76 -27t-37 -75h-143q8 125 75.5 195.5t182.5 70.5q99 0 260 -70l182 -79q163 -70 242 -93.5t159 -23.5h80v-154h-47q-66 0 -164.5 -22.5
t-158.5 -41.5t-186.5 -65t-141.5 -51l-117 -41q130 -22 198 -97t68 -169zM1053 -741q0 -44 -30.5 -74.5t-74.5 -30.5t-74 30.5t-30 74.5t30 74t74 30t74.5 -30t30.5 -74zM782 -741q0 -44 -30 -74.5t-74 -30.5t-74.5 30.5t-30.5 74.5t30.5 74t74.5 30t74 -30t30 -74z" />
    <glyph glyph-name="uniFD05" unicode="&#xfebb;&#xfef0;" horiz-adv-x="2813" arabic-form="isolated" 
d="M1438 -68q0 -114 -90 -207t-247 -145.5t-349 -52.5q-321 0 -475 121.5t-154 374.5q0 148 33 280h143q-33 -132 -33 -250q0 -185 118 -273.5t368 -88.5q152 0 276.5 31t195 85.5t70.5 122.5q0 57 -39.5 88.5t-134.5 44.5l-260 39q-130 20 -196 86.5t-66 161.5
q0 108 73 209t192.5 163t248.5 62q166 0 260 -88q96 -90 174 -274l39 -92q4 -11 35 -66q123 252 312 401.5t405 149.5q79 0 145 -21.5t111.5 -58.5t77.5 -86t46.5 -103t14.5 -112q0 -229 -178.5 -339.5t-552.5 -110.5q-132 0 -217.5 14t-152 52.5t-110.5 98.5t-87 160
l-39 92q-50 119 -121 169.5t-176 50.5q-137 0 -247 -74.5t-110 -167.5q0 -49 38.5 -76t121.5 -41l285 -45q252 -42 252 -285zM2327 649q-183 0 -342 -129q-162 -134 -267 -334q98 -39 324 -39q281 0 414 69.5t133 217.5q0 38 -15 74.5t-45 68.5t-82.5 52t-119.5 20z" />
    <glyph glyph-name="uniFD06" unicode="&#xfebb;&#xfef2;" horiz-adv-x="2813" arabic-form="isolated" 
d="M1438 -68q0 -114 -90 -207t-247 -145.5t-349 -52.5q-321 0 -475 121.5t-154 374.5q0 148 33 280h143q-33 -132 -33 -250q0 -185 118 -273.5t368 -88.5q152 0 276.5 31t195 85.5t70.5 122.5q0 57 -39.5 88.5t-134.5 44.5l-260 39q-130 20 -196 86.5t-66 161.5
q0 108 73 209t192.5 163t248.5 62q166 0 260 -88q96 -90 174 -274l39 -92q4 -11 35 -66q123 252 312 401.5t405 149.5q79 0 145 -21.5t111.5 -58.5t77.5 -86t46.5 -103t14.5 -112q0 -229 -178.5 -339.5t-552.5 -110.5q-132 0 -217.5 14t-152 52.5t-110.5 98.5t-87 160
l-39 92q-50 119 -121 169.5t-176 50.5q-137 0 -247 -74.5t-110 -167.5q0 -49 38.5 -76t121.5 -41l285 -45q252 -42 252 -285zM2327 649q-183 0 -342 -129q-162 -134 -267 -334q98 -39 324 -39q281 0 414 69.5t133 217.5q0 38 -15 74.5t-45 68.5t-82.5 52t-119.5 20z
M991 -741q0 -44 -30 -74.5t-74 -30.5t-74.5 30.5t-30.5 74.5t30.5 74t74.5 30t74 -30t30 -74zM721 -741q0 -44 -30.5 -74.5t-74.5 -30.5t-74 30.5t-30 74.5t30 74t74 30t74.5 -30t30.5 -74z" />
    <glyph glyph-name="uniFD07" unicode="&#xfebf;&#xfef0;" horiz-adv-x="2813" arabic-form="isolated" 
d="M2339 1059q0 -44 -30.5 -74.5t-74.5 -30.5t-74 30.5t-30 74.5t30 74t74 30t74.5 -30t30.5 -74zM1438 -68q0 -114 -90 -207t-247 -145.5t-349 -52.5q-321 0 -475 121.5t-154 374.5q0 148 33 280h143q-33 -132 -33 -250q0 -185 118 -273.5t368 -88.5q152 0 276.5 31
t195 85.5t70.5 122.5q0 57 -39.5 88.5t-134.5 44.5l-260 39q-130 20 -196 86.5t-66 161.5q0 108 73 209t192.5 163t248.5 62q166 0 260 -88q96 -90 174 -274l39 -92q4 -11 35 -66q123 252 312 401.5t405 149.5q79 0 145 -21.5t111.5 -58.5t77.5 -86t46.5 -103t14.5 -112
q0 -229 -178.5 -339.5t-552.5 -110.5q-132 0 -217.5 14t-152 52.5t-110.5 98.5t-87 160l-39 92q-50 119 -121 169.5t-176 50.5q-137 0 -247 -74.5t-110 -167.5q0 -49 38.5 -76t121.5 -41l285 -45q252 -42 252 -285zM2327 649q-183 0 -342 -129q-162 -134 -267 -334
q98 -39 324 -39q281 0 414 69.5t133 217.5q0 38 -15 74.5t-45 68.5t-82.5 52t-119.5 20z" />
    <glyph glyph-name="uniFD08" unicode="&#xfebf;&#xfef2;" horiz-adv-x="2813" arabic-form="isolated" 
d="M2339 1059q0 -44 -30.5 -74.5t-74.5 -30.5t-74 30.5t-30 74.5t30 74t74 30t74.5 -30t30.5 -74zM1438 -68q0 -114 -90 -207t-247 -145.5t-349 -52.5q-321 0 -475 121.5t-154 374.5q0 148 33 280h143q-33 -132 -33 -250q0 -185 118 -273.5t368 -88.5q152 0 276.5 31
t195 85.5t70.5 122.5q0 57 -39.5 88.5t-134.5 44.5l-260 39q-130 20 -196 86.5t-66 161.5q0 108 73 209t192.5 163t248.5 62q166 0 260 -88q96 -90 174 -274l39 -92q4 -11 35 -66q123 252 312 401.5t405 149.5q79 0 145 -21.5t111.5 -58.5t77.5 -86t46.5 -103t14.5 -112
q0 -229 -178.5 -339.5t-552.5 -110.5q-132 0 -217.5 14t-152 52.5t-110.5 98.5t-87 160l-39 92q-50 119 -121 169.5t-176 50.5q-137 0 -247 -74.5t-110 -167.5q0 -49 38.5 -76t121.5 -41l285 -45q252 -42 252 -285zM2327 649q-183 0 -342 -129q-162 -134 -267 -334
q98 -39 324 -39q281 0 414 69.5t133 217.5q0 38 -15 74.5t-45 68.5t-82.5 52t-119.5 20zM991 -741q0 -44 -30 -74.5t-74 -30.5t-74.5 30.5t-30.5 74.5t30.5 74t74.5 30t74 -30t30 -74zM721 -741q0 -44 -30.5 -74.5t-74.5 -30.5t-74 30.5t-30 74.5t30 74t74 30t74.5 -30
t30.5 -74z" />
    <glyph glyph-name="uniFD0D" unicode="&#xfeb7;&#xfeae;" horiz-adv-x="2158" arabic-form="isolated" 
d="M1554 1001q0 -44 -30 -74t-74 -30t-74 30t-30 74t30 74.5t74 30.5t74 -30.5t30 -74.5zM1417 752q0 -44 -30 -74.5t-74 -30.5t-74.5 30.5t-30.5 74.5t30.5 74t74.5 30t74 -30t30 -74zM1688 752q0 -44 -30.5 -74.5t-74.5 -30.5t-74 30.5t-30 74.5t30 74t74 30t74.5 -30
t30.5 -74zM477 141q0 -314 -113 -464t-348 -150q-74 0 -180 16v164q94 -16 170 -16q168 0 248 109.5t80 340.5q0 68 -15 207l-28 232l639 71l33 -272q13 -128 64 -181t157 -53q89 0 141.5 64t52.5 190v109h144v-109q0 -124 52 -189t132 -65q92 0 139 56t47 186
q0 100 -24 264h151q17 -163 17 -264q0 -203 -86 -304t-244 -101q-106 0 -184.5 55t-104.5 153q-17 -106 -78.5 -157t-175.5 -51q-167 0 -245 84t-99 292l-12 113l-352 -39l8 -67q14 -118 14 -224z" />
    <glyph glyph-name="uniFD0E" unicode="&#xfeb3;&#xfeae;" horiz-adv-x="2158" arabic-form="isolated" 
d="M477 141q0 -314 -113 -464t-348 -150q-74 0 -180 16v164q94 -16 170 -16q168 0 248 109.5t80 340.5q0 68 -15 207l-28 232l639 71l33 -272q13 -128 64 -181t157 -53q89 0 141.5 64t52.5 190v109h144v-109q0 -124 52 -189t132 -65q92 0 139 56t47 186q0 100 -24 264h151
q17 -163 17 -264q0 -203 -86 -304t-244 -101q-106 0 -184.5 55t-104.5 153q-17 -106 -78.5 -157t-175.5 -51q-167 0 -245 84t-99 292l-12 113l-352 -39l8 -67q14 -118 14 -224z" />
    <glyph glyph-name="uniFD0F" unicode="&#xfebb;&#xfeae;" horiz-adv-x="2283" arabic-form="isolated" 
d="M477 141q0 -314 -113 -464t-348 -150q-74 0 -180 16v164q94 -16 170 -16q168 0 248 109.5t80 340.5q0 68 -15 207l-36 303l639 72l41 -344q15 -132 96 -180q122 279 319.5 447.5t427.5 168.5q98 0 176 -32.5t124.5 -87.5t71 -121.5t24.5 -139.5q0 -452 -834 -452
q-281 0 -403 79q-122 84 -146 297l-20 187l-353 -39l17 -141q14 -147 14 -224zM1796 649q-188 0 -350 -137q-161 -133 -270 -352q89 -15 233 -15q649 0 649 289q0 38 -15 74.5t-45 68.5t-82.5 52t-119.5 20z" />
    <glyph glyph-name="uniFD10" unicode="&#xfebf;&#xfeae;" horiz-adv-x="2283" arabic-form="isolated" 
d="M1849 1059q0 -44 -30 -74.5t-74 -30.5t-74.5 30.5t-30.5 74.5t30.5 74t74.5 30t74 -30t30 -74zM477 141q0 -314 -113 -464t-348 -150q-74 0 -180 16v164q94 -16 170 -16q168 0 248 109.5t80 340.5q0 68 -15 207l-36 303l639 72l41 -344q15 -132 96 -180
q122 279 319.5 447.5t427.5 168.5q98 0 176 -32.5t124.5 -87.5t71 -121.5t24.5 -139.5q0 -452 -834 -452q-281 0 -403 79q-122 84 -146 297l-20 187l-353 -39l17 -141q14 -147 14 -224zM1796 649q-188 0 -350 -137q-161 -133 -270 -352q89 -15 233 -15q649 0 649 289
q0 38 -15 74.5t-45 68.5t-82.5 52t-119.5 20z" />
    <glyph glyph-name="uniFD13" unicode="&#xfecc;&#xfef0;" horiz-adv-x="2224" arabic-form="final" 
d="M1468 -145q0 -66 -40 -123.5t-121 -104t-218.5 -73.5t-316.5 -27q-320 0 -484.5 127t-164.5 369q0 111 33 280h143q-33 -169 -33 -250q0 -179 127.5 -270.5t378.5 -91.5q309 0 430 53t121 123q0 60 -61.5 96.5t-184.5 36.5h-14v164h225q106 0 195 12q-121 109 -248 320
l-49 82v163q263 74 489 74q223 0 330.5 -70.5t108.5 -222.5q1 -91 -60.5 -181t-173.5 -163q104 -14 254 -14h90v-123l-41 -41h-49q-314 0 -483 70q-138 -45 -254 -58q71 -68 71 -157zM1333 612l17 -26q84 -145 165 -230.5t183 -128.5q131 49 202.5 124.5t69.5 158.5
q-1 74 -73 107.5t-222 33.5q-167 0 -342 -39z" />
    <glyph glyph-name="uniFD14" unicode="&#xfecc;&#xfef2;" horiz-adv-x="2224" arabic-form="final" 
d="M1468 -145q0 -66 -40 -123.5t-121 -104t-218.5 -73.5t-316.5 -27q-320 0 -484.5 127t-164.5 369q0 111 33 280h143q-33 -169 -33 -250q0 -179 127.5 -270.5t378.5 -91.5q309 0 430 53t121 123q0 60 -61.5 96.5t-184.5 36.5h-14v164h225q106 0 195 12q-121 109 -248 320
l-49 82v163q263 74 489 74q223 0 330.5 -70.5t108.5 -222.5q1 -91 -60.5 -181t-173.5 -163q104 -14 254 -14h90v-123l-41 -41h-49q-314 0 -483 70q-138 -45 -254 -58q71 -68 71 -157zM1333 612l17 -26q84 -145 165 -230.5t183 -128.5q131 49 202.5 124.5t69.5 158.5
q-1 74 -73 107.5t-222 33.5q-167 0 -342 -39zM1012 -741q0 -44 -30.5 -74.5t-74.5 -30.5t-74 30.5t-30 74.5t30 74t74 30t74.5 -30t30.5 -74zM741 -741q0 -44 -30 -74.5t-74 -30.5t-74.5 30.5t-30.5 74.5t30.5 74t74.5 30t74 -30t30 -74z" />
    <glyph glyph-name="uniFD15" unicode="&#xfed0;&#xfef0;" horiz-adv-x="2224" arabic-form="final" 
d="M1739 1059q0 -44 -30.5 -74.5t-74.5 -30.5t-74 30.5t-30 74.5t30 74t74 30t74.5 -30t30.5 -74zM1468 -145q0 -66 -40 -123.5t-121 -104t-218.5 -73.5t-316.5 -27q-320 0 -484.5 127t-164.5 369q0 111 33 280h143q-33 -169 -33 -250q0 -179 127.5 -270.5t378.5 -91.5
q309 0 430 53t121 123q0 60 -61.5 96.5t-184.5 36.5h-14v164h225q106 0 195 12q-121 109 -248 320l-49 82v163q263 74 489 74q223 0 330.5 -70.5t108.5 -222.5q1 -91 -60.5 -181t-173.5 -163q104 -14 254 -14h90v-123l-41 -41h-49q-314 0 -483 70q-138 -45 -254 -58
q71 -68 71 -157zM1333 612l17 -26q84 -145 165 -230.5t183 -128.5q131 49 202.5 124.5t69.5 158.5q-1 74 -73 107.5t-222 33.5q-167 0 -342 -39z" />
    <glyph glyph-name="uniFD16" unicode="&#xfed0;&#xfef2;" horiz-adv-x="2224" arabic-form="final" 
d="M1739 1059q0 -44 -30.5 -74.5t-74.5 -30.5t-74 30.5t-30 74.5t30 74t74 30t74.5 -30t30.5 -74zM1468 -145q0 -66 -40 -123.5t-121 -104t-218.5 -73.5t-316.5 -27q-320 0 -484.5 127t-164.5 369q0 111 33 280h143q-33 -169 -33 -250q0 -179 127.5 -270.5t378.5 -91.5
q309 0 430 53t121 123q0 60 -61.5 96.5t-184.5 36.5h-14v164h225q106 0 195 12q-121 109 -248 320l-49 82v163q263 74 489 74q223 0 330.5 -70.5t108.5 -222.5q1 -91 -60.5 -181t-173.5 -163q104 -14 254 -14h90v-123l-41 -41h-49q-314 0 -483 70q-138 -45 -254 -58
q71 -68 71 -157zM1333 612l17 -26q84 -145 165 -230.5t183 -128.5q131 49 202.5 124.5t69.5 158.5q-1 74 -73 107.5t-222 33.5q-167 0 -342 -39zM1012 -741q0 -44 -30.5 -74.5t-74.5 -30.5t-74 30.5t-30 74.5t30 74t74 30t74.5 -30t30.5 -74zM741 -741q0 -44 -30 -74.5
t-74 -30.5t-74.5 30.5t-30.5 74.5t30.5 74t74.5 30t74 -30t30 -74z" />
    <glyph glyph-name="uniFD17" unicode="&#xfeb4;&#xfef0;" horiz-adv-x="2904" arabic-form="final" 
d="M1550 422l35 -92q40 -109 82 -148q40 -37 123 -37q101 0 157 68t56 205v90h143v-109q0 -125 49 -189.5t127 -64.5q92 0 146.5 64t54.5 190v181h143v-181q0 -120 59 -177.5t179 -57.5v-123l-41 -41q-122 0 -201 52.5t-102 146.5q-23 -101 -93 -159t-165 -58q-97 0 -168 57
t-94 156q-20 -109 -84 -161t-176 -52q-132 0 -203 65q-68 63 -143 262l-35 92q-42 118 -117.5 169t-183.5 51q-137 0 -247 -74.5t-110 -167.5q0 -49 38.5 -76t121.5 -41l285 -45q252 -42 252 -285q0 -114 -90 -207t-247 -145.5t-349 -52.5q-321 0 -475 121.5t-154 374.5
q0 148 33 280h143q-33 -132 -33 -250q0 -185 118 -273.5t368 -88.5q152 0 276.5 31t195 85.5t70.5 122.5q0 57 -39.5 88.5t-134.5 44.5l-260 39q-130 20 -196 86.5t-66 161.5q0 108 73 209t192.5 163t248.5 62q164 0 264.5 -84.5t173.5 -277.5z" />
    <glyph glyph-name="uniFD18" unicode="&#xfeb4;&#xfef2;" horiz-adv-x="2904" arabic-form="final" 
d="M1550 422l35 -92q40 -109 82 -148q40 -37 123 -37q101 0 157 68t56 205v90h143v-109q0 -125 49 -189.5t127 -64.5q92 0 146.5 64t54.5 190v181h143v-181q0 -120 59 -177.5t179 -57.5v-123l-41 -41q-122 0 -201 52.5t-102 146.5q-23 -101 -93 -159t-165 -58q-97 0 -168 57
t-94 156q-20 -109 -84 -161t-176 -52q-132 0 -203 65q-68 63 -143 262l-35 92q-42 118 -117.5 169t-183.5 51q-137 0 -247 -74.5t-110 -167.5q0 -49 38.5 -76t121.5 -41l285 -45q252 -42 252 -285q0 -114 -90 -207t-247 -145.5t-349 -52.5q-321 0 -475 121.5t-154 374.5
q0 148 33 280h143q-33 -132 -33 -250q0 -185 118 -273.5t368 -88.5q152 0 276.5 31t195 85.5t70.5 122.5q0 57 -39.5 88.5t-134.5 44.5l-260 39q-130 20 -196 86.5t-66 161.5q0 108 73 209t192.5 163t248.5 62q164 0 264.5 -84.5t173.5 -277.5zM991 -741q0 -44 -30 -74.5
t-74 -30.5t-74.5 30.5t-30.5 74.5t30.5 74t74.5 30t74 -30t30 -74zM721 -741q0 -44 -30.5 -74.5t-74.5 -30.5t-74 30.5t-30 74.5t30 74t74 30t74.5 -30t30.5 -74z" />
    <glyph glyph-name="uniFD19" unicode="&#xfeb8;&#xfef0;" horiz-adv-x="2904" arabic-form="final" 
d="M2181 1042q0 -44 -30 -74t-74 -30t-74.5 30t-30.5 74t30.5 74.5t74.5 30.5t74 -30.5t30 -74.5zM2044 793q0 -44 -30.5 -74.5t-74.5 -30.5t-74 30.5t-30 74.5t30 74t74 30t74.5 -30t30.5 -74zM2314 793q0 -44 -30 -74.5t-74 -30.5t-74.5 30.5t-30.5 74.5t30.5 74t74.5 30
t74 -30t30 -74zM1550 422l35 -92q40 -109 82 -148q40 -37 123 -37q101 0 157 68t56 205v90h143v-109q0 -125 49 -189.5t127 -64.5q92 0 146.5 64t54.5 190v181h143v-181q0 -120 59 -177.5t179 -57.5v-123l-41 -41q-122 0 -201 52.5t-102 146.5q-23 -101 -93 -159t-165 -58
q-97 0 -168 57t-94 156q-20 -109 -84 -161t-176 -52q-132 0 -203 65q-68 63 -143 262l-35 92q-42 118 -117.5 169t-183.5 51q-137 0 -247 -74.5t-110 -167.5q0 -49 38.5 -76t121.5 -41l285 -45q252 -42 252 -285q0 -114 -90 -207t-247 -145.5t-349 -52.5q-321 0 -475 121.5
t-154 374.5q0 148 33 280h143q-33 -132 -33 -250q0 -185 118 -273.5t368 -88.5q152 0 276.5 31t195 85.5t70.5 122.5q0 57 -39.5 88.5t-134.5 44.5l-260 39q-130 20 -196 86.5t-66 161.5q0 108 73 209t192.5 163t248.5 62q164 0 264.5 -84.5t173.5 -277.5z" />
    <glyph glyph-name="uniFD1A" unicode="&#xfeb8;&#xfef2;" horiz-adv-x="2904" arabic-form="final" 
d="M2181 1042q0 -44 -30 -74t-74 -30t-74.5 30t-30.5 74t30.5 74.5t74.5 30.5t74 -30.5t30 -74.5zM2044 793q0 -44 -30.5 -74.5t-74.5 -30.5t-74 30.5t-30 74.5t30 74t74 30t74.5 -30t30.5 -74zM2314 793q0 -44 -30 -74.5t-74 -30.5t-74.5 30.5t-30.5 74.5t30.5 74t74.5 30
t74 -30t30 -74zM1550 422l35 -92q40 -109 82 -148q40 -37 123 -37q101 0 157 68t56 205v90h143v-109q0 -125 49 -189.5t127 -64.5q92 0 146.5 64t54.5 190v181h143v-181q0 -120 59 -177.5t179 -57.5v-123l-41 -41q-122 0 -201 52.5t-102 146.5q-23 -101 -93 -159t-165 -58
q-97 0 -168 57t-94 156q-20 -109 -84 -161t-176 -52q-132 0 -203 65q-68 63 -143 262l-35 92q-42 118 -117.5 169t-183.5 51q-137 0 -247 -74.5t-110 -167.5q0 -49 38.5 -76t121.5 -41l285 -45q252 -42 252 -285q0 -114 -90 -207t-247 -145.5t-349 -52.5q-321 0 -475 121.5
t-154 374.5q0 148 33 280h143q-33 -132 -33 -250q0 -185 118 -273.5t368 -88.5q152 0 276.5 31t195 85.5t70.5 122.5q0 57 -39.5 88.5t-134.5 44.5l-260 39q-130 20 -196 86.5t-66 161.5q0 108 73 209t192.5 163t248.5 62q164 0 264.5 -84.5t173.5 -277.5zM991 -741
q0 -44 -30 -74.5t-74 -30.5t-74.5 30.5t-30.5 74.5t30.5 74t74.5 30t74 -30t30 -74zM721 -741q0 -44 -30.5 -74.5t-74.5 -30.5t-74 30.5t-30 74.5t30 74t74 30t74.5 -30t30.5 -74z" />
    <glyph glyph-name="uniFD1B" unicode="&#xfea4;&#xfef0;" horiz-adv-x="2058" arabic-form="final" 
d="M1466 -92q0 -173 -182.5 -277t-490.5 -104q-670 0 -670 496q0 111 33 280h143q-33 -169 -33 -250q0 -181 129 -271.5t398 -90.5q249 0 389.5 58.5t140.5 158.5q0 48 -45 96q-42 51 -166 51h-213v164l367 123q23 7 82.5 27t95.5 31.5t89.5 26.5t98.5 24q-58 19 -145 57
l-205 90q-122 53 -192 53q-47 0 -76 -27t-37 -75h-143q8 125 75.5 195.5t182.5 70.5q99 0 260 -70l182 -79q163 -70 242 -93.5t159 -23.5h80v-154h-47q-45 0 -110 -10v-45q0 -176 200 -176v-123l-41 -41q-155 0 -229 83.5t-74 256.5v12q-82 -24 -226 -76t-171 -61l-117 -41
q130 -22 198 -97t68 -169z" />
    <glyph glyph-name="uniFD1C" unicode="&#xfea4;&#xfef2;" horiz-adv-x="2058" arabic-form="final" 
d="M1466 -92q0 -173 -182.5 -277t-490.5 -104q-670 0 -670 496q0 111 33 280h143q-33 -169 -33 -250q0 -181 129 -271.5t398 -90.5q249 0 389.5 58.5t140.5 158.5q0 48 -45 96q-42 51 -166 51h-213v164l367 123q23 7 82.5 27t95.5 31.5t89.5 26.5t98.5 24q-58 19 -145 57
l-205 90q-122 53 -192 53q-47 0 -76 -27t-37 -75h-143q8 125 75.5 195.5t182.5 70.5q99 0 260 -70l182 -79q163 -70 242 -93.5t159 -23.5h80v-154h-47q-45 0 -110 -10v-45q0 -176 200 -176v-123l-41 -41q-155 0 -229 83.5t-74 256.5v12q-82 -24 -226 -76t-171 -61l-117 -41
q130 -22 198 -97t68 -169zM1053 -741q0 -44 -30.5 -74.5t-74.5 -30.5t-74 30.5t-30 74.5t30 74t74 30t74.5 -30t30.5 -74zM782 -741q0 -44 -30 -74.5t-74 -30.5t-74.5 30.5t-30.5 74.5t30.5 74t74.5 30t74 -30t30 -74z" />
    <glyph glyph-name="uniFD1D" unicode="&#xfea0;&#xfef0;" horiz-adv-x="2058" arabic-form="final" 
d="M1466 -92q0 -173 -182.5 -277t-490.5 -104q-670 0 -670 496q0 111 33 280h143q-33 -169 -33 -250q0 -181 129 -271.5t398 -90.5q249 0 389.5 58.5t140.5 158.5q0 48 -45 96q-42 51 -166 51h-213v164l367 123q23 7 82.5 27t95.5 31.5t89.5 26.5t98.5 24q-58 19 -145 57
l-205 90q-122 53 -192 53q-47 0 -76 -27t-37 -75h-143q8 125 75.5 195.5t182.5 70.5q99 0 260 -70l182 -79q163 -70 242 -93.5t159 -23.5h80v-154h-47q-45 0 -110 -10v-45q0 -176 200 -176v-123l-41 -41q-155 0 -229 83.5t-74 256.5v12q-82 -24 -226 -76t-171 -61l-117 -41
q130 -22 198 -97t68 -169zM1855 -186q0 -44 -30 -74.5t-74 -30.5t-74 30.5t-30 74.5t30 74t74 30t74 -30t30 -74z" />
    <glyph glyph-name="uniFD1E" unicode="&#xfea0;&#xfef2;" horiz-adv-x="2058" arabic-form="final" 
d="M1466 -92q0 -173 -182.5 -277t-490.5 -104q-670 0 -670 496q0 111 33 280h143q-33 -169 -33 -250q0 -181 129 -271.5t398 -90.5q249 0 389.5 58.5t140.5 158.5q0 48 -45 96q-42 51 -166 51h-213v164l367 123q23 7 82.5 27t95.5 31.5t89.5 26.5t98.5 24q-58 19 -145 57
l-205 90q-122 53 -192 53q-47 0 -76 -27t-37 -75h-143q8 125 75.5 195.5t182.5 70.5q99 0 260 -70l182 -79q163 -70 242 -93.5t159 -23.5h80v-154h-47q-45 0 -110 -10v-45q0 -176 200 -176v-123l-41 -41q-155 0 -229 83.5t-74 256.5v12q-82 -24 -226 -76t-171 -61l-117 -41
q130 -22 198 -97t68 -169zM1855 -186q0 -44 -30 -74.5t-74 -30.5t-74 30.5t-30 74.5t30 74t74 30t74 -30t30 -74zM1053 -741q0 -44 -30.5 -74.5t-74.5 -30.5t-74 30.5t-30 74.5t30 74t74 30t74.5 -30t30.5 -74zM782 -741q0 -44 -30 -74.5t-74 -30.5t-74.5 30.5t-30.5 74.5
t30.5 74t74.5 30t74 -30t30 -74z" />
    <glyph glyph-name="uniFD1F" unicode="&#xfea8;&#xfef0;" horiz-adv-x="2058" arabic-form="final" 
d="M1307 1059q0 -44 -30.5 -74.5t-74.5 -30.5t-74 30.5t-30 74.5t30 74t74 30t74.5 -30t30.5 -74zM1466 -92q0 -173 -182.5 -277t-490.5 -104q-670 0 -670 496q0 111 33 280h143q-33 -169 -33 -250q0 -181 129 -271.5t398 -90.5q249 0 389.5 58.5t140.5 158.5q0 48 -45 96
q-42 51 -166 51h-213v164l367 123q23 7 82.5 27t95.5 31.5t89.5 26.5t98.5 24q-58 19 -145 57l-205 90q-122 53 -192 53q-47 0 -76 -27t-37 -75h-143q8 125 75.5 195.5t182.5 70.5q99 0 260 -70l182 -79q163 -70 242 -93.5t159 -23.5h80v-154h-47q-45 0 -110 -10v-45
q0 -176 200 -176v-123l-41 -41q-155 0 -229 83.5t-74 256.5v12q-82 -24 -226 -76t-171 -61l-117 -41q130 -22 198 -97t68 -169z" />
    <glyph glyph-name="uniFD20" unicode="&#xfea8;&#xfef2;" horiz-adv-x="2058" arabic-form="final" 
d="M1307 1059q0 -44 -30.5 -74.5t-74.5 -30.5t-74 30.5t-30 74.5t30 74t74 30t74.5 -30t30.5 -74zM1466 -92q0 -173 -182.5 -277t-490.5 -104q-670 0 -670 496q0 111 33 280h143q-33 -169 -33 -250q0 -181 129 -271.5t398 -90.5q249 0 389.5 58.5t140.5 158.5q0 48 -45 96
q-42 51 -166 51h-213v164l367 123q23 7 82.5 27t95.5 31.5t89.5 26.5t98.5 24q-58 19 -145 57l-205 90q-122 53 -192 53q-47 0 -76 -27t-37 -75h-143q8 125 75.5 195.5t182.5 70.5q99 0 260 -70l182 -79q163 -70 242 -93.5t159 -23.5h80v-154h-47q-45 0 -110 -10v-45
q0 -176 200 -176v-123l-41 -41q-155 0 -229 83.5t-74 256.5v12q-82 -24 -226 -76t-171 -61l-117 -41q130 -22 198 -97t68 -169zM1053 -741q0 -44 -30.5 -74.5t-74.5 -30.5t-74 30.5t-30 74.5t30 74t74 30t74.5 -30t30.5 -74zM782 -741q0 -44 -30 -74.5t-74 -30.5t-74.5 30.5
t-30.5 74.5t30.5 74t74.5 30t74 -30t30 -74z" />
    <glyph glyph-name="uniFD21" unicode="&#xfebc;&#xfef0;" horiz-adv-x="2865" arabic-form="final" 
d="M1438 -68q0 -114 -90 -207t-247 -145.5t-349 -52.5q-321 0 -475 121.5t-154 374.5q0 148 33 280h143q-33 -132 -33 -250q0 -185 118 -273.5t368 -88.5q152 0 276.5 31t195 85.5t70.5 122.5q0 57 -39.5 88.5t-134.5 44.5l-260 39q-130 20 -196 86.5t-66 161.5
q0 108 73 209t192.5 163t248.5 62q166 0 260 -88q96 -90 174 -274l39 -92q4 -11 35 -66q123 252 312 401.5t405 149.5q79 0 145 -21.5t111.5 -58.5t77.5 -86t46.5 -103t14.5 -112q0 -141 -61 -229q65 -41 194 -41v-123l-41 -41q-167 0 -266 96q-178 -112 -557 -112
q-132 0 -217.5 14t-152 52.5t-110.5 98.5t-87 160l-39 92q-50 119 -121 169.5t-176 50.5q-137 0 -247 -74.5t-110 -167.5q0 -49 38.5 -76t121.5 -41l285 -45q252 -42 252 -285zM2327 649q-183 0 -342 -129q-162 -134 -267 -334q98 -39 324 -39q281 0 414 69.5t133 217.5
q0 38 -15 74.5t-45 68.5t-82.5 52t-119.5 20z" />
    <glyph glyph-name="uniFD22" unicode="&#xfebc;&#xfef2;" horiz-adv-x="2865" arabic-form="final" 
d="M1438 -68q0 -114 -90 -207t-247 -145.5t-349 -52.5q-321 0 -475 121.5t-154 374.5q0 148 33 280h143q-33 -132 -33 -250q0 -185 118 -273.5t368 -88.5q152 0 276.5 31t195 85.5t70.5 122.5q0 57 -39.5 88.5t-134.5 44.5l-260 39q-130 20 -196 86.5t-66 161.5
q0 108 73 209t192.5 163t248.5 62q166 0 260 -88q96 -90 174 -274l39 -92q4 -11 35 -66q123 252 312 401.5t405 149.5q79 0 145 -21.5t111.5 -58.5t77.5 -86t46.5 -103t14.5 -112q0 -141 -61 -229q65 -41 194 -41v-123l-41 -41q-167 0 -266 96q-178 -112 -557 -112
q-132 0 -217.5 14t-152 52.5t-110.5 98.5t-87 160l-39 92q-50 119 -121 169.5t-176 50.5q-137 0 -247 -74.5t-110 -167.5q0 -49 38.5 -76t121.5 -41l285 -45q252 -42 252 -285zM2327 649q-183 0 -342 -129q-162 -134 -267 -334q98 -39 324 -39q281 0 414 69.5t133 217.5
q0 38 -15 74.5t-45 68.5t-82.5 52t-119.5 20zM991 -741q0 -44 -30 -74.5t-74 -30.5t-74.5 30.5t-30.5 74.5t30.5 74t74.5 30t74 -30t30 -74zM721 -741q0 -44 -30.5 -74.5t-74.5 -30.5t-74 30.5t-30 74.5t30 74t74 30t74.5 -30t30.5 -74z" />
    <glyph glyph-name="uniFD23" unicode="&#xfec0;&#xfef0;" horiz-adv-x="2865" arabic-form="final" 
d="M2339 1059q0 -44 -30.5 -74.5t-74.5 -30.5t-74 30.5t-30 74.5t30 74t74 30t74.5 -30t30.5 -74zM1438 -68q0 -114 -90 -207t-247 -145.5t-349 -52.5q-321 0 -475 121.5t-154 374.5q0 148 33 280h143q-33 -132 -33 -250q0 -185 118 -273.5t368 -88.5q152 0 276.5 31
t195 85.5t70.5 122.5q0 57 -39.5 88.5t-134.5 44.5l-260 39q-130 20 -196 86.5t-66 161.5q0 108 73 209t192.5 163t248.5 62q166 0 260 -88q96 -90 174 -274l39 -92q4 -11 35 -66q123 252 312 401.5t405 149.5q79 0 145 -21.5t111.5 -58.5t77.5 -86t46.5 -103t14.5 -112
q0 -141 -61 -229q65 -41 194 -41v-123l-41 -41q-167 0 -266 96q-178 -112 -557 -112q-132 0 -217.5 14t-152 52.5t-110.5 98.5t-87 160l-39 92q-50 119 -121 169.5t-176 50.5q-137 0 -247 -74.5t-110 -167.5q0 -49 38.5 -76t121.5 -41l285 -45q252 -42 252 -285zM2327 649
q-183 0 -342 -129q-162 -134 -267 -334q98 -39 324 -39q281 0 414 69.5t133 217.5q0 38 -15 74.5t-45 68.5t-82.5 52t-119.5 20z" />
    <glyph glyph-name="uniFD24" unicode="&#xfec0;&#xfef2;" horiz-adv-x="2865" arabic-form="final" 
d="M2339 1059q0 -44 -30.5 -74.5t-74.5 -30.5t-74 30.5t-30 74.5t30 74t74 30t74.5 -30t30.5 -74zM1438 -68q0 -114 -90 -207t-247 -145.5t-349 -52.5q-321 0 -475 121.5t-154 374.5q0 148 33 280h143q-33 -132 -33 -250q0 -185 118 -273.5t368 -88.5q152 0 276.5 31
t195 85.5t70.5 122.5q0 57 -39.5 88.5t-134.5 44.5l-260 39q-130 20 -196 86.5t-66 161.5q0 108 73 209t192.5 163t248.5 62q166 0 260 -88q96 -90 174 -274l39 -92q4 -11 35 -66q123 252 312 401.5t405 149.5q79 0 145 -21.5t111.5 -58.5t77.5 -86t46.5 -103t14.5 -112
q0 -141 -61 -229q65 -41 194 -41v-123l-41 -41q-167 0 -266 96q-178 -112 -557 -112q-132 0 -217.5 14t-152 52.5t-110.5 98.5t-87 160l-39 92q-50 119 -121 169.5t-176 50.5q-137 0 -247 -74.5t-110 -167.5q0 -49 38.5 -76t121.5 -41l285 -45q252 -42 252 -285zM2327 649
q-183 0 -342 -129q-162 -134 -267 -334q98 -39 324 -39q281 0 414 69.5t133 217.5q0 38 -15 74.5t-45 68.5t-82.5 52t-119.5 20zM991 -741q0 -44 -30 -74.5t-74 -30.5t-74.5 30.5t-30.5 74.5t30.5 74t74.5 30t74 -30t30 -74zM721 -741q0 -44 -30.5 -74.5t-74.5 -30.5
t-74 30.5t-30 74.5t30 74t74 30t74.5 -30t30.5 -74z" />
    <glyph glyph-name="uniFD29" unicode="&#xfeb8;&#xfeae;" horiz-adv-x="2387" arabic-form="final" 
d="M1585 1001q0 -44 -30 -74t-74 -30t-74.5 30t-30.5 74t30.5 74.5t74.5 30.5t74 -30.5t30 -74.5zM1448 752q0 -44 -30.5 -74.5t-74.5 -30.5t-74 30.5t-30 74.5t30 74t74 30t74.5 -30t30.5 -74zM1718 752q0 -44 -30 -74.5t-74 -30.5t-74.5 30.5t-30.5 74.5t30.5 74t74.5 30
t74 -30t30 -74zM477 141q0 -314 -113 -464t-348 -150q-74 0 -180 16v164q94 -16 170 -16q168 0 248 109.5t80 340.5q0 68 -15 207l-28 232l639 71l33 -272q13 -128 64 -181t157 -53q113 0 167 62t54 192v109h143v-109q0 -130 48.5 -192t148.5 -62q113 0 167 62t54 192v181
h143v-181q0 -121 69 -178t210 -57v-123l-41 -41q-139 0 -227.5 51.5t-114.5 145.5q-37 -215 -281 -215q-114 0 -186.5 53.5t-95.5 152.5q-20 -105 -88.5 -155.5t-190.5 -50.5q-167 0 -245 84t-99 292l-12 113l-352 -39l8 -67q14 -118 14 -224z" />
    <glyph glyph-name="uniFD2A" unicode="&#xfeb4;&#xfeae;" horiz-adv-x="2387" arabic-form="final" 
d="M477 141q0 -314 -113 -464t-348 -150q-74 0 -180 16v164q94 -16 170 -16q168 0 248 109.5t80 340.5q0 68 -15 207l-28 232l639 71l33 -272q13 -128 64 -181t157 -53q113 0 167 62t54 192v109h143v-109q0 -130 48.5 -192t148.5 -62q113 0 167 62t54 192v181h143v-181
q0 -121 69 -178t210 -57v-123l-41 -41q-139 0 -227.5 51.5t-114.5 145.5q-37 -215 -281 -215q-114 0 -186.5 53.5t-95.5 152.5q-20 -105 -88.5 -155.5t-190.5 -50.5q-167 0 -245 84t-99 292l-12 113l-352 -39l8 -67q14 -118 14 -224z" />
    <glyph glyph-name="uniFD2B" unicode="&#xfebc;&#xfeae;" horiz-adv-x="2375" arabic-form="final" 
d="M477 141q0 -314 -113 -464t-348 -150q-74 0 -180 16v164q94 -16 170 -16q168 0 248 109.5t80 340.5q0 68 -15 207l-36 303l639 72l41 -344q15 -132 96 -180q122 279 319.5 447.5t427.5 168.5q98 0 176 -32.5t124.5 -87.5t71 -121.5t24.5 -139.5q0 -111 -56 -205
q71 -65 230 -65v-123l-41 -41q-188 0 -293 123q-204 -141 -674 -141q-281 0 -403 79q-122 84 -146 297l-20 187l-353 -39l17 -141q14 -147 14 -224zM1796 649q-188 0 -350 -137q-161 -133 -270 -352q89 -15 233 -15q649 0 649 289q0 38 -15 74.5t-45 68.5t-82.5 52
t-119.5 20z" />
    <glyph glyph-name="uniFD2C" unicode="&#xfec0;&#xfeae;" horiz-adv-x="2375" arabic-form="final" 
d="M1849 1059q0 -44 -30 -74.5t-74 -30.5t-74.5 30.5t-30.5 74.5t30.5 74t74.5 30t74 -30t30 -74zM477 141q0 -314 -113 -464t-348 -150q-74 0 -180 16v164q94 -16 170 -16q168 0 248 109.5t80 340.5q0 68 -15 207l-36 303l639 72l41 -344q15 -132 96 -180
q122 279 319.5 447.5t427.5 168.5q98 0 176 -32.5t124.5 -87.5t71 -121.5t24.5 -139.5q0 -111 -56 -205q71 -65 230 -65v-123l-41 -41q-188 0 -293 123q-204 -141 -674 -141q-281 0 -403 79q-122 84 -146 297l-20 187l-353 -39l17 -141q14 -147 14 -224zM1796 649
q-188 0 -350 -137q-161 -133 -270 -352q89 -15 233 -15q649 0 649 289q0 38 -15 74.5t-45 68.5t-82.5 52t-119.5 20z" />
    <glyph glyph-name="uniFDF2" unicode="&#x627;&#xfedf;&#xfee0;&#xfeea;" horiz-adv-x="2574" arabic-form="isolated" 
d="M1296 2128v-371h-122v371h122zM1333 1378q-85 0 -112 82q-21 -112 -105 -112q-51 0 -80.5 39.5t-29.5 111.5q0 44 14 98l100 9q-16 -54 -16 -82q0 -47 33 -47q47 0 47 141l102 10q0 -121 45 -121q14 0 23.5 18t9.5 48q0 36 -8 72l102 10q6 -81 6 -88q0 -91 -34 -140
t-97 -49zM2410 1583v-1583h-143v1583h143zM1919 1427v-1036q0 -200 -89.5 -295.5t-270.5 -95.5q-295 0 -345 195q-41 -195 -268 -195q-252 0 -309 221q-69 -158 -272 -158q-139 0 -225.5 73t-86.5 200q0 107 63.5 188t205.5 174l296 193v180h144v-659q0 -128 45.5 -188
t138.5 -60q127 0 179.5 56.5t52.5 191.5v833h143v-833q0 -128 59 -188t179 -60q119 0 168 51.5t49 175.5v1036h143zM197 362q0 -135 190 -135q99 0 164 35q67 37 67 160v311l-225 -139q-196 -118 -196 -232z" />
    <glyph glyph-name="uniFEF5" unicode="&#xfedf;&#xfe82;" horiz-adv-x="1179" arabic-form="isolated" 
d="M670 0h-572v166l428 358l105 90l-651 545l106 125l657 -549q72 90 93 193q22 107 22 264v391h143v-391q0 -197 -30 -320q-26 -114 -119 -231q109 -99 157 -182.5t48 -171.5q0 -147 -95.5 -217t-291.5 -70zM76 1348h-94q0 85 43.5 135.5t115.5 50.5q51 0 146.5 -17.5
t142.5 -17.5q67 0 123 23v-113q-56 -29 -123 -29q-59 0 -150 17.5t-139 17.5q-65 0 -65 -67zM618 420l-311 -256h363q125 0 184 27t59 88q0 88 -174 245q-43 -40 -121 -104z" />
    <glyph glyph-name="uniFEF6" unicode="&#xfee0;&#xfe82;" horiz-adv-x="1214" arabic-form="final" 
d="M395 23l-354 -58v166l332 51l53 8l-190 1076h143l186 -1049q153 32 211 83t58 153v1130h143v-1163q0 -141 53 -198.5t184 -57.5v-123l-40 -41h-11q-256 0 -307 229q-39 -76 -147.5 -125t-313.5 -81zM82 1331h-94q0 85 43.5 136t115.5 51q51 0 146 -17.5t143 -17.5
q69 0 123 22v-112q-56 -29 -123 -29q-59 0 -150 17.5t-139 17.5q-65 0 -65 -68z" />
    <glyph glyph-name="uniFEF7" unicode="&#xfedf;&#xfe84;" horiz-adv-x="1179" arabic-form="isolated" 
d="M481 1581v-123l-413 -57v123l106 14q-70 44 -70 129q0 73 52 123.5t127 50.5q69 0 114 -42.5t52 -115.5l-95 -12q-24 47 -78 47q-33 0 -54 -18t-21 -49q0 -44 42 -71t99 -19zM670 0h-572v166l428 358l105 90l-651 545l106 125l657 -549q72 90 93 193q22 107 22 264v391
h143v-391q0 -197 -30 -320q-26 -114 -119 -231q109 -99 157 -182.5t48 -171.5q0 -147 -95.5 -217t-291.5 -70zM618 420l-311 -256h363q125 0 184 27t59 88q0 88 -174 245q-43 -40 -121 -104z" />
    <glyph glyph-name="uniFEF8" unicode="&#xfee0;&#xfe84;" horiz-adv-x="1214" arabic-form="final" 
d="M487 1565v-123l-413 -58v123l106 15q-69 43 -69 129q0 73 51.5 123.5t126.5 50.5q69 0 114 -42.5t52 -115.5l-95 -12q-24 47 -77 47q-33 0 -54.5 -18.5t-21.5 -49.5q0 -44 42 -71t99 -19zM395 23l-354 -58v166l332 51l53 8l-190 1076h143l186 -1049q153 32 211 83t58 153
v1130h143v-1163q0 -141 53 -198.5t184 -57.5v-123l-40 -41h-11q-256 0 -307 229q-39 -76 -147.5 -125t-313.5 -81z" />
    <glyph glyph-name="uniFEF9" unicode="&#xfedf;&#xfe88;" horiz-adv-x="1179" arabic-form="isolated" 
d="M670 0h-572v166l428 358l105 90l-651 545l106 125l657 -549q72 90 93 193q22 107 22 264v391h143v-391q0 -197 -30 -320q-26 -114 -119 -231q109 -99 157 -182.5t48 -171.5q0 -147 -95.5 -217t-291.5 -70zM618 420l-311 -256h363q125 0 184 27t59 88q0 88 -174 245
q-43 -40 -121 -104zM473 -383v-123l-414 -57v123l107 14q-70 44 -70 129q0 73 51.5 123.5t126.5 50.5q69 0 114 -42.5t52 -115.5l-94 -12q-24 47 -78 47q-33 0 -54 -18t-21 -49q0 -44 42 -71t99 -19z" />
    <glyph glyph-name="uniFEFA" unicode="&#xfee0;&#xfe88;" horiz-adv-x="1214" arabic-form="final" 
d="M395 23l-354 -58v166l332 51l53 8l-190 1076h143l186 -1049q153 32 211 83t58 153v1130h143v-1163q0 -141 53 -198.5t184 -57.5v-123l-40 -41h-11q-256 0 -307 229q-39 -76 -147.5 -125t-313.5 -81zM723 -383v-123l-414 -57v123l107 14q-70 44 -70 129q0 73 51.5 123.5
t126.5 50.5q69 0 114 -42.5t52 -115.5l-94 -12q-24 47 -78 47q-33 0 -54.5 -18t-21.5 -49q0 -44 42.5 -71t99.5 -19z" />
    <glyph glyph-name="uniFEFB" unicode="&#xfedf;&#xfe8e;" horiz-adv-x="1179" arabic-form="isolated" 
d="M670 0h-572v166l428 358l105 90l-651 545l106 125l657 -549q72 90 93 193q22 107 22 264v391h143v-391q0 -197 -30 -320q-26 -114 -119 -231q109 -99 157 -182.5t48 -171.5q0 -147 -95.5 -217t-291.5 -70zM618 420l-311 -256h363q125 0 184 27t59 88q0 88 -174 245
q-43 -40 -121 -104z" />
    <glyph glyph-name="uniFEFC" unicode="&#xfee0;&#xfe8e;" horiz-adv-x="1214" arabic-form="final" 
d="M395 23l-354 -58v166l332 51l53 8l-190 1076h143l186 -1049q153 32 211 83t58 153v1130h143v-1163q0 -141 53 -198.5t184 -57.5v-123l-40 -41h-11q-256 0 -307 229q-39 -76 -147.5 -125t-313.5 -81z" />
    <glyph glyph-name="f_f" unicode="ff" horiz-adv-x="1298" 
d="M379 0h-170v928h-154v143h154v160q0 164 81 254t238 90q62 0 127 -21v-143q-71 23 -120 23q-79 0 -117.5 -49.5t-38.5 -135.5v-178h420v174q0 164 81 254t238 90q66 0 127 -20v-144q-71 23 -121 23q-79 0 -117 -49t-38 -135v-193h262v-143h-262v-928h-170v928h-420v-928z
" />
    <glyph glyph-name="f_i" unicode="fi" horiz-adv-x="1222" 
d="M379 0h-170v928h-154v143h154v174q0 164 79.5 254t235.5 90q64 0 117 -16v-143q-56 18 -111 18q-151 0 -151 -184v-193h262v-143h-262v-928zM958 1294q-44 0 -78 34.5t-34 78.5t34 78.5t78 34.5t78.5 -34.5t34.5 -78.5t-34.5 -78.5t-78.5 -34.5zM1047 0h-170v1071h170
v-1071z" />
    <glyph glyph-name="f_l" unicode="fl" horiz-adv-x="1224" 
d="M379 0h-170v928h-154v143h154v174q0 164 79.5 254t235.5 90q64 0 117 -16v-143q-56 18 -111 18q-151 0 -151 -184v-193h262v-143h-262v-928zM1049 0h-172v1583h172v-1583z" />
    <glyph glyph-name="uni064906BA" unicode="&#x649;&#x6ba;" horiz-adv-x="2019" 
d="M1257 166q0 -269 -149.5 -413t-417.5 -144q-272 0 -419.5 122.5t-147.5 352.5q0 118 33 301h143q-33 -183 -33 -270q0 -165 111 -253.5t313 -88.5q220 0 322 92.5t102 300.5q0 66 -14 182l-37 303l639 72l41 -344q15 -132 69 -174q59 -41 207 -41v-123l-41 -41
q-188 0 -272 78q-86 80 -107 280l-20 187l-352 -39l16 -141q14 -133 14 -199z" />
    <glyph glyph-name="uni0649FEE6" unicode="&#x649;&#xfee6;" horiz-adv-x="2019" 
d="M764 793q0 -44 -30.5 -74.5t-74.5 -30.5t-74 30.5t-30 74.5t30 74t74 30t74.5 -30t30.5 -74zM1257 166q0 -269 -149.5 -413t-417.5 -144q-272 0 -419.5 122.5t-147.5 352.5q0 118 33 301h143q-33 -183 -33 -270q0 -165 111 -253.5t313 -88.5q220 0 322 92.5t102 300.5
q0 66 -14 182l-37 303l639 72l41 -344q15 -132 69 -174q59 -41 207 -41v-123l-41 -41q-188 0 -272 78q-86 80 -107 280l-20 187l-352 -39l16 -141q14 -133 14 -199z" />
    <glyph glyph-name="uni0649FEAE" unicode="&#x649;&#xfeae;" horiz-adv-x="1239" 
d="M477 141q0 -314 -113 -464t-348 -150q-74 0 -180 16v164q94 -16 170 -16q168 0 248 109.5t80 340.5q0 68 -15 207l-36 303l639 72l41 -344q15 -132 69 -174q59 -41 207 -41v-123l-41 -41q-188 0 -272 78q-86 80 -107 280l-20 187l-353 -39l17 -141q14 -147 14 -224z" />
    <glyph glyph-name="uni0649FEB0" unicode="&#x649;&#xfeb0;" horiz-adv-x="1239" 
d="M434 895q0 -44 -30 -74t-74 -30t-74.5 30t-30.5 74t30.5 74t74.5 30t74 -30t30 -74zM477 141q0 -314 -113 -464t-348 -150q-74 0 -180 16v164q94 -16 170 -16q168 0 248 109.5t80 340.5q0 68 -15 207l-36 303l639 72l41 -344q15 -132 69 -174q59 -41 207 -41v-123
l-41 -41q-188 0 -272 78q-86 80 -107 280l-20 187l-353 -39l17 -141q14 -147 14 -224z" />
    <glyph glyph-name="uniFECBFEF0" unicode="&#xfecb;&#xfef0;" horiz-adv-x="2154" 
d="M1468 -145q0 -66 -40 -123.5t-121 -104t-218.5 -73.5t-316.5 -27q-320 0 -484.5 127t-164.5 369q0 111 33 280h143q-33 -169 -33 -250q0 -179 127.5 -270.5t378.5 -91.5q309 0 430 53t121 123q0 61 -58.5 97t-162.5 36h-39v164l344 37q-92 58 -144.5 152t-52.5 208
q0 182 117.5 303t292.5 121q168 0 272 -94.5t117 -259.5h-143q-20 88 -86 139t-160 51q-123 0 -194.5 -71t-71.5 -199q0 -131 104 -213q107 -82 264 -82q86 0 254 20l97 13v-158l-707 -92q102 -76 102 -184z" />
    <glyph glyph-name="uniFECFFEF0" unicode="&#xfecf;&#xfef0;" horiz-adv-x="2154" 
d="M1724 1202q0 -44 -30 -74t-74 -30t-74 30t-30 74t30 74.5t74 30.5t74 -30.5t30 -74.5zM1468 -145q0 -66 -40 -123.5t-121 -104t-218.5 -73.5t-316.5 -27q-320 0 -484.5 127t-164.5 369q0 111 33 280h143q-33 -169 -33 -250q0 -179 127.5 -270.5t378.5 -91.5q309 0 430 53
t121 123q0 61 -58.5 97t-162.5 36h-39v164l344 37q-92 58 -144.5 152t-52.5 208q0 182 117.5 303t292.5 121q168 0 272 -94.5t117 -259.5h-143q-20 88 -86 139t-160 51q-123 0 -194.5 -71t-71.5 -199q0 -131 104 -213q107 -82 264 -82q86 0 254 20l97 13v-158l-707 -92
q102 -76 102 -184z" />
    <glyph glyph-name="uniFB58FEF0" unicode="&#xfb58;&#xfef0;" horiz-adv-x="1658" 
d="M1487 -129q0 -140 -187.5 -242t-486.5 -102q-690 0 -690 496q0 111 33 280h143q-33 -169 -33 -250q0 -181 133.5 -271.5t413.5 -90.5q249 0 389.5 58.5t140.5 158.5q0 47 -43 96q-42 51 -157 51h-223v164h225q143 0 195.5 48.5t52.5 158.5q0 132 -35 369h149
q29 -214 29 -369q0 -287 -188 -350q139 -65 139 -205zM1581 -668q0 -44 -30 -74t-74 -30t-74.5 30t-30.5 74t30.5 74.5t74.5 30.5t74 -30.5t30 -74.5zM1311 -668q0 -44 -30.5 -74t-74.5 -30t-74 30t-30 74t30 74.5t74 30.5t74.5 -30.5t30.5 -74.5zM1444 -918
q0 -44 -30.5 -74t-74.5 -30t-74 30t-30 74t30 74.5t74 30.5t74.5 -30.5t30.5 -74.5z" />
    <glyph glyph-name="uniFB7CFEF0" unicode="&#xfb7c;&#xfef0;" horiz-adv-x="2052" 
d="M1466 -92q0 -173 -182.5 -277t-490.5 -104q-670 0 -670 496q0 111 33 280h143q-33 -169 -33 -250q0 -181 129 -271.5t398 -90.5q249 0 389.5 58.5t140.5 158.5q0 48 -45 96q-42 51 -166 51h-213v164l367 123q23 7 82.5 27t95.5 31.5t89.5 26.5t98.5 24q-58 19 -145 57
l-205 90q-122 53 -192 53q-47 0 -76 -27t-37 -75h-143q8 125 75.5 195.5t182.5 70.5q99 0 260 -70l182 -79q163 -70 242 -93.5t159 -23.5h80v-154h-47q-66 0 -164.5 -22.5t-158.5 -41.5t-186.5 -65t-141.5 -51l-117 -41q130 -22 198 -97t68 -169zM1989 -186
q0 -44 -30.5 -74.5t-74.5 -30.5t-74 30.5t-30 74.5t30 74t74 30t74.5 -30t30.5 -74zM1718 -186q0 -44 -30 -74.5t-74 -30.5t-74.5 30.5t-30.5 74.5t30.5 74t74.5 30t74 -30t30 -74zM1851 -436q0 -44 -30 -74.5t-74 -30.5t-74.5 30.5t-30.5 74.5t30.5 74t74.5 30t74 -30
t30 -74z" />
    <glyph glyph-name="uniFB6CFEF0" unicode="&#xfb6c;&#xfef0;" horiz-adv-x="1597" 
d="M1200 1616q0 -44 -30 -74.5t-74 -30.5t-74.5 30.5t-30.5 74.5t30.5 74t74.5 30t74 -30t30 -74zM1063 1366q0 -44 -30.5 -74t-74.5 -30t-74 30t-30 74t30 74t74 30t74.5 -30t30.5 -74zM1333 1366q0 -44 -30 -74t-74 -30t-74.5 30t-30.5 74t30.5 74t74.5 30t74 -30t30 -74z
M1425 -150q0 -132 -170.5 -227.5t-441.5 -95.5q-690 0 -690 496q0 111 33 280h143q-33 -169 -33 -250q0 -181 133.5 -271.5t413.5 -90.5q221 0 345 52t124 144q0 60 -52.5 93.5t-144.5 33.5h-227v164h227q142 0 201.5 44t71.5 165q-99 -27 -219 -27q-191 0 -305.5 94.5
t-114.5 258.5q0 107 50.5 201.5t137.5 151t187 56.5q192 0 301.5 -162.5t109.5 -449.5q0 -204 -50 -313.5t-165 -147.5q135 -60 135 -199zM864 713q0 -97 75.5 -143t201.5 -46q118 0 219 29q-7 191 -78 298t-188 107q-98 0 -164 -70.5t-66 -174.5z" />
    <glyph glyph-name="uniFB94FEF0" unicode="&#xfb94;&#xfef0;" horiz-adv-x="1589" 
d="M1563 1847l-2 -127l-854 -501v127zM1468 -104q0 -157 -180 -263t-473 -106q-345 0 -512 124.5t-178 371.5q-2 100 33 280h143q-33 -169 -33 -250q0 -181 133.5 -271.5t413.5 -90.5q241 0 375.5 59.5t134.5 165.5q0 64 -44.5 101.5t-125.5 37.5h-254v164h221
q77 0 118.5 35.5t41.5 97.5q0 56 -47 115q-46 58 -168 162l-360 307v139l856 502l-2 -188l-682 -390l274 -233q150 -127 211 -222.5t61 -191.5q0 -80 -34.5 -143.5t-100.5 -99.5q82 -23 130 -82.5t48 -130.5z" />
    <glyph glyph-name="uniFEDFFB51" unicode="&#xfedf;&#xfb51;" horiz-adv-x="1179" 
d="M49 1364h-94q0 84 44 135t116 51h24q44 100 107.5 155.5t132.5 55.5q80 0 125 -45.5t45 -126.5q0 -91 -49.5 -141.5t-137.5 -50.5q-51 0 -129 17.5t-118 17.5q-66 0 -66 -68zM365 1642q-91 0 -146 -104q103 -22 143 -22q43 0 68 15.5t25 41.5q0 32 -23.5 50.5t-66.5 18.5
zM670 0h-572v166l428 358l105 90l-651 545l106 125l657 -549q72 90 93 193q22 107 22 264v391h143v-391q0 -197 -30 -320q-26 -114 -119 -231q109 -99 157 -182.5t48 -171.5q0 -147 -95.5 -217t-291.5 -70zM618 420l-311 -256h363q125 0 184 27t59 88q0 88 -174 245
q-43 -40 -121 -104z" />
    <glyph glyph-name="uniFEDFFEE4" unicode="&#xfedf;&#xfee4;" horiz-adv-x="641" 
d="M539 68l143 -76l-80 -144l-106 56q-114 58 -220 77t-317 19v123l41 41q94 0 161.5 -11.5t137.5 -41.5q-40 43 -56 96.5t-16 134.5v1241h144v-1241q0 -114 32 -168q33 -53 136 -106z" />
    <glyph glyph-name="uniFEDFFB7B" unicode="&#xfedf;&#xfb7b;" 
d="M1182 -373v-159q-112 -49 -247.5 -78t-262.5 -29q-302 0 -471 150q-170 147 -170 395q0 196 114 348.5t340 241.5q-35 -1 -167 -5t-209 -4v164h288q142 0 189 62q49 64 49 256v614h143v-655q0 -191 -63 -277h469v-153h-39q-199 0 -363 -32.5t-275 -88t-187.5 -130.5
t-111 -158t-34.5 -173q0 -184 132 -287.5t366 -103.5q135 0 270.5 29t239.5 73zM856 70q0 -44 -30 -74.5t-74 -30.5t-74.5 30.5t-30.5 74.5t30.5 74t74.5 30t74 -30t30 -74zM586 70q0 -44 -30.5 -74.5t-74.5 -30.5t-74 30.5t-30 74.5t30 74t74 30t74.5 -30t30.5 -74z
M719 -180q0 -44 -30.5 -74.5t-74.5 -30.5t-74 30.5t-30 74.5t30 74t74 30t74.5 -30t30.5 -74z" />
    <glyph glyph-name="uniFEDFFB7D" unicode="&#xfedf;&#xfb7d;" horiz-adv-x="1282" 
d="M119 0h-160v123l41 41h119q148 0 245 25t236 98l139 73q67 36 152 72q-4 0 -90 17l-219 47q-105 22 -332 22h-146v164h187q186 0 246 63q61 64 61 254v584h143v-625q0 -126 -24 -202.5t-80 -116.5l194 -43q209 -47 345 -47h69v-154h-80q-67 0 -143 -30q-70 -27 -231 -125
l-129 -76q-163 -98 -273.5 -131t-269.5 -33zM918 -225q0 -44 -30.5 -74.5t-74.5 -30.5t-74 30.5t-30 74.5t30 74t74 30t74.5 -30t30.5 -74zM647 -225q0 -44 -30 -74.5t-74 -30.5t-74.5 30.5t-30.5 74.5t30.5 74t74.5 30t74 -30t30 -74zM780 -475q0 -44 -30 -74.5t-74 -30.5
t-74.5 30.5t-30.5 74.5t30.5 74t74.5 30t74 -30t30 -74z" />
    <glyph glyph-name="uniFECBFEF2" unicode="&#xfecb;&#xfef2;" horiz-adv-x="2154" 
d="M1468 -145q0 -66 -40 -123.5t-121 -104t-218.5 -73.5t-316.5 -27q-320 0 -484.5 127t-164.5 369q0 111 33 280h143q-33 -169 -33 -250q0 -179 127.5 -270.5t378.5 -91.5q309 0 430 53t121 123q0 61 -58.5 97t-162.5 36h-39v164l344 37q-92 58 -144.5 152t-52.5 208
q0 182 117.5 303t292.5 121q168 0 272 -94.5t117 -259.5h-143q-20 88 -86 139t-160 51q-123 0 -194.5 -71t-71.5 -199q0 -131 104 -213q107 -82 264 -82q86 0 254 20l97 13v-158l-707 -92q102 -76 102 -184zM1012 -741q0 -44 -30.5 -74.5t-74.5 -30.5t-74 30.5t-30 74.5
t30 74t74 30t74.5 -30t30.5 -74zM741 -741q0 -44 -30 -74.5t-74 -30.5t-74.5 30.5t-30.5 74.5t30.5 74t74.5 30t74 -30t30 -74z" />
    <glyph glyph-name="uniFECFFEF2" unicode="&#xfecf;&#xfef2;" horiz-adv-x="2154" 
d="M1724 1202q0 -44 -30 -74t-74 -30t-74 30t-30 74t30 74.5t74 30.5t74 -30.5t30 -74.5zM1468 -145q0 -66 -40 -123.5t-121 -104t-218.5 -73.5t-316.5 -27q-320 0 -484.5 127t-164.5 369q0 111 33 280h143q-33 -169 -33 -250q0 -179 127.5 -270.5t378.5 -91.5q309 0 430 53
t121 123q0 61 -58.5 97t-162.5 36h-39v164l344 37q-92 58 -144.5 152t-52.5 208q0 182 117.5 303t292.5 121q168 0 272 -94.5t117 -259.5h-143q-20 88 -86 139t-160 51q-123 0 -194.5 -71t-71.5 -199q0 -131 104 -213q107 -82 264 -82q86 0 254 20l97 13v-158l-707 -92
q102 -76 102 -184zM1012 -741q0 -44 -30.5 -74.5t-74.5 -30.5t-74 30.5t-30 74.5t30 74t74 30t74.5 -30t30.5 -74zM741 -741q0 -44 -30 -74.5t-74 -30.5t-74.5 30.5t-30.5 74.5t30.5 74t74.5 30t74 -30t30 -74z" />
    <glyph glyph-name="uniFB58FEF2" unicode="&#xfb58;&#xfef2;" horiz-adv-x="1658" 
d="M1487 -129q0 -140 -187.5 -242t-486.5 -102q-690 0 -690 496q0 111 33 280h143q-33 -169 -33 -250q0 -181 133.5 -271.5t413.5 -90.5q249 0 389.5 58.5t140.5 158.5q0 47 -43 96q-42 51 -157 51h-223v164h225q143 0 195.5 48.5t52.5 158.5q0 132 -35 369h149
q29 -214 29 -369q0 -287 -188 -350q139 -65 139 -205zM1581 -668q0 -44 -30 -74t-74 -30t-74.5 30t-30.5 74t30.5 74.5t74.5 30.5t74 -30.5t30 -74.5zM1311 -668q0 -44 -30.5 -74t-74.5 -30t-74 30t-30 74t30 74.5t74 30.5t74.5 -30.5t30.5 -74.5zM1053 -741
q0 -44 -30.5 -74.5t-74.5 -30.5t-74 30.5t-30 74.5t30 74t74 30t74.5 -30t30.5 -74zM782 -741q0 -44 -30 -74.5t-74 -30.5t-74.5 30.5t-30.5 74.5t30.5 74t74.5 30t74 -30t30 -74zM1444 -918q0 -44 -30.5 -74t-74.5 -30t-74 30t-30 74t30 74.5t74 30.5t74.5 -30.5
t30.5 -74.5z" />
    <glyph glyph-name="uniFB7CFEF2" unicode="&#xfb7c;&#xfef2;" horiz-adv-x="2052" 
d="M1466 -92q0 -173 -182.5 -277t-490.5 -104q-670 0 -670 496q0 111 33 280h143q-33 -169 -33 -250q0 -181 129 -271.5t398 -90.5q249 0 389.5 58.5t140.5 158.5q0 48 -45 96q-42 51 -166 51h-213v164l367 123q23 7 82.5 27t95.5 31.5t89.5 26.5t98.5 24q-58 19 -145 57
l-205 90q-122 53 -192 53q-47 0 -76 -27t-37 -75h-143q8 125 75.5 195.5t182.5 70.5q99 0 260 -70l182 -79q163 -70 242 -93.5t159 -23.5h80v-154h-47q-66 0 -164.5 -22.5t-158.5 -41.5t-186.5 -65t-141.5 -51l-117 -41q130 -22 198 -97t68 -169zM1989 -186
q0 -44 -30.5 -74.5t-74.5 -30.5t-74 30.5t-30 74.5t30 74t74 30t74.5 -30t30.5 -74zM1718 -186q0 -44 -30 -74.5t-74 -30.5t-74.5 30.5t-30.5 74.5t30.5 74t74.5 30t74 -30t30 -74zM1851 -436q0 -44 -30 -74.5t-74 -30.5t-74.5 30.5t-30.5 74.5t30.5 74t74.5 30t74 -30
t30 -74zM1053 -741q0 -44 -30.5 -74.5t-74.5 -30.5t-74 30.5t-30 74.5t30 74t74 30t74.5 -30t30.5 -74zM782 -741q0 -44 -30 -74.5t-74 -30.5t-74.5 30.5t-30.5 74.5t30.5 74t74.5 30t74 -30t30 -74z" />
    <glyph glyph-name="uniFB6CFEF2" unicode="&#xfb6c;&#xfef2;" horiz-adv-x="1597" 
d="M1200 1616q0 -44 -30 -74.5t-74 -30.5t-74.5 30.5t-30.5 74.5t30.5 74t74.5 30t74 -30t30 -74zM1063 1366q0 -44 -30.5 -74t-74.5 -30t-74 30t-30 74t30 74t74 30t74.5 -30t30.5 -74zM1333 1366q0 -44 -30 -74t-74 -30t-74.5 30t-30.5 74t30.5 74t74.5 30t74 -30t30 -74z
M1425 -150q0 -132 -170.5 -227.5t-441.5 -95.5q-690 0 -690 496q0 111 33 280h143q-33 -169 -33 -250q0 -181 133.5 -271.5t413.5 -90.5q221 0 345 52t124 144q0 60 -52.5 93.5t-144.5 33.5h-227v164h227q142 0 201.5 44t71.5 165q-99 -27 -219 -27q-191 0 -305.5 94.5
t-114.5 258.5q0 107 50.5 201.5t137.5 151t187 56.5q192 0 301.5 -162.5t109.5 -449.5q0 -204 -50 -313.5t-165 -147.5q135 -60 135 -199zM864 713q0 -97 75.5 -143t201.5 -46q118 0 219 29q-7 191 -78 298t-188 107q-98 0 -164 -70.5t-66 -174.5zM999 -741q0 -44 -30 -74.5
t-74 -30.5t-74 30.5t-30 74.5t30 74t74 30t74 -30t30 -74zM729 -741q0 -44 -30 -74.5t-74 -30.5t-74.5 30.5t-30.5 74.5t30.5 74t74.5 30t74 -30t30 -74z" />
    <glyph glyph-name="uniFB90FEF2" unicode="&#xfb90;&#xfef2;" horiz-adv-x="1589" 
d="M1468 -104q0 -157 -180 -263t-473 -106q-345 0 -512 124.5t-178 371.5q-2 100 33 280h143q-33 -169 -33 -250q0 -181 133.5 -271.5t413.5 -90.5q241 0 375.5 59.5t134.5 165.5q0 64 -44.5 101.5t-125.5 37.5h-254v164h221q77 0 118.5 35.5t41.5 97.5q0 56 -47 115
q-46 58 -168 162l-360 307v139l856 502l-2 -188l-682 -390l274 -233q150 -127 211 -222.5t61 -191.5q0 -80 -34.5 -143.5t-100.5 -99.5q82 -23 130 -82.5t48 -130.5zM1055 -741q0 -44 -30.5 -74.5t-74.5 -30.5t-74 30.5t-30 74.5t30 74t74 30t74.5 -30t30.5 -74zM784 -741
q0 -44 -30 -74.5t-74 -30.5t-74.5 30.5t-30.5 74.5t30.5 74t74.5 30t74 -30t30 -74z" />
    <glyph glyph-name="uniFB94FEF2" unicode="&#xfb94;&#xfef2;" horiz-adv-x="1589" 
d="M1563 1847l-2 -127l-854 -501v127zM1468 -104q0 -157 -180 -263t-473 -106q-345 0 -512 124.5t-178 371.5q-2 100 33 280h143q-33 -169 -33 -250q0 -181 133.5 -271.5t413.5 -90.5q241 0 375.5 59.5t134.5 165.5q0 64 -44.5 101.5t-125.5 37.5h-254v164h221
q77 0 118.5 35.5t41.5 97.5q0 56 -47 115q-46 58 -168 162l-360 307v139l856 502l-2 -188l-682 -390l274 -233q150 -127 211 -222.5t61 -191.5q0 -80 -34.5 -143.5t-100.5 -99.5q82 -23 130 -82.5t48 -130.5zM1055 -741q0 -44 -30.5 -74.5t-74.5 -30.5t-74 30.5t-30 74.5
t30 74t74 30t74.5 -30t30.5 -74zM784 -741q0 -44 -30 -74.5t-74 -30.5t-74.5 30.5t-30.5 74.5t30.5 74t74.5 30t74 -30t30 -74z" />
    <glyph glyph-name="uniFE91FE8A" unicode="&#xfe91;&#xfe8a;" horiz-adv-x="1658" 
d="M492 602v-123l-414 -57v123l106 14q-69 43 -69 129q0 73 51.5 123.5t126.5 50.5q69 0 114 -42t52 -115l-94 -13q-24 47 -78 47q-33 0 -54.5 -18t-21.5 -49q0 -44 42 -71t99 -19zM1487 -129q0 -140 -187.5 -242t-486.5 -102q-690 0 -690 496q0 111 33 280h143
q-33 -169 -33 -250q0 -181 133.5 -271.5t413.5 -90.5q249 0 389.5 58.5t140.5 158.5q0 47 -43 96q-42 51 -157 51h-223v164h225q143 0 195.5 48.5t52.5 158.5q0 132 -35 369h149q29 -214 29 -369q0 -287 -188 -350q139 -65 139 -205zM1448 -668q0 -44 -30.5 -74t-74.5 -30
t-74 30t-30 74t30 74.5t74 30.5t74.5 -30.5t30.5 -74.5z" />
    <glyph glyph-name="uniFE97FE8A" unicode="&#xfe97;&#xfe8a;" horiz-adv-x="1658" 
d="M1642 1038q0 -44 -30 -74t-74 -30t-74 30t-30 74t30 74.5t74 30.5t74 -30.5t30 -74.5zM1372 1038q0 -44 -30 -74t-74 -30t-74.5 30t-30.5 74t30.5 74.5t74.5 30.5t74 -30.5t30 -74.5zM492 602v-123l-414 -57v123l106 14q-69 43 -69 129q0 73 51.5 123.5t126.5 50.5
q69 0 114 -42t52 -115l-94 -13q-24 47 -78 47q-33 0 -54.5 -18t-21.5 -49q0 -44 42 -71t99 -19zM1487 -129q0 -140 -187.5 -242t-486.5 -102q-690 0 -690 496q0 111 33 280h143q-33 -169 -33 -250q0 -181 133.5 -271.5t413.5 -90.5q249 0 389.5 58.5t140.5 158.5
q0 47 -43 96q-42 51 -157 51h-223v164h225q143 0 195.5 48.5t52.5 158.5q0 132 -35 369h149q29 -214 29 -369q0 -287 -188 -350q139 -65 139 -205z" />
    <glyph glyph-name="uniFE9BFE8A" unicode="&#xfe9b;&#xfe8a;" horiz-adv-x="1658" 
d="M1509 1288q0 -44 -30 -74t-74 -30t-74.5 30t-30.5 74t30.5 74.5t74.5 30.5t74 -30.5t30 -74.5zM1372 1038q0 -44 -30 -74t-74 -30t-74.5 30t-30.5 74t30.5 74.5t74.5 30.5t74 -30.5t30 -74.5zM1642 1038q0 -44 -30 -74t-74 -30t-74 30t-30 74t30 74.5t74 30.5t74 -30.5
t30 -74.5zM492 602v-123l-414 -57v123l106 14q-69 43 -69 129q0 73 51.5 123.5t126.5 50.5q69 0 114 -42t52 -115l-94 -13q-24 47 -78 47q-33 0 -54.5 -18t-21.5 -49q0 -44 42 -71t99 -19zM1487 -129q0 -140 -187.5 -242t-486.5 -102q-690 0 -690 496q0 111 33 280h143
q-33 -169 -33 -250q0 -181 133.5 -271.5t413.5 -90.5q249 0 389.5 58.5t140.5 158.5q0 47 -43 96q-42 51 -157 51h-223v164h225q143 0 195.5 48.5t52.5 158.5q0 132 -35 369h149q29 -214 29 -369q0 -287 -188 -350q139 -65 139 -205z" />
    <glyph glyph-name="uniFE9FFE8A" unicode="&#xfe9f;&#xfe8a;" horiz-adv-x="2052" 
d="M426 602v-123l-414 -57v123l107 14q-70 44 -70 129q0 73 51.5 123.5t126.5 50.5q69 0 114 -42t52 -115l-94 -13q-24 47 -78 47q-33 0 -54.5 -18t-21.5 -49q0 -44 42.5 -71t99.5 -19zM1466 -92q0 -173 -182.5 -277t-490.5 -104q-670 0 -670 496q0 111 33 280h143
q-33 -169 -33 -250q0 -181 129 -271.5t398 -90.5q249 0 389.5 58.5t140.5 158.5q0 48 -45 96q-42 51 -166 51h-213v164l367 123q23 7 82.5 27t95.5 31.5t89.5 26.5t98.5 24q-58 19 -145 57l-205 90q-122 53 -192 53q-47 0 -76 -27t-37 -75h-143q8 125 75.5 195.5t182.5 70.5
q99 0 260 -70l182 -79q163 -70 242 -93.5t159 -23.5h80v-154h-47q-66 0 -164.5 -22.5t-158.5 -41.5t-186.5 -65t-141.5 -51l-117 -41q130 -22 198 -97t68 -169zM1855 -186q0 -44 -30 -74.5t-74 -30.5t-74 30.5t-30 74.5t30 74t74 30t74 -30t30 -74z" />
    <glyph glyph-name="uniFEA3FE8A" unicode="&#xfea3;&#xfe8a;" horiz-adv-x="2052" 
d="M426 602v-123l-414 -57v123l107 14q-70 44 -70 129q0 73 51.5 123.5t126.5 50.5q69 0 114 -42t52 -115l-94 -13q-24 47 -78 47q-33 0 -54.5 -18t-21.5 -49q0 -44 42.5 -71t99.5 -19zM1466 -92q0 -173 -182.5 -277t-490.5 -104q-670 0 -670 496q0 111 33 280h143
q-33 -169 -33 -250q0 -181 129 -271.5t398 -90.5q249 0 389.5 58.5t140.5 158.5q0 48 -45 96q-42 51 -166 51h-213v164l367 123q23 7 82.5 27t95.5 31.5t89.5 26.5t98.5 24q-58 19 -145 57l-205 90q-122 53 -192 53q-47 0 -76 -27t-37 -75h-143q8 125 75.5 195.5t182.5 70.5
q99 0 260 -70l182 -79q163 -70 242 -93.5t159 -23.5h80v-154h-47q-66 0 -164.5 -22.5t-158.5 -41.5t-186.5 -65t-141.5 -51l-117 -41q130 -22 198 -97t68 -169z" />
    <glyph glyph-name="uniFEA7FE8A" unicode="&#xfea7;&#xfe8a;" horiz-adv-x="2052" 
d="M1307 1059q0 -44 -30.5 -74.5t-74.5 -30.5t-74 30.5t-30 74.5t30 74t74 30t74.5 -30t30.5 -74zM426 602v-123l-414 -57v123l107 14q-70 44 -70 129q0 73 51.5 123.5t126.5 50.5q69 0 114 -42t52 -115l-94 -13q-24 47 -78 47q-33 0 -54.5 -18t-21.5 -49q0 -44 42.5 -71
t99.5 -19zM1466 -92q0 -173 -182.5 -277t-490.5 -104q-670 0 -670 496q0 111 33 280h143q-33 -169 -33 -250q0 -181 129 -271.5t398 -90.5q249 0 389.5 58.5t140.5 158.5q0 48 -45 96q-42 51 -166 51h-213v164l367 123q23 7 82.5 27t95.5 31.5t89.5 26.5t98.5 24
q-58 19 -145 57l-205 90q-122 53 -192 53q-47 0 -76 -27t-37 -75h-143q8 125 75.5 195.5t182.5 70.5q99 0 260 -70l182 -79q163 -70 242 -93.5t159 -23.5h80v-154h-47q-66 0 -164.5 -22.5t-158.5 -41.5t-186.5 -65t-141.5 -51l-117 -41q130 -22 198 -97t68 -169z" />
    <glyph glyph-name="uniFEB3FE8A" unicode="&#xfeb3;&#xfe8a;" horiz-adv-x="2783" 
d="M420 602v-123l-414 -57v123l107 14q-70 44 -70 129q0 73 51.5 123.5t126.5 50.5q69 0 114 -42t52 -115l-94 -13q-24 47 -78 47q-33 0 -54.5 -18t-21.5 -49q0 -44 42.5 -71t99.5 -19zM1438 -68q0 -114 -90 -207t-247 -145.5t-349 -52.5q-321 0 -475 121.5t-154 374.5
q0 148 33 280h143q-33 -132 -33 -250q0 -185 118 -273.5t368 -88.5q152 0 276.5 31t195 85.5t70.5 122.5q0 57 -39.5 88.5t-134.5 44.5l-260 39q-130 20 -196 86.5t-66 161.5q0 108 73 209t192.5 163t248.5 62q164 0 264.5 -84.5t173.5 -277.5l35 -92q40 -109 82 -148
q40 -37 123 -37q101 0 157 68t56 205v90h143v-109q0 -124 52.5 -189t132.5 -65q92 0 139 56t47 186q0 107 -23 264h152q14 -137 14 -264q0 -203 -86 -304t-243 -101q-107 0 -186 57t-105 158q-19 -110 -83 -162.5t-177 -52.5q-132 0 -203 65q-68 63 -143 262l-35 92
q-42 118 -117.5 169t-183.5 51q-137 0 -247 -74.5t-110 -167.5q0 -49 38.5 -76t121.5 -41l285 -45q252 -42 252 -285z" />
    <glyph glyph-name="uniFEB7FE8A" unicode="&#xfeb7;&#xfe8a;" horiz-adv-x="2783" 
d="M2175 1042q0 -44 -30 -74t-74 -30t-74.5 30t-30.5 74t30.5 74.5t74.5 30.5t74 -30.5t30 -74.5zM2038 793q0 -44 -30.5 -74.5t-74.5 -30.5t-74 30.5t-30 74.5t30 74t74 30t74.5 -30t30.5 -74zM2308 793q0 -44 -30 -74.5t-74 -30.5t-74.5 30.5t-30.5 74.5t30.5 74t74.5 30
t74 -30t30 -74zM420 602v-123l-414 -57v123l107 14q-70 44 -70 129q0 73 51.5 123.5t126.5 50.5q69 0 114 -42t52 -115l-94 -13q-24 47 -78 47q-33 0 -54.5 -18t-21.5 -49q0 -44 42.5 -71t99.5 -19zM1438 -68q0 -114 -90 -207t-247 -145.5t-349 -52.5q-321 0 -475 121.5
t-154 374.5q0 148 33 280h143q-33 -132 -33 -250q0 -185 118 -273.5t368 -88.5q152 0 276.5 31t195 85.5t70.5 122.5q0 57 -39.5 88.5t-134.5 44.5l-260 39q-130 20 -196 86.5t-66 161.5q0 108 73 209t192.5 163t248.5 62q164 0 264.5 -84.5t173.5 -277.5l35 -92
q40 -109 82 -148q40 -37 123 -37q101 0 157 68t56 205v90h143v-109q0 -124 52.5 -189t132.5 -65q92 0 139 56t47 186q0 107 -23 264h152q14 -137 14 -264q0 -203 -86 -304t-243 -101q-107 0 -186 57t-105 158q-19 -110 -83 -162.5t-177 -52.5q-132 0 -203 65
q-68 63 -143 262l-35 92q-42 118 -117.5 169t-183.5 51q-137 0 -247 -74.5t-110 -167.5q0 -49 38.5 -76t121.5 -41l285 -45q252 -42 252 -285z" />
    <glyph glyph-name="uniFEBBFE8A" unicode="&#xfebb;&#xfe8a;" horiz-adv-x="2813" 
d="M420 602v-123l-414 -57v123l107 14q-70 44 -70 129q0 73 51.5 123.5t126.5 50.5q69 0 114 -42t52 -115l-94 -13q-24 47 -78 47q-33 0 -54.5 -18t-21.5 -49q0 -44 42.5 -71t99.5 -19zM1438 -68q0 -114 -90 -207t-247 -145.5t-349 -52.5q-321 0 -475 121.5t-154 374.5
q0 148 33 280h143q-33 -132 -33 -250q0 -185 118 -273.5t368 -88.5q152 0 276.5 31t195 85.5t70.5 122.5q0 57 -39.5 88.5t-134.5 44.5l-260 39q-130 20 -196 86.5t-66 161.5q0 108 73 209t192.5 163t248.5 62q166 0 260 -88q96 -90 174 -274l39 -92q4 -11 35 -66
q123 252 312 401.5t405 149.5q79 0 145 -21.5t111.5 -58.5t77.5 -86t46.5 -103t14.5 -112q0 -229 -178.5 -339.5t-552.5 -110.5q-132 0 -217.5 14t-152 52.5t-110.5 98.5t-87 160l-39 92q-50 119 -121 169.5t-176 50.5q-137 0 -247 -74.5t-110 -167.5q0 -49 38.5 -76
t121.5 -41l285 -45q252 -42 252 -285zM2327 649q-183 0 -342 -129q-162 -134 -267 -334q98 -39 324 -39q281 0 414 69.5t133 217.5q0 38 -15 74.5t-45 68.5t-82.5 52t-119.5 20z" />
    <glyph glyph-name="uniFEBFFE8A" unicode="&#xfebf;&#xfe8a;" horiz-adv-x="2813" 
d="M2339 1059q0 -44 -30.5 -74.5t-74.5 -30.5t-74 30.5t-30 74.5t30 74t74 30t74.5 -30t30.5 -74zM420 602v-123l-414 -57v123l107 14q-70 44 -70 129q0 73 51.5 123.5t126.5 50.5q69 0 114 -42t52 -115l-94 -13q-24 47 -78 47q-33 0 -54.5 -18t-21.5 -49q0 -44 42.5 -71
t99.5 -19zM1438 -68q0 -114 -90 -207t-247 -145.5t-349 -52.5q-321 0 -475 121.5t-154 374.5q0 148 33 280h143q-33 -132 -33 -250q0 -185 118 -273.5t368 -88.5q152 0 276.5 31t195 85.5t70.5 122.5q0 57 -39.5 88.5t-134.5 44.5l-260 39q-130 20 -196 86.5t-66 161.5
q0 108 73 209t192.5 163t248.5 62q166 0 260 -88q96 -90 174 -274l39 -92q4 -11 35 -66q123 252 312 401.5t405 149.5q79 0 145 -21.5t111.5 -58.5t77.5 -86t46.5 -103t14.5 -112q0 -229 -178.5 -339.5t-552.5 -110.5q-132 0 -217.5 14t-152 52.5t-110.5 98.5t-87 160
l-39 92q-50 119 -121 169.5t-176 50.5q-137 0 -247 -74.5t-110 -167.5q0 -49 38.5 -76t121.5 -41l285 -45q252 -42 252 -285zM2327 649q-183 0 -342 -129q-162 -134 -267 -334q98 -39 324 -39q281 0 414 69.5t133 217.5q0 38 -15 74.5t-45 68.5t-82.5 52t-119.5 20z" />
    <glyph glyph-name="uniFECBFE8A" unicode="&#xfecb;&#xfe8a;" horiz-adv-x="2154" 
d="M1468 -145q0 -66 -40 -123.5t-121 -104t-218.5 -73.5t-316.5 -27q-320 0 -484.5 127t-164.5 369q0 111 33 280h143q-33 -169 -33 -250q0 -179 127.5 -270.5t378.5 -91.5q309 0 430 53t121 123q0 61 -58.5 97t-162.5 36h-39v164l344 37q-92 58 -144.5 152t-52.5 208
q0 182 117.5 303t292.5 121q168 0 272 -94.5t117 -259.5h-143q-20 88 -86 139t-160 51q-123 0 -194.5 -71t-71.5 -199q0 -131 104 -213q107 -82 264 -82q86 0 254 20l97 13v-158l-707 -92q102 -76 102 -184zM430 602v-123l-414 -57v123l107 14q-70 44 -70 129
q0 73 51.5 123.5t126.5 50.5q69 0 114 -42t52 -115l-94 -13q-24 47 -78 47q-33 0 -54 -18t-21 -49q0 -44 42 -71t99 -19z" />
    <glyph glyph-name="uniFECFFE8A" unicode="&#xfecf;&#xfe8a;" horiz-adv-x="2154" 
d="M1724 1202q0 -44 -30 -74t-74 -30t-74 30t-30 74t30 74.5t74 30.5t74 -30.5t30 -74.5zM1468 -145q0 -66 -40 -123.5t-121 -104t-218.5 -73.5t-316.5 -27q-320 0 -484.5 127t-164.5 369q0 111 33 280h143q-33 -169 -33 -250q0 -179 127.5 -270.5t378.5 -91.5q309 0 430 53
t121 123q0 61 -58.5 97t-162.5 36h-39v164l344 37q-92 58 -144.5 152t-52.5 208q0 182 117.5 303t292.5 121q168 0 272 -94.5t117 -259.5h-143q-20 88 -86 139t-160 51q-123 0 -194.5 -71t-71.5 -199q0 -131 104 -213q107 -82 264 -82q86 0 254 20l97 13v-158l-707 -92
q102 -76 102 -184zM430 602v-123l-414 -57v123l107 14q-70 44 -70 129q0 73 51.5 123.5t126.5 50.5q69 0 114 -42t52 -115l-94 -13q-24 47 -78 47q-33 0 -54 -18t-21 -49q0 -44 42 -71t99 -19z" />
    <glyph glyph-name="uniFED3FE8A" unicode="&#xfed3;&#xfe8a;" horiz-adv-x="1597" 
d="M1198 1366q0 -44 -30 -74t-74 -30t-74.5 30t-30.5 74t30.5 74t74.5 30t74 -30t30 -74zM1425 -150q0 -132 -170.5 -227.5t-441.5 -95.5q-690 0 -690 496q0 111 33 280h143q-33 -169 -33 -250q0 -181 133.5 -271.5t413.5 -90.5q221 0 345 52t124 144q0 60 -52.5 93.5
t-144.5 33.5h-227v164h227q142 0 201.5 44t71.5 165q-99 -27 -219 -27q-191 0 -305.5 94.5t-114.5 258.5q0 107 50.5 201.5t137.5 151t187 56.5q192 0 301.5 -162.5t109.5 -449.5q0 -204 -50 -313.5t-165 -147.5q135 -60 135 -199zM864 713q0 -97 75.5 -143t201.5 -46
q118 0 219 29q-7 191 -78 298t-188 107q-98 0 -164 -70.5t-66 -174.5zM430 602v-123l-414 -57v123l107 14q-70 44 -70 129q0 73 51.5 123.5t126.5 50.5q69 0 114 -42t52 -115l-94 -13q-24 47 -78 47q-33 0 -54 -18t-21 -49q0 -44 42 -71t99 -19z" />
    <glyph glyph-name="uniFED7FE8A" unicode="&#xfed7;&#xfe8a;" horiz-adv-x="1597" 
d="M1333 1366q0 -44 -30 -74t-74 -30t-74.5 30t-30.5 74t30.5 74t74.5 30t74 -30t30 -74zM1063 1366q0 -44 -30.5 -74t-74.5 -30t-74 30t-30 74t30 74t74 30t74.5 -30t30.5 -74zM1425 -150q0 -132 -170.5 -227.5t-441.5 -95.5q-690 0 -690 496q0 111 33 280h143
q-33 -169 -33 -250q0 -181 133.5 -271.5t413.5 -90.5q221 0 345 52t124 144q0 60 -52.5 93.5t-144.5 33.5h-227v164h227q142 0 201.5 44t71.5 165q-99 -27 -219 -27q-191 0 -305.5 94.5t-114.5 258.5q0 107 50.5 201.5t137.5 151t187 56.5q192 0 301.5 -162.5t109.5 -449.5
q0 -204 -50 -313.5t-165 -147.5q135 -60 135 -199zM864 713q0 -97 75.5 -143t201.5 -46q118 0 219 29q-7 191 -78 298t-188 107q-98 0 -164 -70.5t-66 -174.5zM430 602v-123l-414 -57v123l107 14q-70 44 -70 129q0 73 51.5 123.5t126.5 50.5q69 0 114 -42t52 -115l-94 -13
q-24 47 -78 47q-33 0 -54 -18t-21 -49q0 -44 42 -71t99 -19z" />
    <glyph glyph-name="uniFEDBFE8A" unicode="&#xfedb;&#xfe8a;" horiz-adv-x="1589" 
d="M1466 -104q0 -157 -180 -263t-473 -106q-345 0 -512 124.5t-178 371.5q-2 100 33 280h143q-33 -169 -33 -250q0 -181 133.5 -271.5t413.5 -90.5q241 0 375.5 59.5t134.5 165.5q0 64 -44.5 101.5t-125.5 37.5h-254v164h221q77 0 118.5 35.5t41.5 97.5q0 56 -47 115
q-46 58 -168 162l-360 307v139l856 502l-2 -188l-682 -390l274 -233q150 -127 211 -222.5t61 -191.5q0 -80 -34.5 -143.5t-100.5 -99.5q82 -23 130 -82.5t48 -130.5zM432 602v-123l-414 -57v123l107 14q-70 44 -70 129q0 73 51.5 123.5t126.5 50.5q69 0 114 -42t52 -115
l-94 -13q-24 47 -78 47q-33 0 -54 -18t-21 -49q0 -44 42 -71t99 -19z" />
    <glyph glyph-name="uniFEDFFE8A" unicode="&#xfedf;&#xfe8a;" horiz-adv-x="1679" 
d="M1466 -129q0 -140 -181.5 -242t-471.5 -102q-690 0 -690 496q0 111 33 280h143q-33 -169 -33 -250q0 -181 133.5 -271.5t413.5 -90.5q240 0 375 58.5t135 158.5q0 47 -49 96q-45 51 -152 51h-223v164h225q143 0 195.5 48.5t52.5 158.5v1157h144v-1157q0 -287 -189 -350
q139 -65 139 -205zM432 602v-123l-414 -57v123l107 14q-70 44 -70 129q0 73 51.5 123.5t126.5 50.5q69 0 114 -42t52 -115l-94 -13q-24 47 -78 47q-33 0 -54 -18t-21 -49q0 -44 42 -71t99 -19z" />
    <glyph glyph-name="uniFEE7FE8A" unicode="&#xfee7;&#xfe8a;" horiz-adv-x="1658" 
d="M1507 1038q0 -44 -30 -74t-74 -30t-74.5 30t-30.5 74t30.5 74.5t74.5 30.5t74 -30.5t30 -74.5zM492 602v-123l-414 -57v123l106 14q-69 43 -69 129q0 73 51.5 123.5t126.5 50.5q69 0 114 -42t52 -115l-94 -13q-24 47 -78 47q-33 0 -54.5 -18t-21.5 -49q0 -44 42 -71
t99 -19zM1487 -129q0 -140 -187.5 -242t-486.5 -102q-690 0 -690 496q0 111 33 280h143q-33 -169 -33 -250q0 -181 133.5 -271.5t413.5 -90.5q249 0 389.5 58.5t140.5 158.5q0 47 -43 96q-42 51 -157 51h-223v164h225q143 0 195.5 48.5t52.5 158.5q0 132 -35 369h149
q29 -214 29 -369q0 -287 -188 -350q139 -65 139 -205z" />
    <glyph glyph-name="uniFEEBFE8A" unicode="&#xfeeb;&#xfe8a;" horiz-adv-x="2439" 
d="M1468 -145q0 -66 -40 -123.5t-121 -104t-218.5 -73.5t-316.5 -27q-320 0 -484.5 127t-164.5 369q0 111 33 280h143q-33 -169 -33 -250q0 -179 127.5 -270.5t378.5 -91.5q309 0 430 53t121 123q0 62 -61 97.5t-181 35.5h-18v164h10q161 0 334 18q-117 133 -117 299
q0 114 62 207.5t157 132.5v140l289 -95q323 -105 445 -215q124 -109 124 -284q0 -179 -123 -282t-346 -103q-187 0 -339 81q-90 -23 -181 -34q90 -70 90 -174zM432 602v-123l-414 -57v123l107 14q-70 44 -70 129q0 73 51.5 123.5t126.5 50.5q69 0 114 -42t52 -115l-94 -13
q-24 47 -78 47q-33 0 -54 -18t-21 -49q0 -44 42 -71t99 -19zM1434 481q0 -76 42 -145t119 -113q244 76 244 258q0 94 -60 156.5t-153 62.5q-84 0 -138 -62.5t-54 -156.5zM1982 481q0 -207 -194 -325q72 -11 123 -11q142 0 228.5 55.5t86.5 168.5q0 93 -63 157.5t-221 126.5
q40 -73 40 -172z" />
    <glyph glyph-name="uniFEF3FE8A" unicode="&#xfef3;&#xfe8a;" horiz-adv-x="1658" 
d="M492 602v-123l-414 -57v123l106 14q-69 43 -69 129q0 73 51.5 123.5t126.5 50.5q69 0 114 -42t52 -115l-94 -13q-24 47 -78 47q-33 0 -54.5 -18t-21.5 -49q0 -44 42 -71t99 -19zM1487 -129q0 -140 -187.5 -242t-486.5 -102q-690 0 -690 496q0 111 33 280h143
q-33 -169 -33 -250q0 -181 133.5 -271.5t413.5 -90.5q249 0 389.5 58.5t140.5 158.5q0 47 -43 96q-42 51 -157 51h-223v164h225q143 0 195.5 48.5t52.5 158.5q0 132 -35 369h149q29 -214 29 -369q0 -287 -188 -350q139 -65 139 -205zM1583 -668q0 -44 -30 -74t-74 -30
t-74.5 30t-30.5 74t30.5 74.5t74.5 30.5t74 -30.5t30 -74.5zM1313 -668q0 -44 -30.5 -74t-74.5 -30t-74 30t-30 74t30 74.5t74 30.5t74.5 -30.5t30.5 -74.5z" />
    <glyph glyph-name="uniFB58FE8A" unicode="&#xfb58;&#xfe8a;" horiz-adv-x="1658" 
d="M492 602v-123l-414 -57v123l106 14q-69 43 -69 129q0 73 51.5 123.5t126.5 50.5q69 0 114 -42t52 -115l-94 -13q-24 47 -78 47q-33 0 -54.5 -18t-21.5 -49q0 -44 42 -71t99 -19zM1487 -129q0 -140 -187.5 -242t-486.5 -102q-690 0 -690 496q0 111 33 280h143
q-33 -169 -33 -250q0 -181 133.5 -271.5t413.5 -90.5q249 0 389.5 58.5t140.5 158.5q0 47 -43 96q-42 51 -157 51h-223v164h225q143 0 195.5 48.5t52.5 158.5q0 132 -35 369h149q29 -214 29 -369q0 -287 -188 -350q139 -65 139 -205zM1581 -668q0 -44 -30 -74t-74 -30
t-74.5 30t-30.5 74t30.5 74.5t74.5 30.5t74 -30.5t30 -74.5zM1311 -668q0 -44 -30.5 -74t-74.5 -30t-74 30t-30 74t30 74.5t74 30.5t74.5 -30.5t30.5 -74.5zM1444 -918q0 -44 -30.5 -74t-74.5 -30t-74 30t-30 74t30 74.5t74 30.5t74.5 -30.5t30.5 -74.5z" />
    <glyph glyph-name="uniFB7CFE8A" unicode="&#xfb7c;&#xfe8a;" horiz-adv-x="2052" 
d="M426 602v-123l-414 -57v123l107 14q-70 44 -70 129q0 73 51.5 123.5t126.5 50.5q69 0 114 -42t52 -115l-94 -13q-24 47 -78 47q-33 0 -54.5 -18t-21.5 -49q0 -44 42.5 -71t99.5 -19zM1466 -92q0 -173 -182.5 -277t-490.5 -104q-670 0 -670 496q0 111 33 280h143
q-33 -169 -33 -250q0 -181 129 -271.5t398 -90.5q249 0 389.5 58.5t140.5 158.5q0 48 -45 96q-42 51 -166 51h-213v164l367 123q23 7 82.5 27t95.5 31.5t89.5 26.5t98.5 24q-58 19 -145 57l-205 90q-122 53 -192 53q-47 0 -76 -27t-37 -75h-143q8 125 75.5 195.5t182.5 70.5
q99 0 260 -70l182 -79q163 -70 242 -93.5t159 -23.5h80v-154h-47q-66 0 -164.5 -22.5t-158.5 -41.5t-186.5 -65t-141.5 -51l-117 -41q130 -22 198 -97t68 -169zM1989 -186q0 -44 -30.5 -74.5t-74.5 -30.5t-74 30.5t-30 74.5t30 74t74 30t74.5 -30t30.5 -74zM1718 -186
q0 -44 -30 -74.5t-74 -30.5t-74.5 30.5t-30.5 74.5t30.5 74t74.5 30t74 -30t30 -74zM1851 -436q0 -44 -30 -74.5t-74 -30.5t-74.5 30.5t-30.5 74.5t30.5 74t74.5 30t74 -30t30 -74z" />
    <glyph glyph-name="uniFB6CFE8A" unicode="&#xfb6c;&#xfe8a;" horiz-adv-x="1597" 
d="M1200 1616q0 -44 -30 -74.5t-74 -30.5t-74.5 30.5t-30.5 74.5t30.5 74t74.5 30t74 -30t30 -74zM1063 1366q0 -44 -30.5 -74t-74.5 -30t-74 30t-30 74t30 74t74 30t74.5 -30t30.5 -74zM1333 1366q0 -44 -30 -74t-74 -30t-74.5 30t-30.5 74t30.5 74t74.5 30t74 -30t30 -74z
M1425 -150q0 -132 -170.5 -227.5t-441.5 -95.5q-690 0 -690 496q0 111 33 280h143q-33 -169 -33 -250q0 -181 133.5 -271.5t413.5 -90.5q221 0 345 52t124 144q0 60 -52.5 93.5t-144.5 33.5h-227v164h227q142 0 201.5 44t71.5 165q-99 -27 -219 -27q-191 0 -305.5 94.5
t-114.5 258.5q0 107 50.5 201.5t137.5 151t187 56.5q192 0 301.5 -162.5t109.5 -449.5q0 -204 -50 -313.5t-165 -147.5q135 -60 135 -199zM864 713q0 -97 75.5 -143t201.5 -46q118 0 219 29q-7 191 -78 298t-188 107q-98 0 -164 -70.5t-66 -174.5zM430 602v-123l-414 -57
v123l107 14q-70 44 -70 129q0 73 51.5 123.5t126.5 50.5q69 0 114 -42t52 -115l-94 -13q-24 47 -78 47q-33 0 -54 -18t-21 -49q0 -44 42 -71t99 -19z" />
    <glyph glyph-name="uniFB94FE8A" unicode="&#xfb94;&#xfe8a;" horiz-adv-x="1589" 
d="M1561 1847l-2 -127l-854 -501v127zM1466 -104q0 -157 -180 -263t-473 -106q-345 0 -512 124.5t-178 371.5q-2 100 33 280h143q-33 -169 -33 -250q0 -181 133.5 -271.5t413.5 -90.5q241 0 375.5 59.5t134.5 165.5q0 64 -44.5 101.5t-125.5 37.5h-254v164h221
q77 0 118.5 35.5t41.5 97.5q0 56 -47 115q-46 58 -168 162l-360 307v139l856 502l-2 -188l-682 -390l274 -233q150 -127 211 -222.5t61 -191.5q0 -80 -34.5 -143.5t-100.5 -99.5q82 -23 130 -82.5t48 -130.5zM432 602v-123l-414 -57v123l107 14q-70 44 -70 129
q0 73 51.5 123.5t126.5 50.5q69 0 114 -42t52 -115l-94 -13q-24 47 -78 47q-33 0 -54 -18t-21 -49q0 -44 42 -71t99 -19z" />
    <glyph glyph-name="uniFE8BFE8A" unicode="&#xfe8b;&#xfe8a;" horiz-adv-x="1658" 
d="M1602 1094v-123l-414 -58v123l106 15q-69 43 -69 129q0 73 51.5 123.5t126.5 50.5q69 0 114 -42.5t52 -115.5l-94 -12q-24 47 -78 47q-33 0 -54.5 -18.5t-21.5 -49.5q0 -44 42 -71t99 -19zM1487 -129q0 -140 -187.5 -242t-486.5 -102q-690 0 -690 496q0 111 33 280h143
q-33 -169 -33 -250q0 -181 133.5 -271.5t413.5 -90.5q249 0 389.5 58.5t140.5 158.5q0 47 -43 96q-42 51 -157 51h-223v164h225q143 0 195.5 48.5t52.5 158.5q0 132 -35 369h149q29 -214 29 -369q0 -287 -188 -350q139 -65 139 -205zM1053 -741q0 -44 -30.5 -74.5
t-74.5 -30.5t-74 30.5t-30 74.5t30 74t74 30t74.5 -30t30.5 -74zM782 -741q0 -44 -30 -74.5t-74 -30.5t-74.5 30.5t-30.5 74.5t30.5 74t74.5 30t74 -30t30 -74z" />
    <glyph glyph-name="uniFE91FBFD" unicode="&#xfe91;&#xfbfd;" horiz-adv-x="1658" 
d="M1487 -129q0 -140 -187.5 -242t-486.5 -102q-690 0 -690 496q0 111 33 280h143q-33 -169 -33 -250q0 -181 133.5 -271.5t413.5 -90.5q249 0 389.5 58.5t140.5 158.5q0 47 -43 96q-42 51 -157 51h-223v164h225q143 0 195.5 48.5t52.5 158.5q0 132 -35 369h149
q29 -214 29 -369q0 -287 -188 -350q139 -65 139 -205zM1448 -668q0 -44 -30.5 -74t-74.5 -30t-74 30t-30 74t30 74.5t74 30.5t74.5 -30.5t30.5 -74.5z" />
    <glyph glyph-name="uniFE97FBFD" unicode="&#xfe97;&#xfbfd;" horiz-adv-x="1658" 
d="M1642 1038q0 -44 -30 -74t-74 -30t-74 30t-30 74t30 74.5t74 30.5t74 -30.5t30 -74.5zM1372 1038q0 -44 -30 -74t-74 -30t-74.5 30t-30.5 74t30.5 74.5t74.5 30.5t74 -30.5t30 -74.5zM1487 -129q0 -140 -187.5 -242t-486.5 -102q-690 0 -690 496q0 111 33 280h143
q-33 -169 -33 -250q0 -181 133.5 -271.5t413.5 -90.5q249 0 389.5 58.5t140.5 158.5q0 47 -43 96q-42 51 -157 51h-223v164h225q143 0 195.5 48.5t52.5 158.5q0 132 -35 369h149q29 -214 29 -369q0 -287 -188 -350q139 -65 139 -205z" />
    <glyph glyph-name="uniFE9BFBFD" unicode="&#xfe9b;&#xfbfd;" horiz-adv-x="1658" 
d="M1509 1288q0 -44 -30 -74t-74 -30t-74.5 30t-30.5 74t30.5 74.5t74.5 30.5t74 -30.5t30 -74.5zM1372 1038q0 -44 -30 -74t-74 -30t-74.5 30t-30.5 74t30.5 74.5t74.5 30.5t74 -30.5t30 -74.5zM1642 1038q0 -44 -30 -74t-74 -30t-74 30t-30 74t30 74.5t74 30.5t74 -30.5
t30 -74.5zM1487 -129q0 -140 -187.5 -242t-486.5 -102q-690 0 -690 496q0 111 33 280h143q-33 -169 -33 -250q0 -181 133.5 -271.5t413.5 -90.5q249 0 389.5 58.5t140.5 158.5q0 47 -43 96q-42 51 -157 51h-223v164h225q143 0 195.5 48.5t52.5 158.5q0 132 -35 369h149
q29 -214 29 -369q0 -287 -188 -350q139 -65 139 -205z" />
    <glyph glyph-name="uniFE9FFBFD" unicode="&#xfe9f;&#xfbfd;" horiz-adv-x="2052" 
d="M1466 -92q0 -173 -182.5 -277t-490.5 -104q-670 0 -670 496q0 111 33 280h143q-33 -169 -33 -250q0 -181 129 -271.5t398 -90.5q249 0 389.5 58.5t140.5 158.5q0 48 -45 96q-42 51 -166 51h-213v164l367 123q23 7 82.5 27t95.5 31.5t89.5 26.5t98.5 24q-58 19 -145 57
l-205 90q-122 53 -192 53q-47 0 -76 -27t-37 -75h-143q8 125 75.5 195.5t182.5 70.5q99 0 260 -70l182 -79q163 -70 242 -93.5t159 -23.5h80v-154h-47q-66 0 -164.5 -22.5t-158.5 -41.5t-186.5 -65t-141.5 -51l-117 -41q130 -22 198 -97t68 -169zM1855 -186q0 -44 -30 -74.5
t-74 -30.5t-74 30.5t-30 74.5t30 74t74 30t74 -30t30 -74z" />
    <glyph glyph-name="uniFEA3FBFD" unicode="&#xfea3;&#xfbfd;" horiz-adv-x="2011" 
d="M1425 -92q0 -172 -172 -277q-171 -104 -460 -104q-670 0 -670 496q0 111 33 280h143q-33 -169 -33 -250q0 -181 129 -271.5t398 -90.5q230 0 359.5 58t129.5 159q0 48 -45 96q-42 51 -166 51h-213v164l367 123q23 7 82.5 27t95.5 31.5t89.5 26.5t98.5 24q-58 19 -145 57
l-205 90q-122 53 -192 53q-47 0 -76 -27t-37 -75h-143q8 125 75.5 195.5t182.5 70.5q99 0 260 -70l182 -79q163 -70 242 -93.5t159 -23.5h80v-154h-47q-66 0 -164.5 -22.5t-158.5 -41.5t-186.5 -65t-141.5 -51l-117 -41q130 -22 198 -97t68 -169z" />
    <glyph glyph-name="uniFEA7FBFD" unicode="&#xfea7;&#xfbfd;" horiz-adv-x="2052" 
d="M1307 1059q0 -44 -30.5 -74.5t-74.5 -30.5t-74 30.5t-30 74.5t30 74t74 30t74.5 -30t30.5 -74zM1466 -92q0 -173 -182.5 -277t-490.5 -104q-670 0 -670 496q0 111 33 280h143q-33 -169 -33 -250q0 -181 129 -271.5t398 -90.5q249 0 389.5 58.5t140.5 158.5q0 48 -45 96
q-42 51 -166 51h-213v164l367 123q23 7 82.5 27t95.5 31.5t89.5 26.5t98.5 24q-58 19 -145 57l-205 90q-122 53 -192 53q-47 0 -76 -27t-37 -75h-143q8 125 75.5 195.5t182.5 70.5q99 0 260 -70l182 -79q163 -70 242 -93.5t159 -23.5h80v-154h-47q-66 0 -164.5 -22.5
t-158.5 -41.5t-186.5 -65t-141.5 -51l-117 -41q130 -22 198 -97t68 -169z" />
    <glyph glyph-name="uniFEB3FBFD" unicode="&#xfeb3;&#xfbfd;" horiz-adv-x="2744" 
d="M1376 -76q0 -113 -92 -205t-239.5 -142t-313.5 -50q-294 0 -451 127.5t-157 368.5q0 111 33 280h143q-33 -169 -33 -250q0 -173 129 -267.5t336 -94.5q115 0 228 26t193.5 79t80.5 120q0 70 -121 100l-184 47q-121 28 -172 82.5t-51 143.5q0 106 70.5 206t176 159
t209.5 59q129 0 207.5 -72t147.5 -238l38 -94q35 -84 79 -124t118 -40q101 0 157 68t56 205v90h143v-109q0 -124 52.5 -189t132.5 -65q92 0 139 56t47 186q0 114 -22 264h151q14 -137 14 -264q0 -203 -86 -304t-243 -101q-107 0 -186 57t-105 158q-19 -110 -83 -162.5
t-177 -52.5q-139 0 -213 92q-75 97 -125 215l-39 92q-73 188 -217 188q-60 0 -131 -35.5t-121.5 -94t-50.5 -117.5q0 -75 98 -97l234 -61q100 -26 150 -88t50 -152z" />
    <glyph glyph-name="uniFEB7FBFD" unicode="&#xfeb7;&#xfbfd;" horiz-adv-x="2783" 
d="M2175 1042q0 -44 -30 -74t-74 -30t-74.5 30t-30.5 74t30.5 74.5t74.5 30.5t74 -30.5t30 -74.5zM2038 793q0 -44 -30.5 -74.5t-74.5 -30.5t-74 30.5t-30 74.5t30 74t74 30t74.5 -30t30.5 -74zM2308 793q0 -44 -30 -74.5t-74 -30.5t-74.5 30.5t-30.5 74.5t30.5 74t74.5 30
t74 -30t30 -74zM1438 -68q0 -114 -90 -207t-247 -145.5t-349 -52.5q-321 0 -475 121.5t-154 374.5q0 148 33 280h143q-33 -132 -33 -250q0 -185 118 -273.5t368 -88.5q152 0 276.5 31t195 85.5t70.5 122.5q0 57 -39.5 88.5t-134.5 44.5l-260 39q-130 20 -196 86.5t-66 161.5
q0 108 73 209t192.5 163t248.5 62q164 0 264.5 -84.5t173.5 -277.5l35 -92q40 -109 82 -148q40 -37 123 -37q101 0 157 68t56 205v90h143v-109q0 -124 52.5 -189t132.5 -65q92 0 139 56t47 186q0 107 -23 264h152q14 -137 14 -264q0 -203 -86 -304t-243 -101q-107 0 -186 57
t-105 158q-19 -110 -83 -162.5t-177 -52.5q-132 0 -203 65q-68 63 -143 262l-35 92q-42 118 -117.5 169t-183.5 51q-137 0 -247 -74.5t-110 -167.5q0 -49 38.5 -76t121.5 -41l285 -45q252 -42 252 -285z" />
    <glyph glyph-name="uniFEBBFBFD" unicode="&#xfebb;&#xfbfd;" horiz-adv-x="2787" 
d="M1376 -76q0 -113 -92 -205t-239.5 -142t-313.5 -50q-294 0 -451 127.5t-157 368.5q0 111 33 280h143q-33 -169 -33 -250q0 -173 129 -267.5t336 -94.5q115 0 228 26t193.5 79t80.5 120q0 70 -121 100l-184 47q-121 28 -172 82.5t-51 143.5q0 106 70.5 206t176 159
t209.5 59q131 0 212 -67.5t145 -223.5l45 -109q21 -46 26 -55q123 254 313.5 405.5t407.5 151.5q79 0 145 -21.5t111.5 -58.5t77.5 -86t46.5 -103t14.5 -112q0 -222 -178.5 -328t-552.5 -106q-139 0 -232 15.5t-156.5 53.5t-101.5 88.5t-73 133.5l-45 108q-38 92 -86.5 131
t-122.5 39q-64 0 -137 -35.5t-124.5 -94t-51.5 -117.5q0 -75 98 -97l234 -61q100 -26 150 -88t50 -152zM2300 649q-183 0 -342 -129q-160 -132 -266 -334q77 -22 323 -22q282 0 414.5 65.5t132.5 204.5q0 38 -15 74.5t-45 68.5t-82.5 52t-119.5 20z" />
    <glyph glyph-name="uniFEBFFBFD" unicode="&#xfebf;&#xfbfd;" horiz-adv-x="2813" 
d="M2339 1059q0 -44 -30.5 -74.5t-74.5 -30.5t-74 30.5t-30 74.5t30 74t74 30t74.5 -30t30.5 -74zM1438 -68q0 -114 -90 -207t-247 -145.5t-349 -52.5q-321 0 -475 121.5t-154 374.5q0 148 33 280h143q-33 -132 -33 -250q0 -185 118 -273.5t368 -88.5q152 0 276.5 31
t195 85.5t70.5 122.5q0 57 -39.5 88.5t-134.5 44.5l-260 39q-130 20 -196 86.5t-66 161.5q0 108 73 209t192.5 163t248.5 62q166 0 260 -88q96 -90 174 -274l39 -92q4 -11 35 -66q123 252 312 401.5t405 149.5q79 0 145 -21.5t111.5 -58.5t77.5 -86t46.5 -103t14.5 -112
q0 -229 -178.5 -339.5t-552.5 -110.5q-132 0 -217.5 14t-152 52.5t-110.5 98.5t-87 160l-39 92q-50 119 -121 169.5t-176 50.5q-137 0 -247 -74.5t-110 -167.5q0 -49 38.5 -76t121.5 -41l285 -45q252 -42 252 -285zM2327 649q-183 0 -342 -129q-162 -134 -267 -334
q98 -39 324 -39q281 0 414 69.5t133 217.5q0 38 -15 74.5t-45 68.5t-82.5 52t-119.5 20z" />
    <glyph glyph-name="uniFECBFBFD" unicode="&#xfecb;&#xfbfd;" horiz-adv-x="2154" 
d="M1468 -145q0 -66 -40 -123.5t-121 -104t-218.5 -73.5t-316.5 -27q-320 0 -484.5 127t-164.5 369q0 111 33 280h143q-33 -169 -33 -250q0 -179 127.5 -270.5t378.5 -91.5q309 0 430 53t121 123q0 61 -58.5 97t-162.5 36h-39v164l344 37q-92 58 -144.5 152t-52.5 208
q0 182 117.5 303t292.5 121q168 0 272 -94.5t117 -259.5h-143q-20 88 -86 139t-160 51q-123 0 -194.5 -71t-71.5 -199q0 -131 104 -213q107 -82 264 -82q86 0 254 20l97 13v-158l-707 -92q102 -76 102 -184z" />
    <glyph glyph-name="uniFECFFBFD" unicode="&#xfecf;&#xfbfd;" horiz-adv-x="2154" 
d="M1724 1202q0 -44 -30 -74t-74 -30t-74 30t-30 74t30 74.5t74 30.5t74 -30.5t30 -74.5zM1468 -145q0 -66 -40 -123.5t-121 -104t-218.5 -73.5t-316.5 -27q-320 0 -484.5 127t-164.5 369q0 111 33 280h143q-33 -169 -33 -250q0 -179 127.5 -270.5t378.5 -91.5q309 0 430 53
t121 123q0 61 -58.5 97t-162.5 36h-39v164l344 37q-92 58 -144.5 152t-52.5 208q0 182 117.5 303t292.5 121q168 0 272 -94.5t117 -259.5h-143q-20 88 -86 139t-160 51q-123 0 -194.5 -71t-71.5 -199q0 -131 104 -213q107 -82 264 -82q86 0 254 20l97 13v-158l-707 -92
q102 -76 102 -184z" />
    <glyph glyph-name="uniFED3FBFD" unicode="&#xfed3;&#xfbfd;" horiz-adv-x="1597" 
d="M1198 1366q0 -44 -30 -74t-74 -30t-74.5 30t-30.5 74t30.5 74t74.5 30t74 -30t30 -74zM1425 -150q0 -132 -170.5 -227.5t-441.5 -95.5q-690 0 -690 496q0 111 33 280h143q-33 -169 -33 -250q0 -181 133.5 -271.5t413.5 -90.5q221 0 345 52t124 144q0 60 -52.5 93.5
t-144.5 33.5h-227v164h227q142 0 201.5 44t71.5 165q-99 -27 -219 -27q-191 0 -305.5 94.5t-114.5 258.5q0 107 50.5 201.5t137.5 151t187 56.5q192 0 301.5 -162.5t109.5 -449.5q0 -204 -50 -313.5t-165 -147.5q135 -60 135 -199zM864 713q0 -97 75.5 -143t201.5 -46
q118 0 219 29q-7 191 -78 298t-188 107q-98 0 -164 -70.5t-66 -174.5z" />
    <glyph glyph-name="uniFED7FBFD" unicode="&#xfed7;&#xfbfd;" horiz-adv-x="1597" 
d="M1333 1366q0 -44 -30 -74t-74 -30t-74.5 30t-30.5 74t30.5 74t74.5 30t74 -30t30 -74zM1063 1366q0 -44 -30.5 -74t-74.5 -30t-74 30t-30 74t30 74t74 30t74.5 -30t30.5 -74zM1425 -150q0 -132 -170.5 -227.5t-441.5 -95.5q-690 0 -690 496q0 111 33 280h143
q-33 -169 -33 -250q0 -181 133.5 -271.5t413.5 -90.5q221 0 345 52t124 144q0 60 -52.5 93.5t-144.5 33.5h-227v164h227q142 0 201.5 44t71.5 165q-99 -27 -219 -27q-191 0 -305.5 94.5t-114.5 258.5q0 107 50.5 201.5t137.5 151t187 56.5q192 0 301.5 -162.5t109.5 -449.5
q0 -204 -50 -313.5t-165 -147.5q135 -60 135 -199zM864 713q0 -97 75.5 -143t201.5 -46q118 0 219 29q-7 191 -78 298t-188 107q-98 0 -164 -70.5t-66 -174.5z" />
    <glyph glyph-name="uniFEDFFBFD" unicode="&#xfedf;&#xfbfd;" horiz-adv-x="1638" 
d="M1425 -129q0 -140 -170.5 -242t-441.5 -102q-690 0 -690 496q0 111 33 280h143q-33 -169 -33 -250q0 -181 133.5 -271.5t413.5 -90.5q220 0 344.5 58.5t124.5 158.5q0 47 -49 96q-45 51 -152 51h-223v164h225q143 0 195.5 48.5t52.5 158.5v1157h144v-1157
q0 -287 -189 -350q139 -65 139 -205z" />
    <glyph glyph-name="uniFEE7FBFD" unicode="&#xfee7;&#xfbfd;" horiz-adv-x="1658" 
d="M1507 1038q0 -44 -30 -74t-74 -30t-74.5 30t-30.5 74t30.5 74.5t74.5 30.5t74 -30.5t30 -74.5zM1487 -129q0 -140 -187.5 -242t-486.5 -102q-690 0 -690 496q0 111 33 280h143q-33 -169 -33 -250q0 -181 133.5 -271.5t413.5 -90.5q249 0 389.5 58.5t140.5 158.5
q0 47 -43 96q-42 51 -157 51h-223v164h225q143 0 195.5 48.5t52.5 158.5q0 132 -35 369h149q29 -214 29 -369q0 -287 -188 -350q139 -65 139 -205z" />
    <glyph glyph-name="uniFEEBFBFD" unicode="&#xfeeb;&#xfbfd;" horiz-adv-x="2439" 
d="M1468 -145q0 -66 -40 -123.5t-121 -104t-218.5 -73.5t-316.5 -27q-320 0 -484.5 127t-164.5 369q0 111 33 280h143q-33 -169 -33 -250q0 -179 127.5 -270.5t378.5 -91.5q309 0 430 53t121 123q0 62 -61 97.5t-181 35.5h-18v164h10q161 0 334 18q-117 133 -117 299
q0 114 62 207.5t157 132.5v140l289 -95q323 -105 445 -215q124 -109 124 -284q0 -179 -123 -282t-346 -103q-187 0 -339 81q-90 -23 -181 -34q90 -70 90 -174zM1434 481q0 -76 42 -145t119 -113q244 76 244 258q0 94 -60 156.5t-153 62.5q-84 0 -138 -62.5t-54 -156.5z
M1982 481q0 -207 -194 -325q72 -11 123 -11q142 0 228.5 55.5t86.5 168.5q0 93 -63 157.5t-221 126.5q40 -73 40 -172z" />
    <glyph glyph-name="uniFEF3FBFD" unicode="&#xfef3;&#xfbfd;" horiz-adv-x="1658" 
d="M1487 -129q0 -140 -187.5 -242t-486.5 -102q-690 0 -690 496q0 111 33 280h143q-33 -169 -33 -250q0 -181 133.5 -271.5t413.5 -90.5q249 0 389.5 58.5t140.5 158.5q0 47 -43 96q-42 51 -157 51h-223v164h225q143 0 195.5 48.5t52.5 158.5q0 132 -35 369h149
q29 -214 29 -369q0 -287 -188 -350q139 -65 139 -205zM1583 -668q0 -44 -30 -74t-74 -30t-74.5 30t-30.5 74t30.5 74.5t74.5 30.5t74 -30.5t30 -74.5zM1313 -668q0 -44 -30.5 -74t-74.5 -30t-74 30t-30 74t30 74.5t74 30.5t74.5 -30.5t30.5 -74.5z" />
    <glyph glyph-name="uniFB58FBFD" unicode="&#xfb58;&#xfbfd;" horiz-adv-x="1658" 
d="M1487 -129q0 -140 -187.5 -242t-486.5 -102q-690 0 -690 496q0 111 33 280h143q-33 -169 -33 -250q0 -181 133.5 -271.5t413.5 -90.5q249 0 389.5 58.5t140.5 158.5q0 47 -43 96q-42 51 -157 51h-223v164h225q143 0 195.5 48.5t52.5 158.5q0 132 -35 369h149
q29 -214 29 -369q0 -287 -188 -350q139 -65 139 -205zM1581 -668q0 -44 -30 -74t-74 -30t-74.5 30t-30.5 74t30.5 74.5t74.5 30.5t74 -30.5t30 -74.5zM1311 -668q0 -44 -30.5 -74t-74.5 -30t-74 30t-30 74t30 74.5t74 30.5t74.5 -30.5t30.5 -74.5zM1444 -918
q0 -44 -30.5 -74t-74.5 -30t-74 30t-30 74t30 74.5t74 30.5t74.5 -30.5t30.5 -74.5z" />
    <glyph glyph-name="uniFB90FBFD" unicode="&#xfb90;&#xfbfd;" horiz-adv-x="1548" 
d="M1427 -104q0 -157 -169 -263t-443 -106q-345 0 -512 124.5t-178 371.5q-2 100 33 280h143q-33 -169 -33 -250q0 -181 133.5 -271.5t413.5 -90.5q221 0 345 59.5t124 165.5q0 64 -44.5 101.5t-125.5 37.5h-254v164h221q77 0 118.5 35.5t41.5 97.5q0 56 -47 115
q-46 58 -168 162l-360 307v139l856 502l-2 -188l-682 -390l274 -233q150 -127 211 -222.5t61 -191.5q0 -80 -34.5 -143.5t-100.5 -99.5q82 -23 130 -82.5t48 -130.5z" />
    <glyph glyph-name="uniFB94FBFD" unicode="&#xfb94;&#xfbfd;" horiz-adv-x="1589" 
d="M1563 1847l-2 -127l-854 -501v127zM1468 -104q0 -157 -180 -263t-473 -106q-345 0 -512 124.5t-178 371.5q-2 100 33 280h143q-33 -169 -33 -250q0 -181 133.5 -271.5t413.5 -90.5q241 0 375.5 59.5t134.5 165.5q0 64 -44.5 101.5t-125.5 37.5h-254v164h221
q77 0 118.5 35.5t41.5 97.5q0 56 -47 115q-46 58 -168 162l-360 307v139l856 502l-2 -188l-682 -390l274 -233q150 -127 211 -222.5t61 -191.5q0 -80 -34.5 -143.5t-100.5 -99.5q82 -23 130 -82.5t48 -130.5z" />
    <glyph glyph-name="uniFE8BFBFD" unicode="&#xfe8b;&#xfbfd;" horiz-adv-x="1658" 
d="M1602 1094v-123l-414 -58v123l106 15q-69 43 -69 129q0 73 51.5 123.5t126.5 50.5q69 0 114 -42.5t52 -115.5l-94 -12q-24 47 -78 47q-33 0 -54.5 -18.5t-21.5 -49.5q0 -44 42 -71t99 -19zM1487 -129q0 -140 -187.5 -242t-486.5 -102q-690 0 -690 496q0 111 33 280h143
q-33 -169 -33 -250q0 -181 133.5 -271.5t413.5 -90.5q249 0 389.5 58.5t140.5 158.5q0 47 -43 96q-42 51 -157 51h-223v164h225q143 0 195.5 48.5t52.5 158.5q0 132 -35 369h149q29 -214 29 -369q0 -287 -188 -350q139 -65 139 -205z" />
    <glyph glyph-name="uniFEB3FEB0" unicode="&#xfeb3;&#xfeb0;" horiz-adv-x="2158" 
d="M434 823q0 -44 -30 -74t-74 -30t-74.5 30t-30.5 74t30.5 74.5t74.5 30.5t74 -30.5t30 -74.5zM477 141q0 -314 -113 -464t-348 -150q-74 0 -180 16v164q94 -16 170 -16q168 0 248 109.5t80 340.5q0 68 -15 207l-28 232l639 71l33 -272q13 -128 64 -181t157 -53
q89 0 141.5 64t52.5 190v109h144v-109q0 -124 52 -189t132 -65q92 0 139 56t47 186q0 100 -24 264h151q17 -163 17 -264q0 -203 -86 -304t-244 -101q-106 0 -184.5 55t-104.5 153q-17 -106 -78.5 -157t-175.5 -51q-167 0 -245 84t-99 292l-12 113l-352 -39l8 -67
q14 -118 14 -224z" />
    <glyph glyph-name="uniFEB7FEB0" unicode="&#xfeb7;&#xfeb0;" horiz-adv-x="2158" 
d="M1554 1001q0 -44 -30 -74t-74 -30t-74 30t-30 74t30 74.5t74 30.5t74 -30.5t30 -74.5zM434 823q0 -44 -30 -74t-74 -30t-74.5 30t-30.5 74t30.5 74.5t74.5 30.5t74 -30.5t30 -74.5zM1417 752q0 -44 -30 -74.5t-74 -30.5t-74.5 30.5t-30.5 74.5t30.5 74t74.5 30t74 -30
t30 -74zM1688 752q0 -44 -30.5 -74.5t-74.5 -30.5t-74 30.5t-30 74.5t30 74t74 30t74.5 -30t30.5 -74zM477 141q0 -314 -113 -464t-348 -150q-74 0 -180 16v164q94 -16 170 -16q168 0 248 109.5t80 340.5q0 68 -15 207l-28 232l639 71l33 -272q13 -128 64 -181t157 -53
q89 0 141.5 64t52.5 190v109h144v-109q0 -124 52 -189t132 -65q92 0 139 56t47 186q0 100 -24 264h151q17 -163 17 -264q0 -203 -86 -304t-244 -101q-106 0 -184.5 55t-104.5 153q-17 -106 -78.5 -157t-175.5 -51q-167 0 -245 84t-99 292l-12 113l-352 -39l8 -67
q14 -118 14 -224z" />
    <glyph glyph-name="uniFEBBFEB0" unicode="&#xfebb;&#xfeb0;" horiz-adv-x="2283" 
d="M438 895q0 -44 -30 -74t-74 -30t-74.5 30t-30.5 74t30.5 74t74.5 30t74 -30t30 -74zM477 141q0 -314 -113 -464t-348 -150q-74 0 -180 16v164q94 -16 170 -16q168 0 248 109.5t80 340.5q0 68 -15 207l-36 303l639 72l41 -344q15 -132 96 -180q122 279 319.5 447.5
t427.5 168.5q98 0 176 -32.5t124.5 -87.5t71 -121.5t24.5 -139.5q0 -452 -834 -452q-281 0 -403 79q-122 84 -146 297l-20 187l-353 -39l17 -141q14 -147 14 -224zM1796 649q-188 0 -350 -137q-161 -133 -270 -352q89 -15 233 -15q649 0 649 289q0 38 -15 74.5t-45 68.5
t-82.5 52t-119.5 20z" />
    <glyph glyph-name="uniFEBFFEB0" unicode="&#xfebf;&#xfeb0;" horiz-adv-x="2283" 
d="M1849 1059q0 -44 -30 -74.5t-74 -30.5t-74.5 30.5t-30.5 74.5t30.5 74t74.5 30t74 -30t30 -74zM438 895q0 -44 -30 -74t-74 -30t-74.5 30t-30.5 74t30.5 74t74.5 30t74 -30t30 -74zM477 141q0 -314 -113 -464t-348 -150q-74 0 -180 16v164q94 -16 170 -16
q168 0 248 109.5t80 340.5q0 68 -15 207l-36 303l639 72l41 -344q15 -132 96 -180q122 279 319.5 447.5t427.5 168.5q98 0 176 -32.5t124.5 -87.5t71 -121.5t24.5 -139.5q0 -452 -834 -452q-281 0 -403 79q-122 84 -146 297l-20 187l-353 -39l17 -141q14 -147 14 -224z
M1796 649q-188 0 -350 -137q-161 -133 -270 -352q89 -15 233 -15q649 0 649 289q0 38 -15 74.5t-45 68.5t-82.5 52t-119.5 20z" />
    <glyph glyph-name="uniFB59FEF0" unicode="&#xfb59;&#xfef0;" horiz-adv-x="1785" 
d="M1438 -68q0 -114 -90 -207t-247 -145.5t-349 -52.5q-321 0 -475 121.5t-154 374.5q0 148 33 280h143q-33 -132 -33 -250q0 -185 118 -273.5t368 -88.5q152 0 276.5 31t195 85.5t70.5 122.5q0 57 -39.5 88.5t-134.5 44.5l-260 39q-130 20 -196 86.5t-66 161.5
q0 108 73 209t192.5 163t248.5 62q164 0 265 -88.5t177 -292.5l35 -94q36 -92 72 -116q43 -29 125 -29v-123l-41 -41q-120 0 -180 57q-62 59 -127 232l-35 92q-49 130 -123 185t-182 55q-137 0 -247 -74.5t-110 -167.5q0 -49 38.5 -76t121.5 -41l285 -45q252 -42 252 -285z
M1757 -537q0 -44 -30 -74t-74 -30t-74.5 30t-30.5 74t30.5 74.5t74.5 30.5t74 -30.5t30 -74.5zM1487 -537q0 -44 -30.5 -74t-74.5 -30t-74 30t-30 74t30 74.5t74 30.5t74.5 -30.5t30.5 -74.5zM1620 -786q0 -44 -30 -74.5t-74 -30.5t-74.5 30.5t-30.5 74.5t30.5 74t74.5 30
t74 -30t30 -74z" />
    <glyph glyph-name="uniFB7DFEF0" unicode="&#xfb7d;&#xfef0;" horiz-adv-x="2058" 
d="M1466 -92q0 -173 -182.5 -277t-490.5 -104q-670 0 -670 496q0 111 33 280h143q-33 -169 -33 -250q0 -181 129 -271.5t398 -90.5q249 0 389.5 58.5t140.5 158.5q0 48 -45 96q-42 51 -166 51h-213v164l367 123q23 7 82.5 27t95.5 31.5t89.5 26.5t98.5 24q-58 19 -145 57
l-205 90q-122 53 -192 53q-47 0 -76 -27t-37 -75h-143q8 125 75.5 195.5t182.5 70.5q99 0 260 -70l182 -79q163 -70 242 -93.5t159 -23.5h80v-154h-47q-45 0 -110 -10v-45q0 -176 200 -176v-123l-41 -41q-155 0 -229 83.5t-74 256.5v12q-82 -24 -226 -76t-171 -61l-117 -41
q130 -22 198 -97t68 -169zM1989 -186q0 -44 -30.5 -74.5t-74.5 -30.5t-74 30.5t-30 74.5t30 74t74 30t74.5 -30t30.5 -74zM1718 -186q0 -44 -30 -74.5t-74 -30.5t-74.5 30.5t-30.5 74.5t30.5 74t74.5 30t74 -30t30 -74zM1851 -436q0 -44 -30 -74.5t-74 -30.5t-74.5 30.5
t-30.5 74.5t30.5 74t74.5 30t74 -30t30 -74z" />
    <glyph glyph-name="uniFB95FEF0" unicode="&#xfb95;&#xfef0;" horiz-adv-x="1931" 
d="M2003 1853l-2 -127l-854 -501v127zM1468 -104q0 -157 -180 -263t-473 -106q-345 0 -512 124.5t-178 371.5q-2 100 33 280h143q-33 -169 -33 -250q0 -181 133.5 -271.5t413.5 -90.5q241 0 375.5 59.5t134.5 165.5q0 64 -44.5 101.5t-125.5 37.5h-254v164h352
q102 0 156.5 36t54.5 99q0 38 -13.5 74t-53.5 102l-250 412v139l856 502l-2 -180l-701 -408l328 -546q55 -91 87.5 -139t68.5 -85t69.5 -49t79.5 -12v-123l-41 -41q-169 0 -307 219l-29 47q-14 -70 -66.5 -117.5t-139.5 -64.5q56 -30 87 -80.5t31 -107.5z" />
    <glyph glyph-name="uniFEE0FB51" unicode="&#xfee0;&#xfb51;" horiz-adv-x="1214" 
d="M55 1348h-94q0 84 44 135t116 51h24q44 100 107.5 155.5t132.5 55.5q80 0 125 -45.5t45 -126.5q0 -91 -49 -142t-137 -51q-51 0 -129.5 17.5t-118.5 17.5q-66 0 -66 -67zM371 1626q-91 0 -146 -104q108 -23 144 -23q43 0 67.5 15.5t24.5 41.5q0 32 -24 51t-66 19zM395 23
l-354 -58v166l332 51l53 8l-190 1076h143l186 -1049q153 32 211 83t58 153v1130h143v-1163q0 -141 53 -198.5t184 -57.5v-123l-40 -41h-11q-256 0 -307 229q-39 -76 -147.5 -125t-313.5 -81z" />
    <glyph glyph-name="uniFB59FEE6" unicode="&#xfb59;&#xfee6;" horiz-adv-x="2019" 
d="M764 793q0 -44 -30.5 -74.5t-74.5 -30.5t-74 30.5t-30 74.5t30 74t74 30t74.5 -30t30.5 -74zM1257 166q0 -269 -149.5 -413t-417.5 -144q-272 0 -419.5 122.5t-147.5 352.5q0 118 33 301h143q-33 -183 -33 -270q0 -165 111 -253.5t313 -88.5q220 0 322 92.5t102 300.5
q0 66 -14 182l-37 303l639 72l41 -344q15 -132 69 -174q59 -41 207 -41v-123l-41 -41q-188 0 -272 78q-86 80 -107 280l-20 187l-352 -39l16 -141q14 -133 14 -199zM1837 -268q0 -44 -30 -74.5t-74 -30.5t-74.5 30.5t-30.5 74.5t30.5 74t74.5 30t74 -30t30 -74zM1567 -268
q0 -44 -30.5 -74.5t-74.5 -30.5t-74 30.5t-30 74.5t30 74t74 30t74.5 -30t30.5 -74zM1700 -518q0 -44 -30.5 -74.5t-74.5 -30.5t-74 30.5t-30 74.5t30 74t74 30t74.5 -30t30.5 -74z" />
    <glyph glyph-name="uniFBFFFEE6" unicode="&#xfbff;&#xfee6;" horiz-adv-x="2019" 
d="M764 793q0 -44 -30.5 -74.5t-74.5 -30.5t-74 30.5t-30 74.5t30 74t74 30t74.5 -30t30.5 -74zM1257 166q0 -269 -149.5 -413t-417.5 -144q-272 0 -419.5 122.5t-147.5 352.5q0 118 33 301h143q-33 -183 -33 -270q0 -165 111 -253.5t313 -88.5q220 0 322 92.5t102 300.5
q0 66 -14 182l-37 303l639 72l41 -344q15 -132 69 -174q59 -41 207 -41v-123l-41 -41q-188 0 -272 78q-86 80 -107 280l-20 187l-352 -39l16 -141q14 -133 14 -199zM1839 -268q0 -44 -30 -74.5t-74 -30.5t-74.5 30.5t-30.5 74.5t30.5 74t74.5 30t74 -30t30 -74zM1569 -268
q0 -44 -30.5 -74.5t-74.5 -30.5t-74 30.5t-30 74.5t30 74t74 30t74.5 -30t30.5 -74z" />
    <glyph glyph-name="uniFB59FEAE" unicode="&#xfb59;&#xfeae;" horiz-adv-x="1239" 
d="M477 141q0 -314 -113 -464t-348 -150q-74 0 -180 16v164q94 -16 170 -16q168 0 248 109.5t80 340.5q0 68 -15 207l-36 303l639 72l41 -344q15 -132 69 -174q59 -41 207 -41v-123l-41 -41q-188 0 -272 78q-86 80 -107 280l-20 187l-353 -39l17 -141q14 -147 14 -224z
M1096 -268q0 -44 -30.5 -74.5t-74.5 -30.5t-74 30.5t-30 74.5t30 74t74 30t74.5 -30t30.5 -74zM825 -268q0 -44 -30 -74.5t-74 -30.5t-74.5 30.5t-30.5 74.5t30.5 74t74.5 30t74 -30t30 -74zM958 -518q0 -44 -30 -74.5t-74 -30.5t-74 30.5t-30 74.5t30 74t74 30t74 -30
t30 -74z" />
    <glyph glyph-name="uniFBFFFEAE" unicode="&#xfbff;&#xfeae;" horiz-adv-x="1239" 
d="M477 141q0 -314 -113 -464t-348 -150q-74 0 -180 16v164q94 -16 170 -16q168 0 248 109.5t80 340.5q0 68 -15 207l-36 303l639 72l41 -344q15 -132 69 -174q59 -41 207 -41v-123l-41 -41q-188 0 -272 78q-86 80 -107 280l-20 187l-353 -39l17 -141q14 -147 14 -224z
M1098 -268q0 -44 -30.5 -74.5t-74.5 -30.5t-74 30.5t-30 74.5t30 74t74 30t74.5 -30t30.5 -74zM827 -268q0 -44 -30 -74.5t-74 -30.5t-74.5 30.5t-30.5 74.5t30.5 74t74.5 30t74 -30t30 -74z" />
    <glyph glyph-name="uniFB59FEF2" unicode="&#xfb59;&#xfef2;" horiz-adv-x="1785" 
d="M1438 -68q0 -114 -90 -207t-247 -145.5t-349 -52.5q-321 0 -475 121.5t-154 374.5q0 148 33 280h143q-33 -132 -33 -250q0 -185 118 -273.5t368 -88.5q152 0 276.5 31t195 85.5t70.5 122.5q0 57 -39.5 88.5t-134.5 44.5l-260 39q-130 20 -196 86.5t-66 161.5
q0 108 73 209t192.5 163t248.5 62q164 0 265 -88.5t177 -292.5l35 -94q36 -92 72 -116q43 -29 125 -29v-123l-41 -41q-120 0 -180 57q-62 59 -127 232l-35 92q-49 130 -123 185t-182 55q-137 0 -247 -74.5t-110 -167.5q0 -49 38.5 -76t121.5 -41l285 -45q252 -42 252 -285z
M1757 -537q0 -44 -30 -74t-74 -30t-74.5 30t-30.5 74t30.5 74.5t74.5 30.5t74 -30.5t30 -74.5zM1487 -537q0 -44 -30.5 -74t-74.5 -30t-74 30t-30 74t30 74.5t74 30.5t74.5 -30.5t30.5 -74.5zM991 -741q0 -44 -30 -74.5t-74 -30.5t-74.5 30.5t-30.5 74.5t30.5 74t74.5 30
t74 -30t30 -74zM721 -741q0 -44 -30.5 -74.5t-74.5 -30.5t-74 30.5t-30 74.5t30 74t74 30t74.5 -30t30.5 -74zM1620 -786q0 -44 -30 -74.5t-74 -30.5t-74.5 30.5t-30.5 74.5t30.5 74t74.5 30t74 -30t30 -74z" />
    <glyph glyph-name="uniFB7DFEF2" unicode="&#xfb7d;&#xfef2;" horiz-adv-x="2058" 
d="M1466 -92q0 -173 -182.5 -277t-490.5 -104q-670 0 -670 496q0 111 33 280h143q-33 -169 -33 -250q0 -181 129 -271.5t398 -90.5q249 0 389.5 58.5t140.5 158.5q0 48 -45 96q-42 51 -166 51h-213v164l367 123q23 7 82.5 27t95.5 31.5t89.5 26.5t98.5 24q-58 19 -145 57
l-205 90q-122 53 -192 53q-47 0 -76 -27t-37 -75h-143q8 125 75.5 195.5t182.5 70.5q99 0 260 -70l182 -79q163 -70 242 -93.5t159 -23.5h80v-154h-47q-45 0 -110 -10v-45q0 -176 200 -176v-123l-41 -41q-155 0 -229 83.5t-74 256.5v12q-82 -24 -226 -76t-171 -61l-117 -41
q130 -22 198 -97t68 -169zM1989 -186q0 -44 -30.5 -74.5t-74.5 -30.5t-74 30.5t-30 74.5t30 74t74 30t74.5 -30t30.5 -74zM1718 -186q0 -44 -30 -74.5t-74 -30.5t-74.5 30.5t-30.5 74.5t30.5 74t74.5 30t74 -30t30 -74zM1851 -436q0 -44 -30 -74.5t-74 -30.5t-74.5 30.5
t-30.5 74.5t30.5 74t74.5 30t74 -30t30 -74zM1053 -741q0 -44 -30.5 -74.5t-74.5 -30.5t-74 30.5t-30 74.5t30 74t74 30t74.5 -30t30.5 -74zM782 -741q0 -44 -30 -74.5t-74 -30.5t-74.5 30.5t-30.5 74.5t30.5 74t74.5 30t74 -30t30 -74z" />
    <glyph glyph-name="uniFB95FEF2" unicode="&#xfb95;&#xfef2;" horiz-adv-x="1931" 
d="M2003 1853l-2 -127l-854 -501v127zM1468 -104q0 -157 -180 -263t-473 -106q-345 0 -512 124.5t-178 371.5q-2 100 33 280h143q-33 -169 -33 -250q0 -181 133.5 -271.5t413.5 -90.5q241 0 375.5 59.5t134.5 165.5q0 64 -44.5 101.5t-125.5 37.5h-254v164h352
q102 0 156.5 36t54.5 99q0 38 -13.5 74t-53.5 102l-250 412v139l856 502l-2 -180l-701 -408l328 -546q55 -91 87.5 -139t68.5 -85t69.5 -49t79.5 -12v-123l-41 -41q-169 0 -307 219l-29 47q-14 -70 -66.5 -117.5t-139.5 -64.5q56 -30 87 -80.5t31 -107.5zM1055 -741
q0 -44 -30.5 -74.5t-74.5 -30.5t-74 30.5t-30 74.5t30 74t74 30t74.5 -30t30.5 -74zM784 -741q0 -44 -30 -74.5t-74 -30.5t-74.5 30.5t-30.5 74.5t30.5 74t74.5 30t74 -30t30 -74z" />
    <glyph glyph-name="uniFE92FE8A" unicode="&#xfe92;&#xfe8a;" horiz-adv-x="1785" 
d="M420 602v-123l-414 -57v123l107 14q-70 44 -70 129q0 73 51.5 123.5t126.5 50.5q69 0 114 -42t52 -115l-94 -13q-24 47 -78 47q-33 0 -54.5 -18t-21.5 -49q0 -44 42.5 -71t99.5 -19zM1438 -68q0 -114 -90 -207t-247 -145.5t-349 -52.5q-321 0 -475 121.5t-154 374.5
q0 148 33 280h143q-33 -132 -33 -250q0 -185 118 -273.5t368 -88.5q152 0 276.5 31t195 85.5t70.5 122.5q0 57 -39.5 88.5t-134.5 44.5l-260 39q-130 20 -196 86.5t-66 161.5q0 108 73 209t192.5 163t248.5 62q164 0 265 -88.5t177 -292.5l35 -94q36 -92 72 -116
q43 -29 125 -29v-123l-41 -41q-120 0 -180 57q-62 59 -127 232l-35 92q-49 130 -123 185t-182 55q-137 0 -247 -74.5t-110 -167.5q0 -49 38.5 -76t121.5 -41l285 -45q252 -42 252 -285zM1624 -537q0 -44 -30 -74t-74 -30t-74.5 30t-30.5 74t30.5 74.5t74.5 30.5t74 -30.5
t30 -74.5z" />
    <glyph glyph-name="uniFE98FE8A" unicode="&#xfe98;&#xfe8a;" horiz-adv-x="1785" 
d="M1352 1028q0 -44 -30.5 -74t-74.5 -30t-74 30t-30 74t30 74.5t74 30.5t74.5 -30.5t30.5 -74.5zM1081 1028q0 -44 -30 -74t-74 -30t-74.5 30t-30.5 74t30.5 74.5t74.5 30.5t74 -30.5t30 -74.5zM420 602v-123l-414 -57v123l107 14q-70 44 -70 129q0 73 51.5 123.5
t126.5 50.5q69 0 114 -42t52 -115l-94 -13q-24 47 -78 47q-33 0 -54.5 -18t-21.5 -49q0 -44 42.5 -71t99.5 -19zM1438 -68q0 -114 -90 -207t-247 -145.5t-349 -52.5q-321 0 -475 121.5t-154 374.5q0 148 33 280h143q-33 -132 -33 -250q0 -185 118 -273.5t368 -88.5
q152 0 276.5 31t195 85.5t70.5 122.5q0 57 -39.5 88.5t-134.5 44.5l-260 39q-130 20 -196 86.5t-66 161.5q0 108 73 209t192.5 163t248.5 62q164 0 265 -88.5t177 -292.5l35 -94q36 -92 72 -116q43 -29 125 -29v-123l-41 -41q-120 0 -180 57q-62 59 -127 232l-35 92
q-49 130 -123 185t-182 55q-137 0 -247 -74.5t-110 -167.5q0 -49 38.5 -76t121.5 -41l285 -45q252 -42 252 -285z" />
    <glyph glyph-name="uniFE9CFE8A" unicode="&#xfe9c;&#xfe8a;" horiz-adv-x="1785" 
d="M1219 1278q0 -44 -30.5 -74t-74.5 -30t-74 30t-30 74t30 74t74 30t74.5 -30t30.5 -74zM1081 1028q0 -44 -30 -74t-74 -30t-74.5 30t-30.5 74t30.5 74.5t74.5 30.5t74 -30.5t30 -74.5zM1352 1028q0 -44 -30.5 -74t-74.5 -30t-74 30t-30 74t30 74.5t74 30.5t74.5 -30.5
t30.5 -74.5zM420 602v-123l-414 -57v123l107 14q-70 44 -70 129q0 73 51.5 123.5t126.5 50.5q69 0 114 -42t52 -115l-94 -13q-24 47 -78 47q-33 0 -54.5 -18t-21.5 -49q0 -44 42.5 -71t99.5 -19zM1438 -68q0 -114 -90 -207t-247 -145.5t-349 -52.5q-321 0 -475 121.5
t-154 374.5q0 148 33 280h143q-33 -132 -33 -250q0 -185 118 -273.5t368 -88.5q152 0 276.5 31t195 85.5t70.5 122.5q0 57 -39.5 88.5t-134.5 44.5l-260 39q-130 20 -196 86.5t-66 161.5q0 108 73 209t192.5 163t248.5 62q164 0 265 -88.5t177 -292.5l35 -94q36 -92 72 -116
q43 -29 125 -29v-123l-41 -41q-120 0 -180 57q-62 59 -127 232l-35 92q-49 130 -123 185t-182 55q-137 0 -247 -74.5t-110 -167.5q0 -49 38.5 -76t121.5 -41l285 -45q252 -42 252 -285z" />
    <glyph glyph-name="uniFEA0FE8A" unicode="&#xfea0;&#xfe8a;" horiz-adv-x="2058" 
d="M426 602v-123l-414 -57v123l107 14q-70 44 -70 129q0 73 51.5 123.5t126.5 50.5q69 0 114 -42t52 -115l-94 -13q-24 47 -78 47q-33 0 -54.5 -18t-21.5 -49q0 -44 42.5 -71t99.5 -19zM1466 -92q0 -173 -182.5 -277t-490.5 -104q-670 0 -670 496q0 111 33 280h143
q-33 -169 -33 -250q0 -181 129 -271.5t398 -90.5q249 0 389.5 58.5t140.5 158.5q0 48 -45 96q-42 51 -166 51h-213v164l367 123q23 7 82.5 27t95.5 31.5t89.5 26.5t98.5 24q-58 19 -145 57l-205 90q-122 53 -192 53q-47 0 -76 -27t-37 -75h-143q8 125 75.5 195.5t182.5 70.5
q99 0 260 -70l182 -79q163 -70 242 -93.5t159 -23.5h80v-154h-47q-45 0 -110 -10v-45q0 -176 200 -176v-123l-41 -41q-155 0 -229 83.5t-74 256.5v12q-82 -24 -226 -76t-171 -61l-117 -41q130 -22 198 -97t68 -169zM1855 -186q0 -44 -30 -74.5t-74 -30.5t-74 30.5t-30 74.5
t30 74t74 30t74 -30t30 -74z" />
    <glyph glyph-name="uniFEA4FE8A" unicode="&#xfea4;&#xfe8a;" horiz-adv-x="2058" 
d="M426 602v-123l-414 -57v123l107 14q-70 44 -70 129q0 73 51.5 123.5t126.5 50.5q69 0 114 -42t52 -115l-94 -13q-24 47 -78 47q-33 0 -54.5 -18t-21.5 -49q0 -44 42.5 -71t99.5 -19zM1466 -92q0 -173 -182.5 -277t-490.5 -104q-670 0 -670 496q0 111 33 280h143
q-33 -169 -33 -250q0 -181 129 -271.5t398 -90.5q249 0 389.5 58.5t140.5 158.5q0 48 -45 96q-42 51 -166 51h-213v164l367 123q23 7 82.5 27t95.5 31.5t89.5 26.5t98.5 24q-58 19 -145 57l-205 90q-122 53 -192 53q-47 0 -76 -27t-37 -75h-143q8 125 75.5 195.5t182.5 70.5
q99 0 260 -70l182 -79q163 -70 242 -93.5t159 -23.5h80v-154h-47q-45 0 -110 -10v-45q0 -176 200 -176v-123l-41 -41q-155 0 -229 83.5t-74 256.5v12q-82 -24 -226 -76t-171 -61l-117 -41q130 -22 198 -97t68 -169z" />
    <glyph glyph-name="uniFEA8FE8A" unicode="&#xfea8;&#xfe8a;" horiz-adv-x="2058" 
d="M1307 1059q0 -44 -30.5 -74.5t-74.5 -30.5t-74 30.5t-30 74.5t30 74t74 30t74.5 -30t30.5 -74zM426 602v-123l-414 -57v123l107 14q-70 44 -70 129q0 73 51.5 123.5t126.5 50.5q69 0 114 -42t52 -115l-94 -13q-24 47 -78 47q-33 0 -54.5 -18t-21.5 -49q0 -44 42.5 -71
t99.5 -19zM1466 -92q0 -173 -182.5 -277t-490.5 -104q-670 0 -670 496q0 111 33 280h143q-33 -169 -33 -250q0 -181 129 -271.5t398 -90.5q249 0 389.5 58.5t140.5 158.5q0 48 -45 96q-42 51 -166 51h-213v164l367 123q23 7 82.5 27t95.5 31.5t89.5 26.5t98.5 24
q-58 19 -145 57l-205 90q-122 53 -192 53q-47 0 -76 -27t-37 -75h-143q8 125 75.5 195.5t182.5 70.5q99 0 260 -70l182 -79q163 -70 242 -93.5t159 -23.5h80v-154h-47q-45 0 -110 -10v-45q0 -176 200 -176v-123l-41 -41q-155 0 -229 83.5t-74 256.5v12q-82 -24 -226 -76
t-171 -61l-117 -41q130 -22 198 -97t68 -169z" />
    <glyph glyph-name="uniFEB4FE8A" unicode="&#xfeb4;&#xfe8a;" horiz-adv-x="2904" 
d="M420 602v-123l-414 -57v123l107 14q-70 44 -70 129q0 73 51.5 123.5t126.5 50.5q69 0 114 -42t52 -115l-94 -13q-24 47 -78 47q-33 0 -54.5 -18t-21.5 -49q0 -44 42.5 -71t99.5 -19zM1550 422l35 -92q40 -109 82 -148q40 -37 123 -37q101 0 157 68t56 205v90h143v-109
q0 -125 49 -189.5t127 -64.5q92 0 146.5 64t54.5 190v181h143v-181q0 -120 59 -177.5t179 -57.5v-123l-41 -41q-122 0 -201 52.5t-102 146.5q-23 -101 -93 -159t-165 -58q-97 0 -168 57t-94 156q-20 -109 -84 -161t-176 -52q-132 0 -203 65q-68 63 -143 262l-35 92
q-42 118 -117.5 169t-183.5 51q-137 0 -247 -74.5t-110 -167.5q0 -49 38.5 -76t121.5 -41l285 -45q252 -42 252 -285q0 -114 -90 -207t-247 -145.5t-349 -52.5q-321 0 -475 121.5t-154 374.5q0 148 33 280h143q-33 -132 -33 -250q0 -185 118 -273.5t368 -88.5
q152 0 276.5 31t195 85.5t70.5 122.5q0 57 -39.5 88.5t-134.5 44.5l-260 39q-130 20 -196 86.5t-66 161.5q0 108 73 209t192.5 163t248.5 62q164 0 264.5 -84.5t173.5 -277.5z" />
    <glyph glyph-name="uniFEB8FE8A" unicode="&#xfeb8;&#xfe8a;" horiz-adv-x="2904" 
d="M2181 1042q0 -44 -30 -74t-74 -30t-74.5 30t-30.5 74t30.5 74.5t74.5 30.5t74 -30.5t30 -74.5zM2044 793q0 -44 -30.5 -74.5t-74.5 -30.5t-74 30.5t-30 74.5t30 74t74 30t74.5 -30t30.5 -74zM2314 793q0 -44 -30 -74.5t-74 -30.5t-74.5 30.5t-30.5 74.5t30.5 74t74.5 30
t74 -30t30 -74zM420 602v-123l-414 -57v123l107 14q-70 44 -70 129q0 73 51.5 123.5t126.5 50.5q69 0 114 -42t52 -115l-94 -13q-24 47 -78 47q-33 0 -54.5 -18t-21.5 -49q0 -44 42.5 -71t99.5 -19zM1550 422l35 -92q40 -109 82 -148q40 -37 123 -37q101 0 157 68t56 205v90
h143v-109q0 -125 49 -189.5t127 -64.5q92 0 146.5 64t54.5 190v181h143v-181q0 -120 59 -177.5t179 -57.5v-123l-41 -41q-122 0 -201 52.5t-102 146.5q-23 -101 -93 -159t-165 -58q-97 0 -168 57t-94 156q-20 -109 -84 -161t-176 -52q-132 0 -203 65q-68 63 -143 262l-35 92
q-42 118 -117.5 169t-183.5 51q-137 0 -247 -74.5t-110 -167.5q0 -49 38.5 -76t121.5 -41l285 -45q252 -42 252 -285q0 -114 -90 -207t-247 -145.5t-349 -52.5q-321 0 -475 121.5t-154 374.5q0 148 33 280h143q-33 -132 -33 -250q0 -185 118 -273.5t368 -88.5
q152 0 276.5 31t195 85.5t70.5 122.5q0 57 -39.5 88.5t-134.5 44.5l-260 39q-130 20 -196 86.5t-66 161.5q0 108 73 209t192.5 163t248.5 62q164 0 264.5 -84.5t173.5 -277.5z" />
    <glyph glyph-name="uniFEBCFE8A" unicode="&#xfebc;&#xfe8a;" horiz-adv-x="2865" 
d="M420 602v-123l-414 -57v123l107 14q-70 44 -70 129q0 73 51.5 123.5t126.5 50.5q69 0 114 -42t52 -115l-94 -13q-24 47 -78 47q-33 0 -54.5 -18t-21.5 -49q0 -44 42.5 -71t99.5 -19zM1438 -68q0 -114 -90 -207t-247 -145.5t-349 -52.5q-321 0 -475 121.5t-154 374.5
q0 148 33 280h143q-33 -132 -33 -250q0 -185 118 -273.5t368 -88.5q152 0 276.5 31t195 85.5t70.5 122.5q0 57 -39.5 88.5t-134.5 44.5l-260 39q-130 20 -196 86.5t-66 161.5q0 108 73 209t192.5 163t248.5 62q166 0 260 -88q96 -90 174 -274l39 -92q4 -11 35 -66
q123 252 312 401.5t405 149.5q79 0 145 -21.5t111.5 -58.5t77.5 -86t46.5 -103t14.5 -112q0 -141 -61 -229q65 -41 194 -41v-123l-41 -41q-167 0 -266 96q-178 -112 -557 -112q-132 0 -217.5 14t-152 52.5t-110.5 98.5t-87 160l-39 92q-50 119 -121 169.5t-176 50.5
q-137 0 -247 -74.5t-110 -167.5q0 -49 38.5 -76t121.5 -41l285 -45q252 -42 252 -285zM2327 649q-183 0 -342 -129q-162 -134 -267 -334q98 -39 324 -39q281 0 414 69.5t133 217.5q0 38 -15 74.5t-45 68.5t-82.5 52t-119.5 20z" />
    <glyph glyph-name="uniFEC0FE8A" unicode="&#xfec0;&#xfe8a;" horiz-adv-x="2865" 
d="M2339 1059q0 -44 -30.5 -74.5t-74.5 -30.5t-74 30.5t-30 74.5t30 74t74 30t74.5 -30t30.5 -74zM420 602v-123l-414 -57v123l107 14q-70 44 -70 129q0 73 51.5 123.5t126.5 50.5q69 0 114 -42t52 -115l-94 -13q-24 47 -78 47q-33 0 -54.5 -18t-21.5 -49q0 -44 42.5 -71
t99.5 -19zM1438 -68q0 -114 -90 -207t-247 -145.5t-349 -52.5q-321 0 -475 121.5t-154 374.5q0 148 33 280h143q-33 -132 -33 -250q0 -185 118 -273.5t368 -88.5q152 0 276.5 31t195 85.5t70.5 122.5q0 57 -39.5 88.5t-134.5 44.5l-260 39q-130 20 -196 86.5t-66 161.5
q0 108 73 209t192.5 163t248.5 62q166 0 260 -88q96 -90 174 -274l39 -92q4 -11 35 -66q123 252 312 401.5t405 149.5q79 0 145 -21.5t111.5 -58.5t77.5 -86t46.5 -103t14.5 -112q0 -141 -61 -229q65 -41 194 -41v-123l-41 -41q-167 0 -266 96q-178 -112 -557 -112
q-132 0 -217.5 14t-152 52.5t-110.5 98.5t-87 160l-39 92q-50 119 -121 169.5t-176 50.5q-137 0 -247 -74.5t-110 -167.5q0 -49 38.5 -76t121.5 -41l285 -45q252 -42 252 -285zM2327 649q-183 0 -342 -129q-162 -134 -267 -334q98 -39 324 -39q281 0 414 69.5t133 217.5
q0 38 -15 74.5t-45 68.5t-82.5 52t-119.5 20z" />
    <glyph glyph-name="uniFECCFE8A" unicode="&#xfecc;&#xfe8a;" horiz-adv-x="2224" 
d="M430 602v-123l-414 -57v123l107 14q-70 44 -70 129q0 73 51.5 123.5t126.5 50.5q69 0 114 -42t52 -115l-94 -13q-24 47 -78 47q-33 0 -54 -18t-21 -49q0 -44 42 -71t99 -19zM1468 -145q0 -66 -40 -123.5t-121 -104t-218.5 -73.5t-316.5 -27q-320 0 -484.5 127t-164.5 369
q0 111 33 280h143q-33 -169 -33 -250q0 -179 127.5 -270.5t378.5 -91.5q309 0 430 53t121 123q0 60 -61.5 96.5t-184.5 36.5h-14v164h225q106 0 195 12q-121 109 -248 320l-49 82v163q263 74 489 74q223 0 330.5 -70.5t108.5 -222.5q1 -91 -60.5 -181t-173.5 -163
q104 -14 254 -14h90v-123l-41 -41h-49q-314 0 -483 70q-138 -45 -254 -58q71 -68 71 -157zM1333 612l17 -26q84 -145 165 -230.5t183 -128.5q131 49 202.5 124.5t69.5 158.5q-1 74 -73 107.5t-222 33.5q-167 0 -342 -39z" />
    <glyph glyph-name="uniFED0FE8A" unicode="&#xfed0;&#xfe8a;" horiz-adv-x="2224" 
d="M1739 1059q0 -44 -30.5 -74.5t-74.5 -30.5t-74 30.5t-30 74.5t30 74t74 30t74.5 -30t30.5 -74zM430 602v-123l-414 -57v123l107 14q-70 44 -70 129q0 73 51.5 123.5t126.5 50.5q69 0 114 -42t52 -115l-94 -13q-24 47 -78 47q-33 0 -54 -18t-21 -49q0 -44 42 -71t99 -19z
M1468 -145q0 -66 -40 -123.5t-121 -104t-218.5 -73.5t-316.5 -27q-320 0 -484.5 127t-164.5 369q0 111 33 280h143q-33 -169 -33 -250q0 -179 127.5 -270.5t378.5 -91.5q309 0 430 53t121 123q0 60 -61.5 96.5t-184.5 36.5h-14v164h225q106 0 195 12q-121 109 -248 320
l-49 82v163q263 74 489 74q223 0 330.5 -70.5t108.5 -222.5q1 -91 -60.5 -181t-173.5 -163q104 -14 254 -14h90v-123l-41 -41h-49q-314 0 -483 70q-138 -45 -254 -58q71 -68 71 -157zM1333 612l17 -26q84 -145 165 -230.5t183 -128.5q131 49 202.5 124.5t69.5 158.5
q-1 74 -73 107.5t-222 33.5q-167 0 -342 -39z" />
    <glyph glyph-name="uniFEDCFE8A" unicode="&#xfedc;&#xfe8a;" horiz-adv-x="1931" 
d="M1466 -104q0 -157 -180 -263t-473 -106q-345 0 -512 124.5t-178 371.5q-2 100 33 280h143q-33 -169 -33 -250q0 -181 133.5 -271.5t413.5 -90.5q241 0 375.5 59.5t134.5 165.5q0 64 -44.5 101.5t-125.5 37.5h-254v164h352q102 0 156.5 36t54.5 99q0 38 -13.5 74
t-53.5 102l-250 412v139l856 502l-2 -180l-701 -408l328 -546q55 -91 87.5 -139t68.5 -85t69.5 -49t79.5 -12v-123l-41 -41q-169 0 -307 219l-29 47q-14 -70 -66.5 -117.5t-139.5 -64.5q56 -30 87 -80.5t31 -107.5zM432 602v-123l-414 -57v123l107 14q-70 44 -70 129
q0 73 51.5 123.5t126.5 50.5q69 0 114 -42t52 -115l-94 -13q-24 47 -78 47q-33 0 -54 -18t-21 -49q0 -44 42 -71t99 -19z" />
    <glyph glyph-name="uniFEE0FE8A" unicode="&#xfee0;&#xfe8a;" horiz-adv-x="1878" 
d="M1466 -129q0 -140 -181.5 -242t-471.5 -102q-690 0 -690 496q0 111 33 280h143q-33 -169 -33 -250q0 -181 133.5 -271.5t413.5 -90.5q240 0 375 58.5t135 158.5q0 47 -49 96q-45 51 -152 51h-223v164h326q131 0 201.5 65.5t70.5 211.5v1087h143v-1143q0 -172 50 -225
q51 -51 188 -51v-123l-41 -41q-147 0 -223 58.5t-88 177.5q-39 -122 -193 -162q133 -65 133 -203zM432 602v-123l-414 -57v123l107 14q-70 44 -70 129q0 73 51.5 123.5t126.5 50.5q69 0 114 -42t52 -115l-94 -13q-24 47 -78 47q-33 0 -54 -18t-21 -49q0 -44 42 -71t99 -19z
" />
    <glyph glyph-name="uniFEE8FE8A" unicode="&#xfee8;&#xfe8a;" horiz-adv-x="1785" 
d="M1217 1028q0 -44 -30.5 -74t-74.5 -30t-74 30t-30 74t30 74.5t74 30.5t74.5 -30.5t30.5 -74.5zM420 602v-123l-414 -57v123l107 14q-70 44 -70 129q0 73 51.5 123.5t126.5 50.5q69 0 114 -42t52 -115l-94 -13q-24 47 -78 47q-33 0 -54.5 -18t-21.5 -49q0 -44 42.5 -71
t99.5 -19zM1438 -68q0 -114 -90 -207t-247 -145.5t-349 -52.5q-321 0 -475 121.5t-154 374.5q0 148 33 280h143q-33 -132 -33 -250q0 -185 118 -273.5t368 -88.5q152 0 276.5 31t195 85.5t70.5 122.5q0 57 -39.5 88.5t-134.5 44.5l-260 39q-130 20 -196 86.5t-66 161.5
q0 108 73 209t192.5 163t248.5 62q164 0 265 -88.5t177 -292.5l35 -94q36 -92 72 -116q43 -29 125 -29v-123l-41 -41q-120 0 -180 57q-62 59 -127 232l-35 92q-49 130 -123 185t-182 55q-137 0 -247 -74.5t-110 -167.5q0 -49 38.5 -76t121.5 -41l285 -45q252 -42 252 -285z
" />
    <glyph glyph-name="uniFEF4FE8A" unicode="&#xfef4;&#xfe8a;" horiz-adv-x="1785" 
d="M420 602v-123l-414 -57v123l107 14q-70 44 -70 129q0 73 51.5 123.5t126.5 50.5q69 0 114 -42t52 -115l-94 -13q-24 47 -78 47q-33 0 -54.5 -18t-21.5 -49q0 -44 42.5 -71t99.5 -19zM1438 -68q0 -114 -90 -207t-247 -145.5t-349 -52.5q-321 0 -475 121.5t-154 374.5
q0 148 33 280h143q-33 -132 -33 -250q0 -185 118 -273.5t368 -88.5q152 0 276.5 31t195 85.5t70.5 122.5q0 57 -39.5 88.5t-134.5 44.5l-260 39q-130 20 -196 86.5t-66 161.5q0 108 73 209t192.5 163t248.5 62q164 0 265 -88.5t177 -292.5l35 -94q36 -92 72 -116
q43 -29 125 -29v-123l-41 -41q-120 0 -180 57q-62 59 -127 232l-35 92q-49 130 -123 185t-182 55q-137 0 -247 -74.5t-110 -167.5q0 -49 38.5 -76t121.5 -41l285 -45q252 -42 252 -285zM1759 -537q0 -44 -30 -74t-74 -30t-74.5 30t-30.5 74t30.5 74.5t74.5 30.5t74 -30.5
t30 -74.5zM1489 -537q0 -44 -30.5 -74t-74.5 -30t-74 30t-30 74t30 74.5t74 30.5t74.5 -30.5t30.5 -74.5z" />
    <glyph glyph-name="uniFB59FE8A" unicode="&#xfb59;&#xfe8a;" horiz-adv-x="1785" 
d="M420 602v-123l-414 -57v123l107 14q-70 44 -70 129q0 73 51.5 123.5t126.5 50.5q69 0 114 -42t52 -115l-94 -13q-24 47 -78 47q-33 0 -54.5 -18t-21.5 -49q0 -44 42.5 -71t99.5 -19zM1438 -68q0 -114 -90 -207t-247 -145.5t-349 -52.5q-321 0 -475 121.5t-154 374.5
q0 148 33 280h143q-33 -132 -33 -250q0 -185 118 -273.5t368 -88.5q152 0 276.5 31t195 85.5t70.5 122.5q0 57 -39.5 88.5t-134.5 44.5l-260 39q-130 20 -196 86.5t-66 161.5q0 108 73 209t192.5 163t248.5 62q164 0 265 -88.5t177 -292.5l35 -94q36 -92 72 -116
q43 -29 125 -29v-123l-41 -41q-120 0 -180 57q-62 59 -127 232l-35 92q-49 130 -123 185t-182 55q-137 0 -247 -74.5t-110 -167.5q0 -49 38.5 -76t121.5 -41l285 -45q252 -42 252 -285zM1757 -537q0 -44 -30 -74t-74 -30t-74.5 30t-30.5 74t30.5 74.5t74.5 30.5t74 -30.5
t30 -74.5zM1487 -537q0 -44 -30.5 -74t-74.5 -30t-74 30t-30 74t30 74.5t74 30.5t74.5 -30.5t30.5 -74.5zM1620 -786q0 -44 -30 -74.5t-74 -30.5t-74.5 30.5t-30.5 74.5t30.5 74t74.5 30t74 -30t30 -74z" />
    <glyph glyph-name="uniFB7DFE8A" unicode="&#xfb7d;&#xfe8a;" horiz-adv-x="2058" 
d="M426 602v-123l-414 -57v123l107 14q-70 44 -70 129q0 73 51.5 123.5t126.5 50.5q69 0 114 -42t52 -115l-94 -13q-24 47 -78 47q-33 0 -54.5 -18t-21.5 -49q0 -44 42.5 -71t99.5 -19zM1466 -92q0 -173 -182.5 -277t-490.5 -104q-670 0 -670 496q0 111 33 280h143
q-33 -169 -33 -250q0 -181 129 -271.5t398 -90.5q249 0 389.5 58.5t140.5 158.5q0 48 -45 96q-42 51 -166 51h-213v164l367 123q23 7 82.5 27t95.5 31.5t89.5 26.5t98.5 24q-58 19 -145 57l-205 90q-122 53 -192 53q-47 0 -76 -27t-37 -75h-143q8 125 75.5 195.5t182.5 70.5
q99 0 260 -70l182 -79q163 -70 242 -93.5t159 -23.5h80v-154h-47q-45 0 -110 -10v-45q0 -176 200 -176v-123l-41 -41q-155 0 -229 83.5t-74 256.5v12q-82 -24 -226 -76t-171 -61l-117 -41q130 -22 198 -97t68 -169zM1989 -186q0 -44 -30.5 -74.5t-74.5 -30.5t-74 30.5
t-30 74.5t30 74t74 30t74.5 -30t30.5 -74zM1718 -186q0 -44 -30 -74.5t-74 -30.5t-74.5 30.5t-30.5 74.5t30.5 74t74.5 30t74 -30t30 -74zM1851 -436q0 -44 -30 -74.5t-74 -30.5t-74.5 30.5t-30.5 74.5t30.5 74t74.5 30t74 -30t30 -74z" />
    <glyph glyph-name="uniFB95FE8A" unicode="&#xfb95;&#xfe8a;" horiz-adv-x="1931" 
d="M2001 1853l-2 -127l-854 -501v127zM1466 -104q0 -157 -180 -263t-473 -106q-345 0 -512 124.5t-178 371.5q-2 100 33 280h143q-33 -169 -33 -250q0 -181 133.5 -271.5t413.5 -90.5q241 0 375.5 59.5t134.5 165.5q0 64 -44.5 101.5t-125.5 37.5h-254v164h352
q102 0 156.5 36t54.5 99q0 38 -13.5 74t-53.5 102l-250 412v139l856 502l-2 -180l-701 -408l328 -546q55 -91 87.5 -139t68.5 -85t69.5 -49t79.5 -12v-123l-41 -41q-169 0 -307 219l-29 47q-14 -70 -66.5 -117.5t-139.5 -64.5q56 -30 87 -80.5t31 -107.5zM432 602v-123
l-414 -57v123l107 14q-70 44 -70 129q0 73 51.5 123.5t126.5 50.5q69 0 114 -42t52 -115l-94 -13q-24 47 -78 47q-33 0 -54 -18t-21 -49q0 -44 42 -71t99 -19z" />
    <glyph glyph-name="uniFE8CFE8A" unicode="&#xfe8c;&#xfe8a;" horiz-adv-x="1785" 
d="M1311 1083v-122l-414 -58v123l107 14q-70 44 -70 129q0 73 51.5 123.5t126.5 50.5q69 0 114 -42t52 -115l-94 -12q-24 47 -78 47q-33 0 -54.5 -18.5t-21.5 -49.5q0 -44 42 -71t99 -19zM420 602v-123l-414 -57v123l107 14q-70 44 -70 129q0 73 51.5 123.5t126.5 50.5
q69 0 114 -42t52 -115l-94 -13q-24 47 -78 47q-33 0 -54.5 -18t-21.5 -49q0 -44 42.5 -71t99.5 -19zM1438 -68q0 -114 -90 -207t-247 -145.5t-349 -52.5q-321 0 -475 121.5t-154 374.5q0 148 33 280h143q-33 -132 -33 -250q0 -185 118 -273.5t368 -88.5q152 0 276.5 31
t195 85.5t70.5 122.5q0 57 -39.5 88.5t-134.5 44.5l-260 39q-130 20 -196 86.5t-66 161.5q0 108 73 209t192.5 163t248.5 62q164 0 265 -88.5t177 -292.5l35 -94q36 -92 72 -116q43 -29 125 -29v-123l-41 -41q-120 0 -180 57q-62 59 -127 232l-35 92q-49 130 -123 185
t-182 55q-137 0 -247 -74.5t-110 -167.5q0 -49 38.5 -76t121.5 -41l285 -45q252 -42 252 -285z" />
    <glyph glyph-name="uniFE92FBFD" unicode="&#xfe92;&#xfbfd;" horiz-adv-x="1785" 
d="M1438 -68q0 -114 -90 -207t-247 -145.5t-349 -52.5q-321 0 -475 121.5t-154 374.5q0 148 33 280h143q-33 -132 -33 -250q0 -185 118 -273.5t368 -88.5q152 0 276.5 31t195 85.5t70.5 122.5q0 57 -39.5 88.5t-134.5 44.5l-260 39q-130 20 -196 86.5t-66 161.5
q0 108 73 209t192.5 163t248.5 62q164 0 265 -88.5t177 -292.5l35 -94q36 -92 72 -116q43 -29 125 -29v-123l-41 -41q-120 0 -180 57q-62 59 -127 232l-35 92q-49 130 -123 185t-182 55q-137 0 -247 -74.5t-110 -167.5q0 -49 38.5 -76t121.5 -41l285 -45q252 -42 252 -285z
M1624 -537q0 -44 -30 -74t-74 -30t-74.5 30t-30.5 74t30.5 74.5t74.5 30.5t74 -30.5t30 -74.5z" />
    <glyph glyph-name="uniFE98FBFD" unicode="&#xfe98;&#xfbfd;" horiz-adv-x="1785" 
d="M1352 1028q0 -44 -30.5 -74t-74.5 -30t-74 30t-30 74t30 74.5t74 30.5t74.5 -30.5t30.5 -74.5zM1081 1028q0 -44 -30 -74t-74 -30t-74.5 30t-30.5 74t30.5 74.5t74.5 30.5t74 -30.5t30 -74.5zM1438 -68q0 -114 -90 -207t-247 -145.5t-349 -52.5q-321 0 -475 121.5
t-154 374.5q0 148 33 280h143q-33 -132 -33 -250q0 -185 118 -273.5t368 -88.5q152 0 276.5 31t195 85.5t70.5 122.5q0 57 -39.5 88.5t-134.5 44.5l-260 39q-130 20 -196 86.5t-66 161.5q0 108 73 209t192.5 163t248.5 62q164 0 265 -88.5t177 -292.5l35 -94q36 -92 72 -116
q43 -29 125 -29v-123l-41 -41q-120 0 -180 57q-62 59 -127 232l-35 92q-49 130 -123 185t-182 55q-137 0 -247 -74.5t-110 -167.5q0 -49 38.5 -76t121.5 -41l285 -45q252 -42 252 -285z" />
    <glyph glyph-name="uniFE9CFBFD" unicode="&#xfe9c;&#xfbfd;" horiz-adv-x="1785" 
d="M1219 1278q0 -44 -30.5 -74t-74.5 -30t-74 30t-30 74t30 74t74 30t74.5 -30t30.5 -74zM1081 1028q0 -44 -30 -74t-74 -30t-74.5 30t-30.5 74t30.5 74.5t74.5 30.5t74 -30.5t30 -74.5zM1352 1028q0 -44 -30.5 -74t-74.5 -30t-74 30t-30 74t30 74.5t74 30.5t74.5 -30.5
t30.5 -74.5zM1438 -68q0 -114 -90 -207t-247 -145.5t-349 -52.5q-321 0 -475 121.5t-154 374.5q0 148 33 280h143q-33 -132 -33 -250q0 -185 118 -273.5t368 -88.5q152 0 276.5 31t195 85.5t70.5 122.5q0 57 -39.5 88.5t-134.5 44.5l-260 39q-130 20 -196 86.5t-66 161.5
q0 108 73 209t192.5 163t248.5 62q164 0 265 -88.5t177 -292.5l35 -94q36 -92 72 -116q43 -29 125 -29v-123l-41 -41q-120 0 -180 57q-62 59 -127 232l-35 92q-49 130 -123 185t-182 55q-137 0 -247 -74.5t-110 -167.5q0 -49 38.5 -76t121.5 -41l285 -45q252 -42 252 -285z
" />
    <glyph glyph-name="uniFEA0FBFD" unicode="&#xfea0;&#xfbfd;" horiz-adv-x="2058" 
d="M1466 -92q0 -173 -182.5 -277t-490.5 -104q-670 0 -670 496q0 111 33 280h143q-33 -169 -33 -250q0 -181 129 -271.5t398 -90.5q249 0 389.5 58.5t140.5 158.5q0 48 -45 96q-42 51 -166 51h-213v164l367 123q23 7 82.5 27t95.5 31.5t89.5 26.5t98.5 24q-58 19 -145 57
l-205 90q-122 53 -192 53q-47 0 -76 -27t-37 -75h-143q8 125 75.5 195.5t182.5 70.5q99 0 260 -70l182 -79q163 -70 242 -93.5t159 -23.5h80v-154h-47q-45 0 -110 -10v-45q0 -176 200 -176v-123l-41 -41q-155 0 -229 83.5t-74 256.5v12q-82 -24 -226 -76t-171 -61l-117 -41
q130 -22 198 -97t68 -169zM1855 -186q0 -44 -30 -74.5t-74 -30.5t-74 30.5t-30 74.5t30 74t74 30t74 -30t30 -74z" />
    <glyph glyph-name="uniFEA4FBFD" unicode="&#xfea4;&#xfbfd;" horiz-adv-x="2058" 
d="M1466 -92q0 -173 -182.5 -277t-490.5 -104q-670 0 -670 496q0 111 33 280h143q-33 -169 -33 -250q0 -181 129 -271.5t398 -90.5q249 0 389.5 58.5t140.5 158.5q0 48 -45 96q-42 51 -166 51h-213v164l367 123q23 7 82.5 27t95.5 31.5t89.5 26.5t98.5 24q-58 19 -145 57
l-205 90q-122 53 -192 53q-47 0 -76 -27t-37 -75h-143q8 125 75.5 195.5t182.5 70.5q99 0 260 -70l182 -79q163 -70 242 -93.5t159 -23.5h80v-154h-47q-45 0 -110 -10v-45q0 -176 200 -176v-123l-41 -41q-155 0 -229 83.5t-74 256.5v12q-82 -24 -226 -76t-171 -61l-117 -41
q130 -22 198 -97t68 -169z" />
    <glyph glyph-name="uniFEA8FBFD" unicode="&#xfea8;&#xfbfd;" horiz-adv-x="2058" 
d="M1307 1059q0 -44 -30.5 -74.5t-74.5 -30.5t-74 30.5t-30 74.5t30 74t74 30t74.5 -30t30.5 -74zM1466 -92q0 -173 -182.5 -277t-490.5 -104q-670 0 -670 496q0 111 33 280h143q-33 -169 -33 -250q0 -181 129 -271.5t398 -90.5q249 0 389.5 58.5t140.5 158.5q0 48 -45 96
q-42 51 -166 51h-213v164l367 123q23 7 82.5 27t95.5 31.5t89.5 26.5t98.5 24q-58 19 -145 57l-205 90q-122 53 -192 53q-47 0 -76 -27t-37 -75h-143q8 125 75.5 195.5t182.5 70.5q99 0 260 -70l182 -79q163 -70 242 -93.5t159 -23.5h80v-154h-47q-45 0 -110 -10v-45
q0 -176 200 -176v-123l-41 -41q-155 0 -229 83.5t-74 256.5v12q-82 -24 -226 -76t-171 -61l-117 -41q130 -22 198 -97t68 -169z" />
    <glyph glyph-name="uniFEB4FBFD" unicode="&#xfeb4;&#xfbfd;" horiz-adv-x="2865" 
d="M1376 -76q0 -113 -92 -205t-239.5 -142t-313.5 -50q-294 0 -451 127.5t-157 368.5q0 111 33 280h143q-33 -169 -33 -250q0 -173 129 -267.5t336 -94.5q115 0 228 26t193.5 79t80.5 120q0 70 -121 100l-184 47q-121 28 -172 82.5t-51 143.5q0 106 70.5 206t176 159
t209.5 59q129 0 207.5 -72t147.5 -238l38 -94q35 -84 79 -124t118 -40q101 0 157 68t56 205v90h143v-109q0 -125 49.5 -189.5t127.5 -64.5q92 0 146 64t54 190v181h144v-181q0 -121 58.5 -178t178.5 -57v-123l-41 -41q-122 0 -201 52.5t-102 146.5q-23 -101 -93 -159
t-165 -58q-97 0 -168 57t-94 156q-20 -109 -84 -161t-176 -52q-139 0 -213 92q-75 97 -125 215l-39 92q-73 188 -217 188q-60 0 -131 -35.5t-121.5 -94t-50.5 -117.5q0 -75 98 -97l234 -61q100 -26 150 -88t50 -152z" />
    <glyph glyph-name="uniFEB8FBFD" unicode="&#xfeb8;&#xfbfd;" horiz-adv-x="2904" 
d="M2181 1042q0 -44 -30 -74t-74 -30t-74.5 30t-30.5 74t30.5 74.5t74.5 30.5t74 -30.5t30 -74.5zM2044 793q0 -44 -30.5 -74.5t-74.5 -30.5t-74 30.5t-30 74.5t30 74t74 30t74.5 -30t30.5 -74zM2314 793q0 -44 -30 -74.5t-74 -30.5t-74.5 30.5t-30.5 74.5t30.5 74t74.5 30
t74 -30t30 -74zM1550 422l35 -92q40 -109 82 -148q40 -37 123 -37q101 0 157 68t56 205v90h143v-109q0 -125 49 -189.5t127 -64.5q92 0 146.5 64t54.5 190v181h143v-181q0 -120 59 -177.5t179 -57.5v-123l-41 -41q-122 0 -201 52.5t-102 146.5q-23 -101 -93 -159t-165 -58
q-97 0 -168 57t-94 156q-20 -109 -84 -161t-176 -52q-132 0 -203 65q-68 63 -143 262l-35 92q-42 118 -117.5 169t-183.5 51q-137 0 -247 -74.5t-110 -167.5q0 -49 38.5 -76t121.5 -41l285 -45q252 -42 252 -285q0 -114 -90 -207t-247 -145.5t-349 -52.5q-321 0 -475 121.5
t-154 374.5q0 148 33 280h143q-33 -132 -33 -250q0 -185 118 -273.5t368 -88.5q152 0 276.5 31t195 85.5t70.5 122.5q0 57 -39.5 88.5t-134.5 44.5l-260 39q-130 20 -196 86.5t-66 161.5q0 108 73 209t192.5 163t248.5 62q164 0 264.5 -84.5t173.5 -277.5z" />
    <glyph glyph-name="uniFEBCFBFD" unicode="&#xfebc;&#xfbfd;" horiz-adv-x="2865" 
d="M1438 -68q0 -114 -90 -207t-247 -145.5t-349 -52.5q-321 0 -475 121.5t-154 374.5q0 148 33 280h143q-33 -132 -33 -250q0 -185 118 -273.5t368 -88.5q152 0 276.5 31t195 85.5t70.5 122.5q0 57 -39.5 88.5t-134.5 44.5l-260 39q-130 20 -196 86.5t-66 161.5
q0 108 73 209t192.5 163t248.5 62q166 0 260 -88q96 -90 174 -274l39 -92q4 -11 35 -66q123 252 312 401.5t405 149.5q79 0 145 -21.5t111.5 -58.5t77.5 -86t46.5 -103t14.5 -112q0 -141 -61 -229q65 -41 194 -41v-123l-41 -41q-167 0 -266 96q-178 -112 -557 -112
q-132 0 -217.5 14t-152 52.5t-110.5 98.5t-87 160l-39 92q-50 119 -121 169.5t-176 50.5q-137 0 -247 -74.5t-110 -167.5q0 -49 38.5 -76t121.5 -41l285 -45q252 -42 252 -285zM2327 649q-183 0 -342 -129q-162 -134 -267 -334q98 -39 324 -39q281 0 414 69.5t133 217.5
q0 38 -15 74.5t-45 68.5t-82.5 52t-119.5 20z" />
    <glyph glyph-name="uniFEC0FBFD" unicode="&#xfec0;&#xfbfd;" horiz-adv-x="2865" 
d="M2339 1059q0 -44 -30.5 -74.5t-74.5 -30.5t-74 30.5t-30 74.5t30 74t74 30t74.5 -30t30.5 -74zM1438 -68q0 -114 -90 -207t-247 -145.5t-349 -52.5q-321 0 -475 121.5t-154 374.5q0 148 33 280h143q-33 -132 -33 -250q0 -185 118 -273.5t368 -88.5q152 0 276.5 31
t195 85.5t70.5 122.5q0 57 -39.5 88.5t-134.5 44.5l-260 39q-130 20 -196 86.5t-66 161.5q0 108 73 209t192.5 163t248.5 62q166 0 260 -88q96 -90 174 -274l39 -92q4 -11 35 -66q123 252 312 401.5t405 149.5q79 0 145 -21.5t111.5 -58.5t77.5 -86t46.5 -103t14.5 -112
q0 -141 -61 -229q65 -41 194 -41v-123l-41 -41q-167 0 -266 96q-178 -112 -557 -112q-132 0 -217.5 14t-152 52.5t-110.5 98.5t-87 160l-39 92q-50 119 -121 169.5t-176 50.5q-137 0 -247 -74.5t-110 -167.5q0 -49 38.5 -76t121.5 -41l285 -45q252 -42 252 -285zM2327 649
q-183 0 -342 -129q-162 -134 -267 -334q98 -39 324 -39q281 0 414 69.5t133 217.5q0 38 -15 74.5t-45 68.5t-82.5 52t-119.5 20z" />
    <glyph glyph-name="uniFECCFBFD" unicode="&#xfecc;&#xfbfd;" horiz-adv-x="2224" 
d="M1468 -145q0 -66 -40 -123.5t-121 -104t-218.5 -73.5t-316.5 -27q-320 0 -484.5 127t-164.5 369q0 111 33 280h143q-33 -169 -33 -250q0 -179 127.5 -270.5t378.5 -91.5q309 0 430 53t121 123q0 60 -61.5 96.5t-184.5 36.5h-14v164h225q106 0 195 12q-121 109 -248 320
l-49 82v163q263 74 489 74q223 0 330.5 -70.5t108.5 -222.5q1 -91 -60.5 -181t-173.5 -163q104 -14 254 -14h90v-123l-41 -41h-49q-314 0 -483 70q-138 -45 -254 -58q71 -68 71 -157zM1333 612l17 -26q84 -145 165 -230.5t183 -128.5q131 49 202.5 124.5t69.5 158.5
q-1 74 -73 107.5t-222 33.5q-167 0 -342 -39z" />
    <glyph glyph-name="uniFED0FBFD" unicode="&#xfed0;&#xfbfd;" horiz-adv-x="2224" 
d="M1739 1059q0 -44 -30.5 -74.5t-74.5 -30.5t-74 30.5t-30 74.5t30 74t74 30t74.5 -30t30.5 -74zM1468 -145q0 -66 -40 -123.5t-121 -104t-218.5 -73.5t-316.5 -27q-320 0 -484.5 127t-164.5 369q0 111 33 280h143q-33 -169 -33 -250q0 -179 127.5 -270.5t378.5 -91.5
q309 0 430 53t121 123q0 60 -61.5 96.5t-184.5 36.5h-14v164h225q106 0 195 12q-121 109 -248 320l-49 82v163q263 74 489 74q223 0 330.5 -70.5t108.5 -222.5q1 -91 -60.5 -181t-173.5 -163q104 -14 254 -14h90v-123l-41 -41h-49q-314 0 -483 70q-138 -45 -254 -58
q71 -68 71 -157zM1333 612l17 -26q84 -145 165 -230.5t183 -128.5q131 49 202.5 124.5t69.5 158.5q-1 74 -73 107.5t-222 33.5q-167 0 -342 -39z" />
    <glyph glyph-name="uniFEE0FBFD" unicode="&#xfee0;&#xfbfd;" horiz-adv-x="1837" 
d="M1425 -129q0 -140 -170.5 -242t-441.5 -102q-690 0 -690 496q0 111 33 280h143q-33 -169 -33 -250q0 -181 133.5 -271.5t413.5 -90.5q220 0 344.5 58.5t124.5 158.5q0 47 -49 96q-45 51 -152 51h-223v164h326q131 0 201.5 65.5t70.5 211.5v1087h143v-1143q0 -172 50 -225
q51 -51 188 -51v-123l-41 -41q-147 0 -223 58.5t-88 177.5q-39 -122 -193 -162q133 -65 133 -203z" />
    <glyph glyph-name="uniFEE8FBFD" unicode="&#xfee8;&#xfbfd;" horiz-adv-x="1785" 
d="M1217 1028q0 -44 -30.5 -74t-74.5 -30t-74 30t-30 74t30 74.5t74 30.5t74.5 -30.5t30.5 -74.5zM1438 -68q0 -114 -90 -207t-247 -145.5t-349 -52.5q-321 0 -475 121.5t-154 374.5q0 148 33 280h143q-33 -132 -33 -250q0 -185 118 -273.5t368 -88.5q152 0 276.5 31
t195 85.5t70.5 122.5q0 57 -39.5 88.5t-134.5 44.5l-260 39q-130 20 -196 86.5t-66 161.5q0 108 73 209t192.5 163t248.5 62q164 0 265 -88.5t177 -292.5l35 -94q36 -92 72 -116q43 -29 125 -29v-123l-41 -41q-120 0 -180 57q-62 59 -127 232l-35 92q-49 130 -123 185
t-182 55q-137 0 -247 -74.5t-110 -167.5q0 -49 38.5 -76t121.5 -41l285 -45q252 -42 252 -285z" />
    <glyph glyph-name="uniFEF4FBFD" unicode="&#xfef4;&#xfbfd;" horiz-adv-x="1785" 
d="M1438 -68q0 -114 -90 -207t-247 -145.5t-349 -52.5q-321 0 -475 121.5t-154 374.5q0 148 33 280h143q-33 -132 -33 -250q0 -185 118 -273.5t368 -88.5q152 0 276.5 31t195 85.5t70.5 122.5q0 57 -39.5 88.5t-134.5 44.5l-260 39q-130 20 -196 86.5t-66 161.5
q0 108 73 209t192.5 163t248.5 62q164 0 265 -88.5t177 -292.5l35 -94q36 -92 72 -116q43 -29 125 -29v-123l-41 -41q-120 0 -180 57q-62 59 -127 232l-35 92q-49 130 -123 185t-182 55q-137 0 -247 -74.5t-110 -167.5q0 -49 38.5 -76t121.5 -41l285 -45q252 -42 252 -285z
M1759 -537q0 -44 -30 -74t-74 -30t-74.5 30t-30.5 74t30.5 74.5t74.5 30.5t74 -30.5t30 -74.5zM1489 -537q0 -44 -30.5 -74t-74.5 -30t-74 30t-30 74t30 74.5t74 30.5t74.5 -30.5t30.5 -74.5z" />
    <glyph glyph-name="uniFB59FBFD" unicode="&#xfb59;&#xfbfd;" horiz-adv-x="1785" 
d="M1438 -68q0 -114 -90 -207t-247 -145.5t-349 -52.5q-321 0 -475 121.5t-154 374.5q0 148 33 280h143q-33 -132 -33 -250q0 -185 118 -273.5t368 -88.5q152 0 276.5 31t195 85.5t70.5 122.5q0 57 -39.5 88.5t-134.5 44.5l-260 39q-130 20 -196 86.5t-66 161.5
q0 108 73 209t192.5 163t248.5 62q164 0 265 -88.5t177 -292.5l35 -94q36 -92 72 -116q43 -29 125 -29v-123l-41 -41q-120 0 -180 57q-62 59 -127 232l-35 92q-49 130 -123 185t-182 55q-137 0 -247 -74.5t-110 -167.5q0 -49 38.5 -76t121.5 -41l285 -45q252 -42 252 -285z
M1757 -537q0 -44 -30 -74t-74 -30t-74.5 30t-30.5 74t30.5 74.5t74.5 30.5t74 -30.5t30 -74.5zM1487 -537q0 -44 -30.5 -74t-74.5 -30t-74 30t-30 74t30 74.5t74 30.5t74.5 -30.5t30.5 -74.5zM1620 -786q0 -44 -30 -74.5t-74 -30.5t-74.5 30.5t-30.5 74.5t30.5 74t74.5 30
t74 -30t30 -74z" />
    <glyph glyph-name="uniFB91FBFD" unicode="&#xfb91;&#xfbfd;" horiz-adv-x="1890" 
d="M1427 -104q0 -157 -169 -263t-443 -106q-345 0 -512 124.5t-178 371.5q-2 100 33 280h143q-33 -169 -33 -250q0 -181 133.5 -271.5t413.5 -90.5q221 0 345 59.5t124 165.5q0 64 -44.5 101.5t-125.5 37.5h-254v164h352q102 0 156.5 36t54.5 99q0 38 -13.5 74t-53.5 102
l-250 412v139l856 502l-2 -180l-700 -408l327 -546q55 -91 87.5 -139t68.5 -85t69.5 -49t79.5 -12v-123l-41 -41q-169 0 -307 219l-28 47q-14 -70 -67 -117.5t-140 -64.5q56 -30 87 -80.5t31 -107.5z" />
    <glyph glyph-name="uniFB95FBFD" unicode="&#xfb95;&#xfbfd;" horiz-adv-x="1931" 
d="M2003 1853l-2 -127l-854 -501v127zM1468 -104q0 -157 -180 -263t-473 -106q-345 0 -512 124.5t-178 371.5q-2 100 33 280h143q-33 -169 -33 -250q0 -181 133.5 -271.5t413.5 -90.5q241 0 375.5 59.5t134.5 165.5q0 64 -44.5 101.5t-125.5 37.5h-254v164h352
q102 0 156.5 36t54.5 99q0 38 -13.5 74t-53.5 102l-250 412v139l856 502l-2 -180l-701 -408l328 -546q55 -91 87.5 -139t68.5 -85t69.5 -49t79.5 -12v-123l-41 -41q-169 0 -307 219l-29 47q-14 -70 -66.5 -117.5t-139.5 -64.5q56 -30 87 -80.5t31 -107.5z" />
    <glyph glyph-name="uniFE8CFBFD" unicode="&#xfe8c;&#xfbfd;" horiz-adv-x="1785" 
d="M1311 1083v-122l-414 -58v123l107 14q-70 44 -70 129q0 73 51.5 123.5t126.5 50.5q69 0 114 -42t52 -115l-94 -12q-24 47 -78 47q-33 0 -54.5 -18.5t-21.5 -49.5q0 -44 42 -71t99 -19zM1438 -68q0 -114 -90 -207t-247 -145.5t-349 -52.5q-321 0 -475 121.5t-154 374.5
q0 148 33 280h143q-33 -132 -33 -250q0 -185 118 -273.5t368 -88.5q152 0 276.5 31t195 85.5t70.5 122.5q0 57 -39.5 88.5t-134.5 44.5l-260 39q-130 20 -196 86.5t-66 161.5q0 108 73 209t192.5 163t248.5 62q164 0 265 -88.5t177 -292.5l35 -94q36 -92 72 -116
q43 -29 125 -29v-123l-41 -41q-120 0 -180 57q-62 59 -127 232l-35 92q-49 130 -123 185t-182 55q-137 0 -247 -74.5t-110 -167.5q0 -49 38.5 -76t121.5 -41l285 -45q252 -42 252 -285z" />
    <glyph glyph-name="uniFEB4FEB0" unicode="&#xfeb4;&#xfeb0;" horiz-adv-x="2387" 
d="M434 823q0 -44 -30 -74t-74 -30t-74.5 30t-30.5 74t30.5 74.5t74.5 30.5t74 -30.5t30 -74.5zM477 141q0 -314 -113 -464t-348 -150q-74 0 -180 16v164q94 -16 170 -16q168 0 248 109.5t80 340.5q0 68 -15 207l-28 232l639 71l33 -272q13 -128 64 -181t157 -53
q113 0 167 62t54 192v109h143v-109q0 -130 48.5 -192t148.5 -62q113 0 167 62t54 192v181h143v-181q0 -121 69 -178t210 -57v-123l-41 -41q-139 0 -227.5 51.5t-114.5 145.5q-37 -215 -281 -215q-114 0 -186.5 53.5t-95.5 152.5q-20 -105 -88.5 -155.5t-190.5 -50.5
q-167 0 -245 84t-99 292l-12 113l-352 -39l8 -67q14 -118 14 -224z" />
    <glyph glyph-name="uniFEB8FEB0" unicode="&#xfeb8;&#xfeb0;" horiz-adv-x="2387" 
d="M1585 1001q0 -44 -30 -74t-74 -30t-74.5 30t-30.5 74t30.5 74.5t74.5 30.5t74 -30.5t30 -74.5zM434 823q0 -44 -30 -74t-74 -30t-74.5 30t-30.5 74t30.5 74.5t74.5 30.5t74 -30.5t30 -74.5zM1448 752q0 -44 -30.5 -74.5t-74.5 -30.5t-74 30.5t-30 74.5t30 74t74 30
t74.5 -30t30.5 -74zM1718 752q0 -44 -30 -74.5t-74 -30.5t-74.5 30.5t-30.5 74.5t30.5 74t74.5 30t74 -30t30 -74zM477 141q0 -314 -113 -464t-348 -150q-74 0 -180 16v164q94 -16 170 -16q168 0 248 109.5t80 340.5q0 68 -15 207l-28 232l639 71l33 -272q13 -128 64 -181
t157 -53q113 0 167 62t54 192v109h143v-109q0 -130 48.5 -192t148.5 -62q113 0 167 62t54 192v181h143v-181q0 -121 69 -178t210 -57v-123l-41 -41q-139 0 -227.5 51.5t-114.5 145.5q-37 -215 -281 -215q-114 0 -186.5 53.5t-95.5 152.5q-20 -105 -88.5 -155.5t-190.5 -50.5
q-167 0 -245 84t-99 292l-12 113l-352 -39l8 -67q14 -118 14 -224z" />
    <glyph glyph-name="uniFEBCFEB0" unicode="&#xfebc;&#xfeb0;" horiz-adv-x="2375" 
d="M438 895q0 -44 -30 -74t-74 -30t-74.5 30t-30.5 74t30.5 74t74.5 30t74 -30t30 -74zM477 141q0 -314 -113 -464t-348 -150q-74 0 -180 16v164q94 -16 170 -16q168 0 248 109.5t80 340.5q0 68 -15 207l-36 303l639 72l41 -344q15 -132 96 -180q122 279 319.5 447.5
t427.5 168.5q98 0 176 -32.5t124.5 -87.5t71 -121.5t24.5 -139.5q0 -111 -56 -205q71 -65 230 -65v-123l-41 -41q-188 0 -293 123q-204 -141 -674 -141q-281 0 -403 79q-122 84 -146 297l-20 187l-353 -39l17 -141q14 -147 14 -224zM1796 649q-188 0 -350 -137
q-161 -133 -270 -352q89 -15 233 -15q649 0 649 289q0 38 -15 74.5t-45 68.5t-82.5 52t-119.5 20z" />
    <glyph glyph-name="uniFEC0FEB0" unicode="&#xfec0;&#xfeb0;" horiz-adv-x="2375" 
d="M1849 1059q0 -44 -30 -74.5t-74 -30.5t-74.5 30.5t-30.5 74.5t30.5 74t74.5 30t74 -30t30 -74zM438 895q0 -44 -30 -74t-74 -30t-74.5 30t-30.5 74t30.5 74t74.5 30t74 -30t30 -74zM477 141q0 -314 -113 -464t-348 -150q-74 0 -180 16v164q94 -16 170 -16
q168 0 248 109.5t80 340.5q0 68 -15 207l-36 303l639 72l41 -344q15 -132 96 -180q122 279 319.5 447.5t427.5 168.5q98 0 176 -32.5t124.5 -87.5t71 -121.5t24.5 -139.5q0 -111 -56 -205q71 -65 230 -65v-123l-41 -41q-188 0 -293 123q-204 -141 -674 -141q-281 0 -403 79
q-122 84 -146 297l-20 187l-353 -39l17 -141q14 -147 14 -224zM1796 649q-188 0 -350 -137q-161 -133 -270 -352q89 -15 233 -15q649 0 649 289q0 38 -15 74.5t-45 68.5t-82.5 52t-119.5 20z" />
    <glyph glyph-name="uniFB59FEB0" unicode="&#xfb59;&#xfeb0;" horiz-adv-x="1239" 
d="M434 895q0 -44 -30 -74t-74 -30t-74.5 30t-30.5 74t30.5 74t74.5 30t74 -30t30 -74zM477 141q0 -314 -113 -464t-348 -150q-74 0 -180 16v164q94 -16 170 -16q168 0 248 109.5t80 340.5q0 68 -15 207l-36 303l639 72l41 -344q15 -132 69 -174q59 -41 207 -41v-123
l-41 -41q-188 0 -272 78q-86 80 -107 280l-20 187l-353 -39l17 -141q14 -147 14 -224zM1096 -268q0 -44 -30.5 -74.5t-74.5 -30.5t-74 30.5t-30 74.5t30 74t74 30t74.5 -30t30.5 -74zM825 -268q0 -44 -30 -74.5t-74 -30.5t-74.5 30.5t-30.5 74.5t30.5 74t74.5 30t74 -30
t30 -74zM958 -518q0 -44 -30 -74.5t-74 -30.5t-74 30.5t-30 74.5t30 74t74 30t74 -30t30 -74z" />
    <glyph glyph-name="uniFBFFFEB0" unicode="&#xfbff;&#xfeb0;" horiz-adv-x="1239" 
d="M434 895q0 -44 -30 -74t-74 -30t-74.5 30t-30.5 74t30.5 74t74.5 30t74 -30t30 -74zM477 141q0 -314 -113 -464t-348 -150q-74 0 -180 16v164q94 -16 170 -16q168 0 248 109.5t80 340.5q0 68 -15 207l-36 303l639 72l41 -344q15 -132 69 -174q59 -41 207 -41v-123
l-41 -41q-188 0 -272 78q-86 80 -107 280l-20 187l-353 -39l17 -141q14 -147 14 -224zM1098 -268q0 -44 -30.5 -74.5t-74.5 -30.5t-74 30.5t-30 74.5t30 74t74 30t74.5 -30t30.5 -74zM827 -268q0 -44 -30 -74.5t-74 -30.5t-74.5 30.5t-30.5 74.5t30.5 74t74.5 30t74 -30
t30 -74z" />
    <glyph glyph-name="uni066E.init" unicode="&#x66e;" horiz-adv-x="516" 
d="M0 0h-41v123l41 41q139 0 194.5 61.5t55.5 200.5q0 132 -35 369h150q28 -207 28 -369q0 -220 -95 -323t-298 -103z" />
    <glyph glyph-name="uni066E.medi" unicode="&#x66e;" horiz-adv-x="612" 
d="M612 164v-123l-41 -41q-133 0 -207.5 47t-97.5 146q-40 -193 -307 -193v123l41 41q125 0 178 62.5t53 213.5v211h144v-211q0 -173 49 -225q51 -51 188 -51z" />
    <glyph glyph-name="uni066E.fina" unicode="&#x66e;" horiz-adv-x="1882" 
d="M1882 41l-41 -41q-270 0 -307 207q-38 -115 -205.5 -170t-474.5 -55q-383 0 -557 112t-174 359q0 154 35 270h143q-35 -163 -35 -240q0 -178 139.5 -258t448.5 -80q134 0 228.5 5.5t169 19t120.5 34.5t76 55t41.5 77t11.5 104v211h144v-211q0 -173 49 -225
q51 -51 188 -51v-123z" />
    <glyph glyph-name="uni066F.fina" unicode="&#x66f;" horiz-adv-x="1466" 
d="M1466 41l-41 -41h-45q-31 -239 -181 -356t-427 -117q-330 0 -489.5 143.5t-159.5 429.5q0 142 33 285h143q-33 -143 -33 -285q0 -409 506 -409q228 0 335 70t130 239h-219q-200 0 -310 98.5t-110 272.5q0 179 113 311.5t272 132.5q191 0 296.5 -169t109.5 -482h77v-123z
M1020 164h225q-12 487 -272 487q-102 0 -166 -84.5t-64 -195.5q0 -207 277 -207z" />
    <glyph glyph-name="uni06A1.init" unicode="&#x6a1;" horiz-adv-x="929" 
d="M266 0h-307v123l41 41h266q58 0 92 0.5t76.5 2.5t66 5.5t51.5 10t43 17t31.5 24t25 33t15.5 44t11 55.5q-91 -26 -217 -26q-192 0 -306 95t-114 263q0 113 50.5 213t137.5 160.5t187 60.5q192 0 301.5 -162.5t109.5 -449.5q0 -112 -10.5 -190.5t-39 -137t-67.5 -93
t-106.5 -55t-145 -27.5t-192.5 -7zM186 688q0 -99 76 -146.5t201 -47.5q121 0 221 28q-6 207 -76.5 321.5t-191.5 114.5q-98 0 -164 -77.5t-66 -192.5z" />
    <glyph glyph-name="uni06A1.medi" unicode="&#x6a1;" horiz-adv-x="974" 
d="M90 0h-131v123l41 41h90q113 0 186 8q-186 140 -186 334q0 92 34 174t90 138t128.5 88t149.5 32q164 0 274.5 -123t110.5 -293q0 -209 -177 -348q92 -10 177 -10h98v-123l-41 -41h-57q-211 0 -388 61q-177 -61 -399 -61zM233 516q0 -103 72 -180.5t203 -120.5
q225 74 225 287q0 106 -67 188q-69 84 -183 84q-111 0 -180.5 -78t-69.5 -180z" />
    <glyph glyph-name="uni06A1.fina" unicode="&#x6a1;" horiz-adv-x="1894" 
d="M1780 502q0 -191 -170 -322q134 -16 286 -16v-123l-41 -41q-268 0 -466 63q-230 -81 -525 -81q-350 0 -547 96q-195 95 -192 358q0 122 47 287h143q-47 -152 -47 -254q0 -79 25.5 -136.5t72 -93.5t122.5 -57t164.5 -29t211.5 -8q162 0 310 23q-181 130 -181 334
q0 116 56 217.5t147 160t190 58.5q167 0 280.5 -128t113.5 -308zM1137 512q0 -198 258 -285q117 47 179 120t62 165q0 104 -69.5 183t-180.5 79t-180 -79t-69 -183z" />
    <glyph glyph-name="uni06C2.fina" unicode="&#x6c2;" horiz-adv-x="995" 
d="M696 1370v-123l-413 -57v123l106 14q-70 44 -70 129q0 73 52 123.5t127 50.5q69 0 114 -42t52 -115l-95 -13q-24 47 -77 47q-33 0 -54.5 -18t-21.5 -49q0 -44 42 -71t99 -19zM995 164v-123l-41 -41q-119 0 -183.5 51t-84.5 166q-68 -174 -291 -174q-160 0 -251 87
t-91 241q0 115 71.5 206t219.5 166l324 168v160h143v-688q0 -119 42 -169t142 -50zM197 371q0 -76 52.5 -120t145.5 -44q141 0 207 55t66 172v336l-246 -129q-114 -58 -169.5 -123.5t-55.5 -146.5z" />
    <glyph glyph-name="uni06C3.fina" unicode="&#x6c3;" horiz-adv-x="1249" 
d="M864 874q0 -44 -30 -74t-74 -30t-74.5 30t-30.5 74t30.5 74.5t74.5 30.5t74 -30.5t30 -74.5zM594 874q0 -44 -30.5 -74t-74.5 -30t-74 30t-30 74t30 74.5t74 30.5t74.5 -30.5t30.5 -74.5zM1249 164v-123l-41 -41q-190 0 -278 55q-86 54 -127 219l-15 60
q-19 74 -49.5 103.5t-89.5 29.5q-99 0 -235 -53q-120 -48 -367 -187v164q253 141 369 187q133 53 233 53q117 0 178.5 -55.5t96.5 -194.5l18 -70q24 -97 71 -122t195 -25h41z" />
    <glyph glyph-name="uni06CC.init" unicode="&#x6cc;" horiz-adv-x="516" arabic-form="initial" 
d="M0 0h-41v123l41 41q139 0 194.5 61.5t55.5 200.5q0 132 -35 369h150q28 -207 28 -369q0 -220 -95 -323t-298 -103zM467 -268q0 -44 -30.5 -74.5t-74.5 -30.5t-74 30.5t-30 74.5t30 74t74 30t74.5 -30t30.5 -74zM197 -268q0 -44 -30.5 -74.5t-74.5 -30.5t-74 30.5
t-30 74.5t30 74t74 30t74.5 -30t30.5 -74z" />
    <glyph glyph-name="uni06D5.fina" unicode="&#x6d5;" horiz-adv-x="995" 
d="M995 164v-123l-41 -41q-119 0 -183.5 51t-84.5 166q-68 -174 -291 -174q-160 0 -251 87t-91 241q0 115 71.5 206t219.5 166l324 168v160h143v-688q0 -119 42 -169t142 -50zM197 371q0 -76 52.5 -120t145.5 -44q141 0 207 55t66 172v336l-246 -129q-114 -58 -169.5 -123.5
t-55.5 -146.5z" />
    <glyph glyph-name="uniFB51" unicode="&#x671;" horiz-adv-x="544" arabic-form="final" 
d="M-18 1315h-95q0 85 44 135.5t116 50.5h25q44 100 107 155.5t132 55.5q80 0 125 -45.5t45 -126.5q0 -91 -49 -141.5t-137 -50.5q-51 0 -129.5 17t-118.5 17q-65 0 -65 -67zM297 1593q-90 0 -145 -104q108 -23 143 -23q42 0 67 16t25 42q0 32 -23.5 50.5t-66.5 18.5z
M545 164v-123l-41 -41q-174 0 -257 102.5t-83 317.5v833h143v-833q0 -131 58.5 -193.5t179.5 -62.5z" />
    <glyph glyph-name="uniFB57" unicode="&#x67e;" horiz-adv-x="1882" arabic-form="final" 
d="M1882 41l-41 -41q-270 0 -307 207q-38 -115 -205.5 -170t-474.5 -55q-383 0 -557 112t-174 359q0 154 35 270h143q-35 -163 -35 -240q0 -178 139.5 -258t448.5 -80q134 0 228.5 5.5t169 19t120.5 34.5t76 55t41.5 77t11.5 104v211h144v-211q0 -173 49 -225
q51 -51 188 -51v-123zM1122 -268q0 -44 -30 -74.5t-74 -30.5t-74.5 30.5t-30.5 74.5t30.5 74t74.5 30t74 -30t30 -74zM852 -268q0 -44 -30 -74.5t-74 -30.5t-74.5 30.5t-30.5 74.5t30.5 74t74.5 30t74 -30t30 -74zM985 -518q0 -44 -30 -74.5t-74 -30.5t-74.5 30.5
t-30.5 74.5t30.5 74t74.5 30t74 -30t30 -74z" />
    <glyph glyph-name="uniFB58" unicode="&#x67e;" horiz-adv-x="516" arabic-form="initial" 
d="M0 0h-41v123l41 41q139 0 194.5 61.5t55.5 200.5q0 132 -35 369h150q28 -207 28 -369q0 -220 -95 -323t-298 -103zM465 -268q0 -44 -30.5 -74.5t-74.5 -30.5t-74 30.5t-30 74.5t30 74t74 30t74.5 -30t30.5 -74zM195 -268q0 -44 -30.5 -74.5t-74.5 -30.5t-74 30.5
t-30 74.5t30 74t74 30t74.5 -30t30.5 -74zM328 -518q0 -44 -30.5 -74.5t-74.5 -30.5t-74 30.5t-30 74.5t30 74t74 30t74.5 -30t30.5 -74z" />
    <glyph glyph-name="uniFB59" unicode="&#x67e;" horiz-adv-x="612" arabic-form="medial" 
d="M612 164v-123l-41 -41q-133 0 -207.5 47t-97.5 146q-40 -193 -307 -193v123l41 41q125 0 178 62.5t53 213.5v211h144v-211q0 -173 49 -225q51 -51 188 -51zM500 -268q0 -44 -30.5 -74.5t-74.5 -30.5t-74 30.5t-30 74.5t30 74t74 30t74.5 -30t30.5 -74zM229 -268
q0 -44 -30 -74.5t-74 -30.5t-74.5 30.5t-30.5 74.5t30.5 74t74.5 30t74 -30t30 -74zM362 -518q0 -44 -30 -74.5t-74 -30.5t-74 30.5t-30 74.5t30 74t74 30t74 -30t30 -74z" />
    <glyph glyph-name="uniFB67" unicode="&#x679;" horiz-adv-x="1882" arabic-form="final" 
d="M909 795h-311v118h82q3 8 10.5 26.5t11.5 27.5v389h95v-250q77 74 170 74q82 0 128 -51t46 -142q0 -93 -64 -142.5t-168 -49.5zM954 1061q-55 0 -101 -39t-79 -109h135q61 0 99.5 19t38.5 55q0 35 -25.5 54.5t-67.5 19.5zM1882 41l-41 -41q-270 0 -307 207
q-38 -115 -205.5 -170t-474.5 -55q-383 0 -557 112t-174 359q0 154 35 270h143q-35 -163 -35 -240q0 -178 139.5 -258t448.5 -80q134 0 228.5 5.5t169 19t120.5 34.5t76 55t41.5 77t11.5 104v211h144v-211q0 -173 49 -225q51 -51 188 -51v-123z" />
    <glyph glyph-name="uniFB68" unicode="&#x679;" horiz-adv-x="516" arabic-form="initial" 
d="M283 958h-312v119h82q2 5 10 24.5t13 28.5v390h94v-250q76 73 170 73q82 0 128 -50.5t46 -141.5q0 -94 -63.5 -143.5t-167.5 -49.5zM328 1225q-55 0 -101.5 -39t-79.5 -109h136q61 0 99 18.5t38 55.5q0 35 -25 54.5t-67 19.5zM0 0h-41v123l41 41q139 0 194.5 61.5
t55.5 200.5q0 132 -35 369h150q28 -207 28 -369q0 -220 -95 -323t-298 -103z" />
    <glyph glyph-name="uniFB69" unicode="&#x679;" horiz-adv-x="612" arabic-form="medial" 
d="M330 815h-312v119h82q2 5 10 24.5t13 28.5v389h94v-250q77 74 170 74q82 0 128 -50.5t46 -141.5q0 -94 -63.5 -143.5t-167.5 -49.5zM375 1081q-111 0 -180 -147h135q61 0 99 18.5t38 55.5q0 35 -25 54t-67 19zM612 164v-123l-41 -41q-133 0 -207.5 47t-97.5 146
q-40 -193 -307 -193v123l41 41q125 0 178 62.5t53 213.5v211h144v-211q0 -173 49 -225q51 -51 188 -51z" />
    <glyph glyph-name="uniFB6B" unicode="&#x6a4;" horiz-adv-x="1894" arabic-form="final" 
d="M1493 1432q0 -44 -30 -74.5t-74 -30.5t-74.5 30.5t-30.5 74.5t30.5 74t74.5 30t74 -30t30 -74zM1356 1182q0 -44 -30.5 -74.5t-74.5 -30.5t-74 30.5t-30 74.5t30 74t74 30t74.5 -30t30.5 -74zM1626 1182q0 -44 -30 -74.5t-74 -30.5t-74.5 30.5t-30.5 74.5t30.5 74
t74.5 30t74 -30t30 -74zM1780 502q0 -191 -170 -322q134 -16 286 -16v-123l-41 -41q-268 0 -466 63q-230 -81 -525 -81q-350 0 -547 96q-195 95 -192 358q0 122 47 287h143q-47 -152 -47 -254q0 -79 25.5 -136.5t72 -93.5t122.5 -57t164.5 -29t211.5 -8q162 0 310 23
q-181 130 -181 334q0 116 56 217.5t147 160t190 58.5q167 0 280.5 -128t113.5 -308zM1137 512q0 -198 258 -285q117 47 179 120t62 165q0 104 -69.5 183t-180.5 79t-180 -79t-69 -183z" />
    <glyph glyph-name="uniFB6C" unicode="&#x6a4;" horiz-adv-x="929" arabic-form="initial" 
d="M522 1616q0 -44 -30 -74.5t-74 -30.5t-74.5 30.5t-30.5 74.5t30.5 74t74.5 30t74 -30t30 -74zM385 1366q0 -44 -30 -74t-74 -30t-74.5 30t-30.5 74t30.5 74t74.5 30t74 -30t30 -74zM655 1366q0 -44 -30 -74t-74 -30t-74.5 30t-30.5 74t30.5 74t74.5 30t74 -30t30 -74z
M266 0h-307v123l41 41h266q58 0 92 0.5t76.5 2.5t66 5.5t51.5 10t43 17t31.5 24t25 33t15.5 44t11 55.5q-91 -26 -217 -26q-192 0 -306 95t-114 263q0 113 50.5 213t137.5 160.5t187 60.5q192 0 301.5 -162.5t109.5 -449.5q0 -112 -10.5 -190.5t-39 -137t-67.5 -93
t-106.5 -55t-145 -27.5t-192.5 -7zM186 688q0 -99 76 -146.5t201 -47.5q121 0 221 28q-6 207 -76.5 321.5t-191.5 114.5q-98 0 -164 -77.5t-66 -192.5z" />
    <glyph glyph-name="uniFB6D" unicode="&#x6a4;" horiz-adv-x="974" arabic-form="medial" 
d="M592 1432q0 -44 -30.5 -74.5t-74.5 -30.5t-74 30.5t-30 74.5t30 74t74 30t74.5 -30t30.5 -74zM455 1182q0 -44 -30.5 -74.5t-74.5 -30.5t-74 30.5t-30 74.5t30 74t74 30t74.5 -30t30.5 -74zM725 1182q0 -44 -30 -74.5t-74 -30.5t-74.5 30.5t-30.5 74.5t30.5 74t74.5 30
t74 -30t30 -74zM90 0h-131v123l41 41h90q113 0 186 8q-186 140 -186 334q0 92 34 174t90 138t128.5 88t149.5 32q164 0 274.5 -123t110.5 -293q0 -209 -177 -348q92 -10 177 -10h98v-123l-41 -41h-57q-211 0 -388 61q-177 -61 -399 -61zM233 516q0 -103 72 -180.5
t203 -120.5q225 74 225 287q0 106 -67 188q-69 84 -183 84q-111 0 -180.5 -78t-69.5 -180z" />
    <glyph glyph-name="uniFB7B" unicode="&#x686;" horiz-adv-x="1216" arabic-form="final" 
d="M1217 164v-123l-41 -41q-155 0 -229.5 83.5t-74.5 256.5v141q-177 -24 -314 -80.5t-219 -134t-123.5 -166t-41.5 -184.5q0 -184 132 -287.5t366 -103.5q135 0 271.5 29t240.5 73v-159q-112 -49 -248.5 -78t-263.5 -29q-302 0 -471 150q-170 147 -170 395q0 124 47.5 232
t141 197t243.5 152t344 91q-43 12 -113 43l-182 79q-125 54 -193 54q-46 0 -75 -27.5t-37 -75.5h-144q8 125 76 196t183 71q99 0 260 -70l182 -80q155 -70 233 -93.5t148 -23.5h39v-153h-39q-47 0 -129 -4v-154q0 -176 201 -176zM834 66q0 -44 -30.5 -74.5t-74.5 -30.5
t-74 30.5t-30 74.5t30 74t74 30t74.5 -30t30.5 -74zM563 66q0 -44 -30 -74.5t-74 -30.5t-74.5 30.5t-30.5 74.5t30.5 74t74.5 30t74 -30t30 -74zM696 -184q0 -44 -30 -74.5t-74 -30.5t-74.5 30.5t-30.5 74.5t30.5 74t74.5 30t74 -30t30 -74z" />
    <glyph glyph-name="uniFB7C" unicode="&#x686;" horiz-adv-x="1282" arabic-form="initial" 
d="M119 0h-160v123l41 41h119q148 0 245 25t236 98l139 73q119 61 168 80q-66 17 -213 78l-182 80q-122 53 -193 53q-47 0 -75.5 -27t-36.5 -75h-144q8 125 76 195.5t183 70.5q99 0 260 -70l182 -79q163 -70 242 -93.5t159 -23.5h80v-154h-80q-67 0 -143 -30
q-70 -27 -231 -125l-129 -76q-163 -98 -273.5 -131t-269.5 -33zM889 -268q0 -44 -30.5 -74.5t-74.5 -30.5t-74 30.5t-30 74.5t30 74t74 30t74.5 -30t30.5 -74zM618 -268q0 -44 -30 -74.5t-74 -30.5t-74 30.5t-30 74.5t30 74t74 30t74 -30t30 -74zM752 -518
q0 -44 -30.5 -74.5t-74.5 -30.5t-74 30.5t-30 74.5t30 74t74 30t74.5 -30t30.5 -74z" />
    <glyph glyph-name="uniFB7D" unicode="&#x686;" horiz-adv-x="1286" arabic-form="medial" 
d="M119 0h-160v123l41 41h119q148 0 245 25t236 98l139 73q119 61 168 80q-66 17 -213 78l-182 80q-122 53 -193 53q-47 0 -75.5 -27t-36.5 -75h-144q8 125 76 195.5t183 70.5q99 0 260 -70l182 -79q163 -70 242 -93.5t159 -23.5h80v-154h-80q-46 0 -80 -10v-45
q0 -176 201 -176v-123l-41 -41q-155 0 -229 80.5t-74 245.5l-151 -86l-129 -76q-163 -98 -273.5 -131t-269.5 -33zM889 -268q0 -44 -30.5 -74.5t-74.5 -30.5t-74 30.5t-30 74.5t30 74t74 30t74.5 -30t30.5 -74zM618 -268q0 -44 -30 -74.5t-74 -30.5t-74 30.5t-30 74.5t30 74
t74 30t74 -30t30 -74zM752 -518q0 -44 -30.5 -74.5t-74.5 -30.5t-74 30.5t-30 74.5t30 74t74 30t74.5 -30t30.5 -74z" />
    <glyph glyph-name="uniFB89" unicode="&#x688;" horiz-adv-x="1126" arabic-form="final" 
d="M580 1149h-312v119h82q2 5 10 24.5t13 28.5v389h94v-250q77 74 170 74q82 0 128 -51t46 -142q0 -94 -63.5 -143t-167.5 -49zM625 1415q-55 0 -101.5 -38.5t-79.5 -108.5h136q61 0 99 18.5t38 54.5q0 35 -25 54.5t-67 19.5zM1126 164v-123l-41 -41q-87 0 -143.5 35
t-101.5 115q-94 -80 -212.5 -124.5t-236.5 -43.5q-174 2 -257 79.5t-83 241.5h144q0 -84 44 -121t152 -37q110 0 213.5 31t181.5 88q-1 5 -5 14.5t-5 14.5l-258 692h160l242 -645q37 -99 79.5 -137.5t126.5 -38.5z" />
    <glyph glyph-name="uniFB8B" unicode="&#x698;" horiz-adv-x="700" arabic-form="final" 
d="M424 1145q0 -44 -30.5 -74.5t-74.5 -30.5t-74 30.5t-30 74.5t30 74t74 30t74.5 -30t30.5 -74zM287 895q0 -44 -30.5 -74t-74.5 -30t-74 30t-30 74t30 74t74 30t74.5 -30t30.5 -74zM557 895q0 -44 -30 -74t-74 -30t-74.5 30t-30.5 74t30.5 74t74.5 30t74 -30t30 -74z
M700 41l-41 -41q-68 0 -124 26.5t-89 71.5q-19 -270 -132 -420.5t-298 -150.5q-74 0 -180 16v164q94 -16 170 -16q152 0 238 126t86 349q0 247 -45 485h139l41 -274q26 -213 235 -213v-123z" />
    <glyph glyph-name="uniFB8D" unicode="&#x691;" horiz-adv-x="700" arabic-form="final" 
d="M342 815h-311v119h82q3 7 10.5 25.5t11.5 27.5v389h94v-250q77 74 170 74q82 0 128 -50.5t46 -141.5q0 -94 -63.5 -143.5t-167.5 -49.5zM387 1081q-111 0 -180 -147h135q61 0 99 18.5t38 55.5q0 35 -25 54t-67 19zM700 41l-41 -41q-68 0 -124 26.5t-89 71.5
q-19 -270 -132 -420.5t-298 -150.5q-74 0 -180 16v164q94 -16 170 -16q152 0 238 126t86 349q0 247 -45 485h139l41 -274q26 -213 235 -213v-123z" />
    <glyph glyph-name="uniFB8F" unicode="&#x6a9;" horiz-adv-x="1796" arabic-form="final" 
d="M1796 41l-41 -41q-237 0 -373 213q-31 -107 -179 -169t-390 -62q-370 0 -540.5 112t-170.5 359q0 123 33 270h146q-35 -163 -35 -240q0 -178 136 -258t431 -80q231 0 355 41t124 107q0 33 -17 70.5t-65 109.5l-311 469v139l856 502l-2 -188l-692 -404l358 -542
q114 -173 189 -230q76 -55 188 -55v-123z" />
    <glyph glyph-name="uniFB90" unicode="&#x6a9;" horiz-adv-x="944" arabic-form="initial" 
d="M414 0h-455v123l41 41h434q94 0 141.5 37.5t47.5 95.5q0 63 -48 123q-52 68 -159 170l-369 352v139l856 502l-2 -188l-686 -391l287 -279q143 -140 203.5 -237.5t60.5 -190.5q0 -133 -92.5 -215t-259.5 -82z" />
    <glyph glyph-name="uniFB91" unicode="&#x6a9;" horiz-adv-x="944" arabic-form="medial" 
d="M229 0h-270v123l41 41h229q102 0 156.5 35t54.5 94q0 33 -17 70.5t-65 109.5l-311 469v139l856 502l-2 -188l-692 -404l358 -542q118 -171 192.5 -228t184.5 -57v-123l-41 -41q-235 0 -371 209q-19 -98 -97.5 -153.5t-205.5 -55.5z" />
    <glyph glyph-name="uniFB93" unicode="&#x6af;" horiz-adv-x="1796" arabic-form="final" 
d="M1755 1853l-2 -127l-854 -501v127zM1796 41l-41 -41q-237 0 -373 213q-31 -107 -179 -169t-390 -62q-370 0 -540.5 112t-170.5 359q0 123 33 270h146q-35 -163 -35 -240q0 -178 136 -258t431 -80q231 0 355 41t124 107q0 33 -17 70.5t-65 109.5l-311 469v139l856 502
l-2 -188l-692 -404l358 -542q114 -173 189 -230q76 -55 188 -55v-123z" />
    <glyph glyph-name="uniFB94" unicode="&#x6af;" horiz-adv-x="944" arabic-form="initial" 
d="M903 1853l-2 -127l-854 -501v127zM414 0h-455v123l41 41h434q94 0 141.5 37.5t47.5 95.5q0 63 -48 123q-52 68 -159 170l-369 352v139l856 502l-2 -188l-686 -391l287 -279q143 -140 203.5 -237.5t60.5 -190.5q0 -133 -92.5 -215t-259.5 -82z" />
    <glyph glyph-name="uniFB95" unicode="&#x6af;" horiz-adv-x="944" arabic-form="medial" 
d="M903 1853l-2 -127l-854 -501v127zM229 0h-270v123l41 41h229q102 0 156.5 35t54.5 94q0 33 -17 70.5t-65 109.5l-311 469v139l856 502l-2 -188l-692 -404l358 -542q118 -171 192.5 -228t184.5 -57v-123l-41 -41q-235 0 -371 209q-19 -98 -97.5 -153.5t-205.5 -55.5z" />
    <glyph glyph-name="uniFB9F" unicode="&#x6ba;" horiz-adv-x="1488" arabic-form="final" 
d="M1491 41l-41 -41q-160 0 -229 84q-8 -230 -143 -352.5t-386 -122.5q-294 0 -431.5 139t-135.5 404q3 116 33 284h143q-30 -155 -33 -254q-2 -207 96.5 -308t327.5 -101q217 0 320.5 86t103.5 266q0 63 -18 207l-29 176h145l25 -154q18 -106 71.5 -148t180.5 -42v-123z
" />
    <glyph glyph-name="uniFBA7" unicode="&#x6c1;" horiz-adv-x="1249" arabic-form="final" 
d="M1249 164v-123l-41 -41q-190 0 -278 55q-86 54 -127 219l-15 60q-19 74 -49.5 103.5t-89.5 29.5q-99 0 -235 -53q-120 -48 -367 -187v164q253 141 369 187q133 53 233 53q117 0 178.5 -55.5t96.5 -194.5l18 -70q24 -97 71 -122t195 -25h41z" />
    <glyph glyph-name="uniFBA8" unicode="&#x6c1;" horiz-adv-x="1003" arabic-form="initial" 
d="M881 303q0 -164 -77 -242.5t-231 -78.5q-131 0 -208.5 55.5t-98.5 157.5q-45 -195 -307 -195l8 123l33 41q111 0 171 58t60 177v109h144v-109q0 -132 45.5 -193t148.5 -61q84 0 126 37.5t42 132.5q0 89 -28 265h151q21 -150 21 -277zM627 -473h-164q0 6 -3 32.5t-3 41.5
q0 47 10 85t43 121l39 101l131 -53l-31 -86q-28 -92 -28 -170q0 -45 6 -72z" />
    <glyph glyph-name="uniFBA9" unicode="&#x6c1;" horiz-adv-x="972" arabic-form="medial" 
d="M678 -244l-2 -227l-117 -121l-235 225q-213 206 -142 428q-48 -34 -99.5 -47.5t-123.5 -13.5v123l41 41q105 0 164 33q65 36 141 127l51 61l101 -80l-41 -59q-69 -99 -91.5 -176.5t4 -156t111.5 -159.5l95 -90v88q0 199 108.5 305.5t329.5 106.5v-123l-41 -41
q-133 0 -193.5 -59.5t-60.5 -184.5z" />
    <glyph glyph-name="uniFBAB" unicode="&#x6be;" horiz-adv-x="1189" arabic-form="final" 
d="M1022 369q0 -111 -94 -205h262v-123l-41 -41h-135q92 -73 92 -182q0 -124 -92 -207q-90 -84 -226 -84q-156 0 -295.5 121.5t-226.5 335.5q-144 9 -246 36v160q123 -27 236 -30q86 166 207 314.5t250 248.5h159q150 -187 150 -344zM879 381q0 108 -107 209
q-100 -78 -197 -195t-172 -250q118 3 213 19h5q258 46 258 217zM969 -182q0 134 -254 221q-132 -52 -295 -55q75 -139 171.5 -216t196.5 -77q75 0 128 36.5t53 90.5z" />
    <glyph glyph-name="uniFBAC" unicode="&#x6be;" horiz-adv-x="1232" arabic-form="initial" 
d="M1161 367q0 -179 -123 -282t-346 -103q-173 0 -317 69q-181 -51 -416 -51v123l41 41q111 0 209 10q-125 131 -125 307q0 114 62 207.5t157 132.5v140l289 -95q322 -105 444 -215q125 -110 125 -284zM227 481q0 -80 46.5 -150.5t132.5 -117.5q227 75 227 268
q0 94 -60 156.5t-153 62.5q-84 0 -138.5 -62.5t-54.5 -156.5zM776 481q0 -199 -182 -327q52 -9 111 -9q142 0 228.5 55.5t86.5 168.5q0 93 -63.5 157.5t-221.5 126.5q41 -74 41 -172z" />
    <glyph glyph-name="uniFBAD" unicode="&#x6be;" horiz-adv-x="1036" arabic-form="medial" 
d="M952 -182q0 -124 -92 -207q-90 -84 -225 -84q-160 0 -300.5 125.5t-228.5 347.5h-147v123l41 41h111q88 164 205.5 309t242.5 240h160q149 -186 149 -344q0 -116 -112 -205h280v-123l-41 -41h-135q92 -73 92 -182zM725 381q0 108 -107 209q-96 -75 -189.5 -185.5
t-168.5 -238.5q465 15 465 215zM815 -182q0 137 -297 229q-111 -34 -262 -43q75 -148 175 -230.5t204 -82.5q75 0 127.5 36.5t52.5 90.5z" />
    <glyph glyph-name="uniFBAF" unicode="&#x6d2;" horiz-adv-x="1667" arabic-form="final" 
d="M1606 -272v-164q-370 -37 -785 -37q-389 0 -574.5 66.5t-185.5 207.5q0 74 51 138.5t153 115.5t271.5 80t389.5 29h741v-123l-39 -41h-702q-394 0 -559 -59q-162 -58 -162 -123q0 -127 616 -127q448 0 785 37z" />
    <glyph glyph-name="uniFBB1" unicode="&#x6d3;" horiz-adv-x="1667" arabic-form="final" 
d="M776 463v-123l-414 -57v123l107 14q-70 44 -70 129q0 73 52 123.5t127 50.5q69 0 113.5 -42.5t51.5 -115.5l-94 -12q-24 47 -78 47q-33 0 -54 -18t-21 -50q0 -44 42 -71t99 -19zM1606 -272v-164q-370 -37 -785 -37q-389 0 -574.5 66.5t-185.5 207.5q0 74 51 138.5
t153 115.5t271.5 80t389.5 29h741v-123l-39 -41h-702q-394 0 -559 -59q-162 -58 -162 -123q0 -127 616 -127q448 0 785 37z" />
    <glyph glyph-name="uniFBFD" unicode="&#x6cc;" horiz-adv-x="1531" arabic-form="final" 
d="M1468 -145q0 -66 -40 -123.5t-121 -104t-218.5 -73.5t-316.5 -27q-649 0 -649 496q0 148 33 280h143q-33 -132 -33 -250q0 -362 506 -362q309 0 430 53t121 123q0 61 -59 97t-162 36h-39v164h469v-123l-41 -41h-82q59 -69 59 -145z" />
    <glyph glyph-name="uniFBFF" unicode="&#x6cc;" horiz-adv-x="612" arabic-form="medial" 
d="M612 164v-123l-41 -41q-133 0 -207.5 47t-97.5 146q-40 -193 -307 -193v123l41 41q125 0 178 62.5t53 213.5v211h144v-211q0 -173 49 -225q51 -51 188 -51zM502 -268q0 -44 -30.5 -74.5t-74.5 -30.5t-74 30.5t-30 74.5t30 74t74 30t74.5 -30t30.5 -74zM231 -268
q0 -44 -30 -74.5t-74 -30.5t-74 30.5t-30 74.5t30 74t74 30t74 -30t30 -74z" />
    <glyph glyph-name="uniFDFC" unicode="&#xfdfc;" horiz-adv-x="2463" arabic-form="isolated" 
d="M1262 457v-213q0 -309 -148 -472t-430 -163q-291 0 -426 139t-133 404q3 116 33 284h143q-30 -155 -33 -254q-2 -208 94.5 -308.5t321.5 -100.5q222 0 328 109t106 360v71q-139 -114 -323 -114q-175 0 -268 88.5t-93 263.5q0 101 33 219h147q-36 -130 -36 -219
q0 -93 56.5 -141t160.5 -48q92 0 169 34.5t154 113.5v1073h144v-895l227 318q22 34 80 110v467h143v-283q66 72 119.5 105t114.5 33q235 0 235 -285h-143q0 121 -92 121q-43 0 -91 -39q-50 -41 -143 -162v-653q0 -141 55 -198.5t191 -57.5q134 0 188 62t54 200
q0 132 -35 369h149q29 -214 29 -369q0 -219 -94 -322.5t-291 -103.5q-202 0 -295.5 102t-93.5 318v457l-209 -291zM1933 -268q0 -44 -30 -74.5t-74 -30.5t-74.5 30.5t-30.5 74.5t30.5 74t74.5 30t74 -30t30 -74zM2204 -268q0 -44 -30.5 -74.5t-74.5 -30.5t-74 30.5t-30 74.5
t30 74t74 30t74.5 -30t30.5 -74z" />
    <glyph glyph-name="uniFE82" unicode="&#x622;" horiz-adv-x="544" arabic-form="final" 
d="M29 1298h-95q0 85 44 136t116 51q51 0 146.5 -17.5t142.5 -17.5q67 0 123 23v-113q-56 -29 -123 -29q-59 0 -150 17.5t-139 17.5q-65 0 -65 -68zM545 164v-123l-41 -41q-174 0 -257 102.5t-83 317.5v833h143v-833q0 -131 58.5 -193.5t179.5 -62.5z" />
    <glyph glyph-name="uniFE84" unicode="&#x623;" horiz-adv-x="544" arabic-form="final" 
d="M434 1532v-123l-414 -57v123l107 14q-70 44 -70 129q0 73 52 123.5t127 50.5q69 0 113.5 -42.5t51.5 -115.5l-94 -12q-24 47 -78 47q-33 0 -54 -18t-21 -49q0 -44 42 -71t99 -20zM545 164v-123l-41 -41q-174 0 -257 102.5t-83 317.5v833h143v-833q0 -131 58.5 -193.5
t179.5 -62.5z" />
    <glyph glyph-name="uniFE86" unicode="&#x624;" horiz-adv-x="950" arabic-form="final" 
d="M655 1114v-123l-413 -57v123l106 14q-69 43 -69 129q0 73 51.5 123.5t126.5 50.5q69 0 114 -42t52 -115l-95 -13q-24 47 -77 47q-33 0 -54.5 -18t-21.5 -49q0 -44 42 -71t99 -19zM950 41l-41 -41h-59q-26 -242 -148 -357.5t-344 -115.5q-134 0 -266 31v172
q156 -39 273 -39q157 0 238 71t104 238h-148q-248 0 -367.5 95.5t-119.5 269.5q0 120 49.5 222.5t140 165t201.5 62.5q178 0 286.5 -170.5t108.5 -480.5h92v-123zM561 164h154q-1 241 -69 364t-193 123q-109 0 -172.5 -84t-63.5 -196q0 -110 80 -158.5t264 -48.5z" />
    <glyph glyph-name="uniFE88" unicode="&#x625;" horiz-adv-x="524" arabic-form="final" 
d="M524 41l-41 -41h-10q-170 0 -250 102t-80 318v1163h144v-1163q0 -141 53 -198.5t184 -57.5v-123zM528 -383v-123l-413 -57v123l106 14q-69 43 -69 129q0 73 51.5 123.5t126.5 50.5q69 0 114 -42.5t52 -115.5l-95 -12q-24 47 -77 47q-33 0 -54.5 -18t-21.5 -49
q0 -44 42 -71t99 -19z" />
    <glyph glyph-name="uniFE8A" unicode="&#x626;" horiz-adv-x="1531" arabic-form="final" 
d="M471 602v-123l-414 -57v123l107 14q-70 44 -70 129q0 73 51.5 123.5t126.5 50.5q69 0 114 -42t52 -115l-94 -13q-24 47 -78 47q-33 0 -54.5 -18t-21.5 -49q0 -44 42.5 -71t99.5 -19zM1468 -145q0 -66 -40 -123.5t-121 -104t-218.5 -73.5t-316.5 -27q-649 0 -649 496
q0 148 33 280h143q-33 -132 -33 -250q0 -362 506 -362q309 0 430 53t121 123q0 61 -59 97t-162 36h-39v164h469v-123l-41 -41h-82q59 -69 59 -145z" />
    <glyph glyph-name="uniFE8B" unicode="&#x626;" horiz-adv-x="516" arabic-form="initial" 
d="M457 1094v-123l-414 -58v123l107 15q-70 44 -70 129q0 73 51.5 123.5t126.5 50.5q69 0 114 -42.5t52 -115.5l-94 -12q-24 47 -78 47q-33 0 -54.5 -18.5t-21.5 -49.5q0 -44 42 -71t99 -19zM0 0h-41v123l41 41q139 0 194.5 61.5t55.5 200.5q0 132 -35 369h150
q28 -207 28 -369q0 -220 -95 -323t-298 -103z" />
    <glyph glyph-name="uniFE8C" unicode="&#x626;" horiz-adv-x="612" arabic-form="medial" 
d="M504 950v-123l-414 -57v123l107 14q-70 44 -70 129q0 73 51.5 123.5t126.5 50.5q69 0 114 -42t52 -115l-94 -13q-24 47 -78 47q-33 0 -54.5 -18t-21.5 -49q0 -44 42.5 -71t99.5 -19zM612 164v-123l-41 -41q-133 0 -207.5 47t-97.5 146q-40 -193 -307 -193v123l41 41
q125 0 178 62.5t53 213.5v211h144v-211q0 -173 49 -225q51 -51 188 -51z" />
    <glyph glyph-name="uniFE8E" unicode="&#x627;" horiz-adv-x="524" arabic-form="final" 
d="M524 41l-41 -41h-10q-170 0 -250 102t-80 318v1163h144v-1163q0 -141 53 -198.5t184 -57.5v-123z" />
    </font>
</defs>
</svg>
