<?xml version="1.0" encoding="utf-8"?>
<svg version="1.1" xmlns="http://www.w3.org/2000/svg" xmlns:xlink="http://www.w3.org/1999/xlink" x="0px" y="0px" viewBox="0 0 175.6 44.2" xml:space="preserve">
	<path fill="#FFFFFF" d="M26.1,20.9c0-3,1.6-5.8,4.2-7.3c-1.6-2.3-4.2-3.7-7-3.8c-3-0.3-5.8,1.8-7.3,1.8c-1.5,0-3.9-1.7-6.4-1.7 c-3.3,0.1-6.3,1.9-7.9,4.8C-1.8,20.6,0.8,29.3,4,34.1c1.6,2.3,3.5,5,6,4.9c2.4-0.1,3.4-1.6,6.3-1.6c2.9,0,3.8,1.6,6.3,1.5 c2.6,0,4.3-2.3,5.9-4.7c1.2-1.7,2.1-3.5,2.7-5.5C28.1,27.4,26.1,24.3,26.1,20.9L26.1,20.9z M21.3,6.7c1.4-1.7,2.1-3.9,2-6.2 c-2.2,0.2-4.2,1.3-5.7,2.9c-1.4,1.6-2.2,3.8-2,5.9C17.8,9.4,19.9,8.4,21.3,6.7L21.3,6.7z M57.1,33h-8.4l-2,5.9h-3.5L51.1,17h3.7 l7.9,21.9h-3.6L57.1,33z M49.6,30.3h6.6l-3.3-9.6h-0.1L49.6,30.3z M79.7,30.9c0,5-2.7,8.2-6.7,8.2c-2.1,0.1-4-1-5-2.8H68v7.9h-3.3 V23h3.2v2.7h0.1c1-1.8,3-2.9,5.1-2.8C77.1,22.8,79.7,26,79.7,30.9z M76.4,30.9c0-3.2-1.7-5.4-4.2-5.4c-2.5,0-4.2,2.2-4.2,5.4 c0,3.2,1.7,5.4,4.2,5.4C74.7,36.3,76.4,34.2,76.4,30.9z M97.3,30.9c0,5-2.7,8.2-6.7,8.2c-2.1,0.1-4-1-5-2.8h-0.1v7.9h-3.3V23h3.2 v2.7h0.1c1-1.8,3-2.9,5.1-2.8C94.7,22.8,97.3,26,97.3,30.9z M94,30.9c0-3.2-1.7-5.4-4.2-5.4c-2.5,0-4.2,2.2-4.2,5.4 c0,3.2,1.7,5.4,4.2,5.4C92.3,36.3,94,34.2,94,30.9z M108.9,32.8c0.2,2.2,2.4,3.6,5.2,3.6c2.8,0,4.8-1.4,4.8-3.4c0-1.7-1.2-2.7-4-3.4 l-2.8-0.7c-4-1-5.9-2.9-5.9-5.9c0-3.8,3.3-6.4,8-6.4c4.6,0,7.8,2.6,7.9,6.4h-3.3c-0.2-2.2-2-3.5-4.6-3.5s-4.4,1.3-4.4,3.3 c0,1.5,1.2,2.5,4,3.2l2.4,0.6c4.5,1.1,6.4,2.9,6.4,6.1c0,4.1-3.3,6.7-8.5,6.7c-4.9,0-8.1-2.5-8.4-6.5L108.9,32.8z M129.5,19.2V23h3 v2.6h-3v8.8c0,1.4,0.6,2,1.9,2c0.4,0,0.7,0,1.1-0.1v2.6c-0.6,0.1-1.2,0.2-1.8,0.2c-3.2,0-4.5-1.2-4.5-4.3v-9.2h-2.3v-2.6h2.3v-3.8 H129.5z M134.3,30.9c0-5,3-8.2,7.6-8.2c4.6,0,7.6,3.2,7.6,8.2s-2.9,8.2-7.6,8.2C137.2,39.1,134.3,36,134.3,30.9z M146.1,30.9 c0-3.4-1.6-5.5-4.2-5.5c-2.7,0-4.2,2.1-4.2,5.5c0,3.5,1.6,5.5,4.2,5.5S146.1,34.4,146.1,30.9L146.1,30.9z M152.1,23h3.1v2.7h0.1 c0.4-1.8,2-3,3.8-2.9c0.4,0,0.8,0,1.1,0.1V26c-0.5-0.1-1-0.2-1.5-0.2c-1.8-0.1-3.4,1.3-3.4,3.2c0,0.2,0,0.3,0,0.5v9.5h-3.3V23z M175.4,34.2c-0.4,2.9-3.3,4.9-6.9,4.9c-4.6,0-7.5-3.1-7.5-8.1c0-5,2.9-8.3,7.4-8.3c4.4,0,7.2,3,7.2,7.9v1.1h-11.3V32 c-0.2,2.3,1.5,4.3,3.8,4.5c0.2,0,0.3,0,0.5,0c1.6,0.1,3.1-0.8,3.7-2.2L175.4,34.2z M164.3,29.5h8c0.1-2.1-1.5-3.9-3.6-4 c-0.1,0-0.2,0-0.3,0C166.2,25.4,164.4,27.2,164.3,29.5C164.3,29.4,164.3,29.5,164.3,29.5z M47.7,0.5c2.6-0.2,4.8,1.7,5,4.3 c0,0.3,0,0.6,0,0.9c0,3.4-1.8,5.3-5,5.3h-3.8V0.5H47.7z M45.6,9.6h2c1.8,0.1,3.4-1.3,3.5-3.1c0-0.2,0-0.5,0-0.7 C51.3,4,50,2.3,48.2,2c-0.2,0-0.4,0-0.6,0h-2V9.6z M54.5,7.1C54.4,5,55.9,3.2,57.9,3C60,2.8,61.8,4.3,62,6.4c0,0.2,0,0.5,0,0.7 c0.2,2.1-1.3,3.9-3.4,4.1c-2.1,0.2-3.9-1.3-4.1-3.4C54.5,7.6,54.5,7.3,54.5,7.1z M60.4,7.1c0-1.7-0.8-2.7-2.1-2.7s-2.1,1-2.1,2.7 s0.8,2.7,2.1,2.7S60.4,8.8,60.4,7.1z M72,11h-1.6l-1.6-5.9h-0.1L67,11h-1.6l-2.2-7.9h1.6l1.4,6.1h0.1l1.6-6.1h1.5l1.6,6.1h0.1 l1.4-6.1h1.6L72,11z M76,3.1h1.5v1.3h0.1C78.1,3.4,79,2.9,80,2.9c1.4-0.1,2.7,1,2.8,2.4c0,0.2,0,0.4,0,0.6V11h-1.6V6.3 c0-1.3-0.6-1.9-1.7-1.9c-1,0-1.9,0.7-1.9,1.7c0,0.1,0,0.2,0,0.3V11H76L76,3.1z M85.3,0h1.6v11h-1.6V0z M89,7.1 C88.8,5,90.4,3.2,92.4,3c2.1-0.2,3.9,1.3,4.1,3.4c0,0.2,0,0.4,0,0.7c0.2,2.1-1.3,3.9-3.4,4.1C91,11.3,89.2,9.8,89,7.7 C89,7.5,89,7.3,89,7.1z M94.9,7.1c0-1.7-0.8-2.7-2.1-2.7s-2.1,1-2.1,2.7s0.8,2.7,2.1,2.7S94.9,8.8,94.9,7.1z M98.2,8.8 c0-1.4,1.1-2.3,3-2.4l2.2-0.1V5.6c0-0.8-0.6-1.3-1.6-1.3c-0.9,0-1.5,0.3-1.7,0.9h-1.5c0.2-1.4,1.4-2.2,3.2-2.2c2,0,3.1,1,3.1,2.7V11 h-1.5V9.9h-0.1c-0.5,0.8-1.4,1.3-2.4,1.2c-1.3,0.1-2.5-0.8-2.6-2.1C98.2,9,98.2,8.9,98.2,8.8z M103.3,8.1V7.5l-1.9,0.1 c-1.1,0.1-1.6,0.4-1.6,1.1s0.6,1.1,1.5,1.1C102.3,10,103.2,9.2,103.3,8.1C103.3,8.2,103.3,8.1,103.3,8.1L103.3,8.1z M106.9,7.1 c0-2.5,1.3-4.1,3.3-4.1c1,0,2,0.5,2.4,1.4h0.1V0h1.6v11h-1.5V9.8h-0.1c-0.5,0.9-1.5,1.4-2.5,1.4C108.2,11.2,106.9,9.6,106.9,7.1z M108.5,7.1c0,1.7,0.8,2.7,2.1,2.7s2.1-1,2.1-2.7s-0.8-2.7-2.1-2.7S108.5,5.4,108.5,7.1z M120.8,7.1c-0.2-2.1,1.3-3.9,3.4-4.1 s3.9,1.3,4.1,3.4c0,0.2,0,0.5,0,0.7c0.2,2.1-1.3,3.9-3.4,4.1c-2.1,0.2-3.9-1.3-4.1-3.4C120.8,7.6,120.8,7.3,120.8,7.1z M126.7,7.1 c0-1.7-0.8-2.7-2.1-2.7s-2.1,1-2.1,2.7s0.8,2.7,2.1,2.7S126.7,8.8,126.7,7.1L126.7,7.1z M130.4,3.1h1.5v1.3h0.1 c0.4-0.9,1.4-1.5,2.4-1.4c1.4-0.1,2.7,1,2.8,2.4c0,0.2,0,0.4,0,0.6V11h-1.6V6.3c0-1.3-0.6-1.9-1.7-1.9c-1,0-1.9,0.7-1.9,1.7 c0,0.1,0,0.2,0,0.3V11h-1.6V3.1z M146,1.1v2h1.7v1.3H146v4.1c0,0.8,0.3,1.2,1.1,1.2c0.2,0,0.4,0,0.6,0V11c-0.3,0.1-0.6,0.1-0.9,0.1 c-1.7,0-2.4-0.6-2.4-2.1V4.5h-1.3V3.1h1.3v-2H146z M149.9,0h1.6v4.4h0.1C152,3.4,153,2.9,154,3c1.4-0.1,2.7,1,2.8,2.5 c0,0.2,0,0.3,0,0.5V11h-1.6V6.3c0-1.3-0.6-1.9-1.7-1.9c-1-0.1-1.9,0.7-2,1.7c0,0.1,0,0.2,0,0.3V11h-1.6V0z M165.9,8.9 c-0.4,1.5-1.9,2.5-3.4,2.3c-2,0.1-3.7-1.5-3.7-3.5c0-0.2,0-0.4,0-0.6c-0.3-2,1.1-3.9,3.1-4.1c0.2,0,0.3,0,0.5,0c2.2,0,3.5,1.5,3.5,4 v0.5h-5.6v0.1c-0.1,1.2,0.8,2.2,1.9,2.3c0.1,0,0.1,0,0.2,0c0.8,0.1,1.5-0.3,1.9-1L165.9,8.9z M160.3,6.3h4c0.1-1.1-0.7-2-1.8-2.1 c-0.1,0-0.1,0-0.2,0C161.3,4.3,160.4,5.2,160.3,6.3C160.3,6.3,160.3,6.3,160.3,6.3L160.3,6.3z"/>
</svg>