<?xml version="1.0" encoding="utf-8"?>
<svg version="1.1" xmlns="http://www.w3.org/2000/svg" xmlns:xlink="http://www.w3.org/1999/xlink" x="0px" y="0px" viewBox="0 0 531.8 625.1" xml:space="preserve">
<path d="M442.1,603.9c-1.3,0.2-2.5,0.4-3.8,0.8c-25.8,6.6-54.4,9.7-89,7.2c-51.7-3.7-106-13.7-148-34.8
	c-20.8-10.4-38.2-20.2-51.1-32.4c-1.9-1.8-3.6-3.5-5.3-5.3c2.1-1,4.2-2.2,6.1-3.5c12.8,12,29.7,23.4,50.1,33.6
	c42,21.1,93.6,34.7,145.3,38.4c30.5,2.1,61.2-0.8,90.7-8.5C438.1,600.1,440.6,603.1,442.1,603.9z"/>
<path d="M372.3,613.3c-7.5,0-15.2-0.3-23-0.8c-60-4.3-111.2-16.3-148.2-34.8c-21.6-10.8-38.6-20.5-51.2-32.5
	c-1.9-1.8-3.7-3.6-5.3-5.3l-0.5-0.5l0.6-0.3c2.1-1,4.1-2.2,6-3.5l0.3-0.2l0.3,0.3c12.9,12.1,29.7,23.3,49.9,33.5
	c41.9,21,93.5,34.6,145.1,38.3c30.5,2.1,61-0.8,90.6-8.5l0.3-0.1l0.2,0.2c0.4,0.3,0.9,0.9,1.5,1.5c1.1,1.1,2.5,2.6,3.3,3.1l1.2,0.7
	l-1.4,0.2c-1.3,0.2-2.5,0.4-3.7,0.7C417.3,610.6,395.5,613.3,372.3,613.3z M145.7,539.6c1.5,1.6,3.1,3.2,4.8,4.8
	c12.5,11.9,29.5,21.5,51,32.3c36.8,18.5,87.9,30.5,147.8,34.7c32,2.3,61.1-0.1,88.9-7.2c0.9-0.2,1.8-0.4,2.7-0.6
	c-0.8-0.7-1.7-1.6-2.5-2.5c-0.5-0.5-0.9-1-1.3-1.3c-29.6,7.7-60.1,10.6-90.6,8.5c-51.8-3.7-103.5-17.3-145.5-38.4
	c-20.2-10.1-37-21.4-49.9-33.4C149.3,537.7,147.5,538.7,145.7,539.6z"/>
<path fill="#DEEBF5" d="M466.1,608.3c-6.7,2.7-13.5,5.1-20.5,6.9c-70.7,19.5-176.6,7.5-254.3-31.4c-20.8-10.4-37.7-21.9-50.6-33.7
	c-2.6-2.4-5.1-4.8-7.4-7.3c2.6-0.4,5.2-1.1,7.7-1.9c1.3-0.5,2.6-1,3.8-1.5h0c1.7,1.8,3.4,3.5,5.3,5.3c12.9,12.2,30.3,22,51.1,32.4
	c42,21.1,96.3,31.1,148,34.8c34.7,2.5,63.3-0.6,89-7.2c1.3-0.3,2.5-0.6,3.8-0.8c0,0,0,0,0.1,0.1c1.1,0.6,2.3,1.2,3.4,1.7
	C452,608.5,459.1,609.3,466.1,608.3z"/>
<path d="M369.5,625c-15.7,0-32-1-48.6-3c-46.5-5.6-92.6-19-129.9-37.7c-20.4-10.2-37.5-21.6-50.7-33.8c-2.6-2.4-5.1-4.8-7.4-7.3
	l-0.6-0.7l0.9-0.1c2.6-0.4,5.2-1,7.6-1.9c1.3-0.5,2.5-1,3.7-1.5l0.2,0h0.2l0.2,0.2c1.7,1.8,3.4,3.5,5.3,5.3
	c12.5,11.9,29.4,21.5,51,32.3c36.8,18.5,87.9,30.5,147.8,34.7c32,2.3,61.1-0.1,88.9-7.2c1.2-0.3,2.5-0.6,3.8-0.8l0.3,0l0.2,0.2
	c1.1,0.6,2.2,1.2,3.3,1.7c6.4,2.7,13.4,3.6,20.3,2.6l4.1-0.6l-3.8,1.6c-6.7,2.7-13.6,5.1-20.6,7C423.6,621.9,397.5,625,369.5,625z M134.3,543.2c2.1,2.2,4.4,4.4,6.7,6.6c13.2,12.1,30.2,23.5,50.5,33.6c75.6,37.9,182.4,51.1,253.9,31.3c5.8-1.6,11.5-3.4,17.2-5.6
	c-5.9,0.3-11.8-0.7-17.2-3c-1.2-0.5-2.3-1.1-3.4-1.7c-1.2,0.2-2.4,0.4-3.6,0.7c-27.9,7.1-57.1,9.5-89.2,7.2
	c-60-4.3-111.2-16.3-148.2-34.8c-21.6-10.8-38.6-20.5-51.2-32.5c-1.8-1.7-3.5-3.4-5.1-5.1c-1.2,0.5-2.3,1-3.5,1.4
	C139,542.2,136.7,542.8,134.3,543.2z"/>
<path fill="#DEEBF5" d="M436.2,599.2c0,0,11.8,21.4,41.2,12.9c31.3-9,33.6-23.3,30.7-36.6L436.2,599.2z"/>
<path d="M464.3,614.6c-19.9,0-28.5-15-28.6-15.2l-0.3-0.5l73-24l0.1,0.5c2.7,12.4,1.5,27.8-31.1,37.2
	C472.7,614,468.3,614.6,464.3,614.6z M437,599.4c2.1,3.2,14.2,19.7,40.3,12.2c31.2-9,33.1-22.9,30.5-35.5L437,599.4z"/>
<path d="M493.3,598.3c-8.8,5.1-18.1,8.9-27.2,10c-7,1-14.1,0.1-20.5-2.6c-1.2-0.5-2.3-1.1-3.4-1.7c0,0,0,0-0.1,0
	c-1.3-0.7-2.5-1.6-3.6-2.5c-9.9-8.3-1.6-18.1,13.6-26.9c14.3-8.2,32.8-11.3,45.1-8.1c2.1,0.5,4.1,1.3,6,2.4c1,0.6,2,1.3,2.8,2
	C513.6,577.8,508.5,589.5,493.3,598.3z"/>
<path d="M460.5,609.2c-5.2,0-10.3-1-15.1-3.1c-1.2-0.5-2.4-1.1-3.5-1.8l-0.1-0.1c-1.3-0.7-2.5-1.6-3.7-2.6c-3.2-2.7-4.7-5.7-4.5-9
	c0.5-5.8,6.6-12.1,18.2-18.8c14.1-8.1,32.8-11.5,45.5-8.2c2.1,0.5,4.2,1.3,6.1,2.4c1,0.6,2,1.3,2.9,2.1c2.7,2.5,4,5.7,3.6,9.2
	c-0.7,6.5-6.7,13.4-16.4,19l0,0c-9.7,5.6-18.9,9-27.3,10.1C464.3,609.1,462.4,609.2,460.5,609.2z M442.4,603.6
	c1.1,0.6,2.2,1.2,3.3,1.7c6.4,2.7,13.4,3.6,20.3,2.6c8.3-1.1,17.4-4.4,27-10l0,0c9.4-5.4,15.2-12.1,15.9-18.3
	c0.4-3.2-0.8-6.1-3.3-8.4c-0.8-0.8-1.7-1.4-2.7-2c-1.8-1-3.8-1.8-5.9-2.3c-12.4-3.3-30.8,0-44.7,8c-11.1,6.4-17.2,12.6-17.7,18
	c-0.3,2.9,1.1,5.6,4.1,8.1c1.1,0.9,2.3,1.8,3.6,2.5L442.4,603.6z"/>
<path fill="#FFFFFF" stroke="#000000" stroke-miterlimit="10" d="M147.2,538.2"/>
<path fill="none" stroke="#000000" stroke-miterlimit="10" d="M359.9,151.3"/>
<path d="M531.3,278.2c0-51.4-36.3-114.1-81.1-139.9c-22.1-12.7-42.1-14.2-56.7-6.2l0,0l-0.4,0.3c-0.1,0.1-0.3,0.1-0.4,0.2
	l-32.8,18.8l12.2,9.9c-2.1,7.6-3.1,15.5-3,23.3c0,49.1,33.1,108.4,75.1,136.1l-1,5.1l32,23.1l32.1-18.4v0
	C522.1,322.2,531.3,304.1,531.3,278.2z"/>
<path d="M475.1,349.5L442.6,326l1-5.1c-42.1-28-75-87.9-75-136.4c-0.1-7.8,0.9-15.6,2.9-23.2L359,151.2l33.4-19.1
	c0.1-0.1,0.2-0.1,0.3-0.2l0.8-0.4l0,0c15.4-8.2,35.6-6,56.9,6.4c44.9,25.9,81.4,88.9,81.4,140.4c0,25.1-8.6,43.8-24.1,52.6l-0.2,0.1
	L475.1,349.5z M443.7,325.5l31.5,22.7L507,330c15.4-8.6,23.8-27,23.8-51.8c0-51.2-36.3-113.7-80.9-139.5
	c-21.2-12.2-41.1-14.4-56.2-6.2l-0.3,0.2l0,0l-0.5,0.3l-32.2,18.4l11.9,9.6l-0.1,0.3c-2.1,7.6-3.1,15.4-3,23.2
	c0,48.3,32.9,108,74.9,135.7l0.3,0.2L443.7,325.5z"/>
<path d="M207.8,462.3c0-54.7-38.6-121.3-86.3-148.8c-24-13.8-45.6-15.1-61.3-6.1h0l-36.2,21l3.5,17l8.5,4.3
	c-0.6,4.3-0.8,8.7-0.8,13.1c0,54.7,38.6,121.3,86.3,148.8c4.4,2.6,9,4.8,13.7,6.7l11.9,20l35.3-20.4
	C198.1,508.9,207.8,489.7,207.8,462.3z"/>
<path d="M147,538.9l-12.1-20.3c-4.7-1.9-9.3-4.1-13.6-6.6c-47.7-27.5-86.5-94.5-86.5-149.3c0-4.3,0.3-8.5,0.8-12.8l-8.4-4.2
	l-3.6-17.5l36.6-21.2c16.5-9.5,38.4-7.3,61.7,6.1c47.7,27.6,86.5,94.5,86.5,149.3c0,26.7-9.1,46.5-25.6,55.9L147,538.9z M28,345
	l8.6,4.3l0,0.4c-0.5,4.3-0.8,8.7-0.8,13c0,54.4,38.6,121,86,148.4c4.4,2.5,9,4.8,13.6,6.6l0.2,0.1l0.1,0.1l11.7,19.6l34.9-20.2
	c16.2-9.2,25.1-28.7,25.1-55c0-54.4-38.6-121-86-148.4c-23-13.3-44.6-15.4-60.8-6.1l-0.1,0.1l-35.7,20.7L28,345z"/>
<path fill="#DEEBF5" d="M173.1,482.5c0,25.5-8.4,43.8-22.1,53.4c-1.9,1.3-4,2.5-6.1,3.5h0c-1.2,0.6-2.5,1.1-3.8,1.5
	c-2.5,0.9-5.1,1.5-7.7,1.9c-13.4,2.1-29.4-1.4-46.6-11.2C39.1,504.2,0.5,437.5,0.5,382.8c0-49.5,31.6-72.2,72.9-55.7
	c4.6,1.8,9.1,4,13.4,6.5c3.9,2.3,7.7,4.7,11.3,7.4C140.4,371.8,173.1,432.2,173.1,482.5z"/>
<path d="M125.5,544c-12.1,0-25.4-4-39-11.9C38.8,504.6,0,437.6,0,382.8c0-25,8.1-44.2,22.8-54.2c13.4-9,31.4-9.8,50.8-2
	c4.6,1.8,9.1,4,13.4,6.5c3.9,2.2,7.7,4.7,11.3,7.4c42.9,31.2,75.2,92.2,75.2,141.9c0,24.7-7.9,43.8-22.3,53.8
	c-1.9,1.4-4,2.6-6.2,3.6l-0.1,0c-1.2,0.6-2.5,1.1-3.7,1.5c-2.5,0.9-5.2,1.5-7.8,2C130.9,543.8,128.2,544,125.5,544z M48.1,322.3
	c-9.2,0-17.6,2.4-24.7,7.2C8.9,339.3,1,358.2,1,382.8c0,54.4,38.6,121,86,148.4c16.5,9.5,32.5,13.4,46.2,11.2c2.6-0.4,5.2-1,7.6-1.9
	c1.3-0.5,2.5-1,3.7-1.5l0.1,0c2.1-1,4-2.1,5.9-3.4c14.1-9.9,21.9-28.7,21.9-53c0-49.4-32.2-110.1-74.8-141.1
	c-3.6-2.6-7.4-5.1-11.3-7.3c-4.3-2.5-8.7-4.7-13.3-6.5C64.4,324.1,55.9,322.3,48.1,322.3z"/>
<path fill="#DEEBF5" d="M498.9,296.7c0,51.4-36.3,72.1-81.1,46.3c-44.8-25.9-81.1-88.5-81.1-139.9c0-40.4,22.5-61.9,53.8-56.6
	c8.9,1.6,17.4,4.7,25.2,9.2c0.7,0.4,1.3,0.8,2,1.2C462.6,182.7,498.9,245.3,498.9,296.7z"/>
<path d="M454.2,354.7c-11.2,0-23.7-3.8-36.7-11.2c-44.9-25.9-81.4-88.9-81.4-140.4c0-21.3,6.4-38.5,18.1-48.4
	c9.5-8.1,22.1-11.1,36.3-8.7c9,1.6,17.5,4.7,25.4,9.2c0.5,0.3,0.9,0.5,1.4,0.8l0.6,0.4c44.9,25.9,81.4,88.9,81.4,140.4
	c0,24.9-8.5,43.6-23.8,52.4C469.2,352.9,462,354.7,454.2,354.7z M381.4,146.2c-10.2,0-19.2,3.1-26.4,9.2
	c-11.5,9.7-17.8,26.6-17.8,47.6c0,51.2,36.3,113.7,80.9,139.5c21.6,12.5,41.9,14.5,57.1,5.7c15-8.7,23.3-27,23.3-51.6
	c0-51.2-36.3-113.7-80.9-139.5l-0.6-0.4c-0.5-0.3-0.9-0.5-1.4-0.8c-7.8-4.4-16.3-7.5-25.1-9.1C387.3,146.4,384.3,146.2,381.4,146.2z"/>
<path d="M454.2,324.7c-6,0-13.7-2.6-21.7-7.2c-36-20.8-66.4-73.2-66.4-114.4c0-10.4,2-27.9,15.2-27.9c1.4,0,2.9,0.1,4.3,0.4
	c5.6,1.1,11,3.1,16,6l1.5,0.9c35.9,20.7,66.3,73.1,66.3,114.4C469.5,307.2,467.5,324.7,454.2,324.7z"/>
<path d="M454.2,325.2c-6,0-13.8-2.6-21.9-7.3c-36.1-20.9-66.6-73.5-66.6-114.8c0-10.6,2-28.4,15.7-28.4c1.5,0,2.9,0.1,4.4,0.4
	c5.7,1.1,11.1,3.1,16.1,6l1.5,0.9c36.1,20.8,66.6,73.4,66.6,114.8c0,5-0.5,12.2-2.7,18.1C464.7,321.7,460.3,325.2,454.2,325.2z M381.4,175.6c-12.8,0-14.7,17.2-14.7,27.4c0,41.1,30.3,93.3,66.1,114c8,4.6,15.6,7.1,21.4,7.1c5.6,0,9.7-3.3,12.1-9.7
	c2.2-5.7,2.6-12.8,2.6-17.7c0-41.1-30.2-93.3-66-113.9l-1.5-0.9c-4.9-2.8-10.3-4.8-15.8-5.9C384.2,175.8,382.8,175.7,381.4,175.6z"/>
<path fill="#DEEBF5" d="M424.1,102.2l-3.9,24.8l-3,29.5c-8.8-4.8-18.8-8.7-26.7-10c0-89.5-63.3-128.3-141.2-83.2
	c-74.1,42.8-134.9,143.4-140.8,230.1l11.4,3.7l-21.5,43.8l-0.4,0.1c-3.6-2.7-7.4-5.1-11.3-7.4c-4.3-2.5-8.8-4.7-13.4-6.5l0-0.2
	c0-111.5,78.7-247.3,175.9-303.4C337.5-27.5,431.2,10,443.9,99.8C444.2,102.2,423.9,99.7,424.1,102.2z"/>
<path d="M98,341.5l-0.2-0.1c-3.6-2.6-7.4-5.1-11.3-7.3c-4.3-2.5-8.7-4.7-13.3-6.5l-0.3-0.1l-0.1-0.5c0-111.5,79-247.8,176.1-303.9
	c23.1-13.4,47-21,70.9-22.7c22.6-1.6,44.4,2.4,63.2,11.6c33.8,16.5,55.6,47.7,61.2,87.8c0,0.3,0,0.5-0.2,0.7c-0.9,1-4.3,1-10,1
	c-3.4,0-9.1,0-9.6,0.7l0,0.1l0,0l-3.9,24.8l-3.1,30.2l-0.7-0.4c-9.3-5.1-18.9-8.7-26.5-9.9l-0.4-0.1v-0.4c0-43.8-14.9-76.5-42-92.1
	c-26.6-15.3-61.5-12-98.5,9.3C176.7,105.7,115.1,206.4,109,293l11.6,3.8l-21.8,44.5L98,341.5z M73.9,326.8c4.5,1.8,8.9,4,13.1,6.4
	c3.8,2.2,7.5,4.6,11.1,7.2l21.1-43.1l-11.3-3.7l0-0.4c2.9-42.2,18.8-88.9,44.9-131.7c26.2-43,60.4-78.1,96.1-98.8
	c37.3-21.5,72.6-24.9,99.5-9.3c27.3,15.8,42.4,48.6,42.5,92.6c7.5,1.3,16.8,4.8,25.8,9.6l3-28.7l3.9-24.8c0-0.2,0.1-0.5,0.3-0.7
	c0.9-1,4.5-1.1,10.3-1c3.5,0,8.7,0,9.2-0.7c-5.6-39.7-27.2-70.6-60.7-87C343.5-6.3,294.9-2.3,249.5,23.9
	C152.7,79.8,74,215.6,73.9,326.8z"/>
<path fill="#FFFFFF" stroke="#000000" stroke-miterlimit="10" d="M509,575.5"/>
<path fill="#DEEBF5" d="M460.2,596.4c-33-2.7,24.5-26.4,36.5-17.2C502.4,583.7,468.8,597.2,460.2,596.4z"/>
<path d="M461,596.9c-0.3,0-0.6,0-0.8,0c-6.5-0.5-9.9-1.9-10.5-4.1c-0.5-1.8,1.1-3.9,4.6-6.2c9.6-6.4,34.9-13.8,42.8-7.8
	c0.8,0.6,1,1.5,0.7,2.4C495.5,586.8,469.9,596.9,461,596.9z M487.9,577.6c-10.2,0-25.3,4.8-33,9.9c-3,2-4.5,3.8-4.1,5.1
	c0.2,1,1.8,2.7,9.6,3.3h0c7.2,0.6,34.4-9.8,36.5-15c0.2-0.5,0.1-0.9-0.3-1.3C494.6,578.2,491.5,577.6,487.9,577.6z"/>
<path d="M450.3,137.8l-33.1,18.7c0-89.5-64.8-124.3-142.8-79.2S133.1,231.4,133.1,320.9l-34.7,20c0-111.5,78.8-247.3,175.9-303.4
	C371.5-18.6,450.3,26.3,450.3,137.8z"/>
<path d="M98,341.7v-0.9c0-111.5,79-247.7,176.1-303.8C321.5,9.7,366,5.3,399.4,24.6c33.1,19.1,51.4,59.3,51.4,113.2v0.3l-34.1,19.3
	v-0.9c0-42.2-14.4-73.8-40.6-88.9C349,51.9,313,55.5,274.6,77.7c-77.7,44.9-141,154-141,243.2v0.3l-0.2,0.1L98,341.7z M353.3,13.8
	c-24.1,0-50.9,8.1-78.7,24.2C178,93.7,99.4,229,99,340l33.7-19.4c0.1-89.5,63.6-198.8,141.5-243.8c38.7-22.3,75.1-25.9,102.4-10.1
	c26.3,15.2,40.9,46.8,41.1,88.9l32.1-18.1c-0.1-53.3-18.1-93.1-50.9-112C385.4,17.6,370,13.8,353.3,13.8z"/>
</svg>