<svg xmlns="http://www.w3.org/2000/svg" version="1.1" xmlns:xlink="http://www.w3.org/1999/xlink" xmlns:svgjs="http://svgjs.com/svgjs" width="28" height="28"><svg version="1.1" xmlns="http://www.w3.org/2000/svg" xmlns:xlink="http://www.w3.org/1999/xlink" x="0px" y="0px" viewBox="0 0 28 28" xml:space="preserve">
	<path fill="#4080FF" d="M5.6,3.7c4-2.6,9.1-2.7,13.2-0.3l-3.4,4.4c-0.9-0.4-1.9-0.7-2.9-0.7c-1.1,0-2.2,0.3-3.1,0.8L5.6,3.7z M12.4,26.4C5.5,26.4,0,20.8,0,14c0-2.3,0.6-4.5,1.8-6.4l4.3,3.9c-1.4,3.5,0.2,7.4,3.7,8.8c1.9,0.8,4.1,0.7,5.8-0.3l0,0h0.1 c1.8-1.1,3-2.9,3.3-5v-0.2h-3c-0.1,0-0.1,0-0.1-0.1s0-0.1,0-0.2l0,0l6.2-8h0.1l0,0l0,0l5.6,8l0,0c0,0,0.1,0.1,0,0.2 c0,0.1-0.1,0.1-0.1,0.1h-3.1V15C24.3,21.3,18.9,26.4,12.4,26.4"></path>
</svg><style>@media (prefers-color-scheme: light) { :root { filter: none; } }
</style></svg>