<?xml version="1.0" encoding="utf-8"?>
<svg version="1.1" xmlns="http://www.w3.org/2000/svg" xmlns:xlink="http://www.w3.org/1999/xlink" x="0px" y="0px" viewBox="0 0 200.5 48.9" xml:space="preserve">
  <path fill="#FFFFFF" stroke="#FFFFFF" stroke-width="0.222" stroke-miterlimit="10" d="M63.2,6c0,0.9-0.3,1.8-0.9,2.4 c-0.7,0.7-1.6,1.1-2.6,1.1c-2.1,0-3.8-1.7-3.8-3.7s1.7-3.8,3.8-3.8l0,0c0.5,0,1,0.1,1.5,0.3C61.6,2.4,62,2.7,62.3,3l-0.6,0.6 c-0.5-0.6-1.2-0.9-2-0.9c-1.6,0-2.9,1.3-2.9,2.9c0,1.6,1.3,2.9,2.9,2.9c0.7,0,1.4-0.3,2-0.8c0.4-0.4,0.6-0.9,0.6-1.5h-2.6V5.4h3.5 C63.2,5.6,63.2,5.8,63.2,6z M68.7,3h-3.3v2.3h2.9v0.9h-2.9v2.3h3.3v0.9h-4.2V2.1h4.2V3z M72.6,9.3h-0.9V3h-2V2.1h4.9V3h-2L72.6,9.3z M78.2,9.3V2.1h0.9v7.2H78.2z M83.2,9.3h-0.9V3h-2V2.1h4.9V3h-2L83.2,9.3z M94.5,8.3c-1.5,1.5-3.8,1.5-5.3,0c-1.4-1.5-1.4-3.8,0-5.3 c1.5-1.5,3.8-1.5,5.3,0c0,0,0,0,0,0C95.9,4.5,95.9,6.8,94.5,8.3L94.5,8.3z M89.9,7.7c1.1,1.1,2.8,1.1,3.9,0c1.1-1.2,1.1-3,0-4.1 c-1.1-1.1-2.8-1.1-3.9,0C88.9,4.8,88.9,6.6,89.9,7.7z M96.9,9.3V2.1H98l3.5,5.6h0l0-1.4V2.1h0.9v7.2h-1l-3.6-5.9h0l0,1.4v4.5H96.9z M102.1,23.6c-4,0-7.2,3.3-7.2,7.3c0,4,3.3,7.2,7.3,7.2c4,0,7.2-3.3,7.2-7.2c0.1-3.9-3.1-7.2-7-7.3 C102.3,23.6,102.2,23.6,102.1,23.6z M102.1,35.2c-2.4,0.2-4.5-1.7-4.7-4.1c-0.2-2.4,1.7-4.5,4.1-4.7c2.4-0.2,4.5,1.7,4.7,4.1 c0,0.1,0,0.2,0,0.3C106.3,33.1,104.5,35.1,102.1,35.2C102.2,35.2,102.2,35.2,102.1,35.2z M86.3,23.6c-4,0-7.2,3.3-7.2,7.3 c0,4,3.3,7.2,7.3,7.2c4,0,7.2-3.3,7.2-7.2c0.1-3.9-3.1-7.2-7-7.3C86.4,23.6,86.3,23.6,86.3,23.6z M86.3,35.2 c-2.4,0.2-4.5-1.7-4.7-4.1c-0.2-2.4,1.7-4.5,4.1-4.7c2.4-0.2,4.5,1.7,4.7,4.1c0,0.1,0,0.2,0,0.3c0.1,2.3-1.7,4.3-4,4.4 C86.3,35.2,86.3,35.2,86.3,35.2z M67.4,25.8v3.1h7.4c-0.1,1.4-0.7,2.8-1.7,3.9c-1.5,1.5-3.6,2.3-5.7,2.3c-4.5-0.1-8.1-3.8-8.1-8.3 c0.1-4.4,3.6-8,8.1-8.1c2.1,0,4.1,0.8,5.5,2.2l2.2-2.2c-2.1-2-4.8-3.1-7.7-3.1c-6.2-0.1-11.3,4.9-11.4,11.1S60.8,38,67,38.1 c0.1,0,0.2,0,0.4,0c3,0.1,5.8-1,7.9-3.2c1.8-2,2.8-4.5,2.7-7.2c0-0.6,0-1.3-0.2-1.9L67.4,25.8z M144.6,28.2 c-0.9-2.7-3.4-4.5-6.2-4.6c-3.8,0-6.9,3.1-6.8,6.9c0,0.1,0,0.2,0,0.3c-0.1,3.9,3,7.2,6.9,7.2c0.1,0,0.2,0,0.3,0c2.4,0,4.7-1.2,6-3.2 l-2.5-1.6c-0.8,1.2-2.1,2-3.6,2c-1.5,0.1-2.9-0.8-3.5-2.2l9.7-4L144.6,28.2z M134.7,30.6c-0.1-2.2,1.5-4.1,3.7-4.2c0,0,0.1,0,0.1,0 c1.1-0.1,2.2,0.5,2.7,1.5L134.7,30.6z M126.8,37.6h3.2V16.3h-3.2V37.6z M121.6,25.2h-0.1c-1-1.1-2.4-1.7-3.8-1.6 c-4,0.2-7.1,3.6-6.9,7.6c0.2,3.8,3.2,6.8,6.9,6.9c1.5,0,2.8-0.6,3.8-1.6h0.1v1c0,2.8-1.5,4.3-3.9,4.3c-1.6,0-3.1-1.1-3.7-2.6 l-2.8,1.2c1.1,2.6,3.6,4.3,6.4,4.3c3.7,0,6.9-2.2,6.9-7.6V24h-3V25.2z M118,35.2c-2.4-0.2-4.2-2.3-4-4.8c0.2-2.1,1.9-3.8,4-4 c2.2,0,3.9,1.9,3.9,4.4C121.8,33.4,120.1,35.2,118,35.2L118,35.2z M159.5,16.3h-7.6v21.3h3.2v-8.1h4.4c3.7,0.2,6.8-2.6,7-6.3 c0.2-3.7-2.6-6.8-6.3-7C160,16.3,159.8,16.3,159.5,16.3L159.5,16.3z M159.6,26.6h-4.5v-7.3h4.5c2,0,3.7,1.6,3.7,3.6 c0,2-1.6,3.7-3.6,3.7C159.7,26.6,159.7,26.6,159.6,26.6L159.6,26.6z M179.3,23.5c-2.4-0.1-4.6,1.1-5.7,3.3l2.8,1.2 c0.6-1.1,1.7-1.7,2.9-1.6c1.6,0,3.3,1,3.3,2.7v0.2c-1-0.5-2.2-0.8-3.3-0.8c-3,0-6.1,1.7-6.1,4.8c0,2.9,2.5,4.7,5.3,4.7 c1.6,0.1,3.2-0.7,4.1-2.1h0.1v1.6h3.1v-8.2C185.7,25.6,182.9,23.5,179.3,23.5L179.3,23.5z M178.9,35.2c-1,0-2.5-0.5-2.5-1.8 c0-1.6,1.8-2.3,3.4-2.3c1,0,2,0.2,2.9,0.7C182.4,33.7,180.8,35.2,178.9,35.2L178.9,35.2z M196.9,24l-3.6,9.2h-0.1l-3.8-9.2H186 l5.7,12.9l-3.2,7.2h3.3l8.7-20.1L196.9,24z M168.3,37.6h3.2V16.3h-3.2V37.6z"/>
  <linearGradient id="SVGID_1_" gradientUnits="userSpaceOnUse" x1="-824.5436" y1="553.9631" x2="-825.8416" y2="554.6321" gradientTransform="matrix(24.604 0 0 -47.713 20275.8301 26443.4316)">
    <stop  offset="0" style="stop-color:#00A0FF"/>
    <stop  offset="7.000001e-03" style="stop-color:#00A1FF"/>
    <stop  offset="0.26" style="stop-color:#00BEFF"/>
    <stop  offset="0.512" style="stop-color:#00D2FF"/>
    <stop  offset="0.76" style="stop-color:#00DFFF"/>
    <stop  offset="1" style="stop-color:#00E3FF"/>
  </linearGradient>
  <path fill="url(#SVGID_1_)" d="M0.9,0.8C0.3,1.5-0.1,2.5,0,3.4v42.1c-0.1,1,0.3,1.9,0.9,2.7L1,48.3l23.6-23.6v-0.6L1,0.6L0.9,0.8z"/>
  <linearGradient id="SVGID_2_" gradientUnits="userSpaceOnUse" x1="-813.5135" y1="532.8602" x2="-815.8945" y2="532.8602" gradientTransform="matrix(19.3423 0 0 -16.277 15780.6201 8697.8281)">
    <stop  offset="0" style="stop-color:#FFE000"/>
    <stop  offset="0.409" style="stop-color:#FFBD00"/>
    <stop  offset="0.775" style="stop-color:#FFA500"/>
    <stop  offset="1" style="stop-color:#FF9C00"/>
  </linearGradient>
  <path fill="url(#SVGID_2_)" d="M32.5,32.6l-7.9-7.9v-0.6l7.9-7.9l0.2,0.1l9.3,5.3c2.7,1.5,2.7,4,0,5.5l-9.3,5.3L32.5,32.6z"/>
  <linearGradient id="SVGID_3_" gradientUnits="userSpaceOnUse" x1="-834.8885" y1="547.7743" x2="-836.2516" y2="549.5443" gradientTransform="matrix(31.755 0 0 -24.4732 26419.4297 13336.835)">
    <stop  offset="0" style="stop-color:#FF3A44"/>
    <stop  offset="1" style="stop-color:#C31162"/>
  </linearGradient>
  <path fill="url(#SVGID_3_)" d="M32.6,32.5l-8-8L0.9,48.2c0.9,0.9,2.3,1,4,0.1L32.6,32.5"/>
  <linearGradient id="SVGID_4_" gradientUnits="userSpaceOnUse" x1="-829.5895" y1="546.0177" x2="-828.9805" y2="546.8077" gradientTransform="matrix(31.755 0 0 -24.4733 26419.4297 13312.3955)">
    <stop  offset="0" style="stop-color:#32A071"/>
    <stop  offset="6.800000e-02" style="stop-color:#2DA771"/>
    <stop  offset="0.476" style="stop-color:#15CF74"/>
    <stop  offset="0.801" style="stop-color:#06E775"/>
    <stop  offset="1" style="stop-color:#00F076"/>
  </linearGradient>
  <path fill="url(#SVGID_4_)" d="M32.6,16.4L4.8,0.6c-1.6-0.9-3.1-0.8-4,0.1l23.7,23.7L32.6,16.4z"/>
</svg>