<?xml version="1.0" encoding="utf-8"?>
<svg version="1.1" xmlns="http://www.w3.org/2000/svg" xmlns:xlink="http://www.w3.org/1999/xlink" x="0px" y="0px" viewBox="0 0 167.3 157.6" xml:space="preserve">
	<path fill="rgba(255, 255, 255, 0.5)" d="M151.9,139.3c-0.9,0-1.8-0.5-2.3-1.4c-11.6-24.1-28.4-45-50.1-68.9C72,38.6,41.1,9.8,2.5,5.3C1.1,5.1,0.1,3.9,0.3,2.5 c0.2-1.4,1.4-2.4,2.8-2.2c40.3,4.8,72,34.2,100.2,65.3c22,24.2,39.1,45.4,50.9,70.1c0.6,1.2,0.1,2.7-1.2,3.3 C152.6,139.2,152.3,139.3,151.9,139.3z M166.9,154.8c0.9-11.4,0-22.9-2.5-34.1c-0.3-1.3-1.6-2.2-3-1.9c-1.3,0.3-2.2,1.6-1.9,3 c2.2,9.7,3,19.7,2.6,29.7c-7.8-2.2-14.8-6.3-20.5-12.1c-1-1-2.6-1-3.5,0c-1,1-1,2.6,0,3.5c7.1,7.2,16,12.1,25.9,14.2l2.8,0.6 L166.9,154.8z"/>
</svg>