<svg xmlns="http://www.w3.org/2000/svg" viewBox="0 0 775 651"><path d="M304.5,243H468.57a36,36,0,0,1,36,36V443.07a36,36,0,0,1-36,36H304.5a36,36,0,0,1-36-36V279A36,36,0,0,1,304.5,243Z" fill="#fff"/><path id="Path_3427" data-name="Path 3427" d="M345,297.61a76.14,76.14,0,0,1,81.22-1.71l-20.94,26.87a41.49,41.49,0,0,0-18.12-4.11,42,42,0,0,0-19.27,4.68Z" fill="#1877f2"/><path id="Path_3428" data-name="Path 3428" d="M387,437.18A76.1,76.1,0,0,1,321.91,321.6l26.56,23.73a41.6,41.6,0,0,0,58.7,52.13l.2-.12.4-.23a41.84,41.84,0,0,0,20.42-30.46l.17-1.31H409.23a.87.87,0,0,1-.86-.88.84.84,0,0,1,.25-.6l.06-.06L447,314.34a.84.84,0,0,1,.57-.21,1,1,0,0,1,.3.05,1,1,0,0,1,.24.15l34.53,49.45.08.08a.87.87,0,0,1,.2.94.88.88,0,0,1-.81.54H463l-.07,1.08A76.1,76.1,0,0,1,387,437.17" fill="#1877f2"/><path d="M605.35,262a50.36,50.36,0,0,0-50.3,50.3,46.35,46.35,0,0,1-46.3,46.3h-2.18V279a38,38,0,0,0-38-38H389V163.11h-4V241H304.5a38,38,0,0,0-38,38v79.62h-2.66a46.35,46.35,0,0,1-46.3-46.3,50.36,50.36,0,0,0-50.3-50.3h-5.36v4h5.36a46.35,46.35,0,0,1,46.3,46.3,50.35,50.35,0,0,0,50.3,50.3h2.66v80.45a38,38,0,0,0,38,38h48.86v39.57a52.83,52.83,0,0,1-52.42,52.71l-50,.28,0,4,50-.28a56.84,56.84,0,0,0,56.4-56.71V481.07h56.8v39.57a56.85,56.85,0,0,0,56.4,56.71l50,.28,0-4-50-.28a52.84,52.84,0,0,1-52.42-52.71V481.07h50.41a38,38,0,0,0,38-38V362.62h2.18a50.35,50.35,0,0,0,50.3-50.3,46.35,46.35,0,0,1,46.3-46.3h5.36v-4ZM502.57,443.07a34,34,0,0,1-34,34H304.5a34,34,0,0,1-34-34V279a34,34,0,0,1,34-34H468.57a34,34,0,0,1,34,34Z" fill="#1877f2"/><path d="M328.5,0h116a24,24,0,0,1,24,24V140a24,24,0,0,1-24,24h-116a24,24,0,0,1-24-24V24A24,24,0,0,1,328.5,0Z" fill="#fff"/><path d="M356.87,100.92V97.23h-8.29a2.42,2.42,0,0,1-2.39-2.45V60.44A2.45,2.45,0,0,1,348.63,58h64.3a2.46,2.46,0,0,1,2.45,2.45v4h3.69v-4a6.15,6.15,0,0,0-6.14-6.14H348.64a6.14,6.14,0,0,0-6.14,6.14V94.78a6.14,6.14,0,0,0,6.14,6.14Zm69-35.87H361.47a4,4,0,0,0-4,4v34.34a4,4,0,0,0,4,4h64.44a4,4,0,0,0,4-4V69A4,4,0,0,0,425.91,65.05Zm.3,38.63h-65V98.77h65Zm-65-12.9v-22h65v22Zm57.9-11.72a5,5,0,0,0-5-5,4.92,4.92,0,0,0-2,.41,5.77,5.77,0,0,1,0,9.26,4.79,4.79,0,0,0,1.94.41A5,5,0,0,0,419.07,79.06Zm-6.89,4.63a5.76,5.76,0,0,1,0-9.26,4.88,4.88,0,0,0-2-.41,5,5,0,0,0,0,10.08A4.84,4.84,0,0,0,412.18,83.69ZM348.34,42.51h2.57V39.93h-2.57Zm0,4.8h2.57V44.73h-2.57Zm0,4.79h2.57V49.53h-2.57Zm4.78-4.79h2.57V44.73h-2.57Zm0,4.79h2.57V49.53h-2.57Zm4.78,0h2.58V49.53H357.9Zm0-9.59h2.57V39.93h-2.57Zm0,4.8h2.57V44.73h-2.57Zm4.8-4.8h2.57V39.93h-2.57Zm4.79,0h2.58V39.93h-2.58ZM348.34,38h2.57V35.47h-2.57Zm0-4.46h2.57V31h-2.57ZM353.12,38h2.57V35.47h-2.57Zm0-4.46h2.57V31h-2.57Zm4.8,4.46h2.57V35.47h-2.57Zm0-4.46h2.57V31h-2.57Zm4.8,4.46h2.57V35.47h-2.57Zm0-4.46h2.57V31h-2.57Zm0,13.73h2.57V44.73h-2.57Zm0,4.79h2.57V49.53h-2.57Zm-14.38,4.8h2.57V54.33h-2.57Zm4.78,0h2.57V54.33h-2.57Zm4.8,0h2.57V54.33h-2.57Zm4.8,0h2.57V54.33h-2.57ZM367.51,38h2.58V35.47h-2.58Zm0-4.46h2.58V31h-2.58Zm0,13.73h2.58V44.73h-2.58Zm0,4.79h2.58V49.53h-2.58Zm-.19,4.8h2.58V54.33h-2.58Zm5-18.86h2.58V35.47h-2.58Zm0-4.46h2.58V31h-2.58Zm0,13.73h2.58V44.73h-2.58Zm0,4.79h2.58V49.53h-2.58Zm0,4.8h2.58V54.33h-2.58Z"/><path d="M348.12,129.47V116.59h3.64c2.46,0,4.48,1.06,4.48,3.75v.07c0,2.74-2,3.8-4.48,3.8h-2.13v5.26Zm1.51-6.47h2.24c1.85,0,2.86-.92,2.86-2.59v-.07c0-1.82-1.12-2.52-2.86-2.52h-2.24Zm8.53,6a2.43,2.43,0,0,1-.91-2.1c0-2.17,2.3-2.92,4.71-2.92h1.35v-.69c0-1.49-.57-2.12-2-2.12s-2,.54-2.16,1.69h-1.5c.2-2.14,1.91-2.93,3.73-2.93s3.44.74,3.44,3.36v6.22h-1.5v-1.19a3.41,3.41,0,0,1-2.93,1.35A3.65,3.65,0,0,1,358.16,129Zm5.15-2.79V125H362a5.73,5.73,0,0,0-2.34.42,1.44,1.44,0,0,0-.94,1.44c0,1,.49,1.58,1.78,1.58C362.11,128.44,363.31,127.61,363.31,126.17Zm4.66,6.57,1.79-4.25-3.69-8.44h1.6l2.88,6.75,2.61-6.75h1.53l-5.2,12.69Zm8.34-3.27v-9.42h1.49v1.44a3.07,3.07,0,0,1,2.81-1.6,2.76,2.76,0,0,1,2.76,1.76,2.87,2.87,0,0,1,1.4-1.33,4.31,4.31,0,0,1,1.82-.43c1.67,0,3.17,1,3.17,3.74v5.84h-1.5v-6c0-1.65-.7-2.34-2-2.34a2.41,2.41,0,0,0-2.49,2.52v5.77h-1.49v-6c0-1.65-.71-2.34-2-2.34a2.41,2.41,0,0,0-2.49,2.52v5.77Zm15.33-4.61v-.15c0-2.84,1.82-4.82,4.42-4.82,2.16,0,4.23,1.31,4.23,4.68v.48h-7.1c.07,2.15,1.1,3.34,3,3.34,1.44,0,2.3-.54,2.5-1.64h1.49c-.3,1.87-1.9,2.88-4,2.88A4.44,4.44,0,0,1,391.64,124.86Zm7.12-1c-.15-1.95-1.17-2.72-2.7-2.72a2.83,2.83,0,0,0-2.81,2.72Zm3.47,5.62v-9.42h1.49v1.49a3.26,3.26,0,0,1,3-1.65c1.94,0,3.31,1.08,3.31,3.8v5.78h-1.49v-5.89c0-1.66-.71-2.4-2.22-2.4a2.48,2.48,0,0,0-2.63,2.58v5.71ZM413,127.11v-5.8h-1.35v-1.26H413v-2.14h1.5v2.14h2.19v1.26h-2.19V127c0,.92.43,1.37,1.17,1.37a3,3,0,0,0,1.15-.2v1.26a4.11,4.11,0,0,1-1.28.2A2.29,2.29,0,0,1,413,127.11Zm4.95-.54h1.46c.09,1.1.7,1.82,2.22,1.82s2-.49,2-1.5-.76-1.31-2.2-1.58a6.07,6.07,0,0,1-2.55-.94,2.26,2.26,0,0,1-.72-1.84c0-1.72,1.69-2.64,3.18-2.64a4,4,0,0,1,2.23.61,2.66,2.66,0,0,1,1.18,2.11h-1.45a1.72,1.72,0,0,0-2-1.48c-1.08,0-1.78.54-1.78,1.35a1.1,1.1,0,0,0,.45,1,5.29,5.29,0,0,0,1.75.54c1.94.35,3.31.81,3.31,2.79,0,1.72-1.17,2.87-3.46,2.87S418,128.49,417.92,126.57Z"/><path d="M751.5,346.5h-116A23.49,23.49,0,0,1,612,323V208a23.49,23.49,0,0,1,23.5-23.5h116A23.49,23.49,0,0,1,775,208V323a23.31,23.31,0,0,1-1.85,9.15,23.5,23.5,0,0,1-12.5,12.5A23.31,23.31,0,0,1,751.5,346.5Z" fill="#fff"/><path d="M735.61,246.22l-10.67-11.1a4,4,0,0,0-2.91-1.23H705.48a4.07,4.07,0,0,0-.6.06V224a4,4,0,0,0-4-4H654.53a4,4,0,0,0-4,4v46.31a4,4,0,0,0,4,4h9.9c0,.2,0,.4,0,.6a8.67,8.67,0,1,0,17.33,0c0-.2,0-.4,0-.6h19.17a4.07,4.07,0,0,0,2-.54.32.32,0,0,1,.6,0,4,4,0,0,0,2,.54h5.27c0,.2,0,.4,0,.6A8.67,8.67,0,1,0,728,275c0-.2,0-.4,0-.6h5.27a4,4,0,0,0,4-4V249.5A4.13,4.13,0,0,0,735.61,246.22Zm-13.33-8.9,10.86,11.28.19.2.54.4v.9H721.69a2.92,2.92,0,0,1-2.92-2.92v-9.86Zm-49.22,42.89a5.24,5.24,0,0,1-5.23-5.24,5.69,5.69,0,0,1,.08-.83c0-.16.07-.32.11-.48a3.33,3.33,0,0,1,.16-.51,3.79,3.79,0,0,1,.18-.42,3.29,3.29,0,0,1,.26-.49c.08-.12.16-.25.25-.36a4.78,4.78,0,0,1,.34-.42l.34-.34a5.18,5.18,0,0,1,3.51-1.38h0a5.18,5.18,0,0,1,3.53,1.4,4.11,4.11,0,0,1,.3.29,5.58,5.58,0,0,1,.38.47,3.62,3.62,0,0,1,.22.32c.1.17.2.35.29.54a2.75,2.75,0,0,1,.15.36,3.89,3.89,0,0,1,.18.58,2.59,2.59,0,0,1,.09.42,4.81,4.81,0,0,1,.09.85A5.24,5.24,0,0,1,673.06,280.21Zm28.39-10.57a1.3,1.3,0,0,1-1.3,1.3H680.71c-.05-.1-.09-.2-.15-.3a8.67,8.67,0,0,0-15,0c-.06.1-.1.2-.15.3H655.23a1.3,1.3,0,0,1-1.3-1.3V224.73a1.3,1.3,0,0,1,1.3-1.3h44.92a1.3,1.3,0,0,1,1.3,1.3Zm17.92,10.57a5.24,5.24,0,0,1-5.23-5.24,4.81,4.81,0,0,1,.09-.85,3,3,0,0,1,.09-.43c0-.19.1-.38.17-.57l.16-.37a5.45,5.45,0,0,1,.29-.53,3.62,3.62,0,0,1,.22-.32,4.22,4.22,0,0,1,.38-.46l.3-.3a5.18,5.18,0,0,1,3.53-1.4h0a5.23,5.23,0,0,1,3.53,1.39c.1.1.21.2.3.31a5.32,5.32,0,0,1,.38.45l.22.33a5.45,5.45,0,0,1,.29.53c.06.12.11.25.16.38s.12.37.17.55a3.58,3.58,0,0,1,.09.45,4.6,4.6,0,0,1,.09.84A5.24,5.24,0,0,1,719.37,280.21Zm7.66-9.27c0-.1-.09-.2-.15-.3a8.67,8.67,0,0,0-15,0c-.06.1-.1.2-.15.3h-6.84V237.32h10.46v9.86a6.35,6.35,0,0,0,6.35,6.35h12.18v17.41Z"/><path d="M660.49,299.64v-.14c0-3.82,2.57-6.57,6-6.57,2.68,0,4.91,1.44,5.2,4.19h-1.49c-.31-1.94-1.5-3-3.71-3a4.07,4.07,0,0,0-3.24,1.46,5.8,5.8,0,0,0-1.24,3.89v.15c0,3.29,1.69,5.29,4.48,5.29a3.58,3.58,0,0,0,3.92-3.17h1.41c-.45,2.94-2.5,4.41-5.37,4.41C662.78,306.16,660.49,303.61,660.49,299.64Zm12.62,1.73v-.14a4.63,4.63,0,1,1,9.25,0v.14a4.63,4.63,0,1,1-9.25,0Zm7.7,0v-.12c0-2.16-1.2-3.59-3.08-3.59s-3.07,1.41-3.07,3.57v.14c0,2.15,1.18,3.55,3.07,3.55S680.81,303.48,680.81,301.37Zm4.38,3.95a3.58,3.58,0,0,1-.94-2.78v-6h1.49v5.89c0,1.66.72,2.4,2.18,2.4a2.48,2.48,0,0,0,2.6-2.58v-5.71H692V306h-1.49v-1.49a3.23,3.23,0,0,1-3,1.65A3.42,3.42,0,0,1,685.19,305.32Zm9.5.68v-9.42h1.49v1.7a3.32,3.32,0,0,1,3.1-1.86v1.41a4.11,4.11,0,0,0-2.25.68,2.69,2.69,0,0,0-.85,2.32V306Zm6.19-12.37a1,1,0,1,1,1,1A1,1,0,0,1,700.88,293.63Zm.27,12.37v-9.42h1.5V306Zm3.51-4.61v-.14c0-2.85,1.82-4.83,4.41-4.83,2.16,0,4.23,1.32,4.23,4.68v.49h-7.09c.07,2.14,1.1,3.33,3,3.33,1.44,0,2.31-.54,2.51-1.64h1.49c-.31,1.87-1.91,2.88-4,2.88A4.44,4.44,0,0,1,704.66,301.39Zm7.11-1c-.14-1.94-1.17-2.72-2.7-2.72a2.85,2.85,0,0,0-2.81,2.72Zm3.48,5.62v-9.42h1.49v1.7a3.3,3.3,0,0,1,3.1-1.86v1.41a4.08,4.08,0,0,0-2.25.68,2.69,2.69,0,0,0-.85,2.32V306Zm5.56-2.9h1.46c.09,1.1.7,1.82,2.21,1.82s2-.49,2-1.5-.75-1.31-2.19-1.58a6,6,0,0,1-2.56-.94,2.24,2.24,0,0,1-.72-1.83c0-1.73,1.69-2.65,3.19-2.65a4.08,4.08,0,0,1,2.23.61,2.68,2.68,0,0,1,1.17,2.11h-1.44a1.72,1.72,0,0,0-2-1.48c-1.08,0-1.78.54-1.78,1.35a1.09,1.09,0,0,0,.45,1,5.21,5.21,0,0,0,1.74.54c2,.34,3.31.81,3.31,2.79,0,1.71-1.17,2.86-3.45,2.86S720.9,305,720.81,303.1Z"/><path d="M23.5,184.5h116A23.5,23.5,0,0,1,163,208V323a23.5,23.5,0,0,1-23.5,23.5H23.5A23.5,23.5,0,0,1,0,323V208A23.5,23.5,0,0,1,23.5,184.5Z" fill="#fff"/><path d="M82,251.66h0a2.3,2.3,0,0,1,2.3,2.3h0a2.29,2.29,0,0,1-2.3,2.29h0A2.29,2.29,0,0,1,79.73,254h0A2.3,2.3,0,0,1,82,251.66Zm7.13,2.3h0a2.28,2.28,0,0,0,2.29,2.29h0A2.28,2.28,0,0,0,93.73,254h0a2.29,2.29,0,0,0-2.29-2.3h0A2.29,2.29,0,0,0,89.15,254Zm-9.42,8.2h0A2.3,2.3,0,0,0,82,264.45h0a2.3,2.3,0,0,0,2.3-2.29h0a2.3,2.3,0,0,0-2.3-2.3h0A2.3,2.3,0,0,0,79.73,262.16ZM70.37,254h0a2.29,2.29,0,0,0,2.29,2.29h0A2.29,2.29,0,0,0,75,254h0a2.3,2.3,0,0,0-2.29-2.3h0A2.3,2.3,0,0,0,70.37,254Zm0,8.2h0a2.3,2.3,0,0,0,2.29,2.29h0A2.3,2.3,0,0,0,75,262.16h0a2.3,2.3,0,0,0-2.29-2.3h0A2.3,2.3,0,0,0,70.37,262.16Zm0,8.19h0a2.3,2.3,0,0,0,2.29,2.3h0a2.3,2.3,0,0,0,2.29-2.3h0a2.3,2.3,0,0,0-2.29-2.29h0A2.3,2.3,0,0,0,70.37,270.35Zm18.78-8.19h0a2.29,2.29,0,0,0,2.29,2.29h0a2.29,2.29,0,0,0,2.29-2.29h0a2.29,2.29,0,0,0-2.29-2.3h0A2.29,2.29,0,0,0,89.15,262.16Zm-9.42,8.19h0a2.3,2.3,0,0,0,2.29,2.3h0a2.3,2.3,0,0,0,2.3-2.3h0a2.3,2.3,0,0,0-2.3-2.29h0A2.3,2.3,0,0,0,79.73,270.35Zm9.42,0h0a2.29,2.29,0,0,0,2.29,2.3h0a2.29,2.29,0,0,0,2.29-2.3h0a2.29,2.29,0,0,0-2.29-2.29h0A2.29,2.29,0,0,0,89.15,270.35Zm18.44-56v24.9a7.67,7.67,0,0,1-2.26,5.44,8.43,8.43,0,0,0-2.45,5.91V279a4.38,4.38,0,0,1-4.38,4.38H93.39v12.1a2,2,0,0,1-2,2H72.55a2,2,0,0,1-2-2v-12.1H65.58A4.38,4.38,0,0,1,61.2,279V250.63a8.4,8.4,0,0,0-2.44-5.91,7.62,7.62,0,0,1-2.26-5.44v-24.9A4.38,4.38,0,0,1,60.88,210H103.2A4.39,4.39,0,0,1,107.59,214.38Zm-33,79.07h3V283.39h-3Zm14.76-10.06h-7.6v10.06h7.6Zm14.2-69.33h-43v25.21a3.65,3.65,0,0,0,1.06,2.58,12.34,12.34,0,0,1,3.64,8.78v28.69H98.83V250.63a12.37,12.37,0,0,1,3.63-8.78,3.66,3.66,0,0,0,1.07-2.58ZM65.89,241.85v-21.5a2.1,2.1,0,0,1,2-2.17H96.18a2.1,2.1,0,0,1,2,2.17v21.5a2.11,2.11,0,0,1-2,2.18H67.92A2.11,2.11,0,0,1,65.89,241.85ZM70,239.68H94.16V222.53H70Z"/><path d="M51.12,318V305.13h7.51v1.24h-6v4.43h4.83V312H52.63v4.72H59V318Zm9-4.25v-1.4h3.85v1.4ZM66.28,318V305.13h3.85c2.39,0,4.12.81,4.12,3.33v.07a2.66,2.66,0,0,1-2,2.72c1.87.45,2.59,1.42,2.59,3.08v.07c0,2.43-1.67,3.6-4.21,3.6Zm1.49-7.24h2.36c1.89,0,2.65-.7,2.65-2.29v-.07c0-1.46-.89-2.09-2.69-2.09H67.77Zm0,6.05h2.86c1.88,0,2.78-.85,2.78-2.43v-.07c0-1.59-.9-2.36-3-2.36H67.77Zm9-11.18a1,1,0,1,1,1,1A1,1,0,0,1,76.75,305.63ZM77,318v-9.42h1.5V318Zm4.25,0V304.08h1.51V318Zm4.27,0V304.08h1.51V318Zm4-12.37a1,1,0,1,1,1,1A1,1,0,0,1,89.53,305.63ZM89.8,318v-9.42h1.5V318ZM94,318v-9.42h1.5v1.5a3.23,3.23,0,0,1,3-1.66c2,0,3.32,1.08,3.32,3.8V318h-1.5v-5.89c0-1.65-.7-2.39-2.21-2.39a2.47,2.47,0,0,0-2.63,2.57V318Zm11.09,2.57a3.22,3.22,0,0,1-1.17-2h1.53c.22,1.08,1.14,1.64,2.72,1.64,1.85,0,3-.88,3-2.9v-1.37a3.87,3.87,0,0,1-1.27,1.24,3.64,3.64,0,0,1-1.91.54,4.24,4.24,0,0,1-4.29-4.46v-.13a4.46,4.46,0,0,1,4.4-4.68,3.36,3.36,0,0,1,3.07,1.67v-1.51h1.5v8.79c0,2.74-1.91,4.07-4.5,4.07A4.66,4.66,0,0,1,105.1,320.57Zm5.26-5a3.34,3.34,0,0,0,.9-2.45V313c0-2.08-1.17-3.33-3-3.33s-3,1.41-3,3.37v.14a3.38,3.38,0,0,0,.85,2.42,2.81,2.81,0,0,0,2.05.86A3,3,0,0,0,110.36,315.57Z"/><path d="M112.5,487h116a24,24,0,0,1,24,24V627a24,24,0,0,1-24,24h-116a24,24,0,0,1-24-24V511A24,24,0,0,1,112.5,487Z" fill="#fff"/><path d="M200.69,600.79a9.62,9.62,0,0,1-8.33-14.45l.26-.45H174l.26.45a9.63,9.63,0,1,1-16.35-.51l.24-.36-.42-.1a17.12,17.12,0,0,1-12.83-14.66l-4.81-43a12.71,12.71,0,0,0-12.64-11.3h-1V512h1a17.06,17.06,0,0,1,17,15.18l.52,4.68h64.28a4.67,4.67,0,0,1,4.53,5.8l-6.51,26a9.61,9.61,0,0,1-9.35,7.3H149.35l.07.36a12.74,12.74,0,0,0,12.45,10.17h38.76a9.65,9.65,0,0,1,9.7,9.6v0A9.64,9.64,0,0,1,200.69,600.79Zm0-14.9a5.27,5.27,0,1,0,5.27,5.27,5.27,5.27,0,0,0-5.27-5.27Zm-34.76,0a5.27,5.27,0,1,0,5.27,5.27,5.28,5.28,0,0,0-5.27-5.27Zm24.53-19.26h7.45a5.25,5.25,0,0,0,5.1-4l2.26-9H190.46Zm-19.86,0h15.5v-13H170.6Zm-21.72,0h17.35v-13H147.46Zm41.58-17.38h15.9l3.25-13H190.46Zm-19.86,0h15.5v-13H170.6Zm-23.62,0h19.25v-13H145.56Z"/><path d="M120.12,623V610.13h7.51v1.24h-6v4.43h4.83V617h-4.83v4.72H128V623Zm8.95-4.25v-1.4h3.85v1.4Zm5.4-.36v-.15a4.57,4.57,0,0,1,4.57-4.82c2,0,3.8.9,4.09,3.29h-1.48a2.35,2.35,0,0,0-2.61-2.05,2.84,2.84,0,0,0-2.16,1,3.74,3.74,0,0,0-.87,2.61v.15c0,2.3,1.28,3.53,3.08,3.53a2.56,2.56,0,0,0,2.7-2.31h1.39a3.75,3.75,0,0,1-1.28,2.54,4.09,4.09,0,0,1-2.83,1A4.47,4.47,0,0,1,134.47,618.39Zm9.91,0v-.14a4.63,4.63,0,1,1,9.26,0v.14a4.63,4.63,0,1,1-9.26,0Zm7.71,0v-.13c0-2.16-1.21-3.58-3.08-3.58s-3.08,1.41-3.08,3.57v.14c0,2.14,1.19,3.55,3.08,3.55S152.09,620.48,152.09,618.37Zm3.53,4.63v-9.42h1.49V615a3.07,3.07,0,0,1,2.81-1.6,2.75,2.75,0,0,1,2.75,1.76,2.93,2.93,0,0,1,1.41-1.33,4.28,4.28,0,0,1,1.82-.43c1.67,0,3.16,1,3.16,3.74V623h-1.49v-5.94c0-1.66-.7-2.34-2-2.34a2.41,2.41,0,0,0-2.48,2.52V623h-1.5v-5.94c0-1.66-.7-2.34-2-2.34a2.41,2.41,0,0,0-2.48,2.52V623Zm16,0v-9.42h1.5V615a3.07,3.07,0,0,1,2.81-1.6,2.75,2.75,0,0,1,2.75,1.76,2.89,2.89,0,0,1,1.41-1.33,4.27,4.27,0,0,1,1.81-.43c1.68,0,3.17,1,3.17,3.74V623h-1.49v-5.94c0-1.66-.7-2.34-2-2.34a2.41,2.41,0,0,0-2.48,2.52V623h-1.5v-5.94c0-1.66-.7-2.34-2-2.34a2.41,2.41,0,0,0-2.48,2.52V623ZM187,618.39v-.15c0-2.84,1.82-4.82,4.41-4.82,2.16,0,4.23,1.31,4.23,4.68v.49h-7.09c.07,2.14,1.1,3.33,3,3.33,1.44,0,2.31-.54,2.5-1.64h1.5c-.31,1.87-1.91,2.88-4,2.88A4.43,4.43,0,0,1,187,618.39Zm7.11-1c-.14-1.94-1.17-2.72-2.7-2.72a2.84,2.84,0,0,0-2.81,2.72Zm3.47,5.62v-9.42h1.5v1.69a3.29,3.29,0,0,1,3.09-1.85v1.4a4.14,4.14,0,0,0-2.25.69,2.67,2.67,0,0,0-.84,2.32V623Zm5.46-4.61v-.15a4.57,4.57,0,0,1,4.57-4.82c2,0,3.8.9,4.09,3.29h-1.48a2.35,2.35,0,0,0-2.61-2.05,2.84,2.84,0,0,0-2.16,1,3.74,3.74,0,0,0-.86,2.61v.15c0,2.3,1.27,3.53,3.07,3.53a2.56,2.56,0,0,0,2.7-2.31h1.39a3.75,3.75,0,0,1-1.28,2.54,4.08,4.08,0,0,1-2.82,1A4.47,4.47,0,0,1,203,618.39Zm9.91,0v-.15c0-2.84,1.82-4.82,4.42-4.82,2.16,0,4.23,1.31,4.23,4.68v.49h-7.1c.07,2.14,1.1,3.33,3,3.33,1.44,0,2.3-.54,2.5-1.64h1.49c-.3,1.87-1.9,2.88-4,2.88A4.44,4.44,0,0,1,212.94,618.39Zm7.12-1c-.15-1.94-1.17-2.72-2.7-2.72a2.83,2.83,0,0,0-2.81,2.72Z"/><path d="M547.5,487h116a24,24,0,0,1,24,24V627a24,24,0,0,1-24,24h-116a24,24,0,0,1-24-24V511A24,24,0,0,1,547.5,487Z" fill="#fff"/><path d="M576.6,580.4a15.12,15.12,0,0,1-15.1-15.1,15.21,15.21,0,0,1,11.84-14.74,4.4,4.4,0,0,0,3.37-3.15,28.32,28.32,0,0,1,47.51-13.1,30.21,30.21,0,0,1,3.93,5,4.91,4.91,0,0,0,3.63,2.29,19.34,19.34,0,0,1,6.78,2.15l.49.24.16.11a19.34,19.34,0,0,1,4,3.07,19.46,19.46,0,0,1,0,27.56,19.23,19.23,0,0,1-13.78,5.72Zm27.59-50.6A24.19,24.19,0,0,0,586.86,537a24.46,24.46,0,0,0-6.47,11.34,8.18,8.18,0,0,1-6.25,5.94,11.44,11.44,0,0,0-8.84,11,11.32,11.32,0,0,0,11.3,11.3h52.8A15.46,15.46,0,0,0,640.48,572a15.67,15.67,0,0,0,0-22.22,15.27,15.27,0,0,0-3.67-2.72A17.89,17.89,0,0,0,611,562.81h-3.8a21.75,21.75,0,0,1,17.6-21l.44-.08-.24-.37A26.27,26.27,0,0,0,621.5,537a24.29,24.29,0,0,0-17.31-7.17Z"/><path d="M564.49,601.35v-.14a6.3,6.3,0,1,1,12.6,0v.15a6.3,6.3,0,1,1-12.6,0Zm11-.05v-.14c0-2.9-1.73-5.26-4.7-5.26s-4.77,2.21-4.77,5.29v.15c0,3.11,2.1,5.27,4.8,5.27C573.74,606.61,575.53,604.43,575.53,601.3Zm3.72,9.69v-12.7h1.49v1.59a3.49,3.49,0,0,1,1.28-1.21,3.64,3.64,0,0,1,1.91-.54c2.47,0,4.29,1.8,4.29,4.74V603c0,2.88-1.7,4.86-4.29,4.86a3.58,3.58,0,0,1-3.19-1.71V611Zm7.42-7.91v-.14a3.68,3.68,0,0,0-.87-2.67,2.7,2.7,0,0,0-2-.9c-1.73,0-3.08,1.17-3.08,3.57v.14c0,2.4,1.28,3.55,3.1,3.55S586.67,605.37,586.67,603.08Zm2.82,0V603c0-2.85,1.82-4.83,4.41-4.83,2.16,0,4.23,1.32,4.23,4.68v.49H591c.07,2.14,1.1,3.33,3,3.33,1.44,0,2.3-.54,2.5-1.64h1.49c-.3,1.87-1.91,2.88-4,2.88A4.44,4.44,0,0,1,589.49,603.1Zm7.11-1c-.14-1.94-1.17-2.72-2.7-2.72a2.85,2.85,0,0,0-2.81,2.72Zm3.48,5.62v-9.42h1.49v1.5a3.25,3.25,0,0,1,3-1.66c1.95,0,3.32,1.08,3.32,3.8v5.78h-1.5v-5.89c0-1.65-.7-2.39-2.21-2.39a2.47,2.47,0,0,0-2.63,2.57v5.71Zm14,0,4.45-12.87h2l4.37,12.87h-1.49L622.11,604h-5.37l-1.26,3.73Zm5.37-11.61-2.27,6.68h4.54Zm7.36,11.61V594.84h3.63c2.47,0,4.49,1.06,4.49,3.74v.07c0,2.74-2,3.8-4.49,3.8H628.3v5.26Zm1.51-6.46h2.23c1.86,0,2.87-.92,2.87-2.6v-.07c0-1.82-1.12-2.52-2.87-2.52H628.3Zm8.67,6.46V594.84h1.52v12.87Zm3.64-2.9h1.46c.09,1.1.7,1.82,2.21,1.82s2.06-.49,2.06-1.5-.76-1.31-2.2-1.58a6,6,0,0,1-2.56-.94,2.27,2.27,0,0,1-.72-1.83c0-1.73,1.69-2.65,3.19-2.65a4.06,4.06,0,0,1,2.23.61,2.63,2.63,0,0,1,1.17,2.11H646a1.72,1.72,0,0,0-2-1.48c-1.08,0-1.78.54-1.78,1.35a1.09,1.09,0,0,0,.45,1,5.2,5.2,0,0,0,1.75.54c1.94.34,3.31.81,3.31,2.79,0,1.71-1.17,2.86-3.46,2.86S640.7,606.74,640.61,604.81Z"/><path d="M611.5,251a13,13,0,1,1-13,13A13,13,0,0,1,611.5,251Z" fill="#1877f2"/><path d="M609.36,270.67l-1.42-1.42,5.38-5.37-5.38-5.37,1.42-1.42,6.78,6.79Z" fill="#fff"/><path d="M373.5,163a13,13,0,1,1,13,13A13,13,0,0,1,373.5,163Z" fill="#1877f2"/><path d="M391.75,166.56l-5.37-5.38L381,166.56l-1.42-1.42,6.79-6.79,6.79,6.79Z" fill="#fff"/><path d="M159.5,277a13,13,0,1,1,13-13A13,13,0,0,1,159.5,277Z" fill="#1877f2"/><path d="M161.64,270.9l-6.79-6.78,6.79-6.79,1.42,1.42-5.38,5.37,5.38,5.37Z" fill="#fff"/><path d="M523.14,562.29a13,13,0,1,1-13,13A13,13,0,0,1,523.14,562.29Z" fill="#1877f2"/><path d="M521,582l-1.42-1.42,5.38-5.37-5.38-5.37,1.42-1.42,6.78,6.79Z" fill="#fff"/><path d="M252.49,588.29a13,13,0,1,1,13-13A13,13,0,0,1,252.49,588.29Z" fill="#1877f2"/><path d="M254.64,582.19l-6.79-6.78,6.79-6.79,1.41,1.42-5.37,5.37,5.37,5.37Z" fill="#fff"/></svg>