<?xml version="1.0" encoding="utf-8"?>
<svg fill="#1877F2" version="1.1" xmlns="http://www.w3.org/2000/svg" xmlns:xlink="http://www.w3.org/1999/xlink" x="0px" y="0px" viewBox="0 0 200 200" xml:space="preserve">
	<path d="M39.7,26.2C54.1,16.6,71,11.6,88.4,11.6c16.1,0,31.9,4.4,45.6,12.7l-24.3,31.2c-6.6-3.2-13.7-4.8-21.1-4.8 c-7.8,0-15.5,1.9-22.4,5.4L39.7,26.2z"/>
	<path d="M88.4,188.4C39.7,188.4,0,148.8,0,100c0-16.3,4.4-32.1,12.8-45.9l30.9,27.6c-2.4,5.8-3.6,12-3.6,18.3 c0,4.8,0.7,9.6,2.1,14.1c6.2,20.5,24.8,34.2,46.2,34.2c8.2,0,16.3-2.1,23.5-6.1l0.2-0.1c0.2-0.1,0.3-0.2,0.5-0.3 c12.9-7.5,21.8-20.7,23.7-35.4l0.2-1.5h-22.2c-0.6,0-0.9-0.5-0.9-0.6c-0.1-0.2-0.2-0.7,0.2-1.1l0.1-0.1l44.5-57.5 c0.2-0.2,0.4-0.3,0.7-0.3c0.1,0,0.2,0,0.3,0.1c0.1,0,0.2,0.1,0.3,0.2l40.1,57.5l0.1,0.1c0.4,0.4,0.3,0.9,0.2,1.1 c-0.1,0.1-0.3,0.6-0.9,0.6h-22.3l-0.1,1.3c-1.5,22.3-11.4,43-27.8,58.3C132.4,179.9,111,188.4,88.4,188.4"/>
</svg>