<?xml version="1.0" encoding="utf-8"?>
<svg version="1.1" xmlns="http://www.w3.org/2000/svg" xmlns:xlink="http://www.w3.org/1999/xlink" x="0px" y="0px" viewBox="0 0 125.8 40" enable-background="new 0 0 125.8 40" xml:space="preserve">
<path d="M89.5,3.3c3.3-2.2,7.1-3.3,11-3.3c3.6,0,7.2,1,10.3,2.9l-5.5,7.1c-1.5-0.7-3.1-1.1-4.8-1.1c-1.8,0-3.5,0.4-5.1,1.2L89.5,3.3
	z M100.5,40c5.1,0,10-1.9,13.7-5.4c3.7-3.5,5.9-8.2,6.3-13.2l0-0.3h5c0.1,0,0.2-0.1,0.2-0.1c0,0,0-0.1,0-0.3l0,0l-9.1-13
	c0,0,0,0-0.1,0c0,0,0,0-0.1,0c0,0-0.1,0-0.1,0l-10.1,13l0,0c-0.1,0.1-0.1,0.2,0,0.3c0,0,0.1,0.1,0.2,0.1h5l0,0.4
	c-0.4,3.3-2.4,6.3-5.4,8c0,0-0.1,0-0.1,0.1l0,0c-1.6,0.9-3.5,1.4-5.3,1.4c-4.8,0-9-3.1-10.4-7.7c-0.3-1-0.5-2.1-0.5-3.2
	c0-1.4,0.3-2.8,0.8-4.1l-7-6.2c-1.9,3.1-2.9,6.7-2.9,10.4C80.5,31,89.5,40,100.5,40 M54.3,26.1c-0.5,0-0.8,0.1-1.1,0.4
	c-0.3,0.3-0.4,0.7-0.4,1.3s0.2,1,0.4,1.3c0.3,0.3,0.7,0.4,1.1,0.4h0.5c0.5,0,0.8-0.1,1.1-0.4c0.3-0.3,0.4-0.7,0.4-1.3
	c0-0.6-0.2-1-0.4-1.3C55.4,26,54.9,26.1,54.3,26.1 M66,11.1h0.5c0.5,0,0.8-0.1,1.1-0.4C67.8,10.4,68,10,68,9.4s-0.2-1-0.4-1.3
	c-0.3-0.3-0.7-0.4-1.1-0.4H66c-0.5,0-0.8,0.1-1.1,0.4c-0.3,0.3-0.4,0.7-0.4,1.3s0.2,1,0.4,1.3C65.2,11,65.5,11.1,66,11.1 M72.2,8.1
	c-0.3-0.3-0.7-0.4-1.1-0.4h-0.5c-0.5,0-0.8,0.1-1.1,0.4c-0.3,0.3-0.4,0.7-0.4,1.3s0.2,1,0.4,1.3s0.7,0.4,1.1,0.4h0.5
	c0.5,0,0.8-0.1,1.1-0.4c0.3-0.3,0.4-0.7,0.4-1.3S72.5,8.4,72.2,8.1 M67.5,13.4v5.8c0,0.5-0.4,0.9-0.9,0.9c-5.7,0-7,0.3-7.1-1.4h3.8
	v-3.6h-2c-0.9,0-1.7-0.2-2.4-0.6c-0.3-0.2-8.8-4.3-10.2-4.4c-1.5-0.1-2.4,0.6-2.7,1.5c-0.4,1-0.3,2.3-0.3,4.5h2.9v-2.6
	c3.7,1.7,6.7,3.2,9.2,4.6v0.1c-5.4,2.6-15.1,2.2-15.8,1.6c-0.3-0.3-0.5-0.8-0.5-1.5V5h-3.1v13.8c0,1.8,0.4,3.2,1.3,4
	c0.8,0.8,2.1,1.2,3.9,1.2h0l0,0c1.3,0,2.6,0,4,0c7.8,0,10-3.1,10.7-4.4c0.1,0,0.1,0,0.3,0.1c0.2,2.6,0.6,4.3,4.3,4.4l0,0
	c1.9,0,5.1,0.2,6.6-1.3c1.7-1.6,1.3-4.5,1.3-9.3C70.6,13.4,67.5,13.4,67.5,13.4z M35.3,13.2h-3.1v2.9v3.5c0,3.9,0.3,6.7-4.2,6.8h-1
	v3.9h1.1c1.2,0,2.2-0.2,3.1-0.6s1.7-0.9,2.3-1.6C36.1,25.1,35.3,21.4,35.3,13.2 M24.5,11.1H25c0.5,0,0.8-0.1,1.1-0.4
	c0.3-0.3,0.4-0.7,0.4-1.3s-0.2-1-0.4-1.3c-0.3-0.3-0.7-0.4-1.1-0.4h-0.5c-0.5,0-0.8,0.1-1.1,0.4c-0.3,0.3-0.4,0.7-0.4,1.3
	s0.2,1,0.4,1.3C23.6,11,24,11.1,24.5,11.1 M17.7,23.9c0.1,0.1,0.1,0.2,0.1,0.3c-1.8,1.4-4,1.9-8.1,1.9c-2.8,0-5.7-0.7-6.1-3.1
	c-0.2-1.7,0.7-2.6,1.5-3.1l-1.4-2.3C1,18.8-0.2,20.7,0,23.7c0.7,9.6,19.8,7.8,19.2,0.3c2.3,0,3.6,0,3.6,0c2.9,0,6.6-0.3,6.4-5.8v-5
	h-3.1v2.7c0,4,1,4.3-3.6,4.3c-3.4,0-8.4,0.2-11.4-1.5v3.8C12.2,23.2,16.4,23.7,17.7,23.9 M30.6,8c-0.3-0.3-0.7-0.4-1.1-0.4H29
	c-0.5,0-0.8,0.1-1.1,0.4c-0.3,0.3-0.4,0.7-0.4,1.3s0.2,1,0.4,1.3c0.3,0.3,0.7,0.4,1.1,0.4h0.5c0.5,0,0.8-0.1,1.1-0.4
	c0.3-0.3,0.4-0.7,0.4-1.3S30.9,8.3,30.6,8 M6.8,35h0.5c0.5,0,0.8-0.1,1.1-0.4c0.3-0.3,0.4-0.7,0.4-1.3s-0.2-1-0.4-1.3
	c-0.3-0.3-0.7-0.4-1.1-0.4H6.8c-0.5,0-0.8,0.1-1.1,0.4c-0.3,0.3-0.4,0.7-0.4,1.3s0.2,1,0.4,1.3C6,34.9,6.4,35,6.8,35 M13,31.9
	c-0.3-0.3-0.7-0.4-1.1-0.4h-0.5c-0.5,0-0.8,0.1-1.1,0.4c-0.3,0.3-0.4,0.7-0.4,1.3s0.2,1,0.4,1.3s0.7,0.4,1.1,0.4h0.5
	c0.5,0,0.8-0.1,1.1-0.4c0.3-0.3,0.4-0.7,0.4-1.3S13.3,32.2,13,31.9"/>
</svg>
