<?xml version="1.0" encoding="utf-8"?>
<svg version="1.1" xmlns="http://www.w3.org/2000/svg" xmlns:xlink="http://www.w3.org/1999/xlink" x="0px" y="0px" viewBox="0 0 155.8 40" enable-background="new 0 0 155.8 40" xml:space="preserve">
<path d="M9,3.3C12.2,1.2,16,0,20,0c3.6,0,7.2,1,10.3,2.9l-5.5,7.1c-1.5-0.7-3.1-1.1-4.8-1.1c-1.8,0-3.5,0.4-5.1,1.2L9,3.3z M20,40
	c5.1,0,10-1.9,13.7-5.4c3.7-3.5,5.9-8.2,6.3-13.2l0-0.3h5c0.1,0,0.2-0.1,0.2-0.1c0,0,0-0.1,0-0.3l0,0l-9.1-13c0,0,0,0-0.1,0
	c0,0,0,0-0.1,0c0,0-0.1,0-0.1,0l-10.1,13l0,0c-0.1,0.1-0.1,0.2,0,0.3c0,0,0.1,0.1,0.2,0.1h5l0,0.4c-0.4,3.3-2.4,6.3-5.4,8
	c0,0-0.1,0-0.1,0.1l0,0c-1.6,0.9-3.5,1.4-5.3,1.4c-4.8,0-9-3.1-10.4-7.7c-0.3-1-0.5-2.1-0.5-3.2c0-1.4,0.3-2.8,0.8-4.1l-7-6.2
	C1,12.8,0,16.3,0,20C0,31,9,40,20,40 M70.2,6.6H53.7v4.2h5.9v17.6h4.7V10.8h5.9V6.6z M83.9,14.1c-0.6-0.7-1.4-1.4-2.4-1.8
	c-1.9-0.9-5.8-1-7.8-0.1c-1,0.4-1.8,1-2.4,1.7c-0.7,0.7-1.2,1.6-1.5,2.7c-0.3,1.1-0.5,2.2-0.5,3.5c0,1.3,0.2,2.5,0.5,3.6
	c0.3,1.1,0.8,1.9,1.5,2.7c0.7,0.7,1.5,1.3,2.5,1.7c2.1,0.9,6.2,0.8,8.5-0.1c1.2-0.5,2.1-1.2,2.9-2l-2.3-2.9c-0.5,0.5-1.1,1-1.7,1.4
	c-1.3,0.8-5,0.8-6.2-0.4c-0.6-0.6-0.9-1.5-0.9-2.5v-0.2v0h1.4h0.8h9.4v-1.4c0-1.1-0.1-2.1-0.4-3.2C85,15.8,84.5,14.9,83.9,14.1z
	 M80.9,18.6h-4.7h-0.8H74v-0.2c0-4,4.8-4.3,6.2-2.4c0.4,0.6,0.7,1.4,0.7,2.4V18.6z M100.5,9.4c-0.7,0.6-0.6,1.7-0.6,2.5
	c-0.8-0.2-2.4-0.4-4-0.3c-2.2,0.1-4.7,0.5-5.9,1.5c-1.2,1-1.7,2.3-1.7,4c0,2.1,0.9,3.8,2.9,4.7V22c-3.7,0.8-3.4,3.5-2.5,4.8
	c0.4,0.5,1,0.9,1.8,1v0.3c-1.8,0.2-3.1,1.2-3.1,3.1c0,1.3,0.6,2.2,1.8,2.8c2.5,1.3,7.9,1.1,10.2,0.6c2.9-0.6,4.7-2.1,4.7-5.1
	c0-1.5-0.4-2.7-1.4-3.5c-0.9-0.8-2.3-1.3-4.3-1.3h-4.7c-0.7,0-1.2-0.1-1.5-0.3c-0.3-0.2-0.4-0.5-0.4-0.9c0-0.6,0.2-1,0.7-1.3
	c2,0.5,11.7,1.5,11.7-5.1c0-2.1-0.9-3.8-2.8-4.7v-0.1h3.7V8.9h-2.6C101.5,8.9,100.9,9.1,100.5,9.4z M97.1,28.7c1,0,1.6,0.1,2,0.4
	c0.4,0.2,0.6,0.6,0.6,1.1c0,2-2.7,1.7-5.3,1.7c-1.6,0-3.4-0.1-3.4-1.7c0-0.5,0.2-1.1,0.6-1.5H97.1z M96.2,19.4
	c-2.5-0.1-3.8-0.2-3.8-2.5c0.1-2,1.4-2.3,3.7-2.3c2.2,0,3.6,0.5,3.6,2.4C99.7,19.3,98.3,19.5,96.2,19.4z M132.2,12.3
	c-0.5,0.2-0.9,0.5-1.2,0.8c-0.3,0.3-0.6,0.7-0.8,1.1c-0.2,0.4-0.3,0.9-0.4,1.3h-0.2V12h-4.6v16.4h4.6v0v-9.5c0-1,0.3-1.6,1-2
	c0.6-0.3,1.7-0.5,3-0.5h1.2V12h-0.8C133.2,12,132.7,12.1,132.2,12.3z M143.7,7.6h-4.1v2.7c0,0.6-0.1,1-0.3,1.3
	c-0.2,0.3-0.6,0.4-1.3,0.4h-1.2v3.6h2.3v8c0,1.6,0.4,2.7,1.2,3.6c0.8,0.8,2,1.2,3.6,1.2h2.7v0v-3.6h-3v-9.2h3.2V12h-3.2V7.6z
	 M150.8,28.3h4.6V12h-4.6V28.3z M155.1,5.6c-0.4-0.4-1.1-0.6-2-0.6c-1,0-1.6,0.2-2,0.6c-0.4,0.4-0.6,1-0.6,1.6V8
	c0,0.7,0.2,1.2,0.6,1.6c0.4,0.4,1.1,0.6,2,0.6c1,0,1.6-0.2,2-0.6c0.4-0.4,0.6-1,0.6-1.6V7.3C155.8,6.6,155.6,6.1,155.1,5.6z
	 M120.8,17.6c0-1.9-0.6-3.4-1.7-4.4c-2.3-2-8.3-1.9-10.5-0.7c-1,0.5-1.8,1.3-2.5,2.3l2.7,2.4c0.3-0.5,0.8-0.9,1.3-1.3
	c1.3-1,4.6-0.7,5.4,0.1c0.7,0.8,0.6,1.8,0.6,2.9c-3.5,0-10.7-0.7-10.7,5.1c0,1.4,0.4,2.5,1.3,3.4c2.2,2.3,7.2,1,8,0.5
	c0.8-0.5,1.4-1.4,1.7-2.4h0.2c0.3,1.7,1.4,2.9,3.1,2.9h2.5v-3.6h-1.5V17.6z M116.2,23.4c0,0.7-0.3,1.3-0.8,1.6
	c-1.4,0.8-4,0.6-4.7,0.1c-0.6-0.4-0.6-1.2-0.6-1.8c0-2.1,2.5-1.8,6.1-1.8V23.4z"/>
</svg>