<?xml version="1.0" encoding="utf-8"?>
<!-- Generator: Adobe Illustrator 24.3.0, SVG Export Plug-In . SVG Version: 6.00 Build 0)  -->
<svg version="1.1" id="Layer_1" xmlns="http://www.w3.org/2000/svg" xmlns:xlink="http://www.w3.org/1999/xlink" x="0px" y="0px"
	 viewBox="0 0 685.5 523.4" enable-background="new 0 0 685.5 523.4" xml:space="preserve">
<path fill="#DEEBF5" d="M656.2,0H29.3C13.1,0,0,13.1,0,29.3v464.8c0,16.2,13.1,29.3,29.3,29.3h626.9c16.2,0,29.3-13.1,29.3-29.3
	V29.3C685.4,13.1,672.3,0,656.2,0z M21.8,29.3c0-4.2,3.4-7.5,7.5-7.5h626.9c4.2,0,7.5,3.4,7.5,7.5v464.8c0,4.2-3.4,7.5-7.5,7.5H29.3
	c-4.2,0-7.5-3.4-7.5-7.5V29.3z"/>
</svg>
