<?xml version="1.0" encoding="utf-8"?>
<svg version="1.1" xmlns="http://www.w3.org/2000/svg" xmlns:xlink="http://www.w3.org/1999/xlink" x="0px" y="0px" viewBox="0 0 50.9 61" xml:space="preserve">
<path fill="#1877F2" d="M31.6,6.3c7.8,0,13.1,7.4,12.2,14.8C43,27.3,37.7,31.9,31.5,32h-7.3V39h7.3c8.6-0.1,16.1-5.7,18.6-14c0.8-2.5,1-5.2,0.7-7.9
	c-0.2-1.8-0.7-3.5-1.3-5.1c-2.2-5.5-6.8-9.7-12.5-11.3c-4.3-1.2-8.9-1-13.1,0.6c-2.2,0.8-4.2,2.1-5.9,3.6c-1,0.9-1.9,2-2.6,3.2h9.8
	C26.9,7,29.2,6.3,31.6,6.3L31.6,6.3z M16.3,29.6v10.7c1.6,0.4,3.6,0.9,5.8,1.7V29.6c8.6-1.3,15.3-8.3,16.3-16.9
	c0.1-1.1-0.6-2-1.7-2.1c-0.1,0-0.1,0-0.2,0H1.9c-1.1,0-1.9,0.9-1.9,1.9c0,0.1,0,0.1,0,0.2C1,21.3,7.7,28.3,16.3,29.6z M24.9,61
	c0.5,0,1-0.4,1-1c0-0.1,0-0.1,0-0.2c-0.3-1.6-1.2-3.1-2.5-4.2c-0.2-0.2-0.4-0.3-0.6-0.4c-0.2-0.1-0.4-0.2-0.6-0.4v-1.3
	c-1.9-0.7-3.8-1.3-5.8-1.8v3.1c-0.2,0.1-0.4,0.2-0.6,0.4c-0.2,0.1-0.4,0.3-0.6,0.4c-1.3,1-2.2,2.5-2.5,4.2c-0.1,0.5,0.3,1,0.8,1.1
	c0.1,0,0.1,0,0.2,0H24.9z M14,39.1V32c-4.6,0.2-7.4,4-7.4,8.7c0,3,1.6,5.8,4.1,7.4c1.3,0.7,2.6,1.2,4,1.4h0
	c6.3,1.6,12.7,4.2,17.6,8.5c1.5,1.3,3.7,1.1,5-0.4c0,0,0,0,0,0c0.1-0.1,0.2-0.2,0.2-0.3c0.1-0.2,0.2-0.3,0.3-0.5
	c0-0.1,0.1-0.1,0.1-0.2c0.1-0.1,0.1-0.3,0.1-0.4c0.3-1.3-0.1-2.7-1.1-3.5c-4.4-3.7-9.5-6.5-15-8.3c-1.7-0.6-3.4-1.1-5.1-1.5
	c-0.6-0.2-1.3-0.3-1.9-0.5C12.2,41.6,12.2,39.5,14,39.1L14,39.1z"/>
</svg>